<svg id="Capa_1" enable-background="new 0 0 512 512" height="512" viewBox="0 0 512 512" width="512" xmlns="http://www.w3.org/2000/svg"><g><path d="m76.645 353.145c-20.991 20.991-20.625 58.847.249 96.918-10.328 13.095-15.894 30.033-15.894 46.937 0 8.291 6.709 15 15 15h75l30-26.25v-111.687l-30-30.542c-30.132-10.518-57.422-7.31-74.355 9.624z" fill="#5ab267"/><path d="m435.106 450.063c20.874-38.071 21.24-75.927.249-96.918-16.963-16.963-44.224-20.142-74.355-9.624l-30 30.542v116.375l30 21.562h75c8.291 0 15-6.709 15-15 0-16.904-5.566-33.842-15.894-46.937z" fill="#288c64"/><path d="m349.501 267.202h-93.501-93.501c-7.529 14.649-11.499 31.187-11.499 47.798v197h60l15-30 15 30h15 15l15-30 15 30h60v-197c0-16.611-3.97-33.149-11.499-47.798z" fill="#8cd96b"/><path d="m286 482 15 30h60v-197c0-16.611-3.97-33.149-11.499-47.798h-93.501v244.798h15z" fill="#5ab267"/><path d="m421.901 150h-165.901-165.901l-29.099 30c0 67.2 85.499 120 195 120s195-52.8 195-120z" fill="#fff5f5"/><path d="m451 180-29.099-30h-165.901v150c109.501 0 195-52.8 195-120z" fill="#efe2dd"/><path d="m444.699 150c-5.999-15-16.8-29.399-31.8-41.7 5.4-10.199 8.101-21.6 8.101-33.3 0-41.4-33.6-75-75-75-36 0-66 25.499-73.2 60.601-5.484-.458-11.122-.599-16.8-.555-5.5.044-11.038.26-16.5.555-6.601-34.501-37.199-60.601-73.5-60.601-41.4 0-75 33.6-75 75 0 11.7 2.701 23.101 8.101 33.3-15 12.301-25.801 26.7-31.8 41.7-4.201 9.6-6.301 19.799-6.301 30h59.099c27.301 0 56.102 6.899 91.501 21.899 12.6 5.102 28.201 8.101 44.4 8.101s31.8-2.999 44.399-8.101c35.4-15 64.2-21.899 91.501-21.899h59.1c0-10.201-2.1-20.4-6.301-30z" fill="#8cd96b"/><path d="m391.901 180h59.099c0-10.201-2.1-20.4-6.301-30-5.999-15-16.8-29.399-31.8-41.7 5.4-10.199 8.101-21.6 8.101-33.3 0-41.4-33.6-75-75-75-36 0-66 25.499-73.2 60.601-5.484-.458-11.122-.599-16.8-.555v149.954c16.199 0 31.8-2.999 44.399-8.101 35.4-15 64.201-21.899 91.502-21.899z" fill="#5ab267"/><path d="m226 360c-8.291 0-15 6.709-15 15v137h30v-137c0-8.291-6.709-15-15-15z" fill="#5ab267"/><path d="m286 360c-8.291 0-15 6.709-15 15v137h30v-137c0-8.291-6.709-15-15-15z" fill="#288c64"/><circle cx="346" cy="75" fill="#5b362a" r="15"/><circle cx="166" cy="75" fill="#704c55" r="15"/></g></svg>