<?xml version="1.0" encoding="iso-8859-1"?>
<!-- Generator: Adobe Illustrator 18.0.0, SVG Export Plug-In . SVG Version: 6.00 Build 0)  -->
<!DOCTYPE svg PUBLIC "-//W3C//DTD SVG 1.1//EN" "http://www.w3.org/Graphics/SVG/1.1/DTD/svg11.dtd">
<svg version="1.1" id="Capa_1" xmlns="http://www.w3.org/2000/svg" xmlns:xlink="http://www.w3.org/1999/xlink" x="0px" y="0px"
	 viewBox="0 0 413.69 413.69" style="enable-background:new 0 0 413.69 413.69;" xml:space="preserve">
<path d="M364.811,194.465c-35.416-53.085-92.041-87.727-155.818-95.436l-0.593-0.593c0.67-0.56,1.33-1.16,1.96-1.79
	c12.53-12.53,12.53-32.93,0-45.46c-6.07-6.07-14.15-9.41-22.73-9.41c-8.59,0-16.66,3.34-22.73,9.41c-3.09,3.09-5.48,6.7-7.08,10.64
	c-9.05-2.95-18.61-4.48-28.41-4.48c-16.324,0-31.985,4.268-45.743,12.237c-0.93-6.942-4.082-13.359-9.12-18.396
	c-6.071-6.071-14.143-9.415-22.729-9.415c-8.585,0-16.657,3.344-22.728,9.415c-6.071,6.071-9.415,14.143-9.415,22.729
	c0,8.586,3.343,16.658,9.414,22.729c4.132,4.132,9.193,6.997,14.71,8.408L0,148.847l64.71,64.71
	c15.447,15.447,35.453,24.669,56.98,26.458v69.052c-22.915,4.036-41,25.006-41,49.371v13.48h125.384
	c6.363,0,12.34-1.525,17.651-4.263v4.263h145.089c24.745,0,44.876-20.131,44.876-44.876v-71.038
	C413.69,226.082,392.78,200.97,364.811,194.465z M176.21,62.497c3.05-3.04,7.11-4.72,11.42-4.72s8.36,1.68,11.41,4.72
	c6.3,6.3,6.3,16.54,0,22.84c-0.64,0.63-1.31,1.2-2.03,1.71c-2.71,1.96-5.97,3.01-9.38,3.01c-4.31,0-8.37-1.68-11.42-4.73
	c-3.05-3.04-4.73-7.1-4.73-11.41c0-2.02,0.37-3.98,1.08-5.8C173.35,66.027,174.59,64.117,176.21,62.497z M155.75,78.057
	c0.89,7.02,4.07,13.51,9.15,18.59c6.07,6.07,14.14,9.41,22.73,9.41c1.8,0,3.58-0.15,5.32-0.45l37.31,37.31H28.56l47.46-47.46
	c14.26-14.26,33.22-22.11,53.39-22.11C138.54,73.347,147.43,74.957,155.75,78.057z M35.676,73.917c0-4.312,1.679-8.366,4.728-11.415
	c3.049-3.049,7.103-4.728,11.415-4.728c4.312,0,8.366,1.679,11.415,4.728c3.049,3.049,4.729,7.103,4.729,11.415
	s-1.679,8.366-4.729,11.415c-3.049,3.049-7.103,4.729-11.415,4.729c-4.312,0-8.365-1.679-11.415-4.729
	C37.355,82.282,35.676,78.229,35.676,73.917z M32.7,158.917h193.42l-43.32,43.32c-14.26,14.27-33.22,22.12-53.39,22.12
	c-20.17,0-39.13-7.85-53.39-22.12L32.7,158.917z M96.784,355.917c1.297-17.345,15.838-31.55,32.906-31.55h8v-29.124
	c5.678,11.04,12.928,21.35,21.64,30.673c-6.691,8.029-10.675,17.938-11.476,28.536c-2.532,0.965-5.212,1.464-8.014,1.464H96.784z
	 M206.074,355.917h-42.299c1.211-17.883,15.232-32,32.915-32h8v-99h-16v84.1c-6.152,1.008-11.988,3.187-17.264,6.414
	c-19.628-20.812-30.955-47.251-32.365-75.586c20.792-2.167,40.065-11.304,55.049-26.288l64.71-64.71l-30.166-30.16
	c46.141,10.627,86.923,36.812,115.551,74.439c-31.9,3.169-56.899,30.157-56.899,62.877v62.825h-18.492
	c-8.037,0-15.583,2.123-22.124,5.824V190.917h-16v136.591C230.69,345.291,218.174,355.917,206.074,355.917z M397.69,327.041
	c0,15.922-12.954,28.876-28.876,28.876H343.69v-114h-16v114h-86.846c3.483-12.162,14.704-21.089,27.97-21.089h34.492v-78.825
	c0-26.021,21.17-47.192,47.192-47.192s47.192,21.17,47.192,47.192V327.041z"/>
<g>
</g>
<g>
</g>
<g>
</g>
<g>
</g>
<g>
</g>
<g>
</g>
<g>
</g>
<g>
</g>
<g>
</g>
<g>
</g>
<g>
</g>
<g>
</g>
<g>
</g>
<g>
</g>
<g>
</g>
</svg>
