<svg xmlns="http://www.w3.org/2000/svg" xmlns:xlink="http://www.w3.org/1999/xlink" version="1.1" x="0px" y="0px" viewBox="0 0 100 125" enable-background="new 0 0 100 100" xml:space="preserve"><g><path d="M17.738,65.691c1.761,7.066,9.504,14.81,16.571,16.571c0.062,0.015,0.123,0.027,0.187,0.034   C39.64,82.904,44.855,83.211,50,83.211s10.36-0.308,15.504-0.915c0.063-0.007,0.125-0.019,0.187-0.034   c7.067-1.761,14.811-9.504,16.571-16.571c0.016-0.062,0.027-0.124,0.034-0.187c1.216-10.288,1.216-20.721,0-31.009   c-0.007-0.063-0.019-0.125-0.034-0.187c-1.761-7.066-9.504-14.81-16.571-16.571c-0.062-0.015-0.123-0.027-0.187-0.034   c-10.287-1.215-20.721-1.215-31.008,0c-0.063,0.007-0.125,0.019-0.187,0.034c-7.067,1.761-14.811,9.504-16.571,16.571   c-0.016,0.062-0.027,0.124-0.034,0.187c-1.216,10.288-1.216,20.721,0,31.009C17.711,65.567,17.723,65.63,17.738,65.691z    M65.055,79.329c-9.99,1.172-20.119,1.172-30.109,0c-5.976-1.54-12.734-8.298-14.273-14.273c-0.185-1.569-0.329-3.143-0.455-4.718   c6.572,0.195,9.989,1.955,13.592,3.813c3.97,2.049,8.075,4.167,16.191,4.167s12.222-2.118,16.191-4.167   c3.603-1.859,7.02-3.619,13.592-3.813c-0.126,1.575-0.271,3.148-0.455,4.718C77.789,71.031,71.03,77.789,65.055,79.329z    M20.672,34.944c1.539-5.975,8.298-12.733,14.273-14.273c9.99-1.172,20.119-1.172,30.109,0c5.976,1.54,12.734,8.298,14.273,14.273   c0.872,7.425,1.093,14.926,0.669,22.391c-7.447,0.17-11.381,2.19-15.181,4.15c-3.82,1.971-7.429,3.833-14.816,3.833   s-10.996-1.862-14.816-3.833c-3.8-1.96-7.733-3.98-15.181-4.15C19.579,49.871,19.8,42.369,20.672,34.944z"/><path d="M31.465,48.695c4.852,0,8.799-3.948,8.799-8.8c0-4.851-3.947-8.798-8.799-8.799c-4.851,0-8.799,3.947-8.801,8.8   C22.666,44.748,26.614,48.695,31.465,48.695z M31.465,45.695c-1.283,0-2.467-0.424-3.429-1.133   c0.073,0.011,0.144,0.042,0.218,0.042c0.384,0,0.768-0.146,1.061-0.439l1.516-1.515c0.918,0.21,1.92-0.036,2.635-0.751   c0.717-0.715,0.962-1.717,0.752-2.636l1.516-1.516c0.351-0.351,0.466-0.828,0.396-1.283c0.71,0.962,1.135,2.146,1.135,3.431   C37.264,43.093,34.662,45.695,31.465,45.695z M31.465,34.096c1.283,0,2.467,0.425,3.429,1.133   c-0.455-0.069-0.932,0.046-1.282,0.396l-1.517,1.517c-0.919-0.209-1.92,0.036-2.636,0.751c-0.715,0.715-0.96,1.715-0.75,2.634   l-1.516,1.516c-0.35,0.349-0.465,0.824-0.397,1.278c-0.707-0.961-1.131-2.144-1.132-3.425   C25.666,36.698,28.268,34.096,31.465,34.096z"/><path d="M68.537,48.695c4.85,0,8.797-3.947,8.799-8.799c0-4.851-3.948-8.799-8.801-8.8c-4.852,0.001-8.799,3.949-8.799,8.8   C59.736,44.748,63.685,48.695,68.537,48.695z M74.336,39.896c-0.001,1.284-0.426,2.468-1.135,3.43   c0.068-0.455-0.046-0.932-0.396-1.282l-1.516-1.517c0.209-0.918-0.037-1.92-0.752-2.636c-0.715-0.715-1.716-0.96-2.634-0.75   l-1.515-1.516c-0.351-0.35-0.826-0.465-1.281-0.396c0.962-0.708,2.145-1.132,3.428-1.133   C71.733,34.097,74.336,36.699,74.336,39.896z M63.871,36.465c-0.068,0.455,0.046,0.932,0.396,1.282l1.515,1.515   c-0.21,0.918,0.036,1.92,0.751,2.635s1.716,0.961,2.635,0.751l1.516,1.517c0.293,0.293,0.677,0.439,1.061,0.439   c0.075,0,0.147-0.032,0.222-0.043c-0.962,0.709-2.146,1.134-3.429,1.134c-3.198,0-5.801-2.602-5.801-5.799   C62.736,38.611,63.161,37.427,63.871,36.465z"/><circle cx="43.006" cy="55.516" r="1.492"/><circle cx="56.994" cy="55.516" r="1.492"/></g><text x="0" y="115" fill="#000000" font-size="5px" font-weight="bold" font-family="'Helvetica Neue', Helvetica, Arial-Unicode, Arial, Sans-serif">Created by Linseed Studio</text><text x="0" y="120" fill="#000000" font-size="5px" font-weight="bold" font-family="'Helvetica Neue', Helvetica, Arial-Unicode, Arial, Sans-serif">from the Noun Project</text></svg>