<svg xmlns:x="http://ns.adobe.com/Extensibility/1.0/" xmlns:i="http://ns.adobe.com/AdobeIllustrator/10.0/" xmlns:graph="http://ns.adobe.com/Graphs/1.0/" xmlns="http://www.w3.org/2000/svg" xmlns:xlink="http://www.w3.org/1999/xlink" version="1.1" x="0px" y="0px" viewBox="0 0 2834.65 3543.3125" enable-background="new 0 0 2834.65 2834.65" xml:space="preserve"><metadata><sfw xmlns="http://ns.adobe.com/SaveForWeb/1.0/"><slices/><sliceSourceBounds height="2834.65" width="2834.65" x="-0.65" y="-2834.65" bottomLeftOrigin="true"/></sfw></metadata><rect x="-0.65" fill="none" width="2834.65" height="2834.65"/><path d="M2454.945,1847.384c-4.303,0-8.371,0.936-12.043,2.609l-114.789-58.295l106.671-29.799c5.22,5.058,12.33,8.172,20.161,8.172  c16.002,0,28.998-12.979,28.998-28.99s-12.996-28.999-28.998-28.999c-9.685,0-18.235,4.753-23.51,12.043l-116.193,32.14l49.79-94.35  c13.626-2.367,23.995-14.247,23.995-28.558c0-16.012-12.979-28.99-28.999-28.99s-28.981,12.979-28.981,28.99  c0,4.481,1.008,8.712,2.809,12.501l-63.722,94.305l-328.51,215.781l77.313-151.366c177.143-322.065-215.79-148.153-215.79-148.153  c41.869-112.719-9.667-428.34-9.667-428.34c180.365,141.709,318.861-273.752,318.861-273.752l146.398-98.607  c3.024,1.063,6.265,1.647,9.63,1.647c16.021,0,28.999-12.979,28.999-28.99s-12.979-28.999-28.999-28.999  c-15.948,0-28.873,12.88-28.98,28.811l-143.158,87.482l92.9-168.899c10.584-4.32,18.037-14.706,18.037-26.848  c0-16.012-12.979-28.989-28.981-28.989c-16.021,0-28.999,12.978-28.999,28.989c0,1.846,0.181,3.646,0.522,5.392l-98.571,171.031  l-16.884-166.01c3.401-4.752,5.399-10.565,5.399-16.857c0-16.011-12.96-28.989-28.98-28.989s-28.98,12.979-28.98,28.989  c0,8.146,3.348,15.499,8.748,20.764l22.051,165.326l-48.313,141.709c-77.294,206.124-167.459,67.637-167.459,67.637  c45.073-173.912-103.071-257.65-103.071-257.65c-32.221-64.415-57.961-32.212-57.961-32.212  c-67.646-106.275-147.533-80.517-147.533-80.517l-71.479-3.213l-71.48,3.213c0,0-79.886-25.759-147.532,80.517  c0,0-25.759-32.203-57.961,32.212c0,0-148.145,83.738-103.071,257.65c0,0-90.183,138.487-167.477-67.637L820.84,899.575  l22.068-165.326c5.4-5.265,8.748-12.618,8.748-20.764c0-16.011-12.979-28.989-28.98-28.989c-16.021,0-28.999,12.979-28.999,28.989  c0,6.292,1.998,12.105,5.418,16.857l-16.885,166.01l-98.57-171.031c0.324-1.746,0.504-3.546,0.504-5.392  c0-16.012-12.96-28.989-28.98-28.989s-28.999,12.978-28.999,28.989c0,12.142,7.47,22.527,18.055,26.848l92.9,168.899  l-143.158-87.482c-0.108-15.931-13.051-28.811-28.999-28.811c-16.002,0-28.999,12.987-28.999,28.999s12.997,28.99,28.999,28.99  c3.385,0,6.624-0.585,9.631-1.647l146.416,98.607c0,0,138.496,415.461,318.843,273.752c0,0-51.535,315.621-9.666,428.34  c0,0-392.915-173.912-215.772,148.153l77.295,151.366l-328.51-215.781l-63.722-94.305c1.817-3.789,2.826-8.02,2.826-12.501  c0-16.012-12.979-28.99-28.981-28.99c-16.021,0-28.999,12.979-28.999,28.99c0,14.311,10.351,26.19,23.995,28.558l49.789,94.35  l-116.193-32.14c-5.273-7.29-13.842-12.043-23.526-12.043c-16.003,0-28.98,12.987-28.98,28.999s12.978,28.99,28.98,28.99  c7.849,0,14.958-3.114,20.179-8.172l106.653,29.799l-114.79,58.295c-3.653-1.674-7.74-2.609-12.042-2.609  c-16.003,0-28.98,12.979-28.98,28.989c0,16.012,12.978,28.99,28.98,28.99c12.601,0,23.311-8.028,27.325-19.243l128.505-55.774  l327.574,209.337c0,0,274.688,225.448,284.354,32.213l-57.979-199.681c0,0,169.438,125.599,257.029,125.599  c0,0-9.036,61.193,36.037,61.193h35.443h35.425c45.092,0,36.055-61.193,36.055-61.193c87.591,0,257.012-125.599,257.012-125.599  l-57.962,199.681c9.667,193.235,284.337-32.213,284.337-32.213l327.592-209.337l128.505,55.774  c3.996,11.215,14.725,19.243,27.308,19.243c16.002,0,28.998-12.979,28.998-28.99  C2483.943,1860.362,2470.947,1847.384,2454.945,1847.384z"/><text x="0" y="2849.65" fill="#000000" font-size="5px" font-weight="bold" font-family="'Helvetica Neue', Helvetica, Arial-Unicode, Arial, Sans-serif">Created by Marco Livolsi</text><text x="0" y="2854.65" fill="#000000" font-size="5px" font-weight="bold" font-family="'Helvetica Neue', Helvetica, Arial-Unicode, Arial, Sans-serif">from the Noun Project</text></svg>