<svg id="Capa_1" enable-background="new 0 0 512 512" height="512" viewBox="0 0 512 512" width="512" xmlns="http://www.w3.org/2000/svg"><g><path d="m207.997 90h-11.997c-24.814 0-45-20.186-45-45s20.186-45 45-45c8.291 0 15 6.709 15 15s-6.709 15-15 15c-8.276 0-15 6.724-15 15s6.724 15 15 15h11.997c8.291 0 15 6.709 15 15s-6.709 15-15 15z" fill="#5b362a"/><path d="m204.027 211h-68.027c-5.684 0-10.869-3.208-13.418-8.291l-46.582-93.164c-5.713-11.441-17.212-18.545-30-18.545-8.291 0-15-6.709-15-15s6.709-15 15-15c24.229 0 46.011 13.462 56.836 35.127l42.436 84.873h58.755c8.291 0 15 6.709 15 15s-6.709 15-15 15z" fill="#5b362a"/><path d="m46 331c-8.291 0-15-6.709-15-15s6.709-15 15-15c15.117 0 29.912-6.123 40.605-16.816l38.789-38.789c2.813-2.813 6.622-4.395 10.606-4.395h68.027c8.291 0 15 6.709 15 15s-6.709 15-15 15h-61.816l-34.395 34.395c-16.274 16.274-38.803 25.605-61.816 25.605z" fill="#5b362a"/><g fill="#38211a"><path d="m316 90h-11.997c-8.291 0-15-6.709-15-15s6.709-15 15-15h11.997c8.276 0 15-6.724 15-15s-6.724-15-15-15c-8.291 0-15-6.709-15-15s6.709-15 15-15c24.814 0 45 20.186 45 45s-20.186 45-45 45z"/><path d="m376 211h-68.027c-8.291 0-15-6.709-15-15s6.709-15 15-15h58.755l42.437-84.873c10.824-21.665 32.606-35.127 56.835-35.127 8.291 0 15 6.709 15 15s-6.709 15-15 15c-12.788 0-24.287 7.104-30 18.545l-46.582 93.164c-2.549 5.083-7.734 8.291-13.418 8.291z"/><path d="m466 331c-23.013 0-45.542-9.331-61.816-25.605l-34.395-34.395h-61.816c-8.291 0-15-6.709-15-15s6.709-15 15-15h68.027c3.984 0 7.793 1.582 10.605 4.395l38.789 38.789c10.694 10.693 25.489 16.816 40.606 16.816 8.291 0 15 6.709 15 15s-6.709 15-15 15z"/><path d="m436 512c-24.507 0-45.776-17.432-50.596-41.47l-21.709-109.53h-51.108c-8.291 0-15-6.709-15-15s6.709-15 15-15h63.413c7.148 0 13.301 5.054 14.707 12.056l24.111 121.586c2.022 10.048 10.928 17.358 21.182 17.358 8.291 0 15 6.709 15 15s-6.709 15-15 15z"/></g><path d="m76 512c-8.291 0-15-6.709-15-15s6.709-15 15-15c10.254 0 19.16-7.31 21.182-17.358l24.111-121.586c1.406-7.002 7.559-12.056 14.707-12.056h63.413c8.291 0 15 6.709 15 15s-6.709 15-15 15h-51.108l-21.709 109.53c-4.82 24.038-26.089 41.47-50.596 41.47z" fill="#5b362a"/><path d="m256 30c-41.353 0-75 41.371-75 91 0 60 48.794 60 75 60s75 0 75-60c0-49.629-33.647-91-75-91z" fill="#f03800"/><path d="m331 121c0-49.629-33.647-91-75-91v151c26.206 0 75 0 75-60z" fill="#cd0000"/><circle cx="256" cy="226" fill="#ff641a" r="75"/><path d="m331 226c0-41.353-33.647-75-75-75v150c41.353 0 75-33.647 75-75z" fill="#f03800"/><path d="m256 271c-42.056 0-75 46.128-75 105s32.944 106 75 106 75-47.128 75-106-32.944-105-75-105z" fill="#704c55"/><path d="m331 376c0-58.872-32.944-105-75-105v211c42.056 0 75-47.128 75-106z" fill="#5b362a"/></g></svg>