<svg height="512" viewBox="0 0 58 58" width="512" xmlns="http://www.w3.org/2000/svg"><g id="Page-1" fill="none" fill-rule="evenodd"><g id="009---Bear" fill-rule="nonzero" transform="translate(0 -1)"><path id="Shape" d="m51.07 1.32c-3.69-1.23-5.49 1.32-6.32 3.47-.8615667-.65270449-1.7633483-1.25055225-2.7-1.79-3.8593223-2.26194758-8.6137847-2.36785446-12.57-.28-.3.16-.66.16-.96 0-3.9323834-2.08450484-8.6648999-1.97849647-12.5.28-.9366517.53944775-1.8384333 1.13729551-2.7 1.79-.83-2.15-2.63-4.7-6.32-3.47-5.75 1.92-11.5 9.35-1.4 12.59-3.45260876 6.3225491-4.45306966 13.6960527-2.81 20.71 1.62644073 5.9671346 4.93456924 11.3406739 9.53 15.48 4.14 3.87 10.75 8.9 16.68 8.9h.07c5.93 0 12.54-5.03 16.68-8.9 4.5954308-4.1393261 7.9035593-9.5128654 9.53-15.48 1.6430697-7.0139473.6426088-14.3874509-2.81-20.71 10.1-3.24 4.35-10.67-1.4-12.59z" fill="#cb8252"/><path id="Shape" d="m13.32 4.79c-1.1885503.89070617-2.2961798 1.88456104-3.31 2.97-.39-1.99-1.03-2.69-1.17-2.77-.19765238.0151537-.3925614.0554797-.58.12-2.55.86-4.18 2.92-4.19 3.56.09.13 1.01 1.02 3.75 1.71-.8247142 1.1212129-1.5666767 2.3010002-2.22 3.53-10.1-3.24-4.35-10.67 1.4-12.59 3.69-1.23 5.49 1.32 6.32 3.47z" fill="#805333"/><path id="Shape" d="m10.01 7.76c-.78094136.82945898-1.51221445 1.70431537-2.19 2.62-2.74-.69-3.66-1.58-3.75-1.71.01-.64 1.64-2.7 4.19-3.56.1874386-.0645203.38234762-.1048463.58-.12.14.08.78.78 1.17 2.77z" fill="#603e26"/><path id="Shape" d="m54 8.67c-.09.13-1.01 1.02-3.75 1.71-.6777856-.91568463-1.4090586-1.79054102-2.19-2.62.39-1.99 1.03-2.69 1.17-2.77.1976524.0151537.3925614.0554797.58.12 2.55.86 4.18 2.92 4.19 3.56z" fill="#603e26"/><path id="Shape" d="m52.47 13.91c-.6533233-1.2289998-1.3952858-2.4087871-2.22-3.53 2.74-.69 3.66-1.58 3.75-1.71-.01-.64-1.64-2.7-4.19-3.56-.1874386-.0645203-.3823476-.1048463-.58-.12-.14.08-.78.78-1.17 2.77-1.0138202-1.08543896-2.1214497-2.07929383-3.31-2.97.83-2.15 2.63-4.7 6.32-3.47 5.75 1.92 11.5 9.35 1.4 12.59z" fill="#805333"/><path id="Shape" d="m19 24c0 2.209139-1.790861 4-4 4s-4-1.790861-4-4 1.790861-4 4-4c.2824491-.0008153.5641348.0293653.84.09-1.1676258.3186558-1.9392907 1.4279668-1.8319462 2.6335242.1073444 1.2055574 1.0628646 2.1610776 2.268422 2.268422 1.2055574.1073445 2.3148684-.6643204 2.6335242-1.8319462.0606347.2758652.0908153.5575509.09.84z" fill="#fff"/><path id="Shape" d="m18.91 23.16c-.3186558 1.1676258-1.4279668 1.9392907-2.6335242 1.8319462-1.2055574-.1073444-2.1610776-1.0628646-2.268422-2.268422-.1073445-1.2055574.6643204-2.3148684 1.8319462-2.6335242 1.5388756.3289834 2.7410166 1.5311244 3.07 3.07z" fill="#2c2f38"/><path id="Shape" d="m36.53 48.2c-1.3784582 2.882358-4.2655462 4.7400018-7.46 4.8h-.07c-3.1944538-.0599982-6.0815418-1.917642-7.46-4.8 2.35.89 4.96.3 7.46-.2h.07c2.5.5 5.11 1.09 7.46.2z" fill="#a56a43"/><path id="Shape" d="m38.11 47.33c-.4848056.3602636-1.0163397.6529437-1.58.87-2.35.89-4.96.3-7.46-.2 3 0 7-3 7-6s-7-3-7-3h-.07s-7 0-7 3 4 6 7 6c-2.5.5-5.11 1.09-7.46.2-.5636603-.2170563-1.0951944-.5097364-1.58-.87-2.61-1.95-3.36-5.41-3.03-8.5.37-3.49 2.33-5.86 4.08-8.75 1.58-2.61 1.44-5.81 3.04-8.37 1.0797298-1.6885356 2.9457623-2.7101413 4.95-2.71h.07c2.0042377-.0001413 3.8702702 1.0214644 4.95 2.71 1.6 2.56 1.46 5.76 3.04 8.37 1.76 2.89 3.71 5.26 4.08 8.75.33 3.09-.42 6.55-3.03 8.5z" fill="#fdd7ad"/><path id="Shape" d="m36.07 42c0 3-4 6-7 6h-.07c-3 0-7-3-7-6s7-3 7-3h.07s7 0 7 3z" fill="#393f4a"/><path id="Shape" d="m47.07 24c0 2.209139-1.790861 4-4 4s-4-1.790861-4-4c-.0008153-.2824491.0293653-.5641348.09-.84.3186558 1.1676258 1.4279668 1.9392907 2.6335242 1.8319462 1.2055574-.1073444 2.1610776-1.0628646 2.268422-2.268422.1073445-1.2055574-.6643204-2.3148684-1.8319462-2.6335242.2758652-.0606347.5575509-.0908153.84-.09 2.209139 0 4 1.790861 4 4z" fill="#fff"/><g fill="#2c2f38"><path id="Shape" d="m44.07 22.5c-.00237 1.2501872-.9278964 2.3064245-2.1669421 2.4729765-1.2390456.1665519-2.4106379-.6077916-2.7430579-1.8129765.3289834-1.5388756 1.5311244-2.7410166 3.07-3.07 1.0860939.2972752 1.8394114 1.2839573 1.84 2.41z"/><circle id="Oval" cx="27" cy="44" r="1"/><circle id="Oval" cx="31" cy="44" r="1"/></g></g></g></svg>