<svg id="Capa_1" enable-background="new 0 0 512 512" height="512" viewBox="0 0 512 512" width="512" xmlns="http://www.w3.org/2000/svg"><g><g fill="#5b362a"><path d="m45 512c-8.291 0-15-6.709-15-15s6.709-15 15-15c8.276 0 15-6.724 15-15v-61c0-6.987 4.819-13.037 11.631-14.619l61.249-13.916c8.071-1.875 16.113 3.193 17.988 11.25 1.86 8.071-3.179 16.113-11.25 17.988l-49.618 11.221v49.076c0 24.814-20.186 45-45 45z"/><path d="m15 361c-8.291 0-15-6.709-15-15s6.709-15 15-15c8.276 0 15-6.724 15-15v-60c0-7.981 6.327-15.226 15.937-14.971l91 5.596c8.262.513 14.546 7.632 14.033 15.908-.513 8.247-7.529 14.355-15.908 14.033l-75.062-4.599v44.033c0 24.814-20.186 45-45 45z"/><path d="m139.984 156.903-40.755-35.903h-54.229c-24.814 0-45-20.186-45-45 0-8.291 6.709-15 15-15s15 6.709 15 15c0 8.276 6.724 15 15 15h60c3.721 0 8.295 1.377 11.049 3.867l44.033 39.771c6.152 5.552 6.636 15.044 1.084 21.182-5.535 6.137-15.019 6.649-21.182 1.083z"/></g><path d="m350.834 155.819c-5.552-6.138-5.068-15.63 1.084-21.182l44.033-39.771c2.754-2.489 7.328-3.866 11.049-3.866h60c8.276 0 15-6.724 15-15 0-8.291 6.709-15 15-15s15 6.709 15 15c0 24.814-20.186 45-45 45h-54.229l-40.756 35.903c-6.158 5.562-15.642 5.058-21.181-1.084z" fill="#38211a"/><path d="m467 512c-24.814 0-45-20.186-45-45v-49.076l-49.618-11.221c-8.071-1.875-13.11-9.917-11.25-17.988 1.875-8.057 9.961-13.125 17.988-11.25l61.249 13.916c6.812 1.582 11.631 7.632 11.631 14.619v61c0 8.276 6.724 15 15 15 8.291 0 15 6.709 15 15s-6.709 15-15 15z" fill="#38211a"/><path d="m497 361c-24.814 0-45-20.186-45-45v-44.033l-75.063 4.6c-8.467.557-15.381-5.771-15.908-14.033-.513-8.276 5.771-15.396 14.033-15.908l91-5.596c9.441-.319 15.938 6.885 15.938 14.97v60c0 8.276 6.724 15 15 15 8.291 0 15 6.709 15 15s-6.709 15-15 15z" fill="#38211a"/><path d="m256 181h-135v210c0 49.629 40.371 91 90 91 15.864 0 31.23-4.233 45-12.319 13.77 8.086 29.136 12.319 45 12.319 49.629 0 90-41.371 90-91v-210z" fill="#8cd96b"/><path d="m391 391v-210h-135v288.681c13.77 8.086 29.136 12.319 45 12.319 49.629 0 90-41.371 90-91z" fill="#5ab267"/><ellipse cx="256" cy="181" fill="#704c55" rx="135" ry="90"/><path d="m200.146 83.104c-12.525-20.156-19.146-44.359-19.146-68.104 0-8.291 6.709-15 15-15s15 6.709 15 15c0 18.149 5.054 35.874 14.634 51.255 4.365 7.046 2.212 17.289-4.819 21.669-7.174 4.414-16.359 2.113-20.669-4.82z" fill="#5b362a"/><path d="m291.186 87.924c-7.031-4.38-9.185-14.623-4.819-21.669 9.579-15.381 14.633-33.106 14.633-51.255 0-8.291 6.709-15 15-15s15 6.709 15 15c0 23.745-6.621 47.948-19.146 68.104-4.31 6.932-13.496 9.234-20.668 4.82z" fill="#38211a"/><path d="m391 181c0-49.706-60.441-90-135-90v180c74.559 0 135-40.294 135-90z" fill="#5b362a"/><path d="m256 30c-43.33 0-75 60.194-75 91 0 33.091 33.647 60 75 60s75-26.909 75-60c0-30.806-31.67-91-75-91z" fill="#5b362a"/><path d="m331 121c0-30.806-31.67-91-75-91v151c41.353 0 75-26.909 75-60z" fill="#38211a"/></g></svg>