<?xml version="1.0" encoding="iso-8859-1"?>
<!-- Generator: Adobe Illustrator 19.0.0, SVG Export Plug-In . SVG Version: 6.00 Build 0)  -->
<svg version="1.1" id="Layer_1" xmlns="http://www.w3.org/2000/svg" xmlns:xlink="http://www.w3.org/1999/xlink" x="0px" y="0px"
	 viewBox="0 0 512.002 512.002" style="enable-background:new 0 0 512.002 512.002;" xml:space="preserve">
<path style="fill:#FF7161;" d="M448.924,376.256c-12.604-27.441-45.068-39.469-72.509-26.865
	c-5.721,2.628-10.761,6.128-15.059,10.257l91.585,49.642C455.003,398.504,453.857,386.997,448.924,376.256z"/>
<path style="fill:#FF6C5C;" d="M427.209,411.423c-2.391-30.103-28.733-52.568-58.836-50.176c-6.275,0.498-12.212,2.05-17.668,4.449
	l68.908,78.127C425.26,434.403,428.145,423.206,427.209,411.423z"/>
<g>
	<path style="fill:#FF7161;" d="M381.061,452.099c15.213-26.086,6.398-59.565-19.687-74.778c-5.438-3.171-11.2-5.285-17.048-6.428
		l12.009,103.479C366.348,469.859,375.107,462.309,381.061,452.099z"/>
	<path style="fill:#FF7161;" d="M63.076,376.256c12.604-27.441,45.068-39.469,72.509-26.865c5.721,2.628,10.761,6.128,15.059,10.257
		L59.06,409.291C56.999,398.504,58.143,386.997,63.076,376.256z"/>
</g>
<path style="fill:#FF6C5C;" d="M84.791,411.423c2.391-30.103,28.733-52.568,58.836-50.176c6.275,0.498,12.212,2.05,17.668,4.449
	l-68.908,78.127C86.74,434.403,83.855,423.206,84.791,411.423z"/>
<g>
	<path style="fill:#FF7161;" d="M130.939,452.099c-15.213-26.086-6.398-59.565,19.687-74.778c5.438-3.171,11.2-5.285,17.048-6.428
		l-12.009,103.479C145.653,469.859,136.894,462.309,130.939,452.099z"/>
	
		<rect x="379.306" y="217.19" transform="matrix(-0.8437 -0.5369 0.5369 -0.8437 598.4293 708.9611)" style="fill:#FF7161;" width="46.268" height="100.318"/>
	
		<rect x="86.427" y="217.157" transform="matrix(0.8437 -0.5369 0.5369 0.8437 -126.3865 100.6123)" style="fill:#FF7161;" width="46.268" height="100.318"/>
</g>
<path style="fill:#FF6C5C;" d="M86.811,38.953L76.324,164.368L40.043,37.614C14.333,54.92,1.542,103.312,10.91,156.641
	c11.053,62.916,48.761,108.87,84.223,102.64c35.462-6.23,55.249-62.283,44.197-125.201C131.589,90.016,110.772,54.277,86.811,38.953
	z"/>
<path style="fill:#FF4A36;" d="M111.957,241.792c-35.462,6.23-73.17-39.724-84.223-102.64C20.69,99.058,26.175,61.758,40.256,38.358
	l-0.212-0.743C14.333,54.921,1.542,103.314,10.91,156.641c11.053,62.916,48.761,108.87,84.223,102.64
	c12.382-2.176,22.85-10.431,30.765-22.926C121.586,239.066,116.926,240.919,111.957,241.792z"/>
<path style="fill:#FF6C5C;" d="M425.189,38.953l10.487,125.414l36.281-126.753c25.71,17.307,38.501,65.699,29.133,119.028
	c-11.053,62.916-48.761,108.87-84.223,102.64c-35.462-6.23-55.249-62.283-44.197-125.201
	C380.411,90.016,401.228,54.277,425.189,38.953z"/>
<path style="fill:#FF4A36;" d="M437.897,250.888c-35.462-6.229-55.25-62.283-44.197-125.2c5.452-31.034,17.394-57.925,32.347-76.477
	l-0.858-10.257c-23.962,15.325-44.778,51.064-52.519,95.129c-11.053,62.916,8.735,118.971,44.197,125.2
	c10.979,1.928,22.173-1.149,32.725-8.179C445.692,251.626,441.781,251.571,437.897,250.888z"/>
<path style="fill:#FF6C5C;" d="M256,222.414c-68.235,0-126.733,41.668-151.454,100.944C129.267,382.634,187.764,424.301,256,424.301
	s126.733-41.668,151.454-100.944C382.733,264.081,324.235,222.414,256,222.414z"/>
<path style="fill:#FF4A36;" d="M256,398.664c-63.201,0-118.043-35.75-145.436-88.125c-2.182,4.171-4.194,8.447-6.018,12.819
	C129.267,382.634,187.764,424.301,256,424.301s126.733-41.668,151.454-100.944c-1.823-4.373-3.836-8.648-6.018-12.819
	C374.045,362.914,319.201,398.664,256,398.664z"/>
<g>
	<circle style="fill:#FF6C5C;" cx="293.852" cy="176.148" r="16.824"/>
	<circle style="fill:#FF6C5C;" cx="218.144" cy="176.148" r="16.824"/>
</g>
<g>
	<circle style="fill:#FF4A36;" cx="331.706" cy="301.928" r="12.618"/>
	<circle style="fill:#FF4A36;" cx="268.616" cy="276.692" r="12.618"/>
	<circle style="fill:#FF4A36;" cx="260.204" cy="339.782" r="12.618"/>
	<circle style="fill:#FF4A36;" cx="205.526" cy="293.516" r="12.618"/>
	<circle style="fill:#FF4A36;" cx="159.26" cy="318.752" r="12.618"/>
</g>
<path d="M476.361,31.072c-4.375-2.946-10.537-0.685-11.985,4.372l-24.428,85.346l-6.898-82.494
	c-0.486-5.802-7.188-9.133-12.108-5.986c-26.683,17.065-48.155,55.537-56.038,100.407c-5.577,31.744-3.806,62.942,4.986,87.849
	c3.037,8.603,6.804,16.146,11.19,22.542l-9.91,15.574c-20.822-18.785-46.068-32.287-73.634-39.106v-18.991
	c11.886-1.782,21.03-12.061,21.03-24.435c0-13.625-11.085-24.71-24.71-24.71c-13.625,0-24.71,11.085-24.71,24.71
	c0,9.234,5.095,17.296,12.618,21.537v18.761c-8.435-1.266-17.042-1.918-25.762-1.918c-8.72,0-17.327,0.652-25.762,1.918v-18.761
	c7.523-4.241,12.618-12.303,12.618-21.537c0-13.625-11.085-24.71-24.71-24.71c-13.625,0-24.71,11.085-24.71,24.71
	c0,12.375,9.144,22.652,21.03,24.435v18.991c-27.566,6.819-52.813,20.321-73.634,39.106l-9.91-15.574
	c4.386-6.395,8.153-13.939,11.19-22.542c8.792-24.907,10.562-56.104,4.986-87.849c-7.882-44.87-29.355-83.343-56.038-100.407
	c-4.92-3.146-11.622,0.184-12.108,5.986l-6.898,82.494L47.625,35.445c-1.448-5.058-7.61-7.319-11.985-4.372
	C6.789,50.494-6.574,102.69,3.143,158.007c5.576,31.743,17.874,60.47,34.629,80.888c10.495,12.79,22.055,21.501,33.893,25.783
	c0.196,0.858,0.529,1.699,1.029,2.485l28.403,44.634c-1.346,2.796-2.626,5.637-3.83,8.526c-0.811,1.943-0.811,4.128,0,6.07
	c1.564,3.748,3.252,7.415,5.051,11.005c-20.146,3.437-37.707,16.621-46.409,35.567c-5.46,11.889-7.05,24.962-4.597,37.807
	c0.982,5.146,6.882,7.96,11.504,5.454l14.346-7.776c-0.091,0.779-0.171,1.563-0.233,2.35c-1.036,13.042,1.971,25.864,8.695,37.079
	c2.698,4.499,9.206,5.099,12.679,1.161l17.481-19.82c0.69,9.23,3.424,18.415,8.344,26.853c6.592,11.303,16.377,20.116,28.298,25.489
	c4.796,2.16,10.471-1.075,11.074-6.282l7.592-65.418c25.32,14.356,54.413,22.324,84.91,22.324c10.36,0,20.74-0.93,30.848-2.761
	c4.286-0.777,7.13-4.881,6.353-9.167c-0.777-4.285-4.876-7.133-9.167-6.353c-9.183,1.665-18.615,2.509-28.035,2.509
	c-62.134,0-117.853-36.417-142.871-93.058c25.018-56.641,80.737-93.058,142.871-93.058s117.853,36.414,142.871,93.057
	c-16.727,37.803-48.205,67.841-86.818,82.697c-4.065,1.565-6.092,6.127-4.528,10.192c1.564,4.065,6.127,6.09,10.192,4.529
	c8.027-3.089,15.771-6.778,23.182-11.004l7.602,65.509c0.605,5.206,6.28,8.44,11.074,6.282
	c11.921-5.373,21.706-14.187,28.298-25.489c4.921-8.437,7.654-17.622,8.344-26.852l17.48,19.82
	c3.473,3.938,9.981,3.337,12.679-1.161c6.724-11.215,9.731-24.036,8.695-37.079c-0.063-0.788-0.142-1.571-0.233-2.35l14.346,7.776
	c4.622,2.507,10.522-0.308,11.504-5.454c2.453-12.845,0.864-25.917-4.597-37.807c-8.705-18.952-26.273-32.137-46.426-35.569
	c1.813-3.599,3.51-7.266,5.068-11.003c0.811-1.943,0.811-4.128,0-6.07c-1.205-2.89-2.485-5.731-3.83-8.526l28.403-44.634
	c0.499-0.785,0.834-1.627,1.029-2.486c11.838-4.282,23.399-12.993,33.893-25.782c16.755-20.418,29.053-49.144,34.629-80.888
	C518.574,102.69,505.212,50.494,476.361,31.072z M293.854,167.21c4.928,0,8.938,4.009,8.938,8.938c0,4.928-4.009,8.938-8.938,8.938
	c-4.928,0-8.938-4.009-8.938-8.938C284.916,171.219,288.926,167.21,293.854,167.21z M209.208,176.148
	c0-4.928,4.009-8.938,8.938-8.938s8.938,4.009,8.938,8.938c0,4.928-4.009,8.938-8.938,8.938S209.208,181.075,209.208,176.148z
	 M18.678,155.278c-7.421-42.247-0.197-83.09,17.24-103.418l32.824,114.678c1.049,3.669,4.708,6.104,8.496,5.661
	c3.682-0.43,6.636-3.478,6.945-7.174l9.253-110.662c17.844,17.481,32.247,47.614,38.127,81.083
	c10.108,57.541-7.199,110.694-37.793,116.07C63.167,256.888,28.786,212.819,18.678,155.278z M91.686,267.626
	c1.608-0.11,3.213-0.294,4.813-0.576c8.668-1.523,16.609-5.47,23.591-11.586l9.282,14.585c-7.29,7.943-13.87,16.622-19.627,25.955
	L91.686,267.626z M82.665,387.525l-16.633,9.016c0.309-5.833,1.723-11.578,4.21-16.992c7.331-15.961,23.064-26.457,40.503-27.224
	c1.265,2.001,2.572,3.969,3.913,5.908c-13.477,5.772-24.361,16.057-30.956,28.833C83.351,387.196,83.003,387.342,82.665,387.525z
	 M94.547,429.452c-1.716-5.583-2.366-11.463-1.895-17.404c1.499-18.878,14.213-34.889,32.003-40.745
	c2.789,3.305,5.694,6.496,8.71,9.567c-5.656,5.785-10.001,12.487-12.983,19.681c-0.54,0.366-1.049,0.797-1.502,1.31L94.547,429.452z
	 M149.238,461.337c-4.596-3.606-8.485-8.064-11.487-13.211c-10.751-18.434-7.627-41.623,7.181-56.515
	c3.669,3.104,7.464,6.049,11.373,8.831L149.238,461.337z M374.25,448.126c-3.002,5.148-6.892,9.606-11.488,13.211l-7.082-61.023
	c3.887-2.776,7.652-5.715,11.292-8.798C381.86,406.405,385.021,429.652,374.25,448.126z M417.454,429.452l-24.335-27.59
	c-0.452-0.512-0.96-0.943-1.502-1.309c-2.998-7.232-7.374-13.965-13.073-19.771c3.012-3.062,5.908-6.235,8.686-9.513
	c17.849,5.824,30.614,21.863,32.117,40.78C419.819,417.988,419.17,423.868,417.454,429.452z M441.758,379.549
	c2.488,5.414,3.901,11.16,4.21,16.992l-16.633-9.016c-0.339-0.183-0.687-0.329-1.038-0.46c-6.608-12.799-17.52-23.098-31.031-28.864
	c1.344-1.933,2.651-3.894,3.916-5.882C418.649,353.062,434.417,363.567,441.758,379.549z M382.629,270.049l9.282-14.585
	c6.982,6.115,14.924,10.063,23.591,11.586c1.6,0.282,3.205,0.466,4.813,0.576l-18.058,28.378
	C396.499,286.67,389.919,277.992,382.629,270.049z M493.322,155.278c-9.549,54.351-40.755,96.685-69.971,96.681
	c-1.714,0-3.425-0.146-5.121-0.444c-30.595-5.374-47.902-58.529-37.794-116.07c5.88-33.469,20.283-63.602,38.127-81.083
	l9.253,110.662c0.309,3.697,3.263,6.743,6.945,7.174c3.794,0.444,7.445-1.987,8.496-5.661l32.825-114.678
	C493.519,72.186,500.744,113.03,493.322,155.278z"/>
<g>
</g>
<g>
</g>
<g>
</g>
<g>
</g>
<g>
</g>
<g>
</g>
<g>
</g>
<g>
</g>
<g>
</g>
<g>
</g>
<g>
</g>
<g>
</g>
<g>
</g>
<g>
</g>
<g>
</g>
</svg>
