<?xml version="1.0" encoding="iso-8859-1"?>
<!-- Generator: Adobe Illustrator 19.0.0, SVG Export Plug-In . SVG Version: 6.00 Build 0)  -->
<svg version="1.1" id="Capa_1" xmlns="http://www.w3.org/2000/svg" xmlns:xlink="http://www.w3.org/1999/xlink" x="0px" y="0px"
	 viewBox="0 0 512.001 512.001" style="enable-background:new 0 0 512.001 512.001;" xml:space="preserve">
<path style="fill:#FFDAB5;" d="M163.017,424.613h-30.358c-17.872,0-32.36-14.488-32.36-32.36l0,0c0-17.872,14.488-32.36,32.36-32.36
	h30.358c17.872,0,32.36,14.488,32.36,32.36l0,0C195.377,410.125,180.889,424.613,163.017,424.613z"/>
<path style="opacity:0.1;enable-background:new    ;" d="M163.017,359.892h-30.358c-17.065,0-31.034,13.212-32.262,29.963
	c25.187,7.34,57.313,11.035,93.339,12.573c1.06-3.201,1.642-6.62,1.642-10.176l0,0C195.377,374.381,180.889,359.892,163.017,359.892
	z"/>
<path style="fill:#FFDAB5;" d="M317.161,424.613h-30.358c-17.872,0-32.36-14.488-32.36-32.36l0,0c0-17.872,14.488-32.36,32.36-32.36
	h30.358c17.872,0,32.36,14.488,32.36,32.36l0,0C349.521,410.125,335.032,424.613,317.161,424.613z"/>
<path style="opacity:0.1;enable-background:new    ;" d="M317.16,359.892h-30.358c-17.872,0-32.36,14.488-32.36,32.36l0,0
	c0,3.877,0.684,7.593,1.934,11.038c35.354-0.232,65.838-1.26,92.128-2.961c0.664-2.582,1.017-5.288,1.017-8.077l0,0
	C349.521,374.381,335.033,359.892,317.16,359.892z"/>
<path style="fill:#C27C59;" d="M492.984,290.735c-34.317-11.045-68.48-41.709-91.97-71.283l-0.003,0.003
	c0-0.001-0.001-0.001-0.001-0.001l0.004-0.002l24.759-59.662c3.417-8.234-3.115-17.159-11.997-16.392l-53.527,4.623
	c-3.462,0.299-6.772-1.484-8.426-4.54l-21.279-39.303c-3.553-6.563-12.207-8.264-17.98-3.533l-34.269,28.081
	c-3.517,2.882-8.657,2.581-11.814-0.691L230.778,91.02c-4.909-5.089-13.15-4.791-17.678,0.64l-28.651,34.365
	c-2.697,3.235-7.321,4.083-10.99,2.014l-38.734-21.836c-7.15-4.031-16.136,0.229-17.541,8.316l-7.118,40.956
	c-0.816,4.697-5.251,7.87-9.96,7.127l-43.247-6.828c-8.038-1.269-14.945,5.736-13.562,13.755l6.645,38.54
	c0.741,4.297-1.803,8.481-5.958,9.801L8.29,229.212c-7.769,2.469-10.802,11.849-5.948,18.399l28.139,37.967
	c2.478,3.343,2.251,7.97-0.542,11.055L4.743,324.466c-5.779,6.384-3.06,16.603,5.127,19.271l75.139,24.486
	c36.019,14.704,92.374,18.787,155.725,18.787c230.385,0,266.027-31.846,270.98-66.307
	C513.616,307.472,505.707,294.83,492.984,290.735z"/>
<path style="opacity:0.1;enable-background:new    ;" d="M150.231,342.283l3.99-17.485c0.723-3.169,0.368-6.489-1.01-9.433
	l-21.938-46.874c-2.376-5.077-1.634-11.067,1.909-15.411l13.163-16.137c3.214-3.94,4.148-9.262,2.461-14.059
	c-7.666-21.802-28.993-83.992-31.624-108.365l-7.119,40.956c-0.816,4.697-5.251,7.87-9.96,7.127l-43.247-6.828
	c-8.039-1.269-14.945,5.736-13.562,13.755l6.645,38.54c0.741,4.297-1.803,8.481-5.958,9.801L8.29,229.212
	c-7.769,2.469-10.802,11.849-5.948,18.399l28.139,37.968c2.477,3.343,2.251,7.97-0.542,11.054L4.743,324.466
	c-5.779,6.384-3.06,16.603,5.127,19.271l75.139,24.485c29.32,11.969,72.117,16.9,121.191,18.321l-49.05-28.381
	C151.613,354.957,148.808,348.52,150.231,342.283z"/>
<path style="fill:#FFDAB5;" d="M492.563,290.599c-34.175-11.159-68.156-41.693-91.55-71.147l-0.003,0.003l-0.001-0.001
	c-47.203,31.682-62.26,125.893-27.264,162.59c112.763-10.278,134.281-35.145,137.992-61.514
	C513.606,307.263,505.301,294.758,492.563,290.599z"/>
<g style="opacity:0.1;">
	<path d="M100.468,272.456c-0.427,0-0.858-0.037-1.293-0.112c-4.081-0.709-6.814-4.592-6.105-8.673l7.118-40.956
		c1.078-6.196,5.113-11.502,10.795-14.195c5.682-2.693,12.343-2.458,17.819,0.63l38.735,21.837c3.607,2.034,4.884,6.608,2.85,10.216
		s-6.605,4.885-10.217,2.85l-38.734-21.837c-1.785-1.006-3.412-0.435-4.028-0.142c-0.617,0.292-2.09,1.191-2.441,3.21l-7.117,40.955
		C107.215,269.885,104.046,272.455,100.468,272.456z"/>
	<path d="M329.532,249.719c-2.665,0-5.244-1.423-6.603-3.931l-21.279-39.304c-0.855-1.579-2.252-2.064-3.009-2.213
		c-0.752-0.147-2.232-0.228-3.621,0.91l-34.27,28.082c-3.203,2.624-7.93,2.157-10.555-1.048c-2.626-3.204-2.156-7.929,1.047-10.555
		l34.27-28.081c4.489-3.678,10.328-5.146,16.021-4.026c5.693,1.119,10.544,4.687,13.307,9.79l21.28,39.304
		c1.972,3.643,0.617,8.194-3.025,10.166C331.961,249.428,330.738,249.719,329.532,249.719z"/>
	<path d="M205.747,345.557c-0.175,0-0.351-0.002-0.526-0.007c-6.242-0.171-12.053-3.364-15.543-8.543l-20.931-31.057
		c-2.314-3.435-1.406-8.096,2.028-10.411c3.433-2.316,8.095-1.408,10.411,2.028l20.931,31.057c1.096,1.627,2.672,1.908,3.514,1.931
		c0.834,0.029,2.43-0.171,3.613-1.736l23.834-31.506c2.5-3.303,7.205-3.955,10.506-1.456c3.304,2.499,3.956,7.203,1.457,10.506
		l-23.834,31.506C217.546,342.708,211.798,345.557,205.747,345.557z"/>
</g>
<path style="fill:#596675;" d="M492.564,290.599c-22.63,17.74-19.067,44.424,2.538,59.166c11.076-9.01,15.198-19.009,16.637-29.234
	C513.606,307.263,505.301,294.758,492.564,290.599z"/>
<ellipse style="fill:#FFA6BB;" cx="400.8" cy="321.3" rx="21.04" ry="16.754"/>
<path style="fill:#414B58;" d="M430.371,311.069c-4.143,0-7.5-3.358-7.5-7.5c0-4.017-3.269-7.285-7.285-7.285
	s-7.285,3.268-7.285,7.285c0,4.142-3.357,7.5-7.5,7.5s-7.5-3.358-7.5-7.5c0-12.288,9.997-22.285,22.285-22.285
	s22.285,9.997,22.285,22.285C437.871,307.711,434.514,311.069,430.371,311.069z"/>
<g>
</g>
<g>
</g>
<g>
</g>
<g>
</g>
<g>
</g>
<g>
</g>
<g>
</g>
<g>
</g>
<g>
</g>
<g>
</g>
<g>
</g>
<g>
</g>
<g>
</g>
<g>
</g>
<g>
</g>
</svg>
