<svg id="Capa_1" enable-background="new 0 0 512 512" height="512" viewBox="0 0 512 512" width="512" xmlns="http://www.w3.org/2000/svg"><g><g fill="#8c4a37"><path d="m76 512c-8.291 0-15-6.709-15-15s6.709-15 15-15c8.276 0 15-6.724 15-15v-48.578c0-12.012 4.688-23.32 13.184-31.816l39.229-39.229c5.859-5.859 15.352-5.859 21.211 0s5.859 15.352 0 21.211l-39.229 39.229c-2.798 2.798-4.395 6.665-4.395 10.605v48.578c0 24.814-20.186 45-45 45z"/><path d="m15 391c-8.291 0-15-6.709-15-15s6.709-15 15-15c8.276 0 15-6.724 15-15v-36.577c0-20.684 14.019-38.643 34.072-43.652l68.427-16.846c7.954-2.065 16.172 2.871 18.179 10.913 2.021 8.027-2.871 16.172-10.913 18.179l-67.412 16.846c-6.68 1.684-12.353 7.66-12.353 14.56v36.577c0 24.814-20.186 45-45 45z"/><path d="m138.93 212.421-36.504-54.741c-2.783-4.189-7.456-6.68-12.48-6.68h-44.946c-24.814 0-45-20.186-45-45 0-8.291 6.709-15 15-15s15 6.709 15 15c0 8.276 6.724 15 15 15h44.945c15.073 0 29.077 7.485 37.441 20.039l36.504 54.741c4.6 6.885 2.739 16.201-4.16 20.801-6.83 4.554-16.175 2.79-20.8-4.16z"/></g><path d="m352.27 216.581c-6.899-4.6-8.76-13.916-4.16-20.801l36.504-54.741c8.364-12.554 22.367-20.039 37.441-20.039h44.945c8.276 0 15-6.724 15-15 0-8.291 6.709-15 15-15s15 6.709 15 15c0 24.814-20.186 45-45 45h-44.945c-5.024 0-9.697 2.49-12.48 6.68l-36.504 54.741c-4.62 6.94-13.958 8.722-20.801 4.16z" fill="#663325"/><path d="m436 512c-24.814 0-45-20.186-45-45v-48.578c0-3.94-1.597-7.808-4.395-10.605l-39.229-39.229c-5.859-5.859-5.859-15.352 0-21.211s15.352-5.859 21.211 0l39.229 39.229c8.497 8.496 13.184 19.804 13.184 31.816v48.578c0 8.276 6.724 15 15 15 8.291 0 15 6.709 15 15s-6.709 15-15 15z" fill="#663325"/><path d="m497 391c-24.814 0-45-20.186-45-45v-36.577c0-6.899-4.673-12.876-11.367-14.561l-68.397-16.846c-8.042-2.007-12.935-10.151-10.913-18.179 2.007-8.057 10.093-13.008 18.179-10.913l68.412 16.846c20.067 5.01 34.086 22.969 34.086 43.653v36.577c0 8.276 6.724 15 15 15 8.291 0 15 6.709 15 15s-6.709 15-15 15z" fill="#663325"/><path d="m324.628 145.771h-68.628-68.628c-37.602 29.501-66.372 57.451-66.372 125.229 0 99.258 60.557 180 135 180s135-80.742 135-180c0-67.778-28.77-95.728-66.372-125.229z" fill="#fdbf00"/><path d="m391 271c0-67.778-28.77-95.728-66.372-125.229h-68.628v305.229c74.443 0 135-80.742 135-180z" fill="#ff9100"/><path d="m203.134 118.642c-32.637-23.833-52.134-63.198-52.134-103.642 0-8.291 6.709-15 15-15s15 6.709 15 15c0 30.894 14.883 61.205 39.829 79.413 6.694 4.878 8.159 14.268 3.267 20.962-4.903 6.717-14.309 8.129-20.962 3.267z" fill="#663325"/><path d="m287.904 115.375c-4.893-6.694-3.428-16.084 3.267-20.962 24.946-18.208 39.829-48.519 39.829-79.413 0-8.291 6.709-15 15-15s15 6.709 15 15c0 40.444-19.497 79.809-52.134 103.642-6.64 4.852-16.05 3.462-20.962-3.267z" fill="#3a1a12"/><circle cx="316" cy="316" fill="#663325" r="15"/><circle cx="316" cy="256" fill="#663325" r="15"/><circle cx="196" cy="256" fill="#8c4a37" r="15"/><circle cx="196" cy="316" fill="#8c4a37" r="15"/><path d="m256 61c-43.33 0-75 59.194-75 90 0 33.091 33.647 60 75 60s75-26.909 75-60c0-30.806-31.67-90-75-90z" fill="#8c4a37"/><path d="m331 151c0-30.806-31.67-90-75-90v150c41.353 0 75-26.909 75-60z" fill="#663325"/></g></svg>