<?xml version="1.0" encoding="iso-8859-1"?>
<!-- Generator: Adobe Illustrator 19.0.0, SVG Export Plug-In . SVG Version: 6.00 Build 0)  -->
<svg version="1.1" id="Capa_1" xmlns="http://www.w3.org/2000/svg" xmlns:xlink="http://www.w3.org/1999/xlink" x="0px" y="0px"
	 viewBox="0 0 511.999 511.999" style="enable-background:new 0 0 511.999 511.999;" xml:space="preserve">
<g>
	<path style="fill:#808080;" d="M358.802,213.799c-1.83,0-3.665-0.666-5.11-2.012c-3.03-2.824-3.199-7.569-0.376-10.601
		l43.071-46.235l-13.571-61.22c-0.627-2.826,0.43-5.762,2.714-7.54l38.152-29.71c3.266-2.545,7.979-1.96,10.525,1.309
		c2.545,3.269,1.959,7.98-1.309,10.525l-34.411,26.799l13.398,60.441c0.534,2.41-0.151,4.929-1.834,6.735l-45.759,49.121
		C362.815,212.998,360.811,213.799,358.802,213.799z"/>
	<path style="fill:#808080;" d="M153.196,213.799c-2.009,0-4.013-0.802-5.49-2.388l-45.759-49.121
		c-1.683-1.807-2.368-4.325-1.834-6.735l13.398-60.441L79.1,68.317c-3.268-2.545-3.854-7.257-1.309-10.525s7.256-3.854,10.525-1.309
		l38.152,29.71c2.284,1.778,3.341,4.714,2.714,7.54l-13.571,61.22l43.071,46.235c2.823,3.031,2.654,7.776-0.376,10.601
		C156.861,213.133,155.026,213.799,153.196,213.799z"/>
	<path style="fill:#808080;" d="M445.548,507.733c-2.114,0-4.215-0.889-5.698-2.619l-29.985-34.983
		c-0.95-1.108-1.557-2.471-1.744-3.919l-7.931-61.326l-44.73-34.382c-3.284-2.524-3.9-7.232-1.376-10.517
		c2.523-3.284,7.231-3.902,10.517-1.376l47.199,36.279c1.58,1.215,2.612,3.008,2.868,4.984l8.043,62.193l28.528,33.284
		c2.695,3.145,2.331,7.88-0.813,10.575C449.011,507.139,447.275,507.733,445.548,507.733z"/>
	<path style="fill:#808080;" d="M66.451,507.733c-1.727,0-3.463-0.594-4.877-1.806c-3.145-2.695-3.509-7.431-0.813-10.575
		l28.528-33.284l8.043-62.193c0.256-1.977,1.288-3.77,2.868-4.984l47.199-36.279c3.284-2.524,7.994-1.908,10.517,1.376
		c2.524,3.284,1.908,7.992-1.376,10.517l-44.73,34.382l-7.931,61.326c-0.188,1.448-0.794,2.811-1.744,3.919l-29.986,34.982
		C70.666,506.844,68.565,507.733,66.451,507.733z"/>
	<path style="fill:#808080;" d="M504.502,309.81c-0.646,0-1.303-0.084-1.957-0.261l-57.849-15.591
		c-1.74-0.469-3.254-1.55-4.263-3.044l-31.613-46.808l-55.23,5.437c-4.121,0.4-7.793-2.607-8.198-6.729
		c-0.406-4.122,2.607-7.793,6.729-8.198l59.679-5.874c2.747-0.271,5.409,0.985,6.949,3.267l32.55,48.194l55.15,14.864
		c3.999,1.077,6.367,5.193,5.289,9.193C510.837,307.606,507.809,309.81,504.502,309.81z"/>
	<path style="fill:#808080;" d="M7.496,309.81c-3.307,0-6.335-2.204-7.236-5.55c-1.078-4,1.29-8.116,5.289-9.193l55.15-14.864
		l32.55-48.194c1.54-2.281,4.204-3.537,6.949-3.267l59.679,5.874c4.122,0.405,7.136,4.076,6.729,8.198
		c-0.404,4.123-4.065,7.136-8.198,6.729l-55.23-5.437l-31.613,46.808c-1.009,1.494-2.522,2.575-4.263,3.044L9.453,309.549
		C8.798,309.726,8.142,309.81,7.496,309.81z"/>
</g>
<g>
	<path style="fill:#666666;" d="M309.61,4.265c-4.143,0-7.5,3.357-7.5,7.5v9.96c0,4.252-1.232,8.378-3.563,11.932l-27.617,42.11
		c-2.271,3.464-1.306,8.113,2.158,10.385c1.269,0.832,2.695,1.229,4.106,1.229c2.442,0,4.839-1.192,6.278-3.388l27.617-42.109
		c3.938-6.005,6.021-12.976,6.021-20.159v-9.96C317.109,7.623,313.753,4.265,309.61,4.265z"/>
	<path style="fill:#666666;" d="M213.453,33.656c-2.331-3.553-3.563-7.679-3.563-11.931v-9.96c0-4.143-3.357-7.5-7.5-7.5
		c-4.143,0-7.5,3.357-7.5,7.5v9.96c0,7.184,2.082,14.154,6.021,20.158l27.617,42.11c1.439,2.195,3.835,3.388,6.278,3.388
		c1.411,0,2.838-0.397,4.106-1.229c3.464-2.271,4.43-6.921,2.158-10.385L213.453,33.656z"/>
</g>
<ellipse style="fill:#808080;" cx="255.998" cy="134.349" rx="78.42" ry="71.59"/>
<path style="fill:#666666;" d="M281.664,202c30.704-9.706,52.76-36.319,52.76-67.651c0-39.54-35.112-71.593-78.424-71.593V202
	H281.664z"/>
<ellipse style="fill:#4D4D4D;" cx="255.998" cy="182.678" rx="107.139" ry="75.12"/>
<path style="fill:#FC5759;" d="M162.996,178.906c-13.718,3.354-25.261,12.111-31.625,24.06
	c-13.922,26.138-21.964,56.977-21.964,90.007c0,94.38,65.632,170.891,146.592,170.891s146.592-76.511,146.592-170.891
	c0-33.031-8.042-63.87-21.964-90.007c-6.365-11.949-17.907-20.706-31.625-24.06l-49.215-12.033c-28.718-7.021-58.859-7.021-87.577,0
	L162.996,178.906z"/>
<path style="fill:#EF4246;" d="M380.628,202.966c-6.365-11.949-17.907-20.706-31.625-24.06l-49.215-12.033
	c-14.359-3.511-29.074-5.266-43.789-5.266v302.257c80.961,0,146.592-76.511,146.592-170.891
	C402.592,259.943,394.55,229.104,380.628,202.966z"/>
<path style="fill:#DD3C44;" d="M380.628,202.966c-6.365-11.949-17.907-20.706-31.625-24.06l-49.215-12.033
	c-14.359-3.511-29.074-5.266-43.789-5.266v7.099l41.716,10.199c13.718,3.354,25.261,12.111,31.625,24.06
	c13.922,26.138,21.964,56.977,21.964,90.007c0,73.346-39.641,143.015-95.305,170.431v0.459c80.961,0,146.592-76.511,146.592-170.891
	C402.592,259.943,394.55,229.104,380.628,202.966z"/>
<g>
	<path style="fill:#666666;" d="M162.996,178.906c-5.053,1.235-9.806,3.209-14.119,5.8c0.426,18.483,15.531,33.338,34.116,33.338
		c18.853,0,34.136-15.283,34.136-34.136c0-6.236-1.68-12.076-4.6-17.107c-0.106,0.026-0.212,0.047-0.318,0.073L162.996,178.906z"/>
	<path style="fill:#666666;" d="M381.263,381.785c-8.295-10.489-21.124-17.227-35.534-17.227c-25.014,0-45.291,20.278-45.291,45.291
		c0,15.331,7.625,28.873,19.281,37.068C345.219,432.546,366.606,409.819,381.263,381.785z"/>
</g>
<path style="fill:#4D4D4D;" d="M345.729,364.558c-2.488,0-4.926,0.209-7.305,0.595c-8.308,22.709-20.315,43.446-35.076,60.669
	c3.236,8.572,8.991,15.908,16.371,21.096c1.445-0.814,2.872-1.663,4.29-2.531c0.277-0.169,0.553-0.338,0.828-0.509
	c2.842-1.766,5.628-3.638,8.355-5.611c0.267-0.193,0.533-0.386,0.799-0.581c2.714-1.992,5.367-4.084,7.957-6.273
	c0.254-0.215,0.507-0.43,0.76-0.646c2.577-2.208,5.09-4.511,7.535-6.906c0.239-0.234,0.478-0.469,0.715-0.705
	c2.432-2.414,4.796-4.918,7.088-7.509c0.223-0.252,0.446-0.506,0.667-0.76c2.279-2.609,4.484-5.304,6.613-8.081
	c0.206-0.269,0.411-0.539,0.616-0.809c2.115-2.794,4.154-5.669,6.111-8.621c0.188-0.284,0.376-0.57,0.563-0.855
	c1.942-2.968,3.804-6.012,5.579-9.129c0.17-0.298,0.338-0.597,0.506-0.896c0.874-1.555,1.733-3.122,2.564-4.711
	C372.968,371.296,360.139,364.558,345.729,364.558z"/>
<circle style="fill:#666666;" cx="309.198" cy="235.578" r="22.21"/>
<path style="fill:#4D4D4D;" d="M389.175,221.52c-12.079,3.132-21,14.106-21,27.165c0,15.499,12.564,28.063,28.063,28.063
	c1.931,0,3.816-0.195,5.637-0.567C400.255,256.831,395.865,238.432,389.175,221.52z"/>
<g>
	<path style="fill:#666666;" d="M178.573,405.737c0-14.693-11.911-26.604-26.604-26.604c-7.222,0-13.768,2.882-18.562,7.553
		c8.935,15.853,20.069,29.868,32.9,41.456C173.682,423.413,178.573,415.149,178.573,405.737z"/>
	<circle style="fill:#666666;" cx="198.628" cy="314.568" r="24.613"/>
</g>
<g>
</g>
<g>
</g>
<g>
</g>
<g>
</g>
<g>
</g>
<g>
</g>
<g>
</g>
<g>
</g>
<g>
</g>
<g>
</g>
<g>
</g>
<g>
</g>
<g>
</g>
<g>
</g>
<g>
</g>
</svg>
