<?xml version="1.0" encoding="iso-8859-1"?>
<!-- Generator: Adobe Illustrator 19.0.0, SVG Export Plug-In . SVG Version: 6.00 Build 0)  -->
<svg version="1.1" id="Layer_1" xmlns="http://www.w3.org/2000/svg" xmlns:xlink="http://www.w3.org/1999/xlink" x="0px" y="0px"
	 viewBox="0 0 512 512" style="enable-background:new 0 0 512 512;" xml:space="preserve">
<path style="fill:#EDBCB9;" d="M348.649,501.787h-52.374c-10.018,0-18.14-8.121-18.14-18.14c0-10.018,8.121-18.14,18.14-18.14
	h52.374c10.018,0,18.14,8.121,18.14,18.14C366.788,493.666,358.667,501.787,348.649,501.787z"/>
<path style="opacity:0.08;enable-background:new    ;" d="M348.649,465.508h-52.374c-10.018,0-18.14,8.121-18.14,18.14
	s8.121,18.14,18.14,18.14h16.797c19.115-6.835,34.519-17.955,43.984-34.205C354.542,466.264,351.685,465.508,348.649,465.508z"/>
<path style="fill:#EDBCB9;" d="M215.725,501.787h-52.374c-10.018,0-18.14-8.121-18.14-18.14c0-10.018,8.121-18.14,18.14-18.14
	h52.374c10.018,0,18.14,8.121,18.14,18.14C233.865,493.666,225.743,501.787,215.725,501.787z"/>
<path style="opacity:0.08;enable-background:new    ;" d="M215.725,465.508h-52.374c-3.036,0-5.893,0.756-8.407,2.074
	c9.465,16.249,24.869,27.369,43.984,34.205h16.797c10.018,0,18.14-8.121,18.14-18.14
	C233.865,473.63,225.743,465.508,215.725,465.508z"/>
<path style="fill:#E8E8E8;" d="M367.438,412.726c0,61.546-49.892,85.07-111.438,85.07s-111.438-23.525-111.438-85.07
	S194.454,301.288,256,301.288S367.438,351.18,367.438,412.726z"/>
<path style="opacity:0.08;enable-background:new    ;" d="M256,301.288c-43.737,0-81.582,25.201-99.826,61.871
	c27.63,13.471,62.245,19.45,99.826,19.45c37.58,0,72.195-5.978,99.825-19.45C337.582,326.489,299.737,301.288,256,301.288z"/>
<circle style="fill:#E8E8E8;" cx="110.803" cy="113.104" r="102.886"/>
<circle style="fill:#EDBCB9;" cx="110.803" cy="113.104" r="54.019"/>
<path style="opacity:0.08;enable-background:new    ;" d="M211.187,90.462c-65.762,8.665-119.213,56.363-136.332,119.063
	c11.191,4.174,23.303,6.461,35.95,6.461c56.823,0,102.887-46.064,102.887-102.887C213.691,105.321,212.823,97.747,211.187,90.462z"
	/>
<circle style="fill:#E8E8E8;" cx="401.197" cy="113.104" r="102.886"/>
<circle style="fill:#EDBCB9;" cx="401.197" cy="113.104" r="54.019"/>
<path style="fill:#E8E8E8;" d="M419.698,237.084c0,90.408-73.29,124.964-163.698,124.964S92.303,327.492,92.303,237.084
	S165.592,73.387,256,73.387S419.698,146.677,419.698,237.084z"/>
<circle style="fill:#EDBCB9;" cx="256" cy="269.988" r="29.295"/>
<g>
	<path style="fill:#FFFFFF;" d="M216.145,447.506c-4.367,0-8.746-1.567-12.226-4.744c-14.241-13.003-21.03-30.922-21.312-42.067
		c-0.253-10.015,7.66-18.339,17.675-18.592c9.964-0.275,18.293,7.616,18.59,17.592c0.23,2.472,3.26,10.572,9.509,16.277
		c7.398,6.755,7.92,18.228,1.164,25.626C225.968,445.516,221.065,447.506,216.145,447.506z"/>
	<path style="fill:#FFFFFF;" d="M295.854,447.506c-4.919,0-9.822-1.989-13.401-5.909c-6.755-7.398-6.233-18.871,1.164-25.626
		c6.279-5.732,9.307-13.879,9.512-16.31c0.252-10.014,8.547-17.883,18.588-17.617c10.015,0.252,17.926,8.634,17.674,18.649
		c-0.281,11.147-7.071,29.067-21.312,42.071C304.601,445.938,300.22,447.506,295.854,447.506z"/>
</g>
<path d="M348.649,262.073h-39.003c-4.374,0-7.918,3.545-7.918,7.918s3.544,7.918,7.918,7.918h39.003
	c4.374,0,7.918-3.545,7.918-7.918C356.566,265.618,353.021,262.073,348.649,262.073z M233.72,410.124
	c-4.348-3.97-6.593-9.623-6.954-11.19c-0.7-14.079-12.553-25.158-26.684-24.747c-14.362,0.363-25.752,12.344-25.389,26.707
	c0.334,13.199,7.849,33.071,23.888,47.715c4.813,4.395,11.051,6.814,17.564,6.814c7.307,0,14.323-3.093,19.248-8.488
	c4.692-5.14,7.104-11.799,6.788-18.753C241.865,421.231,238.86,414.817,233.72,410.124z M223.7,436.259
	c-1.96,2.147-4.643,3.33-7.554,3.33c-2.553,0-4.999-0.949-6.887-2.673c-11.971-10.93-18.487-26.596-18.735-36.422
	c-0.143-5.634,4.326-10.334,9.978-10.478c0.094-0.002,0.188-0.003,0.282-0.003c5.474,0,10.011,4.392,10.177,9.917
	c0.004,0.166,0.015,0.331,0.031,0.497c0.438,4.712,4.468,14.465,12.054,21.391c2.016,1.841,3.194,4.358,3.319,7.085
	C226.486,431.63,225.541,434.242,223.7,436.259z M401.196,2.295c-45.195,0-85.45,27.263-102.448,68.565
	c-13.671-3.517-27.995-5.39-42.748-5.39c-14.754,0-29.077,1.873-42.748,5.39C196.254,29.558,156,2.295,110.805,2.295
	C49.706,2.295,0,52.001,0,113.099c0,26.4,9.441,51.971,26.585,72.003c15.303,17.88,35.889,30.387,58.571,35.779
	c-0.502,5.336-0.771,10.739-0.771,16.203c0,45.338,17.308,79.977,51.442,102.953c5.659,3.81,11.798,7.265,18.369,10.368
	c-11.509,18.722-17.552,40.075-17.552,62.32c0,6.744,0.573,13.156,1.69,19.231c-22.722-9.759-42.908-25.538-57.797-45.447
	c-18.376-24.572-28.088-53.827-28.088-84.604v-31.462c0-4.373-3.545-7.918-7.918-7.918s-7.918,3.545-7.918,7.918v31.462
	c0,34.222,10.804,66.756,31.243,94.087c19.133,25.584,46.139,45.042,76.29,55.103c1.596,3.625,3.44,7.084,5.53,10.371
	c-7.457,4.583-12.383,12.801-12.383,22.181c0,14.368,11.689,26.057,26.057,26.057h52.374c5.673,0,11.206-1.897,15.703-5.295
	c7.764,0.861,15.956,1.304,24.572,1.304c8.614,0,16.807-0.442,24.571-1.304c4.498,3.398,10.03,5.295,15.703,5.295h52.374
	c14.368,0,26.057-11.689,26.057-26.057c0-9.38-4.926-17.598-12.383-22.181c8.561-13.472,13.033-29.811,13.033-48.741
	c0-22.245-6.043-43.597-17.552-62.32c6.572-3.103,12.709-6.558,18.37-10.368c34.134-22.977,51.442-57.615,51.442-102.953
	c0-5.465-0.268-10.868-0.771-16.205c22.681-5.391,43.268-17.899,58.57-35.779C502.559,165.071,512,139.499,512,113.099
	C512,52.001,462.294,2.295,401.196,2.295z M87.379,205.141c-18.867-4.798-35.966-15.381-48.764-30.335
	c-14.69-17.165-22.78-39.08-22.78-61.707c0-52.367,42.603-94.97,94.969-94.97c38.246,0,72.374,22.771,87.253,57.416
	c-10.478,3.77-20.484,8.531-29.909,14.171c-9.364-22.864-31.972-38.551-57.344-38.551c-34.15,0-61.933,27.783-61.933,61.933
	c0,29.239,20.254,53.881,47.774,60.296C92.577,183.538,89.455,194.156,87.379,205.141z M154.599,98.722
	c-21.346,15.686-38.949,36.18-51.188,59.879c-22.068-3.541-38.705-22.635-38.705-45.502c0-25.418,20.68-46.098,46.098-46.098
	C130.793,67.001,148.471,80.079,154.599,98.722z M163.351,493.87c-5.636,0-10.222-4.586-10.222-10.222
	c0-4.362,2.725-8.079,6.599-9.536c7.932,8.084,17.825,14.704,29.557,19.758H163.351z M348.649,493.87h-25.934
	c11.732-5.052,21.624-11.673,29.557-19.758c3.874,1.457,6.599,5.173,6.599,9.536C358.87,489.284,354.285,493.87,348.649,493.87z
	 M359.52,412.726c0,67.129-64.859,77.153-103.52,77.153s-103.521-10.024-103.521-77.153c0-20.146,5.727-39.44,16.584-56.177
	c24.57,8.832,53.985,13.419,86.937,13.419s62.367-4.587,86.937-13.419C353.793,373.286,359.52,392.579,359.52,412.726z M256,354.132
	c-58.179,0-155.78-15.206-155.78-117.047c0-85.898,69.882-155.78,155.78-155.78s155.78,69.882,155.78,155.78
	C411.78,338.925,314.179,354.132,256,354.132z M357.401,98.722c6.127-18.643,23.805-31.721,43.794-31.721
	c25.418,0,46.098,20.68,46.098,46.098c0,22.867-16.637,41.961-38.704,45.502C396.35,134.902,378.748,114.408,357.401,98.722z
	 M473.385,174.805c-12.798,14.954-29.896,25.537-48.762,30.335c-2.077-10.984-5.199-21.603-9.268-31.746
	c27.519-6.413,47.774-31.056,47.774-60.295c0-34.15-27.783-61.933-61.933-61.933c-25.372,0-47.981,15.687-57.345,38.551
	c-9.425-5.639-19.432-10.402-29.909-14.171c14.88-34.645,49.008-57.416,87.254-57.416c52.365,0,94.969,42.603,94.969,94.97
	C496.165,135.726,488.074,157.641,473.385,174.805z M311.926,374.127c-6.976-0.182-13.596,2.351-18.637,7.138
	c-4.905,4.659-7.755,10.916-8.057,17.671c-0.363,1.568-2.605,7.217-6.954,11.186c-10.609,9.688-11.36,26.202-1.673,36.812
	c4.925,5.394,11.94,8.488,19.248,8.488c6.515,0,12.752-2.42,17.565-6.814c16.04-14.646,23.556-34.52,23.888-47.717
	c0.175-6.955-2.365-13.57-7.151-18.628C325.354,377.193,318.877,374.304,311.926,374.127z M302.74,436.915
	c-1.886,1.723-4.332,2.672-6.886,2.672c-2.912,0-5.594-1.182-7.553-3.33c-3.801-4.163-3.506-10.64,0.656-14.44
	c7.58-6.919,11.679-16.916,12.063-21.495c0.014-0.154,0.022-0.308,0.025-0.463c0.068-2.723,1.187-5.248,3.148-7.111
	c1.904-1.808,4.392-2.794,7.041-2.794c0.094,0,0.189,0.001,0.283,0.003c2.719,0.069,5.255,1.202,7.138,3.191
	c1.889,1.995,2.889,4.604,2.821,7.344C321.229,410.318,314.713,425.983,302.74,436.915z M175.54,234.865
	c4.373,0,7.918-3.545,7.918-7.918c0-3.353,2.728-6.081,6.081-6.081c3.353,0,6.081,2.728,6.081,6.081
	c0,4.373,3.545,7.918,7.918,7.918s7.918-3.545,7.918-7.918c0-12.084-9.831-21.916-21.916-21.916s-21.916,9.831-21.916,21.916
	C167.622,231.322,171.167,234.865,175.54,234.865z M308.464,234.865c4.374,0,7.918-3.545,7.918-7.918
	c0-3.353,2.728-6.081,6.081-6.081c3.353,0,6.081,2.728,6.081,6.081c0,4.373,3.544,7.918,7.918,7.918
	c4.374,0,7.918-3.545,7.918-7.918c0-12.084-9.831-21.916-21.916-21.916c-12.084,0-21.916,9.831-21.916,21.916
	C300.546,231.322,304.091,234.865,308.464,234.865z M342.844,310.096l-34.186-21.565c-3.7-2.333-8.588-1.227-10.922,2.472
	c-2.333,3.699-1.226,8.588,2.472,10.921l34.186,21.565c1.312,0.828,2.773,1.222,4.217,1.222c2.628,0,5.198-1.308,6.705-3.695
	C347.648,317.318,346.542,312.429,342.844,310.096z M210.273,269.991c0-4.373-3.545-7.918-7.918-7.918h-39.004
	c-4.373,0-7.918,3.545-7.918,7.918s3.545,7.918,7.918,7.918h39.004C206.728,277.908,210.273,274.363,210.273,269.991z M256,232.778
	c-20.519,0-37.212,16.693-37.212,37.212s16.693,37.212,37.212,37.212c20.518,0,37.212-16.693,37.212-37.212
	S276.518,232.778,256,232.778z M256,291.367c-11.788,0-21.377-9.59-21.377-21.377s9.59-21.377,21.377-21.377
	c11.788,0,21.377,9.59,21.377,21.377C277.377,281.777,267.788,291.367,256,291.367z M203.343,288.53l-34.186,21.565
	c-3.698,2.333-4.805,7.222-2.472,10.921c1.505,2.387,4.076,3.695,6.705,3.695c1.444,0,2.905-0.395,4.216-1.222l34.186-21.565
	c3.698-2.333,4.805-7.222,2.472-10.921C211.931,287.304,207.041,286.196,203.343,288.53z"/>
<g>
</g>
<g>
</g>
<g>
</g>
<g>
</g>
<g>
</g>
<g>
</g>
<g>
</g>
<g>
</g>
<g>
</g>
<g>
</g>
<g>
</g>
<g>
</g>
<g>
</g>
<g>
</g>
<g>
</g>
</svg>
