<?xml version="1.0" encoding="iso-8859-1"?>
<!-- Generator: Adobe Illustrator 19.0.0, SVG Export Plug-In . SVG Version: 6.00 Build 0)  -->
<svg version="1.1" id="Capa_1" xmlns="http://www.w3.org/2000/svg" xmlns:xlink="http://www.w3.org/1999/xlink" x="0px" y="0px"
	 viewBox="0 0 512 512" style="enable-background:new 0 0 512 512;" xml:space="preserve">
<path style="fill:#424342;" d="M464.304,271.889c0-152.294-43.506-258.353-208.304-258.353S47.696,119.596,47.696,271.889
	c0,83.038-24.985,167.195-47.696,226.574h102.918L256,430.256l153.093,68.206H512C489.288,439.085,464.304,354.927,464.304,271.889z
	"/>
<path style="fill:#333333;" d="M271.453,13.864c-5.029-0.215-10.177-0.328-15.453-0.328c-164.797,0-208.304,106.059-208.304,258.353
	c0,83.038-24.985,167.195-47.696,226.574h30.905c22.712-59.379,47.696-143.536,47.696-226.574
	C78.602,124.471,119.371,20.378,271.453,13.864z"/>
<path style="fill:#F49D18;" d="M162.288,246.155c32.586,26.214,37.925,37.389,93.712,37.389s61.127-11.175,93.712-37.389
	l-55.667-37.402h-63.925L162.288,246.155z"/>
<path style="fill:#FBBF0D;" d="M256,249.787c17.103-17.423,55.969-10.945,104.969-1.489c49.001,9.456,51.58-29.228,25.79-29.228
	c-84.247,0-92.843-61.895-130.759-61.895s-46.513,61.895-130.759,61.895c-25.79,0-23.211,38.684,25.79,29.228
	C200.031,238.841,238.897,232.362,256,249.787z"/>
<g>
	<path style="fill:#EEEEEC;" d="M409.093,498.463H102.918C110.329,421.272,176.045,360.9,256,360.9S401.671,421.271,409.093,498.463
		z"/>
	<circle style="fill:#EEEEEC;" cx="154.754" cy="148.305" r="37.825"/>
</g>
<circle style="fill:#202020;" cx="154.754" cy="148.305" r="14.065"/>
<circle style="fill:#EEEEEC;" cx="357.246" cy="148.305" r="37.825"/>
<circle style="fill:#202020;" cx="357.246" cy="148.305" r="14.065"/>
<g>
</g>
<g>
</g>
<g>
</g>
<g>
</g>
<g>
</g>
<g>
</g>
<g>
</g>
<g>
</g>
<g>
</g>
<g>
</g>
<g>
</g>
<g>
</g>
<g>
</g>
<g>
</g>
<g>
</g>
</svg>
