<svg height="512pt" viewBox="0 0 512 512" width="512pt" xmlns="http://www.w3.org/2000/svg"><path d="m289.03125 82.582031 16.515625 49.546875h-82.578125v-74.324218h49.546875c-4.539063 0-8.667969 1.820312-11.644531 4.875-3.054688 2.972656-4.871094 7.101562-4.871094 11.644531 0 9.082031 7.433594 16.515625 16.515625 16.515625 4.542969 0 8.671875-1.816406 11.644531-4.875 3.054688-2.972656 4.871094-7.101563 4.871094-11.640625 0-4.542969-1.816406-8.671875-4.871094-11.644531-2.972656-3.054688-7.101562-4.875-11.644531-4.875h8.257813l-49.546876-41.289063h53.925782c16.433594 0 30.386718 12.058594 32.699218 28.324219l3.136719 21.96875zm0 0" fill="#e5e0db"/><path d="m289.03125 74.324219c0 4.539062-1.816406 8.667969-4.871094 11.640625-2.972656 3.058594-7.101562 4.875-11.644531 4.875-9.082031 0-16.515625-7.433594-16.515625-16.515625 0-4.542969 1.816406-8.671875 4.871094-11.644531 2.972656-3.054688 7.101562-4.875 11.644531-4.875s8.671875 1.820312 11.644531 4.875c3.054688 2.972656 4.871094 7.101562 4.871094 11.644531zm0 0" fill="#fff"/><path d="m396.386719 99.097656h-16.515625l-28.160156 28.160156c-3.136719 3.136719-7.351563 4.871094-11.726563 4.871094h-34.4375l-16.515625-49.546875 31.957031-15.773437 1.074219-.742188 50.457031 7.183594c4.707031.660156 8.835938 3.300781 11.480469 7.183594zm0 0" fill="#fdcf00"/><path d="m388.128906 99.097656h-8.257812l-8.257813 8.257813h-41.289062c-4.542969 0-8.257813-3.71875-8.257813-8.257813 0-4.542968 3.714844-8.257812 8.257813-8.257812h49.546875c4.542968 0 8.257812 3.714844 8.257812 8.257812zm0 0" fill="#c9a200"/><path d="m280.773438 57.804688h-100.511719c-4.382813 0-8.582031-1.738282-11.679688-4.835938l-36.453125-36.453125 41.289063 8.257813-8.257813-24.773438 66.066406 16.515625zm0 0" fill="#fc4911"/><path d="m222.96875 57.804688v74.324218h-22.839844c-9.839844 0-17.5-8.554687-16.414062-18.339844l6.222656-55.984374zm0 0" fill="#49535b"/><path d="m435.941406 460.882812c.910156 9.660157-6.6875 18.085938-16.433594 18.085938h-14.863281v-73.085938c0-27.910156-7.101562-55.328124-20.644531-79.6875-6.773438-12.222656-11.890625-25.105468-15.359375-38.484374-3.46875-13.378907-5.285156-27.25-5.285156-41.207032v-11.230468c0-28.820313-23.535157-50.539063-50.375-50.539063-5.367188 0-10.734375.824219-16.183594 2.640625-5.121094 1.734375-10.488281 2.5625-15.9375 2.5625h-49.714844c-5.367187 0-10.820312-.910156-15.9375-2.5625-32.785156-10.980469-66.5625 13.378906-66.5625 47.898438v11.230468c0 27.910156-7.101562 55.328125-20.644531 79.691406-6.769531 12.21875-11.890625 25.101563-15.359375 38.480469-3.46875 13.378907-5.285156 27.253907-5.285156 41.207031v73.085938h-14.863281c-9.746094 0-17.34375-8.425781-16.433594-18.085938l13.871094-145.753906 10.15625-106.777344.25-2.230468c1.980468-20.976563 11.808593-39.472656 26.34375-52.6875 14.613281-13.292969 33.9375-21.304688 54.996093-21.304688h148.648438c42.113281 0 77.375 32.042969 81.339843 73.992188l.246094 2.230468 10.15625 106.777344zm0 0" fill="#49535b"/><path d="m404.644531 405.882812v73.085938h-66.0625c-4.542969 0-8.671875-1.816406-11.644531-4.875-3.058594-2.972656-4.875-7.101562-4.875-11.640625l-66.0625 41.289063-66.066406-41.289063c0 9.082031-7.429688 16.515625-16.515625 16.515625h-66.0625v-73.085938c0-27.910156 7.101562-55.328124 20.644531-79.6875 6.769531-12.222656 11.890625-25.105468 15.359375-38.484374 3.46875-13.378907 5.285156-27.25 5.285156-41.207032v-11.230468c0-34.519532 33.773438-58.882813 66.558594-47.898438 5.121094 1.652344 10.570313 2.5625 15.9375 2.5625h49.714844c5.449219 0 10.816406-.828125 15.9375-2.5625 5.449219-1.816406 10.816406-2.640625 16.1875-2.640625 26.835937 0 50.371093 21.71875 50.371093 50.539063v11.230468c0 27.910156 7.101563 55.328125 20.648438 79.691406 6.769531 12.21875 11.890625 25.101563 15.359375 38.480469 3.46875 13.378907 5.285156 27.25 5.285156 41.207031zm0 0" fill="#e5e0db"/><path d="m99.097656 478.96875-41.292968 33.03125 49.550781-8.257812 24.773437 8.257812 24.773438-8.257812 57.808594 8.257812-41.292969-33.03125zm0 0" fill="#fdcf00"/><path d="m412.902344 478.96875 41.292968 33.03125-49.550781-8.257812-24.773437 8.257812-24.773438-8.257812-57.808594 8.257812 41.292969-33.03125zm0 0" fill="#fdcf00"/><path d="m100.085938 208.351562-10.15625 106.777344c-10.652344 3.054688-19.242188 11.476563-22.378907 22.460938l-23.289062 73.164062c-3.632813 11.230469-9.414063 21.472656-16.925781 30.308594-7.515626 8.835938-16.765626 16.105469-27.335938 21.390625l22.628906-164.089844c5.945313-42.859375 36.417969-77.957031 77.457032-90.011719zm0 0" fill="#3d464c"/><path d="m512 462.453125c-10.570312-5.285156-19.820312-12.554687-27.335938-21.390625-7.511718-8.835938-13.292968-19.074219-16.925781-30.304688l-23.289062-73.167968c-3.136719-10.984375-11.726563-19.40625-22.378907-22.460938l-10.15625-106.777344c41.039063 12.054688 71.511719 47.152344 77.457032 90.011719zm0 0" fill="#3d464c"/><path d="m189.933594 470.710938c-4.5625 0-8.257813-3.695313-8.257813-8.257813v-16.519531c0-4.5625 3.695313-8.257813 8.257813-8.257813 4.566406 0 8.261718 3.695313 8.261718 8.257813v16.519531c0 4.5625-3.695312 8.257813-8.261718 8.257813zm0 0" fill="#bab7b5"/><path d="m322.066406 470.710938c-4.566406 0-8.261718-3.695313-8.261718-8.257813v-16.519531c0-4.5625 3.695312-8.257813 8.261718-8.257813 4.5625 0 8.257813 3.695313 8.257813 8.257813v16.519531c0 4.5625-3.695313 8.257813-8.257813 8.257813zm0 0" fill="#bab7b5"/><path d="m283.390625 74.324219c0 6.003906-4.871094 10.875-10.875 10.875-6.007813 0-10.875-4.871094-10.875-10.875 0-6.007813 4.867187-10.878907 10.875-10.878907 6.003906 0 10.875 4.871094 10.875 10.878907zm0 0" fill="#493c35"/><path d="m272.515625 68.882812c0 3.003907-2.433594 5.441407-5.4375 5.441407s-5.4375-2.4375-5.4375-5.441407c0-3 2.433594-5.4375 5.4375-5.4375s5.4375 2.4375 5.4375 5.4375zm0 0" fill="#fff"/><path d="m283.390625 77.042969c0 1.5-1.214844 2.71875-2.71875 2.71875-1.5 0-2.71875-1.21875-2.71875-2.71875 0-1.503907 1.21875-2.71875 2.71875-2.71875 1.503906 0 2.71875 1.214843 2.71875 2.71875zm0 0" fill="#fff"/><path d="m231.226562 16.515625 49.546876 41.289063h41.292968c0-22.800782-18.488281-41.289063-41.292968-41.289063zm0 0" fill="#49535b"/><path d="m247.742188 107.355469c0 13.679687-11.09375 24.773437-24.773438 24.773437-13.683594 0-24.773438-11.09375-24.773438-24.773437 0-13.683594 11.089844-24.773438 24.773438-24.773438 13.679688 0 24.773438 11.089844 24.773438 24.773438zm0 0" fill="#fa4c52"/></svg>