<svg id="Capa_1" enable-background="new 0 0 511.999 511.999" height="512" viewBox="0 0 511.999 511.999" width="512" xmlns="http://www.w3.org/2000/svg"><g><g><path d="m173.355 77.01h51.82v106.99h-107.87c-148.19-56.78-97.28-176.5-97.28-176.5z" fill="#a59da5"/><path d="m394.695 184h-130.61v-106.99h74.56l153.33-69.51s50.91 119.72-97.28 176.5z" fill="#c3bec6"/><path d="m345.665 471.32c-9.27 19.61-29.22 33.18-52.36 33.18h-74.61c-23.14 0-43.09-13.57-52.36-33.18-50.45-4.12-88.94-48.44-84.85-99.85l19.47-245.28c4.37-54.99 50.27-97.4 105.44-97.4h99.21c55.17 0 101.07 42.41 105.44 97.4l19.47 245.28c4.09 51.41-34.4 95.73-84.85 99.85z" fill="#c3bec6"/><path d="m256.255 504.5h-37.56c-23.14 0-43.09-13.57-52.36-33.18-50.45-4.12-88.94-48.44-84.85-99.85l19.47-245.28c4.37-54.99 50.27-97.4 105.44-97.4h49.6c-49.6 0-87.7 52.39-87.7 155.21s-5.88 297.75 87.96 320.5z" fill="#a59da5"/><g fill="#454045"><circle cx="200.148" cy="396.105" r="20.182"/><circle cx="311.852" cy="396.105" r="20.182"/></g><path d="m291.975 352.85c-10.88 7.31-23.43 10.96-35.98 10.96-12.54 0-25.09-3.65-35.97-10.96-18.39-12.35-28.56-32.71-28.56-53.61 0-9.87 2.26-19.86 7-29.18l57.53-113.33 57.54 113.33c14.77 29.08 5.51 64.61-21.56 82.79z" fill="#f9f6f9"/><path d="m291.975 352.85c-10.88 7.31-23.43 10.96-35.98 10.96-12.54 0-25.09-3.65-35.97-10.96-18.39-12.35-28.56-32.71-28.56-53.61 0-9.87 2.26-19.86 7-29.18l57.53-113.33c-14.07 50.6-53.42 180.04 35.98 196.12z" fill="#e2dfe2"/></g><g><path d="m172.466 396.104c0 15.264 12.418 27.683 27.682 27.683s27.683-12.418 27.683-27.683-12.418-27.682-27.683-27.682-27.682 12.418-27.682 27.682zm40.364 0c0 6.993-5.689 12.683-12.683 12.683s-12.682-5.689-12.682-12.683c0-6.993 5.689-12.682 12.682-12.682s12.683 5.689 12.683 12.682z"/><path d="m284.169 396.104c0 15.264 12.418 27.683 27.683 27.683s27.682-12.418 27.682-27.683-12.418-27.682-27.682-27.682-27.683 12.418-27.683 27.682zm27.683-12.682c6.993 0 12.682 5.689 12.682 12.682s-5.689 12.683-12.682 12.683-12.683-5.689-12.683-12.683c0-6.993 5.69-12.682 12.683-12.682z"/><path d="m115.631 261.683c0 18.727 10.194 33.962 22.725 33.962s22.724-15.235 22.724-33.962-10.194-33.961-22.724-33.961-22.725 15.235-22.725 33.961z"/><path d="m396.368 261.683c0-18.727-10.194-33.961-22.725-33.961s-22.724 15.235-22.724 33.961c0 18.727 10.194 33.962 22.724 33.962s22.725-15.235 22.725-33.962z"/><path d="m498.876 4.566c-.79-1.859-2.297-3.32-4.179-4.054-1.883-.734-3.98-.677-5.82.157l-108.238 49.071c-12.855-11.399-28.377-19.958-45.668-24.593-4-1.071-8.114 1.302-9.186 5.302-1.073 4.001 1.301 8.114 5.302 9.186 40.06 10.738 69.186 45.761 72.475 87.149l19.48 245.279c3.714 46.794-31.269 87.967-77.984 91.781-2.672.218-5.024 1.846-6.17 4.27-8.294 17.547-26.186 28.885-45.579 28.885h-74.62c-19.394 0-37.285-11.338-45.579-28.885-1.146-2.424-3.499-4.052-6.17-4.27-46.714-3.814-81.698-44.987-77.984-91.781l19.48-245.279c1.964-24.711 13.073-47.584 31.282-64.407s41.887-26.087 66.672-26.087h99.21c4.142 0 7.5-3.358 7.5-7.5s-3.358-7.5-7.5-7.5h-99.21c-27.76 0-54.313 10.085-75.05 28.445l-108.218-49.065c-1.84-.835-3.938-.891-5.82-.158s-3.389 2.195-4.179 4.054c-.502 1.18-12.241 29.315-8.198 65.374 6.498 57.958 48.384 91.47 84.259 109.796l-15.18 191.141c-4.254 53.609 34.699 100.946 87.52 107.487 11.458 20.567 33.445 33.636 57.166 33.636h74.62c23.721 0 45.708-13.069 57.166-33.636 52.821-6.542 91.774-53.878 87.52-107.488l-15.18-191.137c62.913-32.075 80.605-77.213 84.259-109.8 4.043-36.058-7.697-64.193-8.199-65.373zm-478.975 64.313c-2.593-22.081 1.604-41.193 4.546-51.139l95.704 43.392c-15.406 18.067-24.764 40.516-26.667 64.465l-3.007 37.867c-42.17-23.024-65.904-54.799-70.576-94.585zm472.197 0c-4.672 39.786-28.406 71.56-70.575 94.584l-3.007-37.867c-1.931-24.299-11.603-46.683-26.718-64.446l95.754-43.41c2.943 9.952 7.139 29.062 4.546 51.139z"/><path d="m262.687 153.335c-1.279-2.518-3.863-4.104-6.688-4.104-2.824 0-5.409 1.586-6.687 4.104l-57.54 113.331c-5.111 10.07-7.812 21.33-7.812 32.564 0 6.571.897 13.111 2.667 19.44 1.115 3.989 5.255 6.319 9.243 5.203 3.989-1.115 6.318-5.253 5.203-9.243-1.402-5.013-2.113-10.195-2.113-15.4 0-8.886 2.14-17.799 6.187-25.774l50.853-100.159 50.852 100.158c13.029 25.67 4.834 57.125-19.067 73.172-9.42 6.335-20.411 9.684-31.785 9.684s-22.365-3.349-31.795-9.69c-4.322-2.896-8.195-6.341-11.513-10.24-2.684-3.155-7.417-3.536-10.572-.852-3.155 2.685-3.536 7.418-.852 10.572 4.211 4.949 9.119 9.316 14.576 12.973 11.904 8.005 25.789 12.236 40.156 12.236s28.252-4.231 40.151-12.233c30.181-20.263 40.532-59.991 24.077-92.412z"/></g></g></svg>