<svg id="Capa_1" enable-background="new 0 0 512 512" height="512" viewBox="0 0 512 512" width="512" xmlns="http://www.w3.org/2000/svg"><path d="m315.251 254.456-19.186-9.744 80.246-80.356 7.516-75.107-23.189-54.113c-1.742-4.055.141-8.758 4.203-10.501 4.032-1.75 8.766.133 10.501 4.203l24.002 56.004c.531 1.242.742 2.602.609 3.946l-8.001 80.006c-.188 1.836-1 3.555-2.305 4.86l-49.247 49.246 63.826-14.26 68.521-60.903 15.439-69.482c.961-4.313 5.243-6.977 9.548-6.079 4.313.961 7.032 5.235 6.079 9.548l-16.001 72.005c-.367 1.641-1.242 3.125-2.5 4.243l-72.005 64.005c-1.016.906-2.242 1.531-3.571 1.828l-66.747 14.907 98.398 17.415c1.774.313 3.391 1.211 4.586 2.563l64.005 72.005c1.305 1.461 2.024 3.352 2.024 5.313v72.005c0 4.422-3.578 8.001-8.001 8.001-4.422 0-8.001-3.578-8.001-8.001v-68.966l-60.137-67.653-92.841-16.426 101.709 74.587c2.055 1.508 3.266 3.907 3.266 6.454v80.006c0 1.242-.289 2.469-.844 3.578l-32.002 64.005c-1.406 2.805-4.227 4.422-7.165 4.422-1.203 0-2.422-.273-3.571-.844-3.953-1.977-5.555-6.782-3.578-10.735l31.159-62.317v-74.06z" fill="#5d5360"/><path d="m378.334 162.34c3.125-3.125 8.188-3.125 11.313 0s3.125 8.188 0 11.313l-49.25 49.25 65.853-14.709c4.297-.945 8.587 1.75 9.548 6.063.969 4.313-1.75 8.587-6.063 9.548l-66.747 14.907 98.398 17.415c4.352.766 7.258 4.922 6.485 9.266-.688 3.883-4.055 6.61-7.868 6.61-.461 0-.93-.039-1.399-.125l-95.584-16.911 101.71 74.587c3.563 2.617 4.328 7.626 1.719 11.188-1.57 2.133-4 3.266-6.461 3.266-1.641 0-3.297-.5-4.727-1.547l-120.009-88.006-19.229-9.816z" fill="#4b3f4e"/><path d="m196.749 254.456 19.186-9.744-80.246-80.356-7.516-75.107 23.189-54.113c1.742-4.055-.141-8.758-4.203-10.501-4.032-1.75-8.766.133-10.501 4.203l-24.002 56.004c-.531 1.242-.742 2.602-.609 3.946l8.001 80.006c.188 1.836 1 3.555 2.305 4.86l49.247 49.246-63.826-14.26-68.521-60.903-15.439-69.482c-.961-4.313-5.243-6.977-9.548-6.079-4.313.961-7.032 5.235-6.079 9.548l16.001 72.005c.367 1.641 1.242 3.125 2.5 4.243l72.005 64.005c1.016.906 2.242 1.531 3.571 1.828l66.747 14.907-98.398 17.415c-1.774.313-3.391 1.211-4.586 2.563l-64.003 72.006c-1.305 1.461-2.024 3.352-2.024 5.313v72.005c0 4.422 3.578 8.001 8.001 8.001s8.001-3.578 8.001-8.001v-68.966l60.137-67.653 92.841-16.426-101.709 74.586c-2.055 1.508-3.266 3.907-3.266 6.454v80.006c0 1.242.289 2.469.844 3.578l32.002 64.005c1.406 2.805 4.227 4.422 7.165 4.422 1.203 0 2.422-.273 3.571-.844 3.953-1.977 5.555-6.782 3.578-10.735l-31.159-62.317v-74.06z" fill="#5d5360"/><g fill="#4b3f4e"><path d="m133.666 162.34c-3.125-3.125-8.188-3.125-11.313 0s-3.125 8.188 0 11.313l49.25 49.25-65.853-14.709c-4.297-.945-8.587 1.75-9.548 6.063-.969 4.313 1.75 8.587 6.063 9.548l66.747 14.907-98.398 17.415c-4.352.766-7.258 4.922-6.485 9.266.688 3.883 4.055 6.61 7.868 6.61.461 0 .93-.039 1.399-.125l95.584-16.911-101.71 74.587c-3.563 2.617-4.328 7.626-1.719 11.188 1.57 2.133 4 3.266 6.461 3.266 1.641 0 3.297-.5 4.727-1.547l120.009-88.006 19.229-9.816z"/><path d="m236.017 167.996c-4.422 0-8.001-3.578-8.001-8.001v-24.002c0-4.422 3.578-8.001 8.001-8.001s8.001 3.578 8.001 8.001v24.002c0 4.423-3.578 8.001-8.001 8.001z"/><path d="m276.02 167.996c-4.422 0-8.001-3.578-8.001-8.001v-24.002c0-4.422 3.578-8.001 8.001-8.001 4.422 0 8.001 3.578 8.001 8.001v24.002c0 4.423-3.579 8.001-8.001 8.001z"/></g><path d="m312.023 207.999c0 7.094-1.319 13.881-3.726 20.127 0 0-28.443 35.877-52.279 35.877-30.93 0-52.852-25.074-52.852-56.004 0-19.304 6.615-36.327 21.476-46.397 8.951-6.065 19.75-9.608 31.376-9.608 30.931.001 56.005 25.075 56.005 56.005z" fill="#5d5360"/><path d="m256.019 216c-6.987 0-13.797.677-20.423 1.894-8.557 1.572-16.853-3.542-18.93-11.991-1.022-4.158-1.573-8.5-1.573-12.982 0-11.611 3.499-22.374 9.55-31.318-14.881 10.067-24.628 27.078-24.628 46.397 0 10.01 2.675 19.373 7.285 27.497.045.08.084.161.129.24 1.276 2.223 2.711 4.336 4.268 6.356.23.299.461.593.696.887.376.468.723.961 1.113 1.417.011-.05.032-.098.043-.147 10.256 12.034 25.413 19.754 42.469 19.754 23.84 0 44.194-14.886 52.275-35.878-15.807-7.667-33.526-12.126-52.274-12.126z" fill="#4b3f4e"/><path d="m360.026 336.009c0 21.566-6.564 41.599-17.803 58.21-18.696 27.633-50.329 40.448-86.205 40.448-57.442 0-95.019-41.216-95.019-98.658 0-35.878 9.177-67.513 36.813-86.208 16.61-11.237 36.641-17.799 58.205-17.799 57.444-.001 104.009 46.565 104.009 104.007z" fill="#6f6571"/><path d="m284.021 412.014c-57.442 0-104.008-46.566-104.008-104.008 0-21.564 6.563-41.596 17.8-58.206-27.636 18.696-45.802 50.331-45.802 86.208 0 57.442 46.566 104.008 104.008 104.008 35.878 0 67.509-18.161 86.205-45.797-16.611 11.237-36.639 17.795-58.203 17.795z" fill="#5d5360"/></svg>