<svg id="Capa_1" enable-background="new 0 0 512 512" height="512" viewBox="0 0 512 512" width="512" xmlns="http://www.w3.org/2000/svg"><g><path d="m180.385 90.454s-31.735-65.447-114.971-89.932c0 0-94.672 143.65 23.818 214.644" fill="#dd6938"/><path d="m89.23 215.171 6.799-9.292 34.223-46.823-1.092-4.461c0-30.257-15.906-68.714-31.823-99.641-15.957-30.999-31.925-54.426-31.925-54.426s-94.665 143.651 23.818 214.643z" fill="#f9f6f9"/><path d="m79.742 184.368c5.687 11.126 11.126 17.998 16.288 21.511l34.223-46.823-1.092-4.461c0-30.257-15.906-68.714-31.823-99.641-20.758 22.489-48.986 68.024-17.596 129.414z" fill="#dfdde2"/><g fill="#dd6938"><path d="m88.697 120.419c-2.196 0-4.377-.931-5.907-2.74l-17.91-21.198c-2.754-3.26-2.343-8.134.917-10.889 3.258-2.754 8.133-2.343 10.889.916l17.91 21.199c2.754 3.26 2.343 8.134-.917 10.889-1.45 1.224-3.222 1.823-4.982 1.823z"/><path d="m74.078 137.118c-.606 0-1.22-.072-1.835-.221l-14.326-3.49c-4.146-1.01-6.688-5.19-5.678-9.336s5.19-6.685 9.336-5.678l14.326 3.49c4.146 1.01 6.688 5.19 5.678 9.336-.86 3.531-4.021 5.899-7.501 5.899z"/><path d="m333.68 90.454s31.735-65.447 114.971-89.932c0 0 94.672 143.65-23.818 214.644"/></g><path d="m424.835 215.171-6.799-9.292-34.223-46.823 1.092-4.461c0-30.257 15.906-68.714 31.823-99.641 15.958-30.999 31.926-54.426 31.926-54.426s94.664 143.651-23.819 214.643z" fill="#f9f6f9"/><path d="m434.323 184.368c-5.687 11.126-11.126 17.998-16.288 21.511l-34.223-46.823 1.092-4.461c0-30.257 15.906-68.714 31.823-99.641 20.758 22.489 48.986 68.024 17.596 129.414z" fill="#dfdde2"/><path d="m425.369 120.419c-1.762 0-3.531-.599-4.982-1.824-3.26-2.754-3.67-7.628-.917-10.888l17.909-21.199c2.754-3.261 7.629-3.67 10.889-.916s3.67 7.628.917 10.888l-17.909 21.199c-1.529 1.809-3.711 2.74-5.907 2.74z" fill="#dd6938"/><path d="m439.987 137.118c-3.481 0-6.641-2.368-7.501-5.9-1.01-4.146 1.532-8.326 5.678-9.336l14.326-3.49c4.154-1.011 8.326 1.533 9.336 5.678 1.01 4.146-1.532 8.326-5.678 9.336l-14.326 3.49c-.615.151-1.231.222-1.835.222z" fill="#dd6938"/><path d="m512 361.119c0 19.079-3.554 37.324-10.034 54.117-21.727 56.3-76.369 96.241-140.324 96.241h-211.274c-63.965 0-118.597-39.941-140.324-96.241-6.48-16.793-10.034-35.038-10.034-54.117 0-58.845 33.801-109.789 83.055-134.483v-19.708c0-73.958 59.958-133.916 133.916-133.916h78.038c73.968 0 133.926 59.958 133.926 133.916v19.708c49.244 24.695 83.055 75.638 83.055 134.483z" fill="#e4936b"/><path d="m166.344 206.931c0 11.497-3.767 22.626-10.499 31.946-19.708 27.283-32.546 71.864-32.546 122.233 0 83.051 34.894 150.368 77.939 150.368h-49.324c-82.977 0-151.466-66.566-151.912-149.542-.318-59.189 33.576-110.494 83.061-135.303v-19.702c0-73.96 59.95-133.922 133.922-133.922h18.786c-38.343.001-69.427 59.962-69.427 133.922z" fill="#dd6938"/><path d="m501.966 415.236c-21.727 56.3-76.369 96.241-140.324 96.241h-211.274c-63.965 0-118.597-39.941-140.324-96.241 18.914-49.048 62.801-85.682 116.073-94.315 7.892-1.277 15.999-1.947 24.251-1.947h211.274c63.965 0 118.607 39.951 140.324 96.262z" fill="#f9f6f9"/><path d="m201.24 511.477h-50.871c-63.965 0-118.597-39.941-140.324-96.241 18.914-49.048 62.801-85.682 116.073-94.315-1.844 12.795-2.823 26.27-2.823 40.188-.001 83.055 34.903 150.368 77.945 150.368z" fill="#dfdde2"/><path d="m311.121 416.767c-26.13 0-47.388-21.258-47.388-47.389 0-4.267-3.459-7.727-7.727-7.727s-7.727 3.459-7.727 7.727c0 26.13-21.258 47.389-47.388 47.389-4.268 0-7.727 3.459-7.727 7.727s3.459 7.727 7.727 7.727c23.729 0 44.423-13.224 55.115-32.685 10.691 19.462 31.386 32.685 55.115 32.685 4.268 0 7.727-3.459 7.727-7.727s-3.459-7.727-7.727-7.727z" fill="#c6c1c8"/><g fill="#282528"><ellipse cx="132.243" cy="229.76" rx="27.398" ry="40.947"/><path d="m379.768 188.813c-15.107 0-27.398 18.369-27.398 40.947s12.291 40.947 27.398 40.947 27.397-18.369 27.397-40.947-12.29-40.947-27.397-40.947z"/></g><path d="m311.564 316.036c0-20.478-24.874-37.079-55.559-37.079s-55.559 16.601-55.559 37.079 24.874 53.342 55.559 53.342 55.559-32.863 55.559-53.342z" fill="#665e66"/><path d="m256.008 369.379c-30.686 0-55.561-32.868-55.561-53.342 0-20.486 24.874-37.089 55.561-37.089-14.734 0-26.671 16.603-26.671 37.089 0 20.473 11.937 53.342 26.671 53.342z" fill="#454045"/></g></svg>