<svg height="512pt" viewBox="-61 0 512 512.001" width="512pt" xmlns="http://www.w3.org/2000/svg"><path d="m15 61h-15v75c0 37.820312 20.480469 72.875 53.4375 91.480469l66.125-71.207031c-5.011719-54.316407-49.953125-95.273438-104.5625-95.273438zm0 0" fill="#ffb6fa"/><path d="m375 61c-54.609375 0-99.550781 40.957031-104.558594 95.273438l66.121094 71.207031c32.960938-18.605469 53.4375-53.660157 53.4375-91.480469v-75zm0 0" fill="#ff9ac9"/><path d="m327.300781 339.699219c-7.800781 14.101562-27.300781 31.5-27.300781 66.300781 0 2.398438 0 4.800781-.300781 7.199219l-104.699219.300781h-104.699219c-.300781-2.402344-.300781-5.101562-.300781-7.5 0-35.101562-19.5-52.199219-27.296875-66.300781-21.601563-32.699219-29.402344-71.699219-21.601563-110.097657 10.800782-55.203124 55.496094-98.101562 111-106.800781h85.800782c55.5 8.699219 100.199218 51.597657 111 106.800781 7.796875 38.398438 0 77.398438-21.601563 110.097657zm0 0" fill="#fff5f5"/><path d="m327.300781 339.699219c-7.800781 14.101562-27.300781 31.5-27.300781 66.300781 0 2.398438 0 4.800781-.300781 7.199219l-104.699219.300781v-290.699219h42.902344c55.5 8.699219 100.199218 51.597657 111 106.800781 7.796875 38.398438 0 77.398438-21.601563 110.097657zm0 0" fill="#efe2dd"/><path d="m90 241h30v30h-30zm0 0" fill="#575f64"/><path d="m270 241h30v30h-30zm0 0" fill="#32393f"/><path d="m299.699219 413.199219v.601562c-2.398438 31.5-18.597657 60.097657-42.597657 77.5-17.402343 13.199219-39 20.699219-62.101562 20.699219-4.796875 0-9.597656-.300781-14.398438-1.199219-48.597656-6.601562-86.699218-47.800781-90.300781-97.300781.601563-4.5 1.199219-8.398438 2.101563-11.398438 10.195312-41.101562 53.398437-71.101562 102.597656-71.101562 45.300781 0 85.5 24.601562 99.601562 61.5 2.699219 6.898438 4.199219 13.800781 5.097657 20.699219zm0 0" fill="#ffb6fa"/><path d="m299.699219 413.199219v.601562c-2.398438 31.5-18.597657 60.097657-42.597657 77.5-17.402343 13.199219-39 20.699219-62.101562 20.699219v-181c45.300781 0 85.5 24.601562 99.601562 61.5 2.699219 6.898438 4.199219 13.800781 5.097657 20.699219zm0 0" fill="#ff9ac9"/><path d="m150 421h30v30h-30zm0 0" fill="#b760ea"/><path d="m210 421h30v30h-30zm0 0" fill="#8b3cba"/><path d="m249.300781 181c-1.5 11.101562-3 22.199219-6 33.601562l-6.601562 26.398438h-83.398438l-6.597656-26.398438c-3.003906-11.402343-4.503906-22.5-6-33.601562l54.296875-29.699219.601562-.300781zm0 0" fill="#fdbf00"/><path d="m236.699219 241h-41.699219v-89.699219l.601562-.300781 53.699219 30c-1.5 11.101562-3 22.199219-6 33.601562zm0 0" fill="#ff9100"/><path d="m250.800781 151c0 9.898438-.300781 19.800781-1.5 30h-108.601562c-1.199219-10.199219-1.5-20.101562-1.5-30 .300781-10.199219 1.199219-20.101562 2.699219-30l53.101562-29.699219.601562-.300781 52.5 30c1.5 9.898438 2.398438 19.800781 2.699219 30zm0 0" fill="#ff641a"/><path d="m250.800781 151c0 9.898438-.300781 19.800781-1.5 30h-54.300781v-89.699219l.601562-.300781 52.5 30c1.5 9.898438 2.398438 19.800781 2.699219 30zm0 0" fill="#f03800"/><path d="m248.101562 121h-106.203124c1.503906-10.199219 3.601562-20.097656 6.300781-30 7.5-24.300781 18.902343-49 34.203125-72.398438l12.597656-18.601562 12.597656 18.601562c15.300782 23.398438 26.703125 48.097657 34.203125 72.398438 2.699219 9.902344 4.796875 19.800781 6.300781 30zm0 0" fill="#fdbf00"/><path d="m248.101562 121h-53.101562v-121l12.597656 18.601562c15.300782 23.398438 26.703125 48.097657 34.203125 72.398438 2.699219 9.902344 4.796875 19.800781 6.300781 30zm0 0" fill="#ff9100"/></svg>