<?xml version="1.0" encoding="iso-8859-1"?>
<!-- Generator: Adobe Illustrator 19.0.0, SVG Export Plug-In . SVG Version: 6.00 Build 0)  -->
<svg version="1.1" id="Capa_1" xmlns="http://www.w3.org/2000/svg" xmlns:xlink="http://www.w3.org/1999/xlink" x="0px" y="0px"
	 viewBox="0 0 512 512" style="enable-background:new 0 0 512 512;" xml:space="preserve">
<path style="fill:#FF9AC9;" d="M481,76v30c0,49.499-27.001,94.499-69.6,118.2c6.301,18.6,9.6,39.3,9.6,61.8
	c0,40.199-10.201,83.2-27.9,119.799H118.9C101.201,369.2,91,326.199,91,286c0-22.5,3.3-43.2,9.6-61.8
	C58.001,200.499,31,155.499,31,106V76c0-8.401,6.599-15,15-15c54,0,102.299,32.401,123.6,80.4c12.599-6.899,26.4-12.001,41.4-15.3
	h90c15,3.3,28.801,8.401,41.4,15.3C363.701,93.401,412,61,466,61C474.401,61,481,67.599,481,76z"/>
<path style="fill:#FF7CB9;" d="M481,76v30c0,49.499-27.001,94.499-69.6,118.2c6.301,18.6,9.6,39.3,9.6,61.8
	c0,40.199-10.201,83.2-27.9,119.799H256v-279.7h45c15,3.3,28.801,8.401,41.4,15.3C363.701,93.401,412,61,466,61
	C474.401,61,481,67.599,481,76z"/>
<circle style="fill:#582B1F;" cx="195.97" cy="286" r="15"/>
<circle style="fill:#3C1B13;" cx="315.97" cy="286" r="15"/>
<path style="fill:#FFD400;" d="M326.499,206.499c-19.499,19.501-45,29.4-70.499,29.4S205,226,185.501,206.5
	c-4.2-3.9-5.402-9.901-3.6-15.3l17.999-54.3h112.2l17.999,54.3C331.901,196.599,330.7,202.599,326.499,206.499z"/>
<g>
	<path style="fill:#FDBF00;" d="M326.499,206.499c-19.499,19.501-45,29.4-70.499,29.4v-99h56.1l17.999,54.3
		C331.901,196.599,330.7,202.599,326.499,206.499z"/>
	<path style="fill:#FDBF00;" d="M312.1,136.899C295,145.899,275.799,151,256,151s-39-5.101-56.1-14.101
		c0,0,40.199-122.5,42.001-127.599C243.999,2.999,250,0,256,0s11.7,2.999,14.099,9C270.099,9,310.6,132.4,312.1,136.899z"/>
</g>
<path style="fill:#FF9F00;" d="M312.1,136.899C295,145.899,275.799,151,256,151V0c6,0,11.7,2.999,14.099,9
	C270.099,9,310.6,132.4,312.1,136.899z"/>
<path style="fill:#EDE9E8;" d="M393.1,405.799C366.4,461.6,317.8,512,256,512s-110.4-50.4-137.1-106.201
	c30-45,80.7-73.799,137.1-73.799S363.1,360.799,393.1,405.799z"/>
<path style="fill:#DFD7D5;" d="M393.1,405.799C366.4,461.6,317.8,512,256,512V332C312.4,332,363.1,360.799,393.1,405.799z"/>
<path style="fill:#804231;" d="M226,452c-8.291,0-15-6.709-15-15v-30c0-8.291,6.709-15,15-15s15,6.709,15,15v30
	C241,445.291,234.291,452,226,452z"/>
<path style="fill:#663325;" d="M286,452c-8.291,0-15-6.709-15-15v-30c0-8.291,6.709-15,15-15s15,6.709,15,15v30
	C301,445.291,294.291,452,286,452z"/>
<g>
</g>
<g>
</g>
<g>
</g>
<g>
</g>
<g>
</g>
<g>
</g>
<g>
</g>
<g>
</g>
<g>
</g>
<g>
</g>
<g>
</g>
<g>
</g>
<g>
</g>
<g>
</g>
<g>
</g>
</svg>
