<?xml version="1.0" encoding="iso-8859-1"?>
<!-- Generator: Adobe Illustrator 19.0.0, SVG Export Plug-In . SVG Version: 6.00 Build 0)  -->
<svg version="1.1" id="Layer_1" xmlns="http://www.w3.org/2000/svg" xmlns:xlink="http://www.w3.org/1999/xlink" x="0px" y="0px"
	 viewBox="0 0 512 512" style="enable-background:new 0 0 512 512;" xml:space="preserve">
<path style="fill:#8D8D8D;" d="M340.462,175.581c16.622-34.45,39.21-56.514,67.14-65.574c38.943-12.633,73.299,5.477,74.742,6.254
	l8.262,4.448l-0.941,9.335c-0.11,1.102-2.893,27.297-18.386,54.595c-14.629,25.777-43.576,57.48-98.393,62.125L340.462,175.581"/>
<path style="fill:#DD5323;" d="M370.513,218.754c33.884-2.871,59.408-18.745,75.859-47.184c7.446-12.872,11.403-25.659,13.419-34.17
	c-9.889-3.12-26.473-6.282-43.819-0.554c-20.213,6.673-37.1,23.815-50.192,50.95L370.513,218.754"/>
<path style="fill:#D8D9DD;" d="M171.538,175.581c-16.622-34.45-39.21-56.514-67.14-65.574c-38.943-12.633-73.299,5.477-74.742,6.254
	l-8.262,4.448l0.941,9.335c0.11,1.102,2.893,27.297,18.386,54.595c14.629,25.777,43.576,57.48,98.393,62.125L171.538,175.581"/>
<g>
	<path style="fill:#E69824;" d="M158.416,414.27c-0.011,3.076-0.077,5.998-0.184,8.53l-0.013,0.604
		c0,42.18,20.826,63.482,38.298,73.926C216.8,509.456,240.059,512,256.001,512c15.941,0,39.201-2.544,59.484-14.668
		c17.47-10.444,38.298-31.746,38.298-73.926l-0.013-0.604c-0.108-2.532-0.174-5.454-0.184-8.53
		c-31.884-14.584-65.37-19.731-97.585-19.731C223.785,394.539,190.3,399.686,158.416,414.27z"/>
	<path style="fill:#E69824;" d="M141.487,218.754c-33.884-2.871-59.408-18.745-75.859-47.184
		c-7.446-12.872-11.403-25.659-13.419-34.17c9.889-3.12,26.473-6.282,43.819-0.554c20.213,6.673,37.1,23.815,50.192,50.95
		L141.487,218.754"/>
</g>
<path style="fill:#DD5323;" d="M256,512L256,512c15.942,0,39.201-2.544,59.484-14.668c17.47-10.444,38.298-31.746,38.298-73.926
	l-0.013-0.604c-0.108-2.532-0.174-5.454-0.184-8.53C321.701,399.687,288.216,394.54,256,394.54L256,512L256,512z"/>
<path style="fill:#D8D9DD;" d="M361.779,165.673c-22.77-25.373-58.359-38.237-105.778-38.237s-83.009,12.865-105.778,38.237
	c-23.085,25.725-32.139,63.214-26.91,111.429c3.762,34.69,11.957,55.346,21.446,79.261c3.688,9.295,7.502,18.908,11.374,30.166
	c1.729,5.026,2.323,17.286,2.285,27.742c31.884-14.583,65.369-19.73,97.584-19.73s65.701,5.147,97.585,19.731
	c-0.038-10.456,0.557-22.716,2.285-27.742c3.872-11.258,7.686-20.871,11.374-30.166c9.489-23.916,17.683-44.571,21.446-79.261
	C393.918,228.887,384.865,191.398,361.779,165.673z"/>
<path style="fill:#8D8D8D;" d="M361.779,165.673c-22.77-25.373-58.359-38.237-105.778-38.237l0,0v267.104
	c32.215,0,65.7,5.147,97.585,19.731c-0.038-10.456,0.557-22.716,2.285-27.742c3.872-11.258,7.686-20.871,11.374-30.166
	c9.489-23.916,17.683-44.571,21.446-79.261C393.918,228.887,384.865,191.398,361.779,165.673z"/>
<path d="M190.782,310.647c0-10.323,8.275-18.684,18.444-18.684c10.182,0,18.455,8.36,18.455,18.684
	c0,10.321-8.273,18.689-18.455,18.689C199.058,329.335,190.782,320.968,190.782,310.647z"/>
<path d="M321.219,310.647c0-10.399-8.329-18.828-18.583-18.828c-10.268,0-18.596,8.429-18.596,18.828
	c0,10.399,8.329,18.828,18.596,18.828C312.89,329.475,321.219,321.045,321.219,310.647z"/>
<path d="M207.665,457.859c0-8.911,7.144-16.128,15.922-16.128c8.79,0,15.931,7.217,15.931,16.128c0,8.91-7.142,16.132-15.931,16.132
	C214.808,473.993,207.665,466.769,207.665,457.859z"/>
<path d="M304.335,457.859c0-8.977-7.189-16.254-16.041-16.254c-8.863,0-16.052,7.277-16.052,16.254
	c0,8.977,7.189,16.254,16.052,16.254C297.146,474.113,304.335,466.836,304.335,457.859z"/>
<path style="fill:#E69824;" d="M313.598,161.105c0,32.78-25.787,59.354-57.598,59.354s-57.598-26.574-57.598-59.354S256,0,256,0
	S313.598,128.325,313.598,161.105z"/>
<path style="fill:#DD5323;" d="M312.823,153.13c-2.552-15.62-11.156-41.002-20.929-66.664c-7.127,1.395-18.587,2.796-35.882,2.796
	c-17.267,0-28.749-1.396-35.909-2.788c-9.776,25.668-18.381,51.059-20.93,66.676c8.999,2.677,26.632,6.229,56.852,6.229
	C286.318,159.378,303.895,155.808,312.823,153.13z"/>
<g>
</g>
<g>
</g>
<g>
</g>
<g>
</g>
<g>
</g>
<g>
</g>
<g>
</g>
<g>
</g>
<g>
</g>
<g>
</g>
<g>
</g>
<g>
</g>
<g>
</g>
<g>
</g>
<g>
</g>
</svg>
