<svg id="Capa_1" enable-background="new 0 0 512 512" height="512" viewBox="0 0 512 512" width="512" xmlns="http://www.w3.org/2000/svg"><g><g><g><g><g><g><g><g><g><circle cx="256" cy="256" fill="#fe8205" r="256"/></g></g></g></g></g></g></g></g><path d="m512 256c0-31.662-5.748-61.98-16.257-89.971l-92.907-92.908-29.175 49.143-78.565-78.565-139.239 385.075 82.637 82.637c5.784.39 11.622.589 17.506.589 141.385 0 256-114.615 256-256z" fill="#fa5d0f"/><g><path d="m319.126 114.873c-13.79 17.997-10.383 43.766 7.612 57.558 17.994 13.792 43.76 10.383 57.551-7.613s36.541-77.904 18.547-91.696c-17.995-13.792-69.92 23.754-83.71 41.751z" fill="#333940"/></g><g><path d="m192.874 114.873c13.79 17.997 10.383 43.766-7.612 57.558s-43.76 10.383-57.551-7.613-36.541-77.904-18.547-91.696 69.92 23.754 83.71 41.751z" fill="#555a66"/></g><g><path d="m271.224 92.928h-30.448c-74.955 0-132.761 66.006-122.876 140.307l1.31 9.849 7.12 15.231-2.439 19.955 2.601 19.547 8.227 18.163-3.546 17.022 1.609 12.091c5.006 37.631 37.102 65.74 75.065 65.74h77.225v-317.145c-4.541-.502-9.161-.76-13.848-.76z" fill="#fff"/></g><g><path d="m271.224 92.928h-15.104v317.905h48.033c37.963 0 70.059-28.109 75.065-65.74l1.609-12.091-3.449-15.203 8.13-19.982 2.601-19.547-3.997-18.244 8.678-16.941 1.31-9.849c9.886-74.302-47.921-140.308-122.876-140.308z" fill="#e9edf5"/></g><g><ellipse cx="256" cy="384.833" fill="#707789" rx="121.807" ry="77.182"/></g><g><path d="m377.807 384.833c0-42.601-54.47-77.14-121.687-77.181v154.362c67.217-.041 121.687-34.579 121.687-77.181z" fill="#555a66"/></g><g><g><ellipse cx="299.982" cy="383.826" fill="#23272b" rx="14.661" ry="29.321"/></g><g><ellipse cx="212.018" cy="383.826" fill="#414952" rx="14.661" ry="29.321"/></g></g><g><g><circle cx="192.389" cy="215.717" fill="#555a66" r="15.094"/></g><g><circle cx="319.611" cy="215.717" fill="#333940" r="15.094"/></g></g><g><path d="m123.891 278.269h28.258c19.432 0 35.186-15.753 35.186-35.186h-68.125z" fill="#7e8596"/></g><g><path d="m131.172 333.002c15.903 0 28.795-12.892 28.795-28.795v-6.39h-33.476z" fill="#7e8596"/></g><g><path d="m388.109 278.269h-28.258c-19.432 0-35.186-15.753-35.186-35.186h68.124z" fill="#636978"/></g><g><path d="m380.828 333.002c-15.903 0-28.795-12.892-28.795-28.795v-6.39h33.476z" fill="#636978"/></g><g><path d="m216.905 43.7h78.19v91.873h-78.19z" fill="#555a66"/></g><g><path d="m256.121 43.699h38.974v91.874h-38.974z" fill="#333940"/></g></g></svg>