<?xml version="1.0" encoding="UTF-8"?>
<svg width="295px" height="94px" viewBox="0 0 295 94" version="1.1" xmlns="http://www.w3.org/2000/svg" xmlns:xlink="http://www.w3.org/1999/xlink">
    <!-- Generator: Sketch 55.1 (78136) - https://sketchapp.com -->
    <title>firewood copy 9</title>
    <desc>Created with Sketch.</desc>
    <g id="Page-1" stroke="none" stroke-width="1" fill="none" fill-rule="evenodd">
        <g id="firewood-copy-9" fill-rule="nonzero">
            <path d="M289.914092,94 L5.08590776,94 C2.27527484,94 0,88.738337 0,82.2457062 L0,11.7542938 C0,5.26166297 2.27527484,0 5.08590776,0 L289.914092,0 C292.722247,0 295,5.26166297 295,11.7542938 L295,82.2457062 C295,88.738337 292.722247,94 289.914092,94 L289.914092,94 Z" id="Path" fill="#D19A6E"></path>
            <path d="M289.914092,0 L5.08590776,0 C2.27527484,0 0,5.26335439 0,11.7580723 L0,58 L295,58 L295,11.7580723 C295,5.26335439 292.722247,0 289.914092,0 L289.914092,0 Z" id="Path" fill="#E2A975"></path>
        </g>
    </g>
</svg>