<?xml version="1.0" encoding="UTF-8"?>
<svg width="471px" height="171px" viewBox="0 0 471 171" version="1.1" xmlns="http://www.w3.org/2000/svg" xmlns:xlink="http://www.w3.org/1999/xlink">
    <!-- Generator: Sketch 55.1 (78136) - https://sketchapp.com -->
    <title>Group 27</title>
    <desc>Created with Sketch.</desc>
    <g id="Page-1" stroke="none" stroke-width="1" fill="none" fill-rule="evenodd">
        <g id="Group-27" fill-rule="nonzero">
            <path d="M5.37695312,28.3164062 L22.1933594,28.3164062 L22.1933594,36.2265625 L5.37695312,36.2265625 L5.37695312,28.3164062 Z M51.9157924,32.6816406 L62.8728237,32.6816406 L57.4821987,15.6894531 L51.9157924,32.6816406 Z M52.472433,5.81640625 L62.6677455,5.81640625 L77.9607143,49 L68.175558,49 L65.3923549,40.1230469 L49.4841518,40.1230469 L46.4958705,49 L37.0622768,49 L52.472433,5.81640625 Z M98.7984933,17.0664062 L107.763337,17.0664062 L96.2496652,49 L87.4313058,49 L75.9762277,17.0664062 L85.3512277,17.0664062 L92.0016183,40.6210938 L98.7984933,17.0664062 Z M125.349163,43.1113281 C127.790581,43.1113281 129.665563,42.2421962 130.974163,40.5039062 C132.282763,38.7656163 132.937054,36.2949379 132.937054,33.0917969 C132.937054,29.8886559 132.282763,27.4228602 130.974163,25.6943359 C129.665563,23.9658117 127.790581,23.1015625 125.349163,23.1015625 C122.907744,23.1015625 121.02788,23.9658117 119.709515,25.6943359 C118.391149,27.4228602 117.731975,29.8886559 117.731975,33.0917969 C117.731975,36.2949379 118.391149,38.7656163 119.709515,40.5039062 C121.02788,42.2421962 122.907744,43.1113281 125.349163,43.1113281 Z M141.696819,33.0917969 C141.696819,37.7793203 140.349176,41.7880693 137.65385,45.1181641 C134.958524,48.4482588 130.866769,50.1132812 125.37846,50.1132812 C119.890151,50.1132812 115.798395,48.4482588 113.103069,45.1181641 C110.407743,41.7880693 109.0601,37.7793203 109.0601,33.0917969 C109.0601,28.4823988 110.407743,24.4882981 113.103069,21.109375 C115.798395,17.7304519 119.890151,16.0410156 125.37846,16.0410156 C130.866769,16.0410156 134.958524,17.7304519 137.65385,21.109375 C140.349176,24.4882981 141.696819,28.4823988 141.696819,33.0917969 Z M154.800223,13.2578125 L146.333426,13.2578125 L146.333426,5.55273438 L154.800223,5.55273438 L154.800223,13.2578125 Z M146.333426,17.0664062 L154.800223,17.0664062 L154.800223,49 L146.333426,49 L146.333426,17.0664062 Z M173.206362,16.3046875 C175.139965,16.3046875 176.858698,16.7294879 178.362612,17.5791016 C179.866525,18.4287152 181.087216,19.6054612 182.024721,21.109375 L182.024721,5.875 L190.491518,5.875 L190.491518,49 L182.376283,49 L182.376283,44.5761719 C181.184871,46.4707126 179.827463,47.847652 178.304018,48.7070312 C176.780573,49.5664105 174.88606,49.9960938 172.620424,49.9960938 C168.889937,49.9960938 165.75032,48.4873198 163.201479,45.4697266 C160.652638,42.4521333 159.378237,38.5801018 159.378237,33.8535156 C159.378237,28.4042696 160.633107,24.1172031 163.142885,20.9921875 C165.652663,17.8671719 169.007122,16.3046875 173.206362,16.3046875 Z M175.022768,42.9648438 C177.386061,42.9648438 179.182918,42.0859463 180.413393,40.328125 C181.643868,38.5703037 182.259096,36.2949358 182.259096,33.5019531 C182.259096,29.5956836 181.272778,26.8027428 179.300112,25.1230469 C178.089168,24.1074168 176.682932,23.5996094 175.081362,23.5996094 C172.639943,23.5996094 170.847969,24.5224517 169.705385,26.3681641 C168.562801,28.2138764 167.991518,30.5038926 167.991518,33.2382812 C167.991518,36.1875147 168.572567,38.5458896 169.734682,40.3134766 C170.896797,42.0810635 172.659475,42.9648438 175.022768,42.9648438 Z M226.161217,43.1113281 C228.602635,43.1113281 230.477616,42.2421962 231.786217,40.5039062 C233.094817,38.7656163 233.749107,36.2949379 233.749107,33.0917969 C233.749107,29.8886559 233.094817,27.4228602 231.786217,25.6943359 C230.477616,23.9658117 228.602635,23.1015625 226.161217,23.1015625 C223.719798,23.1015625 221.839934,23.9658117 220.521568,25.6943359 C219.203202,27.4228602 218.544029,29.8886559 218.544029,33.0917969 C218.544029,36.2949379 219.203202,38.7656163 220.521568,40.5039062 C221.839934,42.2421962 223.719798,43.1113281 226.161217,43.1113281 Z M242.508873,33.0917969 C242.508873,37.7793203 241.16123,41.7880693 238.465904,45.1181641 C235.770578,48.4482588 231.678822,50.1132812 226.190513,50.1132812 C220.702205,50.1132812 216.610449,48.4482588 213.915123,45.1181641 C211.219797,41.7880693 209.872154,37.7793203 209.872154,33.0917969 C209.872154,28.4823988 211.219797,24.4882981 213.915123,21.109375 C216.610449,17.7304519 220.702205,16.0410156 226.190513,16.0410156 C231.678822,16.0410156 235.770578,17.7304519 238.465904,21.109375 C241.16123,24.4882981 242.508873,28.4823988 242.508873,33.0917969 Z M264.284152,16.3632812 C268.483392,16.3632812 271.769491,17.876938 274.14255,20.9042969 C276.515609,23.9316558 277.702121,27.8378667 277.702121,32.6230469 C277.702121,37.5840092 276.530257,41.6952962 274.186496,44.9570312 C271.842734,48.2187663 268.571282,49.8496094 264.372042,49.8496094 C261.73531,49.8496094 259.616191,49.3222709 258.014621,48.2675781 C257.057585,47.642575 256.022439,46.5488359 254.909152,44.9863281 L254.909152,49 L246.735324,49 L246.735324,5.875 L255.055636,5.875 L255.055636,21.2265625 C256.110329,19.7421801 257.272427,18.6093789 258.541964,17.828125 C260.045878,16.8515576 261.959921,16.3632812 264.284152,16.3632812 Z M262.14548,42.9648438 C264.293928,42.9648438 265.963833,42.0957118 267.155246,40.3574219 C268.346658,38.6191319 268.942355,36.3339985 268.942355,33.5019531 C268.942355,31.2363168 268.649389,29.3613355 268.063449,27.8769531 C266.950162,25.0644391 264.899401,23.6582031 261.911105,23.6582031 C258.883746,23.6582031 256.803689,25.0351425 255.670871,27.7890625 C255.08493,29.2539136 254.791964,31.1484259 254.791964,33.4726562 C254.791964,36.2070449 255.397427,38.4726473 256.608371,40.2695312 C257.819314,42.0664152 259.664999,42.9648438 262.14548,42.9648438 Z M288.725446,38.8046875 C288.901229,40.2890699 289.282084,41.3437469 289.868025,41.96875 C290.903186,43.0820368 292.817229,43.6386719 295.610212,43.6386719 C297.250845,43.6386719 298.554543,43.3945337 299.521345,42.90625 C300.488147,42.4179663 300.97154,41.6855518 300.97154,40.7089844 C300.97154,39.7714797 300.580919,39.0585962 299.799665,38.5703125 C299.018411,38.0820288 296.11805,37.2421935 291.098493,36.0507812 C287.485194,35.1523393 284.936391,34.0293036 283.452009,32.6816406 C281.967627,31.353509 281.225446,29.4394656 281.225446,26.9394531 C281.225446,23.9902196 282.382661,21.4560653 284.697126,19.3369141 C287.011591,17.2177628 290.268394,16.1582031 294.467634,16.1582031 C298.452029,16.1582031 301.699067,16.9540936 304.208845,18.5458984 C306.718623,20.1377033 308.159038,22.8866992 308.530134,26.7929688 L300.180525,26.7929688 C300.063336,25.7187446 299.760605,24.8691438 299.272321,24.2441406 C298.354348,23.1113225 296.791864,22.5449219 294.584821,22.5449219 C292.768406,22.5449219 291.474474,22.8281222 290.702985,23.3945312 C289.931497,23.9609403 289.545759,24.6249962 289.545759,25.3867188 C289.545759,26.3437548 289.955911,27.0371072 290.776228,27.4667969 C291.596544,27.9160179 294.496906,28.6874945 299.4774,29.78125 C302.797729,30.5625039 305.287938,31.7441327 306.948103,33.3261719 C308.588736,34.9277424 309.40904,36.9296755 309.40904,39.3320312 C309.40904,42.4961096 308.232294,45.0790916 305.878767,47.0810547 C303.525239,49.0830178 299.88758,50.0839844 294.965681,50.0839844 C289.946124,50.0839844 286.240107,49.0244247 283.847517,46.9052734 C281.454927,44.7861222 280.25865,42.0859539 280.25865,38.8046875 L288.725446,38.8046875 Z M310.852288,23.3066406 L310.852288,17.359375 L315.305413,17.359375 L315.305413,8.453125 L323.567132,8.453125 L323.567132,17.359375 L328.752679,17.359375 L328.752679,23.3066406 L323.567132,23.3066406 L323.567132,40.1816406 C323.567132,41.4902409 323.733146,42.3056625 324.065179,42.6279297 C324.397211,42.9501969 325.412826,43.1113281 327.112054,43.1113281 C327.365961,43.1113281 327.634513,43.1064454 327.917718,43.0966797 C328.200922,43.086914 328.47924,43.0722657 328.752679,43.0527344 L328.752679,49.2929688 L324.7976,49.4394531 C320.852268,49.5761726 318.156983,48.8925856 316.711663,47.3886719 C315.774158,46.4316358 315.305413,44.9570412 315.305413,42.9648438 L315.305413,23.3066406 L310.852288,23.3066406 Z M350.264286,33.4726562 C349.736939,33.8046892 349.204718,34.0732412 348.667606,34.2783203 C348.130494,34.4833995 347.393197,34.6738272 346.455692,34.8496094 L344.580692,35.2011719 C342.822871,35.5136734 341.563118,35.894529 340.801395,36.34375 C339.512326,37.1054726 338.867801,38.2871014 338.867801,39.8886719 C338.867801,41.3144603 339.263305,42.3447234 340.054325,42.9794922 C340.845344,43.614261 341.807249,43.9316406 342.940067,43.9316406 C344.736951,43.9316406 346.392208,43.4043021 347.905887,42.3496094 C349.419567,41.2949166 350.205692,39.3711077 350.264286,36.578125 L350.264286,33.4726562 Z M345.195926,29.5761719 C346.738903,29.3808584 347.842407,29.1367202 348.506473,28.84375 C349.697885,28.335935 350.293583,27.5449272 350.293583,26.4707031 C350.293583,25.1621028 349.839486,24.2587916 348.931278,23.7607422 C348.02307,23.2626928 346.690076,23.0136719 344.932254,23.0136719 C342.959588,23.0136719 341.563118,23.5019482 340.742801,24.4785156 C340.156861,25.2011755 339.76624,26.1777282 339.570926,27.4082031 L331.514286,27.4082031 C331.690068,24.6152204 332.47131,22.3203215 333.858036,20.5234375 C336.065078,17.7109234 339.854103,16.3046875 345.225223,16.3046875 C348.721334,16.3046875 351.826772,16.9980399 354.541629,18.3847656 C357.256487,19.7714913 358.613895,22.3886526 358.613895,26.2363281 L358.613895,40.8847656 C358.613895,41.9003957 358.633426,43.1308521 358.672489,44.5761719 C358.731083,45.6699273 358.897097,46.4121074 359.170536,46.8027344 C359.443975,47.1933613 359.854127,47.5156237 360.401004,47.7695312 L360.401004,49 L351.318973,49 C351.065066,48.3554655 350.889286,47.7500028 350.791629,47.1835938 C350.693973,46.6171847 350.615849,45.9726599 350.557254,45.25 C349.404905,46.5000063 348.076793,47.5644487 346.572879,48.4433594 C344.775995,49.4785208 342.744766,49.9960938 340.479129,49.9960938 C337.58849,49.9960938 335.200819,49.1709067 333.316044,47.5205078 C331.431268,45.8701089 330.488895,43.5312651 330.488895,40.5039062 C330.488895,36.5781054 332.002552,33.7363369 335.029911,31.9785156 C336.690075,31.0214796 339.131457,30.3378927 342.354129,29.9277344 L345.195926,29.5761719 Z M383.641127,28.5214844 C383.484876,27.3300722 383.08449,26.2558642 382.439955,25.2988281 C381.502451,24.0097592 380.047387,23.3652344 378.074721,23.3652344 C375.262207,23.3652344 373.338398,24.7617048 372.303237,27.5546875 C371.756359,29.0390699 371.482924,31.0117064 371.482924,33.4726562 C371.482924,35.816418 371.756359,37.7011647 372.303237,39.1269531 C373.299335,41.7832164 375.174317,43.1113281 377.928237,43.1113281 C379.881371,43.1113281 381.268076,42.5839896 382.088393,41.5292969 C382.908709,40.4746041 383.406751,39.1074303 383.582533,37.4277344 L392.107924,37.4277344 C391.912611,39.9668096 390.994651,42.3691293 389.354018,44.6347656 C386.736817,48.2871276 382.859903,50.1132812 377.723158,50.1132812 C372.586414,50.1132812 368.807155,48.589859 366.385268,45.5429688 C363.963381,42.4960785 362.752455,38.5410399 362.752455,33.6777344 C362.752455,28.1894257 364.090333,23.9218902 366.766127,20.875 C369.441922,17.8281098 373.133291,16.3046875 377.840346,16.3046875 C381.844272,16.3046875 385.120607,17.203116 387.669448,19 C390.218288,20.796884 391.727062,23.9706804 392.195815,28.5214844 L383.641127,28.5214844 Z M405.00625,49 L396.656641,49 L396.656641,5.81640625 L405.00625,5.81640625 L405.00625,49 Z M424.291295,23.1015625 C422.357691,23.1015625 420.858683,23.7070252 419.794224,24.9179688 C418.729766,26.1289123 418.060827,27.7695209 417.787388,29.8398438 L430.765904,29.8398438 C430.629185,27.6328015 429.960246,25.9580135 428.759068,24.8154297 C427.55789,23.6728458 426.068647,23.1015625 424.291295,23.1015625 Z M424.291295,16.2167969 C426.947558,16.2167969 429.340112,16.7148388 431.469029,17.7109375 C433.597946,18.7070362 435.355741,20.2792861 436.742467,22.4277344 C437.992473,24.3222751 438.803012,26.5195187 439.174107,29.0195312 C439.388952,30.4843823 439.476842,32.5937362 439.437779,35.3476562 L417.58231,35.3476562 C417.699498,38.5507973 418.705348,40.7968686 420.599888,42.0859375 C421.752238,42.8867228 423.138943,43.2871094 424.760045,43.2871094 C426.478803,43.2871094 427.875274,42.798833 428.949498,41.8222656 C429.535438,41.2949192 430.053011,40.5625047 430.502232,39.625 L439.027623,39.625 C438.812778,41.5195407 437.82646,43.4433496 436.068638,45.3964844 C433.33425,48.5019687 429.506163,50.0546875 424.584263,50.0546875 C420.521743,50.0546875 416.937795,48.7461068 413.83231,46.1289062 C410.726826,43.5117057 409.174107,39.2539357 409.174107,33.3554688 C409.174107,27.8280974 410.57546,23.5898585 413.378209,20.640625 C416.180957,17.6913915 419.818616,16.2167969 424.291295,16.2167969 Z M450.109542,38.8046875 C450.285325,40.2890699 450.66618,41.3437469 451.252121,41.96875 C452.287282,43.0820368 454.201325,43.6386719 456.994308,43.6386719 C458.634941,43.6386719 459.938639,43.3945337 460.905441,42.90625 C461.872243,42.4179663 462.355636,41.6855518 462.355636,40.7089844 C462.355636,39.7714797 461.965015,39.0585962 461.183761,38.5703125 C460.402507,38.0820288 457.502146,37.2421935 452.482589,36.0507812 C448.86929,35.1523393 446.320487,34.0293036 444.836105,32.6816406 C443.351722,31.353509 442.609542,29.4394656 442.609542,26.9394531 C442.609542,23.9902196 443.766757,21.4560653 446.081222,19.3369141 C448.395687,17.2177628 451.65249,16.1582031 455.85173,16.1582031 C459.836125,16.1582031 463.083163,16.9540936 465.592941,18.5458984 C468.102719,20.1377033 469.543134,22.8866992 469.91423,26.7929688 L461.564621,26.7929688 C461.447432,25.7187446 461.144701,24.8691438 460.656417,24.2441406 C459.738444,23.1113225 458.17596,22.5449219 455.968917,22.5449219 C454.152502,22.5449219 452.85857,22.8281222 452.087081,23.3945312 C451.315593,23.9609403 450.929855,24.6249962 450.929855,25.3867188 C450.929855,26.3437548 451.340007,27.0371072 452.160324,27.4667969 C452.98064,27.9160179 455.881002,28.6874945 460.861496,29.78125 C464.181825,30.5625039 466.672034,31.7441327 468.332199,33.3261719 C469.972832,34.9277424 470.793136,36.9296755 470.793136,39.3320312 C470.793136,42.4961096 469.61639,45.0790916 467.262863,47.0810547 C464.909335,49.0830178 461.271676,50.0839844 456.349777,50.0839844 C451.33022,50.0839844 447.624203,49.0244247 445.231613,46.9052734 C442.839023,44.7861222 441.642746,42.0859539 441.642746,38.8046875 L450.109542,38.8046875 Z M5.37695312,88.3164062 L22.1933594,88.3164062 L22.1933594,96.2265625 L5.37695312,96.2265625 L5.37695312,88.3164062 Z M40.4314174,87.7597656 C40.4314174,80.2206654 42.4528816,74.4101767 46.4958705,70.328125 C50.0115131,66.7734197 54.4841246,64.9960938 59.9138393,64.9960938 C67.1795006,64.9960938 72.4919475,67.3788824 75.8513393,72.1445312 C77.7068173,74.8203259 78.7029011,77.5058459 78.8396205,80.2011719 L69.816183,80.2011719 C69.2302426,78.130849 68.478297,76.5683646 67.5603237,75.5136719 C65.9196905,73.6386625 63.4880741,72.7011719 60.2654018,72.7011719 C56.9841354,72.7011719 54.3962706,74.0244008 52.5017299,76.6708984 C50.6071892,79.317396 49.659933,83.0624758 49.659933,87.90625 C49.659933,92.7500242 50.6608996,96.3779176 52.6628627,98.7900391 C54.6648259,101.20216 57.2087457,102.408203 60.2946987,102.408203 C63.458777,102.408203 65.8708622,101.373057 67.5310268,99.3027344 C68.4490001,98.1894476 69.2107113,96.5195424 69.816183,94.2929688 L78.7517299,94.2929688 C77.970476,99.0000235 75.9734257,102.82811 72.760519,105.777344 C69.5476123,108.726577 65.4314425,110.201172 60.4118862,110.201172 C54.2009176,110.201172 49.3181539,108.209004 45.7634487,104.224609 C42.2087434,100.220683 40.4314174,94.7324567 40.4314174,87.7597656 Z M100.849275,76.3046875 C101.005525,76.3046875 101.13736,76.3095703 101.244782,76.3193359 C101.352205,76.3291016 101.59146,76.3437499 101.962556,76.3632812 L101.962556,84.9179688 C101.435209,84.8593747 100.966464,84.8203126 100.556306,84.8007812 C100.146148,84.7812499 99.8141196,84.7714844 99.5602121,84.7714844 C96.2008203,84.7714844 93.9449834,85.8652234 92.7926339,88.0527344 C92.1480995,89.2832093 91.8258371,91.1777216 91.8258371,93.7363281 L91.8258371,109 L83.4176339,109 L83.4176339,77.0664062 L91.3863839,77.0664062 L91.3863839,82.6328125 C92.6754529,80.5038956 93.7984885,79.048832 94.7555246,78.2675781 C96.3180324,76.9589778 98.3492621,76.3046875 100.849275,76.3046875 Z M119.724163,103.111328 C122.165581,103.111328 124.040563,102.242196 125.349163,100.503906 C126.657763,98.7656163 127.312054,96.2949379 127.312054,93.0917969 C127.312054,89.8886559 126.657763,87.4228602 125.349163,85.6943359 C124.040563,83.9658117 122.165581,83.1015625 119.724163,83.1015625 C117.282744,83.1015625 115.40288,83.9658117 114.084515,85.6943359 C112.766149,87.4228602 112.106975,89.8886559 112.106975,93.0917969 C112.106975,96.2949379 112.766149,98.7656163 114.084515,100.503906 C115.40288,102.242196 117.282744,103.111328 119.724163,103.111328 Z M136.071819,93.0917969 C136.071819,97.7793203 134.724176,101.788069 132.02885,105.118164 C129.333524,108.448259 125.241769,110.113281 119.75346,110.113281 C114.265151,110.113281 110.173395,108.448259 107.478069,105.118164 C104.782743,101.788069 103.4351,97.7793203 103.4351,93.0917969 C103.4351,88.4823988 104.782743,84.4882981 107.478069,81.109375 C110.173395,77.7304519 114.265151,76.0410156 119.75346,76.0410156 C125.241769,76.0410156 129.333524,77.7304519 132.02885,81.109375 C134.724176,84.4882981 136.071819,88.4823988 136.071819,93.0917969 Z M147.095145,98.8046875 C147.270927,100.28907 147.651783,101.343747 148.237723,101.96875 C149.272885,103.082037 151.186928,103.638672 153.979911,103.638672 C155.620544,103.638672 156.924242,103.394534 157.891044,102.90625 C158.857845,102.417966 159.341239,101.685552 159.341239,100.708984 C159.341239,99.7714797 158.950618,99.0585962 158.169364,98.5703125 C157.38811,98.0820288 154.487748,97.2421935 149.468192,96.0507812 C145.854893,95.1523393 143.30609,94.0293036 141.821708,92.6816406 C140.337325,91.353509 139.595145,89.4394656 139.595145,86.9394531 C139.595145,83.9902196 140.75236,81.4560653 143.066825,79.3369141 C145.381289,77.2177628 148.638093,76.1582031 152.837333,76.1582031 C156.821728,76.1582031 160.068765,76.9540936 162.578544,78.5458984 C165.088322,80.1377033 166.528737,82.8866992 166.899833,86.7929688 L158.550223,86.7929688 C158.433035,85.7187446 158.130304,84.8691438 157.64202,84.2441406 C156.724047,83.1113225 155.161562,82.5449219 152.95452,82.5449219 C151.138105,82.5449219 149.844172,82.8281222 149.072684,83.3945312 C148.301196,83.9609403 147.915458,84.6249962 147.915458,85.3867188 C147.915458,86.3437548 148.32561,87.0371072 149.145926,87.4667969 C149.966243,87.9160179 152.866605,88.6874945 157.847098,89.78125 C161.167427,90.5625039 163.657637,91.7441327 165.317801,93.3261719 C166.958435,94.9277424 167.778739,96.9296755 167.778739,99.3320312 C167.778739,102.49611 166.601993,105.079092 164.248465,107.081055 C161.894938,109.083018 158.257279,110.083984 153.335379,110.083984 C148.315823,110.083984 144.609805,109.024425 142.217215,106.905273 C139.824625,104.786122 138.628348,102.085954 138.628348,98.8046875 L147.095145,98.8046875 Z M179.007143,98.8046875 C179.182925,100.28907 179.563781,101.343747 180.149721,101.96875 C181.184882,103.082037 183.098926,103.638672 185.891908,103.638672 C187.532542,103.638672 188.83624,103.394534 189.803041,102.90625 C190.769843,102.417966 191.253237,101.685552 191.253237,100.708984 C191.253237,99.7714797 190.862616,99.0585962 190.081362,98.5703125 C189.300108,98.0820288 186.399746,97.2421935 181.38019,96.0507812 C177.76689,95.1523393 175.218088,94.0293036 173.733705,92.6816406 C172.249323,91.353509 171.507143,89.4394656 171.507143,86.9394531 C171.507143,83.9902196 172.664358,81.4560653 174.978823,79.3369141 C177.293287,77.2177628 180.550091,76.1582031 184.74933,76.1582031 C188.733725,76.1582031 191.980763,76.9540936 194.490541,78.5458984 C197.000319,80.1377033 198.440735,82.8866992 198.81183,86.7929688 L190.462221,86.7929688 C190.345033,85.7187446 190.042302,84.8691438 189.554018,84.2441406 C188.636045,83.1113225 187.07356,82.5449219 184.866518,82.5449219 C183.050103,82.5449219 181.75617,82.8281222 180.984682,83.3945312 C180.213194,83.9609403 179.827455,84.6249962 179.827455,85.3867188 C179.827455,86.3437548 180.237608,87.0371072 181.057924,87.4667969 C181.878241,87.9160179 184.778602,88.6874945 189.759096,89.78125 C193.079425,90.5625039 195.569635,91.7441327 197.229799,93.3261719 C198.870432,94.9277424 199.690737,96.9296755 199.690737,99.3320312 C199.690737,102.49611 198.513991,105.079092 196.160463,107.081055 C193.806936,109.083018 190.169277,110.083984 185.247377,110.083984 C180.227821,110.083984 176.521803,109.024425 174.129213,106.905273 C171.736623,104.786122 170.540346,102.085954 170.540346,98.8046875 L179.007143,98.8046875 Z M216.346763,83.3066406 L216.346763,77.359375 L220.799888,77.359375 L220.799888,68.453125 L229.061607,68.453125 L229.061607,77.359375 L234.247154,77.359375 L234.247154,83.3066406 L229.061607,83.3066406 L229.061607,100.181641 C229.061607,101.490241 229.227621,102.305662 229.559654,102.62793 C229.891687,102.950197 230.907302,103.111328 232.606529,103.111328 C232.860437,103.111328 233.128989,103.106445 233.412193,103.09668 C233.695398,103.086914 233.973715,103.072266 234.247154,103.052734 L234.247154,109.292969 L230.292076,109.439453 C226.346744,109.576173 223.651458,108.892586 222.206138,107.388672 C221.268634,106.431636 220.799888,104.957041 220.799888,102.964844 L220.799888,83.3066406 L216.346763,83.3066406 Z M255.758761,76.2460938 C257.731427,76.2460938 259.523402,76.5878872 261.134738,77.2714844 C262.746074,77.9550815 264.069303,78.999993 265.104464,80.40625 C265.983375,81.5976622 266.520479,82.8232359 266.715792,84.0830078 C266.911106,85.3427797 267.008761,87.3984232 267.008761,90.25 L267.008761,109 L258.483371,109 L258.483371,89.5761719 C258.483371,87.8574133 258.190405,86.4707084 257.604464,85.4160156 C256.842742,83.9316332 255.397444,83.1894531 253.268527,83.1894531 C251.061485,83.1894531 249.386697,83.9267504 248.244113,85.4013672 C247.101529,86.8759839 246.530246,88.9804551 246.530246,91.7148438 L246.530246,109 L238.209933,109 L238.209933,65.9628906 L246.530246,65.9628906 L246.530246,81.2265625 C247.741189,79.3710845 249.142542,78.0771521 250.734347,77.3447266 C252.326152,76.612301 254.00094,76.2460938 255.758761,76.2460938 Z M285.942243,83.1015625 C284.00864,83.1015625 282.509631,83.7070252 281.445173,84.9179688 C280.380715,86.1289123 279.711776,87.7695209 279.438337,89.8398438 L292.416853,89.8398438 C292.280133,87.6328015 291.611195,85.9580135 290.410017,84.8154297 C289.208839,83.6728458 287.719596,83.1015625 285.942243,83.1015625 Z M285.942243,76.2167969 C288.598507,76.2167969 290.991061,76.7148388 293.119978,77.7109375 C295.248895,78.7070362 297.006689,80.2792861 298.393415,82.4277344 C299.643421,84.3222751 300.45396,86.5195187 300.825056,89.0195312 C301.039901,90.4843823 301.12779,92.5937362 301.088728,95.3476562 L279.233259,95.3476562 C279.350447,98.5507973 280.356296,100.796869 282.250837,102.085938 C283.403187,102.886723 284.789891,103.287109 286.410993,103.287109 C288.129752,103.287109 289.526222,102.798833 290.600446,101.822266 C291.186387,101.294919 291.70396,100.562505 292.153181,99.625 L300.678571,99.625 C300.463727,101.519541 299.477408,103.44335 297.719587,105.396484 C294.985198,108.501969 291.157112,110.054688 286.235212,110.054688 C282.172692,110.054688 278.588743,108.746107 275.483259,106.128906 C272.377775,103.511706 270.825056,99.2539357 270.825056,93.3554688 C270.825056,87.8280974 272.226409,83.5898585 275.029157,80.640625 C277.831906,77.6913915 281.469565,76.2167969 285.942243,76.2167969 Z M337.813114,76.3046875 C337.969365,76.3046875 338.101199,76.3095703 338.208622,76.3193359 C338.316044,76.3291016 338.555299,76.3437499 338.926395,76.3632812 L338.926395,84.9179688 C338.399049,84.8593747 337.930303,84.8203126 337.520145,84.8007812 C337.109987,84.7812499 336.777959,84.7714844 336.524051,84.7714844 C333.16466,84.7714844 330.908823,85.8652234 329.756473,88.0527344 C329.111939,89.2832093 328.789676,91.1777216 328.789676,93.7363281 L328.789676,109 L320.381473,109 L320.381473,77.0664062 L328.350223,77.0664062 L328.350223,82.6328125 C329.639292,80.5038956 330.762328,79.048832 331.719364,78.2675781 C333.281872,76.9589778 335.313101,76.3046875 337.813114,76.3046875 Z M350.945815,73.2578125 L342.479018,73.2578125 L342.479018,65.5527344 L350.945815,65.5527344 L350.945815,73.2578125 Z M342.479018,77.0664062 L350.945815,77.0664062 L350.945815,109 L342.479018,109 L342.479018,77.0664062 Z M377.262109,77.0664062 L386.226953,77.0664062 L374.713281,109 L365.894922,109 L354.439844,77.0664062 L363.814844,77.0664062 L370.465234,100.621094 L377.262109,77.0664062 Z M402.084263,83.1015625 C400.15066,83.1015625 398.651652,83.7070252 397.587193,84.9179688 C396.522735,86.1289123 395.853796,87.7695209 395.580357,89.8398438 L408.558873,89.8398438 C408.422153,87.6328015 407.753215,85.9580135 406.552037,84.8154297 C405.350859,83.6728458 403.861616,83.1015625 402.084263,83.1015625 Z M402.084263,76.2167969 C404.740527,76.2167969 407.133081,76.7148388 409.261998,77.7109375 C411.390915,78.7070362 413.14871,80.2792861 414.535435,82.4277344 C415.785442,84.3222751 416.59598,86.5195187 416.967076,89.0195312 C417.181921,90.4843823 417.26981,92.5937362 417.230748,95.3476562 L395.375279,95.3476562 C395.492467,98.5507973 396.498316,100.796869 398.392857,102.085938 C399.545207,102.886723 400.931912,103.287109 402.553013,103.287109 C404.271772,103.287109 405.668242,102.798833 406.742467,101.822266 C407.328407,101.294919 407.84598,100.562505 408.295201,99.625 L416.820592,99.625 C416.605747,101.519541 415.619428,103.44335 413.861607,105.396484 C411.127218,108.501969 407.299132,110.054688 402.377232,110.054688 C398.314712,110.054688 394.730763,108.746107 391.625279,106.128906 C388.519795,103.511706 386.967076,99.2539357 386.967076,93.3554688 C386.967076,87.8280974 388.368429,83.5898585 391.171177,80.640625 C393.973926,77.6913915 397.611585,76.2167969 402.084263,76.2167969 Z M438.742355,76.3046875 C438.898606,76.3046875 439.03044,76.3095703 439.137863,76.3193359 C439.245285,76.3291016 439.484541,76.3437499 439.855636,76.3632812 L439.855636,84.9179688 C439.32829,84.8593747 438.859544,84.8203126 438.449386,84.8007812 C438.039228,84.7812499 437.7072,84.7714844 437.453292,84.7714844 C434.093901,84.7714844 431.838064,85.8652234 430.685714,88.0527344 C430.04118,89.2832093 429.718917,91.1777216 429.718917,93.7363281 L429.718917,109 L421.310714,109 L421.310714,77.0664062 L429.279464,77.0664062 L429.279464,82.6328125 C430.568533,80.5038956 431.691569,79.048832 432.648605,78.2675781 C434.211113,76.9589778 436.242342,76.3046875 438.742355,76.3046875 Z M5.37695312,148.316406 L22.1933594,148.316406 L22.1933594,156.226562 L5.37695312,156.226562 L5.37695312,148.316406 Z M71.3396205,139.292969 C70.6560234,136.343735 68.9861182,134.283209 66.3298549,133.111328 C64.8454725,132.466794 63.1950984,132.144531 61.378683,132.144531 C57.9021032,132.144531 55.0456864,133.457995 52.8093471,136.084961 C50.5730078,138.711927 49.4548549,142.662083 49.4548549,147.935547 C49.4548549,153.248073 50.6657803,157.007801 53.0876674,159.214844 C55.5095545,161.421886 58.2634332,162.525391 61.3493862,162.525391 C64.376745,162.525391 66.857189,161.651376 68.7907924,159.90332 C70.7243958,158.155265 71.9157902,155.865249 72.3650112,153.033203 L62.3747768,153.033203 L62.3747768,145.826172 L80.363058,145.826172 L80.363058,169 L74.3864955,169 L73.4782924,163.609375 C71.7400025,165.660167 70.1775181,167.105465 68.7907924,167.945312 C66.407968,169.410164 63.4783098,170.142578 60.0017299,170.142578 C54.279045,170.142578 49.5915919,168.160176 45.9392299,164.195312 C42.1306171,160.210918 40.2263393,154.761753 40.2263393,147.847656 C40.2263393,140.855434 42.1501482,135.250021 45.9978237,131.03125 C49.8454991,126.812479 54.9333389,124.703125 61.2614955,124.703125 C66.7498042,124.703125 71.1589398,126.094713 74.4890346,128.87793 C77.8191294,131.661147 79.72829,135.132792 80.2165737,139.292969 L71.3396205,139.292969 Z M101.17154,163.111328 C103.612959,163.111328 105.48794,162.242196 106.79654,160.503906 C108.10514,158.765616 108.759431,156.294938 108.759431,153.091797 C108.759431,149.888656 108.10514,147.42286 106.79654,145.694336 C105.48794,143.965812 103.612959,143.101562 101.17154,143.101562 C98.7301217,143.101562 96.8502577,143.965812 95.5318917,145.694336 C94.2135258,147.42286 93.5543527,149.888656 93.5543527,153.091797 C93.5543527,156.294938 94.2135258,158.765616 95.5318917,160.503906 C96.8502577,162.242196 98.7301217,163.111328 101.17154,163.111328 Z M117.519196,153.091797 C117.519196,157.77932 116.171554,161.788069 113.476228,165.118164 C110.780902,168.448259 106.689146,170.113281 101.200837,170.113281 C95.7125284,170.113281 91.6207724,168.448259 88.9254464,165.118164 C86.2301205,161.788069 84.8824777,157.77932 84.8824777,153.091797 C84.8824777,148.482399 86.2301205,144.488298 88.9254464,141.109375 C91.6207724,137.730452 95.7125284,136.041016 101.200837,136.041016 C106.689146,136.041016 110.780902,137.730452 113.476228,141.109375 C116.171554,144.488298 117.519196,148.482399 117.519196,153.091797 Z M154.858817,136.246094 C156.831483,136.246094 158.623457,136.587887 160.234794,137.271484 C161.84613,137.955082 163.169359,138.999993 164.20452,140.40625 C165.083431,141.597662 165.620535,142.823236 165.815848,144.083008 C166.011162,145.34278 166.108817,147.398423 166.108817,150.25 L166.108817,169 L157.583426,169 L157.583426,149.576172 C157.583426,147.857413 157.290461,146.470708 156.70452,145.416016 C155.942798,143.931633 154.497499,143.189453 152.368583,143.189453 C150.16154,143.189453 148.486752,143.92675 147.344169,145.401367 C146.201585,146.875984 145.630301,148.980455 145.630301,151.714844 L145.630301,169 L137.309989,169 L137.309989,125.962891 L145.630301,125.962891 L145.630301,141.226562 C146.841245,139.371084 148.242598,138.077152 149.834403,137.344727 C151.426208,136.612301 153.100996,136.246094 154.858817,136.246094 Z M186.770815,163.111328 C189.212233,163.111328 191.087214,162.242196 192.395815,160.503906 C193.704415,158.765616 194.358705,156.294938 194.358705,153.091797 C194.358705,149.888656 193.704415,147.42286 192.395815,145.694336 C191.087214,143.965812 189.212233,143.101562 186.770815,143.101562 C184.329396,143.101562 182.449532,143.965812 181.131166,145.694336 C179.8128,147.42286 179.153627,149.888656 179.153627,153.091797 C179.153627,156.294938 179.8128,158.765616 181.131166,160.503906 C182.449532,162.242196 184.329396,163.111328 186.770815,163.111328 Z M203.118471,153.091797 C203.118471,157.77932 201.770828,161.788069 199.075502,165.118164 C196.380176,168.448259 192.28842,170.113281 186.800112,170.113281 C181.311803,170.113281 177.220047,168.448259 174.524721,165.118164 C171.829395,161.788069 170.481752,157.77932 170.481752,153.091797 C170.481752,148.482399 171.829395,144.488298 174.524721,141.109375 C177.220047,137.730452 181.311803,136.041016 186.800112,136.041016 C192.28842,136.041016 196.380176,137.730452 199.075502,141.109375 C201.770828,144.488298 203.118471,148.482399 203.118471,153.091797 Z M243.321484,136.363281 C244.727741,136.363281 246.114446,136.636716 247.481641,137.183594 C248.848835,137.730471 250.089057,138.687493 251.202344,140.054688 C252.100786,141.167974 252.706248,142.535148 253.01875,144.15625 C253.214063,145.230474 253.311719,146.802724 253.311719,148.873047 L253.253125,169 L244.698437,169 L244.698437,148.667969 C244.698437,147.457025 244.503127,146.460941 244.1125,145.679688 C243.370309,144.195305 242.003135,143.453125 240.010937,143.453125 C237.706238,143.453125 236.114458,144.410147 235.235547,146.324219 C234.786326,147.339849 234.561719,148.56054 234.561719,149.986328 L234.561719,169 L226.153516,169 L226.153516,149.986328 C226.153516,148.091787 225.958205,146.714848 225.567578,145.855469 C224.86445,144.312492 223.48751,143.541016 221.436719,143.541016 C219.053894,143.541016 217.452348,144.312492 216.632031,145.855469 C216.18281,146.734379 215.958203,148.04296 215.958203,149.78125 L215.958203,169 L207.491406,169 L207.491406,137.125 L215.606641,137.125 L215.606641,141.783203 C216.641802,140.123039 217.618355,138.94141 218.536328,138.238281 C220.15743,136.988275 222.257018,136.363281 224.835156,136.363281 C227.276575,136.363281 229.249211,136.900385 230.753125,137.974609 C231.964069,138.970708 232.882028,140.249992 233.507031,141.8125 C234.600787,139.937491 235.958195,138.560551 237.579297,137.681641 C239.298055,136.80273 241.212099,136.363281 243.321484,136.363281 Z M272.128013,143.101562 C270.19441,143.101562 268.695402,143.707025 267.630943,144.917969 C266.566485,146.128912 265.897546,147.769521 265.624107,149.839844 L278.602623,149.839844 C278.465903,147.632801 277.796965,145.958014 276.595787,144.81543 C275.394609,143.672846 273.905366,143.101562 272.128013,143.101562 Z M272.128013,136.216797 C274.784277,136.216797 277.176831,136.714839 279.305748,137.710938 C281.434665,138.707036 283.19246,140.279286 284.579185,142.427734 C285.829192,144.322275 286.63973,146.519519 287.010826,149.019531 C287.225671,150.484382 287.31356,152.593736 287.274498,155.347656 L265.419029,155.347656 C265.536217,158.550797 266.542066,160.796869 268.436607,162.085938 C269.588957,162.886723 270.975662,163.287109 272.596763,163.287109 C274.315522,163.287109 275.711992,162.798833 276.786217,161.822266 C277.372157,161.294919 277.88973,160.562505 278.338951,159.625 L286.864342,159.625 C286.649497,161.519541 285.663178,163.44335 283.905357,165.396484 C281.170968,168.501969 277.342882,170.054688 272.420982,170.054688 C268.358462,170.054688 264.774513,168.746107 261.669029,166.128906 C258.563545,163.511706 257.010826,159.253936 257.010826,153.355469 C257.010826,147.828097 258.412179,143.589858 261.214927,140.640625 C264.017676,137.691392 267.655335,136.216797 272.128013,136.216797 Z" id="-Avoidobstacles-Crosstheriver-Gohome" fill="#5AB267"></path>
            <path d="M0,22.7636719 L16.8164062,22.7636719 L16.8164062,30.6738281 L0,30.6738281 L0,22.7636719 Z M46.5388393,27.1289062 L57.4958705,27.1289062 L52.1052455,10.1367188 L46.5388393,27.1289062 Z M47.0954799,0.263671875 L57.2907924,0.263671875 L72.5837612,43.4472656 L62.7986049,43.4472656 L60.0154018,34.5703125 L44.1071987,34.5703125 L41.1189174,43.4472656 L31.6853237,43.4472656 L47.0954799,0.263671875 Z M93.4215402,11.5136719 L102.386384,11.5136719 L90.8727121,43.4472656 L82.0543527,43.4472656 L70.5992746,11.5136719 L79.9742746,11.5136719 L86.6246652,35.0683594 L93.4215402,11.5136719 Z M119.97221,37.5585938 C122.413628,37.5585938 124.28861,36.6894618 125.59721,34.9511719 C126.90581,33.2128819 127.5601,30.7422035 127.5601,27.5390625 C127.5601,24.3359215 126.90581,21.8701258 125.59721,20.1416016 C124.28861,18.4130773 122.413628,17.5488281 119.97221,17.5488281 C117.530791,17.5488281 115.650927,18.4130773 114.332561,20.1416016 C113.014195,21.8701258 112.355022,24.3359215 112.355022,27.5390625 C112.355022,30.7422035 113.014195,33.2128819 114.332561,34.9511719 C115.650927,36.6894618 117.530791,37.5585938 119.97221,37.5585938 Z M136.319866,27.5390625 C136.319866,32.2265859 134.972223,36.2353349 132.276897,39.5654297 C129.581571,42.8955245 125.489815,44.5605469 120.001507,44.5605469 C114.513198,44.5605469 110.421442,42.8955245 107.726116,39.5654297 C105.03079,36.2353349 103.683147,32.2265859 103.683147,27.5390625 C103.683147,22.9296645 105.03079,18.9355638 107.726116,15.5566406 C110.421442,12.1777175 114.513198,10.4882812 120.001507,10.4882812 C125.489815,10.4882812 129.581571,12.1777175 132.276897,15.5566406 C134.972223,18.9355638 136.319866,22.9296645 136.319866,27.5390625 Z M149.42327,7.70507812 L140.956473,7.70507812 L140.956473,0 L149.42327,0 L149.42327,7.70507812 Z M140.956473,11.5136719 L149.42327,11.5136719 L149.42327,43.4472656 L140.956473,43.4472656 L140.956473,11.5136719 Z M167.829408,10.7519531 C169.763012,10.7519531 171.481745,11.1767536 172.985658,12.0263672 C174.489572,12.8759808 175.710263,14.0527269 176.647768,15.5566406 L176.647768,0.322265625 L185.114565,0.322265625 L185.114565,43.4472656 L176.99933,43.4472656 L176.99933,39.0234375 C175.807918,40.9179782 174.45051,42.2949176 172.927065,43.1542969 C171.40362,44.0136762 169.509107,44.4433594 167.243471,44.4433594 C163.512984,44.4433594 160.373367,42.9345854 157.824526,39.9169922 C155.275685,36.899399 154.001283,33.0273674 154.001283,28.3007812 C154.001283,22.8515353 155.256154,18.5644688 157.765932,15.4394531 C160.27571,12.3144375 163.630169,10.7519531 167.829408,10.7519531 Z M169.645815,37.4121094 C172.009108,37.4121094 173.805965,36.5332119 175.03644,34.7753906 C176.266915,33.0175693 176.882143,30.7422015 176.882143,27.9492188 C176.882143,24.0429492 175.895825,21.2500084 173.923158,19.5703125 C172.712215,18.5546824 171.305979,18.046875 169.704408,18.046875 C167.26299,18.046875 165.471016,18.9697173 164.328432,20.8154297 C163.185848,22.661142 162.614565,24.9511582 162.614565,27.6855469 C162.614565,30.6347804 163.195614,32.9931552 164.357729,34.7607422 C165.519844,36.5283292 167.282522,37.4121094 169.645815,37.4121094 Z M220.784263,37.5585938 C223.225682,37.5585938 225.100663,36.6894618 226.409263,34.9511719 C227.717864,33.2128819 228.372154,30.7422035 228.372154,27.5390625 C228.372154,24.3359215 227.717864,21.8701258 226.409263,20.1416016 C225.100663,18.4130773 223.225682,17.5488281 220.784263,17.5488281 C218.342845,17.5488281 216.462981,18.4130773 215.144615,20.1416016 C213.826249,21.8701258 213.167076,24.3359215 213.167076,27.5390625 C213.167076,30.7422035 213.826249,33.2128819 215.144615,34.9511719 C216.462981,36.6894618 218.342845,37.5585938 220.784263,37.5585938 Z M237.13192,27.5390625 C237.13192,32.2265859 235.784277,36.2353349 233.088951,39.5654297 C230.393625,42.8955245 226.301869,44.5605469 220.81356,44.5605469 C215.325252,44.5605469 211.233496,42.8955245 208.53817,39.5654297 C205.842844,36.2353349 204.495201,32.2265859 204.495201,27.5390625 C204.495201,22.9296645 205.842844,18.9355638 208.53817,15.5566406 C211.233496,12.1777175 215.325252,10.4882812 220.81356,10.4882812 C226.301869,10.4882812 230.393625,12.1777175 233.088951,15.5566406 C235.784277,18.9355638 237.13192,22.9296645 237.13192,27.5390625 Z M258.907199,10.8105469 C263.106438,10.8105469 266.392538,12.3242036 268.765597,15.3515625 C271.138656,18.3789214 272.325167,22.2851323 272.325167,27.0703125 C272.325167,32.0312748 271.153304,36.1425618 268.809542,39.4042969 C266.465781,42.6660319 263.194329,44.296875 258.995089,44.296875 C256.358357,44.296875 254.239238,43.7695365 252.637667,42.7148438 C251.680631,42.0898406 250.645485,40.9961016 249.532199,39.4335938 L249.532199,43.4472656 L241.358371,43.4472656 L241.358371,0.322265625 L249.678683,0.322265625 L249.678683,15.6738281 C250.733376,14.1894457 251.895474,13.0566445 253.165011,12.2753906 C254.668925,11.2988232 256.582968,10.8105469 258.907199,10.8105469 Z M256.768527,37.4121094 C258.916975,37.4121094 260.58688,36.5429774 261.778292,34.8046875 C262.969705,33.0663976 263.565402,30.7812642 263.565402,27.9492188 C263.565402,25.6835824 263.272436,23.8086012 262.686496,22.3242188 C261.573209,19.5117047 259.522448,18.1054688 256.534152,18.1054688 C253.506793,18.1054688 251.426736,19.4824081 250.293917,22.2363281 C249.707977,23.7011792 249.415011,25.5956915 249.415011,27.9199219 C249.415011,30.6543105 250.020474,32.9199129 251.231417,34.7167969 C252.442361,36.5136809 254.288046,37.4121094 256.768527,37.4121094 Z M283.348493,33.2519531 C283.524275,34.7363355 283.905131,35.7910125 284.491071,36.4160156 C285.526233,37.5293024 287.440276,38.0859375 290.233259,38.0859375 C291.873892,38.0859375 293.17759,37.8417993 294.144392,37.3535156 C295.111193,36.8652319 295.594587,36.1328174 295.594587,35.15625 C295.594587,34.2187453 295.203966,33.5058618 294.422712,33.0175781 C293.641458,32.5292944 290.741097,31.6894591 285.72154,30.4980469 C282.108241,29.5996049 279.559438,28.4765692 278.075056,27.1289062 C276.590673,25.8007746 275.848493,23.8867313 275.848493,21.3867188 C275.848493,18.4374853 277.005708,15.9033309 279.320173,13.7841797 C281.634638,11.6650285 284.891441,10.6054688 289.090681,10.6054688 C293.075076,10.6054688 296.322114,11.4013592 298.831892,12.9931641 C301.34167,14.5849689 302.782085,17.3339648 303.153181,21.2402344 L294.803571,21.2402344 C294.686383,20.1660103 294.383652,19.3164094 293.895368,18.6914062 C292.977395,17.5585881 291.414911,16.9921875 289.207868,16.9921875 C287.391453,16.9921875 286.097521,17.2753878 285.326032,17.8417969 C284.554544,18.408206 284.168806,19.0722618 284.168806,19.8339844 C284.168806,20.7910204 284.578958,21.4843729 285.399275,21.9140625 C286.219591,22.3632835 289.119953,23.1347602 294.100446,24.2285156 C297.420776,25.0097695 299.910985,26.1913983 301.57115,27.7734375 C303.211783,29.375008 304.032087,31.3769411 304.032087,33.7792969 C304.032087,36.9433752 302.855341,39.5263572 300.501814,41.5283203 C298.148286,43.5302834 294.510627,44.53125 289.588728,44.53125 C284.569171,44.53125 280.863154,43.4716903 278.470564,41.3525391 C276.077974,39.2333878 274.881696,36.5332195 274.881696,33.2519531 L283.348493,33.2519531 Z M305.475335,17.7539062 L305.475335,11.8066406 L309.92846,11.8066406 L309.92846,2.90039062 L318.190179,2.90039062 L318.190179,11.8066406 L323.375725,11.8066406 L323.375725,17.7539062 L318.190179,17.7539062 L318.190179,34.6289062 C318.190179,35.9375065 318.356193,36.7529281 318.688225,37.0751953 C319.020258,37.3974625 320.035873,37.5585938 321.7351,37.5585938 C321.989008,37.5585938 322.25756,37.553711 322.540765,37.5439453 C322.823969,37.5341796 323.102287,37.5195313 323.375725,37.5 L323.375725,43.7402344 L319.420647,43.8867188 C315.475315,44.0234382 312.78003,43.3398513 311.33471,41.8359375 C310.397205,40.8789015 309.92846,39.4043068 309.92846,37.4121094 L309.92846,17.7539062 L305.475335,17.7539062 Z M344.887333,27.9199219 C344.359986,28.2519548 343.827765,28.5205068 343.290653,28.7255859 C342.753541,28.9306651 342.016244,29.1210929 341.078739,29.296875 L339.203739,29.6484375 C337.445918,29.9609391 336.186165,30.3417946 335.424442,30.7910156 C334.135373,31.5527382 333.490848,32.734367 333.490848,34.3359375 C333.490848,35.7617259 333.886352,36.791989 334.677372,37.4267578 C335.468391,38.0615266 336.430296,38.3789062 337.563114,38.3789062 C339.359998,38.3789062 341.015255,37.8515678 342.528934,36.796875 C344.042614,35.7421822 344.828739,33.8183733 344.887333,31.0253906 L344.887333,27.9199219 Z M339.818973,24.0234375 C341.36195,23.828124 342.465454,23.5839858 343.12952,23.2910156 C344.320932,22.7832006 344.916629,21.9921929 344.916629,20.9179688 C344.916629,19.6093685 344.462532,18.7060572 343.554325,18.2080078 C342.646117,17.7099584 341.313123,17.4609375 339.555301,17.4609375 C337.582635,17.4609375 336.186165,17.9492139 335.365848,18.9257812 C334.779908,19.6484411 334.389287,20.6249938 334.193973,21.8554688 L326.137333,21.8554688 C326.313115,19.062486 327.094357,16.7675871 328.481083,14.9707031 C330.688125,12.1581891 334.477149,10.7519531 339.84827,10.7519531 C343.344381,10.7519531 346.449819,11.4453056 349.164676,12.8320312 C351.879534,14.2187569 353.236942,16.8359183 353.236942,20.6835938 L353.236942,35.3320312 C353.236942,36.3476613 353.256473,37.5781178 353.295536,39.0234375 C353.35413,40.117193 353.520144,40.859373 353.793583,41.25 C354.067021,41.640627 354.477174,41.9628894 355.024051,42.2167969 L355.024051,43.4472656 L345.94202,43.4472656 C345.688113,42.8027312 345.512333,42.1972685 345.414676,41.6308594 C345.31702,41.0644503 345.238895,40.4199255 345.180301,39.6972656 C344.027952,40.9472719 342.69984,42.0117144 341.195926,42.890625 C339.399042,43.9257864 337.367813,44.4433594 335.102176,44.4433594 C332.211537,44.4433594 329.823865,43.6181723 327.93909,41.9677734 C326.054315,40.3173746 325.111942,37.9785308 325.111942,34.9511719 C325.111942,31.025371 326.625599,28.1836025 329.652958,26.4257812 C331.313122,25.4687452 333.754504,24.7851583 336.977176,24.375 L339.818973,24.0234375 Z M378.264174,22.96875 C378.107923,21.7773378 377.707537,20.7031298 377.063002,19.7460938 C376.125498,18.4570248 374.670434,17.8125 372.697768,17.8125 C369.885254,17.8125 367.961445,19.2089704 366.926283,22.0019531 C366.379406,23.4863355 366.105971,25.4589721 366.105971,27.9199219 C366.105971,30.2636836 366.379406,32.1484304 366.926283,33.5742188 C367.922382,36.230482 369.797363,37.5585938 372.551283,37.5585938 C374.504418,37.5585938 375.891123,37.0312553 376.71144,35.9765625 C377.531756,34.9218697 378.029798,33.5546959 378.20558,31.875 L386.730971,31.875 C386.535658,34.4140752 385.617698,36.8163949 383.977065,39.0820312 C381.359864,42.7343933 377.48295,44.5605469 372.346205,44.5605469 C367.209461,44.5605469 363.430202,43.0371246 361.008315,39.9902344 C358.586428,36.9433441 357.375502,32.9883056 357.375502,28.125 C357.375502,22.6366913 358.713379,18.3691559 361.389174,15.3222656 C364.064969,12.2753754 367.756338,10.7519531 372.463393,10.7519531 C376.467319,10.7519531 379.743654,11.6503816 382.292494,13.4472656 C384.841335,15.2441496 386.350109,18.417946 386.818862,22.96875 L378.264174,22.96875 Z M399.629297,43.4472656 L391.279687,43.4472656 L391.279687,0.263671875 L399.629297,0.263671875 L399.629297,43.4472656 Z M418.914342,17.5488281 C416.980738,17.5488281 415.48173,18.1542908 414.417271,19.3652344 C413.352813,20.5761779 412.683874,22.2167865 412.410435,24.2871094 L425.388951,24.2871094 C425.252231,22.0800671 424.583293,20.4052792 423.382115,19.2626953 C422.180937,18.1201115 420.691694,17.5488281 418.914342,17.5488281 Z M418.914342,10.6640625 C421.570605,10.6640625 423.963159,11.1621044 426.092076,12.1582031 C428.220993,13.1543019 429.978788,14.7265518 431.365513,16.875 C432.61552,18.7695407 433.426058,20.9667844 433.797154,23.4667969 C434.011999,24.9316479 434.099889,27.0410019 434.060826,29.7949219 L412.205357,29.7949219 C412.322545,32.9980629 413.328395,35.2441342 415.222935,36.5332031 C416.375285,37.3339884 417.76199,37.734375 419.383092,37.734375 C421.10185,37.734375 422.498321,37.2460986 423.572545,36.2695312 C424.158485,35.7421849 424.676058,35.0097703 425.125279,34.0722656 L433.65067,34.0722656 C433.435825,35.9668063 432.449507,37.8906152 430.691685,39.84375 C427.957297,42.9492343 424.12921,44.5019531 419.20731,44.5019531 C415.14479,44.5019531 411.560841,43.1933725 408.455357,40.5761719 C405.349873,37.9589713 403.797154,33.7012014 403.797154,27.8027344 C403.797154,22.275363 405.198507,18.0371241 408.001256,15.0878906 C410.804004,12.1386571 414.441663,10.6640625 418.914342,10.6640625 Z M444.732589,33.2519531 C444.908371,34.7363355 445.289227,35.7910125 445.875167,36.4160156 C446.910329,37.5293024 448.824372,38.0859375 451.617355,38.0859375 C453.257988,38.0859375 454.561686,37.8417993 455.528488,37.3535156 C456.495289,36.8652319 456.978683,36.1328174 456.978683,35.15625 C456.978683,34.2187453 456.588062,33.5058618 455.806808,33.0175781 C455.025554,32.5292944 452.125193,31.6894591 447.105636,30.4980469 C443.492337,29.5996049 440.943534,28.4765692 439.459152,27.1289062 C437.974769,25.8007746 437.232589,23.8867313 437.232589,21.3867188 C437.232589,18.4374853 438.389804,15.9033309 440.704269,13.7841797 C443.018734,11.6650285 446.275537,10.6054688 450.474777,10.6054688 C454.459172,10.6054688 457.70621,11.4013592 460.215988,12.9931641 C462.725766,14.5849689 464.166181,17.3339648 464.537277,21.2402344 L456.187667,21.2402344 C456.070479,20.1660103 455.767748,19.3164094 455.279464,18.6914062 C454.361491,17.5585881 452.799007,16.9921875 450.591964,16.9921875 C448.775549,16.9921875 447.481617,17.2753878 446.710128,17.8417969 C445.93864,18.408206 445.552902,19.0722618 445.552902,19.8339844 C445.552902,20.7910204 445.963054,21.4843729 446.783371,21.9140625 C447.603687,22.3632835 450.504049,23.1347602 455.484542,24.2285156 C458.804872,25.0097695 461.295081,26.1913983 462.955246,27.7734375 C464.595879,29.375008 465.416183,31.3769411 465.416183,33.7792969 C465.416183,36.9433752 464.239437,39.5263572 461.88591,41.5283203 C459.532382,43.5302834 455.894723,44.53125 450.972824,44.53125 C445.953267,44.53125 442.24725,43.4716903 439.85466,41.3525391 C437.46207,39.2333878 436.265792,36.5332195 436.265792,33.2519531 L444.732589,33.2519531 Z M0,82.7636719 L16.8164062,82.7636719 L16.8164062,90.6738281 L0,90.6738281 L0,82.7636719 Z M35.0544643,82.2070312 C35.0544643,74.6679311 37.0759284,68.8574423 41.1189174,64.7753906 C44.63456,61.2206854 49.1071715,59.4433594 54.5368862,59.4433594 C61.8025475,59.4433594 67.1149944,61.826148 70.4743862,66.5917969 C72.3298642,69.2675915 73.325948,71.9531115 73.4626674,74.6484375 L64.4392299,74.6484375 C63.8532895,72.5781146 63.1013439,71.0156303 62.1833705,69.9609375 C60.5427373,68.0859281 58.111121,67.1484375 54.8884487,67.1484375 C51.6071823,67.1484375 49.0193175,68.4716665 47.1247768,71.1181641 C45.2302361,73.7646617 44.2829799,77.5097414 44.2829799,82.3535156 C44.2829799,87.1972898 45.2839465,90.8251833 47.2859096,93.2373047 C49.2878727,95.6494261 51.8317926,96.8554688 54.9177455,96.8554688 C58.0818239,96.8554688 60.4939091,95.8203229 62.1540737,93.75 C63.072047,92.6367132 63.8337581,90.966808 64.4392299,88.7402344 L73.3747768,88.7402344 C72.5935229,93.4472892 70.5964725,97.2753759 67.3835658,100.224609 C64.1706592,103.173843 60.0544894,104.648438 55.034933,104.648438 C48.8239645,104.648438 43.9412008,102.65627 40.3864955,98.671875 C36.8317903,94.6679487 35.0544643,89.1797224 35.0544643,82.2070312 Z M95.4723214,70.7519531 C95.6285722,70.7519531 95.7604068,70.7568359 95.8678292,70.7666016 C95.9752517,70.7763672 96.2145071,70.7910155 96.5856027,70.8105469 L96.5856027,79.3652344 C96.0582563,79.3066403 95.589511,79.2675782 95.1793527,79.2480469 C94.7691944,79.2285155 94.4371664,79.21875 94.1832589,79.21875 C90.8238671,79.21875 88.5680303,80.3124891 87.4156808,82.5 C86.7711463,83.7304749 86.4488839,85.6249872 86.4488839,88.1835938 L86.4488839,103.447266 L78.0406808,103.447266 L78.0406808,71.5136719 L86.0094308,71.5136719 L86.0094308,77.0800781 C87.2984997,74.9511612 88.4215354,73.4960977 89.3785714,72.7148438 C90.9410792,71.4062435 92.9723089,70.7519531 95.4723214,70.7519531 Z M114.34721,97.5585938 C116.788628,97.5585938 118.66361,96.6894618 119.97221,94.9511719 C121.28081,93.2128819 121.9351,90.7422035 121.9351,87.5390625 C121.9351,84.3359215 121.28081,81.8701258 119.97221,80.1416016 C118.66361,78.4130773 116.788628,77.5488281 114.34721,77.5488281 C111.905791,77.5488281 110.025927,78.4130773 108.707561,80.1416016 C107.389195,81.8701258 106.730022,84.3359215 106.730022,87.5390625 C106.730022,90.7422035 107.389195,93.2128819 108.707561,94.9511719 C110.025927,96.6894618 111.905791,97.5585938 114.34721,97.5585938 Z M130.694866,87.5390625 C130.694866,92.2265859 129.347223,96.2353349 126.651897,99.5654297 C123.956571,102.895524 119.864815,104.560547 114.376507,104.560547 C108.888198,104.560547 104.796442,102.895524 102.101116,99.5654297 C99.4057901,96.2353349 98.0581473,92.2265859 98.0581473,87.5390625 C98.0581473,82.9296645 99.4057901,78.9355638 102.101116,75.5566406 C104.796442,72.1777175 108.888198,70.4882812 114.376507,70.4882812 C119.864815,70.4882812 123.956571,72.1777175 126.651897,75.5566406 C129.347223,78.9355638 130.694866,82.9296645 130.694866,87.5390625 Z M141.718192,93.2519531 C141.893974,94.7363355 142.27483,95.7910125 142.86077,96.4160156 C143.895932,97.5293024 145.809975,98.0859375 148.602958,98.0859375 C150.243591,98.0859375 151.547289,97.8417993 152.51409,97.3535156 C153.480892,96.8652319 153.964286,96.1328174 153.964286,95.15625 C153.964286,94.2187453 153.573665,93.5058618 152.792411,93.0175781 C152.011157,92.5292944 149.110795,91.6894591 144.091239,90.4980469 C140.47794,89.5996049 137.929137,88.4765692 136.444754,87.1289062 C134.960372,85.8007746 134.218192,83.8867313 134.218192,81.3867188 C134.218192,78.4374853 135.375407,75.9033309 137.689872,73.7841797 C140.004336,71.6650285 143.26114,70.6054688 147.460379,70.6054688 C151.444774,70.6054688 154.691812,71.4013592 157.20159,72.9931641 C159.711369,74.5849689 161.151784,77.3339648 161.522879,81.2402344 L153.17327,81.2402344 C153.056082,80.1660103 152.753351,79.3164094 152.265067,78.6914062 C151.347094,77.5585881 149.784609,76.9921875 147.577567,76.9921875 C145.761152,76.9921875 144.467219,77.2753878 143.695731,77.8417969 C142.924243,78.408206 142.538504,79.0722618 142.538504,79.8339844 C142.538504,80.7910204 142.948657,81.4843729 143.768973,81.9140625 C144.58929,82.3632835 147.489651,83.1347602 152.470145,84.2285156 C155.790474,85.0097695 158.280684,86.1913983 159.940848,87.7734375 C161.581481,89.375008 162.401786,91.3769411 162.401786,93.7792969 C162.401786,96.9433752 161.22504,99.5263572 158.871512,101.52832 C156.517985,103.530283 152.880326,104.53125 147.958426,104.53125 C142.93887,104.53125 139.232852,103.47169 136.840262,101.352539 C134.447672,99.2333878 133.251395,96.5332195 133.251395,93.2519531 L141.718192,93.2519531 Z M173.63019,93.2519531 C173.805972,94.7363355 174.186827,95.7910125 174.772768,96.4160156 C175.807929,97.5293024 177.721973,98.0859375 180.514955,98.0859375 C182.155589,98.0859375 183.459286,97.8417993 184.426088,97.3535156 C185.39289,96.8652319 185.876283,96.1328174 185.876283,95.15625 C185.876283,94.2187453 185.485662,93.5058618 184.704408,93.0175781 C183.923155,92.5292944 181.022793,91.6894591 176.003237,90.4980469 C172.389937,89.5996049 169.841135,88.4765692 168.356752,87.1289062 C166.87237,85.8007746 166.13019,83.8867313 166.13019,81.3867188 C166.13019,78.4374853 167.287405,75.9033309 169.601869,73.7841797 C171.916334,71.6650285 175.173137,70.6054688 179.372377,70.6054688 C183.356772,70.6054688 186.60381,71.4013592 189.113588,72.9931641 C191.623366,74.5849689 193.063782,77.3339648 193.434877,81.2402344 L185.085268,81.2402344 C184.96808,80.1660103 184.665348,79.3164094 184.177065,78.6914062 C183.259091,77.5585881 181.696607,76.9921875 179.489565,76.9921875 C177.673149,76.9921875 176.379217,77.2753878 175.607729,77.8417969 C174.836241,78.408206 174.450502,79.0722618 174.450502,79.8339844 C174.450502,80.7910204 174.860654,81.4843729 175.680971,81.9140625 C176.501288,82.3632835 179.401649,83.1347602 184.382143,84.2285156 C187.702472,85.0097695 190.192681,86.1913983 191.852846,87.7734375 C193.493479,89.375008 194.313783,91.3769411 194.313783,93.7792969 C194.313783,96.9433752 193.137037,99.5263572 190.78351,101.52832 C188.429983,103.530283 184.792324,104.53125 179.870424,104.53125 C174.850868,104.53125 171.14485,103.47169 168.75226,101.352539 C166.35967,99.2333878 165.163393,96.5332195 165.163393,93.2519531 L173.63019,93.2519531 Z M210.96981,77.7539062 L210.96981,71.8066406 L215.422935,71.8066406 L215.422935,62.9003906 L223.684654,62.9003906 L223.684654,71.8066406 L228.870201,71.8066406 L228.870201,77.7539062 L223.684654,77.7539062 L223.684654,94.6289062 C223.684654,95.9375065 223.850668,96.7529281 224.182701,97.0751953 C224.514734,97.3974625 225.530349,97.5585938 227.229576,97.5585938 C227.483483,97.5585938 227.752035,97.553711 228.03524,97.5439453 C228.318444,97.5341796 228.596762,97.5195313 228.870201,97.5 L228.870201,103.740234 L224.915123,103.886719 C220.969791,104.023438 218.274505,103.339851 216.829185,101.835938 C215.891681,100.878901 215.422935,99.4043068 215.422935,97.4121094 L215.422935,77.7539062 L210.96981,77.7539062 Z M250.381808,70.6933594 C252.354474,70.6933594 254.146448,71.0351528 255.757785,71.71875 C257.369121,72.4023472 258.69235,73.4472586 259.727511,74.8535156 C260.606422,76.0449278 261.143526,77.2705015 261.338839,78.5302734 C261.534153,79.7900454 261.631808,81.8456889 261.631808,84.6972656 L261.631808,103.447266 L253.106417,103.447266 L253.106417,84.0234375 C253.106417,82.3046789 252.813452,80.917974 252.227511,79.8632812 C251.465789,78.3788988 250.020491,77.6367188 247.891574,77.6367188 C245.684531,77.6367188 244.009743,78.3740161 242.86716,79.8486328 C241.724576,81.3232496 241.153292,83.4277207 241.153292,86.1621094 L241.153292,103.447266 L232.83298,103.447266 L232.83298,60.4101562 L241.153292,60.4101562 L241.153292,75.6738281 C242.364236,73.8183501 243.765589,72.5244177 245.357394,71.7919922 C246.949199,71.0595667 248.623987,70.6933594 250.381808,70.6933594 Z M280.56529,77.5488281 C278.631687,77.5488281 277.132678,78.1542908 276.06822,79.3652344 C275.003761,80.5761779 274.334823,82.2167865 274.061384,84.2871094 L287.0399,84.2871094 C286.90318,82.0800671 286.234241,80.4052792 285.033064,79.2626953 C283.831886,78.1201115 282.342643,77.5488281 280.56529,77.5488281 Z M280.56529,70.6640625 C283.221553,70.6640625 285.614108,71.1621044 287.743025,72.1582031 C289.871941,73.1543019 291.629736,74.7265518 293.016462,76.875 C294.266468,78.7695407 295.077007,80.9667844 295.448103,83.4667969 C295.662948,84.9316479 295.750837,87.0410019 295.711775,89.7949219 L273.856306,89.7949219 C273.973494,92.9980629 274.979343,95.2441342 276.873884,96.5332031 C278.026233,97.3339884 279.412938,97.734375 281.03404,97.734375 C282.752799,97.734375 284.149269,97.2460986 285.223493,96.2695312 C285.809434,95.7421849 286.327007,95.0097703 286.776228,94.0722656 L295.301618,94.0722656 C295.086773,95.9668063 294.100455,97.8906152 292.342634,99.84375 C289.608245,102.949234 285.780159,104.501953 280.858259,104.501953 C276.795739,104.501953 273.21179,103.193372 270.106306,100.576172 C267.000822,97.9589713 265.448103,93.7012014 265.448103,87.8027344 C265.448103,82.275363 266.849456,78.0371241 269.652204,75.0878906 C272.454953,72.1386571 276.092612,70.6640625 280.56529,70.6640625 Z M332.436161,70.7519531 C332.592411,70.7519531 332.724246,70.7568359 332.831669,70.7666016 C332.939091,70.7763672 333.178346,70.7910155 333.549442,70.8105469 L333.549442,79.3652344 C333.022096,79.3066403 332.55335,79.2675782 332.143192,79.2480469 C331.733034,79.2285155 331.401006,79.21875 331.147098,79.21875 C327.787706,79.21875 325.53187,80.3124891 324.37952,82.5 C323.734986,83.7304749 323.412723,85.6249872 323.412723,88.1835938 L323.412723,103.447266 L315.00452,103.447266 L315.00452,71.5136719 L322.97327,71.5136719 L322.97327,77.0800781 C324.262339,74.9511612 325.385375,73.4960977 326.342411,72.7148438 C327.904919,71.4062435 329.936148,70.7519531 332.436161,70.7519531 Z M345.568862,67.7050781 L337.102065,67.7050781 L337.102065,60 L345.568862,60 L345.568862,67.7050781 Z M337.102065,71.5136719 L345.568862,71.5136719 L345.568862,103.447266 L337.102065,103.447266 L337.102065,71.5136719 Z M371.885156,71.5136719 L380.85,71.5136719 L369.336328,103.447266 L360.517969,103.447266 L349.062891,71.5136719 L358.437891,71.5136719 L365.088281,95.0683594 L371.885156,71.5136719 Z M396.70731,77.5488281 C394.773707,77.5488281 393.274698,78.1542908 392.21024,79.3652344 C391.145782,80.5761779 390.476843,82.2167865 390.203404,84.2871094 L403.18192,84.2871094 C403.0452,82.0800671 402.376262,80.4052792 401.175084,79.2626953 C399.973906,78.1201115 398.484663,77.5488281 396.70731,77.5488281 Z M396.70731,70.6640625 C399.363574,70.6640625 401.756128,71.1621044 403.885045,72.1582031 C406.013962,73.1543019 407.771756,74.7265518 409.158482,76.875 C410.408488,78.7695407 411.219027,80.9667844 411.590123,83.4667969 C411.804968,84.9316479 411.892857,87.0410019 411.853795,89.7949219 L389.998326,89.7949219 C390.115514,92.9980629 391.121363,95.2441342 393.015904,96.5332031 C394.168254,97.3339884 395.554958,97.734375 397.17606,97.734375 C398.894819,97.734375 400.291289,97.2460986 401.365513,96.2695312 C401.951454,95.7421849 402.469027,95.0097703 402.918248,94.0722656 L411.443638,94.0722656 C411.228794,95.9668063 410.242475,97.8906152 408.484654,99.84375 C405.750265,102.949234 401.922179,104.501953 397.000279,104.501953 C392.937759,104.501953 389.35381,103.193372 386.248326,100.576172 C383.142842,97.9589713 381.590123,93.7012014 381.590123,87.8027344 C381.590123,82.275363 382.991476,78.0371241 385.794224,75.0878906 C388.596973,72.1386571 392.234632,70.6640625 396.70731,70.6640625 Z M433.365402,70.7519531 C433.521653,70.7519531 433.653487,70.7568359 433.76091,70.7666016 C433.868332,70.7763672 434.107587,70.7910155 434.478683,70.8105469 L434.478683,79.3652344 C433.951337,79.3066403 433.482591,79.2675782 433.072433,79.2480469 C432.662275,79.2285155 432.330247,79.21875 432.076339,79.21875 C428.716947,79.21875 426.461111,80.3124891 425.308761,82.5 C424.664227,83.7304749 424.341964,85.6249872 424.341964,88.1835938 L424.341964,103.447266 L415.933761,103.447266 L415.933761,71.5136719 L423.902511,71.5136719 L423.902511,77.0800781 C425.19158,74.9511612 426.314616,73.4960977 427.271652,72.7148438 C428.83416,71.4062435 430.865389,70.7519531 433.365402,70.7519531 Z M0,142.763672 L16.8164062,142.763672 L16.8164062,150.673828 L0,150.673828 L0,142.763672 Z M65.9626674,133.740234 C65.2790702,130.791001 63.6091651,128.730475 60.9529018,127.558594 C59.4685194,126.914059 57.8181452,126.591797 56.0017299,126.591797 C52.52515,126.591797 49.6687333,127.90526 47.432394,130.532227 C45.1960547,133.159193 44.0779018,137.109349 44.0779018,142.382812 C44.0779018,147.695339 45.2888272,151.455067 47.7107143,153.662109 C50.1326014,155.869152 52.8864801,156.972656 55.972433,156.972656 C58.9997919,156.972656 61.4802359,156.098642 63.4138393,154.350586 C65.3474427,152.60253 66.538837,150.312514 66.988058,147.480469 L56.9978237,147.480469 L56.9978237,140.273438 L74.9861049,140.273438 L74.9861049,163.447266 L69.0095424,163.447266 L68.1013393,158.056641 C66.3630493,160.107432 64.800565,161.55273 63.4138393,162.392578 C61.0310149,163.857429 58.1013567,164.589844 54.6247768,164.589844 C48.9020919,164.589844 44.2146388,162.607442 40.5622768,158.642578 C36.753664,154.658183 34.8493862,149.209019 34.8493862,142.294922 C34.8493862,135.302699 36.773195,129.697287 40.6208705,125.478516 C44.468546,121.259745 49.5563858,119.150391 55.8845424,119.150391 C61.3728511,119.150391 65.7819867,120.541978 69.1120815,123.325195 C72.4421762,126.108412 74.3513368,129.580057 74.8396205,133.740234 L65.9626674,133.740234 Z M95.7945871,157.558594 C98.2360055,157.558594 100.110987,156.689462 101.419587,154.951172 C102.728187,153.212882 103.382478,150.742204 103.382478,147.539062 C103.382478,144.335921 102.728187,141.870126 101.419587,140.141602 C100.110987,138.413077 98.2360055,137.548828 95.7945871,137.548828 C93.3531686,137.548828 91.4733046,138.413077 90.1549386,140.141602 C88.8365726,141.870126 88.1773996,144.335921 88.1773996,147.539062 C88.1773996,150.742204 88.8365726,153.212882 90.1549386,154.951172 C91.4733046,156.689462 93.3531686,157.558594 95.7945871,157.558594 Z M112.142243,147.539062 C112.142243,152.226586 110.794601,156.235335 108.099275,159.56543 C105.403949,162.895524 101.312193,164.560547 95.8238839,164.560547 C90.3355752,164.560547 86.2438193,162.895524 83.5484933,159.56543 C80.8531673,156.235335 79.5055246,152.226586 79.5055246,147.539062 C79.5055246,142.929664 80.8531673,138.935564 83.5484933,135.556641 C86.2438193,132.177717 90.3355752,130.488281 95.8238839,130.488281 C101.312193,130.488281 105.403949,132.177717 108.099275,135.556641 C110.794601,138.935564 112.142243,142.929664 112.142243,147.539062 Z M149.481864,130.693359 C151.45453,130.693359 153.246504,131.035153 154.85784,131.71875 C156.469177,132.402347 157.792406,133.447259 158.827567,134.853516 C159.706478,136.044928 160.243582,137.270502 160.438895,138.530273 C160.634209,139.790045 160.731864,141.845689 160.731864,144.697266 L160.731864,163.447266 L152.206473,163.447266 L152.206473,144.023438 C152.206473,142.304679 151.913507,140.917974 151.327567,139.863281 C150.565844,138.378899 149.120546,137.636719 146.991629,137.636719 C144.784587,137.636719 143.109799,138.374016 141.967215,139.848633 C140.824632,141.32325 140.253348,143.427721 140.253348,146.162109 L140.253348,163.447266 L131.933036,163.447266 L131.933036,120.410156 L140.253348,120.410156 L140.253348,135.673828 C141.464292,133.81835 142.865645,132.524418 144.45745,131.791992 C146.049255,131.059567 147.724043,130.693359 149.481864,130.693359 Z M181.393862,157.558594 C183.83528,157.558594 185.710261,156.689462 187.018862,154.951172 C188.327462,153.212882 188.981752,150.742204 188.981752,147.539062 C188.981752,144.335921 188.327462,141.870126 187.018862,140.141602 C185.710261,138.413077 183.83528,137.548828 181.393862,137.548828 C178.952443,137.548828 177.072579,138.413077 175.754213,140.141602 C174.435847,141.870126 173.776674,144.335921 173.776674,147.539062 C173.776674,150.742204 174.435847,153.212882 175.754213,154.951172 C177.072579,156.689462 178.952443,157.558594 181.393862,157.558594 Z M197.741518,147.539062 C197.741518,152.226586 196.393875,156.235335 193.698549,159.56543 C191.003223,162.895524 186.911467,164.560547 181.423158,164.560547 C175.93485,164.560547 171.843094,162.895524 169.147768,159.56543 C166.452442,156.235335 165.104799,152.226586 165.104799,147.539062 C165.104799,142.929664 166.452442,138.935564 169.147768,135.556641 C171.843094,132.177717 175.93485,130.488281 181.423158,130.488281 C186.911467,130.488281 191.003223,132.177717 193.698549,135.556641 C196.393875,138.935564 197.741518,142.929664 197.741518,147.539062 Z M237.944531,130.810547 C239.350788,130.810547 240.737493,131.083982 242.104687,131.630859 C243.471882,132.177737 244.712104,133.134759 245.825391,134.501953 C246.723833,135.61524 247.329295,136.982414 247.641797,138.603516 C247.83711,139.67774 247.934766,141.24999 247.934766,143.320312 L247.876172,163.447266 L239.321484,163.447266 L239.321484,143.115234 C239.321484,141.904291 239.126174,140.908207 238.735547,140.126953 C237.993356,138.642571 236.626182,137.900391 234.633984,137.900391 C232.329285,137.900391 230.737504,138.857412 229.858594,140.771484 C229.409373,141.787114 229.184766,143.007805 229.184766,144.433594 L229.184766,163.447266 L220.776562,163.447266 L220.776562,144.433594 C220.776562,142.539053 220.581252,141.162114 220.190625,140.302734 C219.487496,138.759758 218.110557,137.988281 216.059766,137.988281 C213.676941,137.988281 212.075395,138.759758 211.255078,140.302734 C210.805857,141.181645 210.58125,142.490226 210.58125,144.228516 L210.58125,163.447266 L202.114453,163.447266 L202.114453,131.572266 L210.229687,131.572266 L210.229687,136.230469 C211.264849,134.570304 212.241402,133.388675 213.159375,132.685547 C214.780477,131.435541 216.880065,130.810547 219.458203,130.810547 C221.899622,130.810547 223.872258,131.347651 225.376172,132.421875 C226.587115,133.417974 227.505075,134.697258 228.130078,136.259766 C229.223834,134.384756 230.581242,133.007817 232.202344,132.128906 C233.921102,131.249996 235.835146,130.810547 237.944531,130.810547 Z M266.75106,137.548828 C264.817457,137.548828 263.318448,138.154291 262.25399,139.365234 C261.189532,140.576178 260.520593,142.216787 260.247154,144.287109 L273.22567,144.287109 C273.08895,142.080067 272.420012,140.405279 271.218834,139.262695 C270.017656,138.120111 268.528413,137.548828 266.75106,137.548828 Z M266.75106,130.664062 C269.407324,130.664062 271.799878,131.162104 273.928795,132.158203 C276.057712,133.154302 277.815506,134.726552 279.202232,136.875 C280.452238,138.769541 281.262777,140.966784 281.633873,143.466797 C281.848718,144.931648 281.936607,147.041002 281.897545,149.794922 L260.042076,149.794922 C260.159264,152.998063 261.165113,155.244134 263.059654,156.533203 C264.212004,157.333988 265.598708,157.734375 267.21981,157.734375 C268.938569,157.734375 270.335039,157.246099 271.409263,156.269531 C271.995204,155.742185 272.512777,155.00977 272.961998,154.072266 L281.487388,154.072266 C281.272544,155.966806 280.286225,157.890615 278.528404,159.84375 C275.794015,162.949234 271.965929,164.501953 267.044029,164.501953 C262.981509,164.501953 259.39756,163.193372 256.292076,160.576172 C253.186592,157.958971 251.633873,153.701201 251.633873,147.802734 C251.633873,142.275363 253.035226,138.037124 255.837974,135.087891 C258.640723,132.138657 262.278382,130.664062 266.75106,130.664062 Z" id="-Avoidobstacles-Crosstheriver-Gohome-Copy" fill="#FFFFFF"></path>
        </g>
    </g>
</svg>