<?xml version="1.0" encoding="UTF-8"?>
<svg width="532px" height="122px" viewBox="0 0 532 122" version="1.1" xmlns="http://www.w3.org/2000/svg" xmlns:xlink="http://www.w3.org/1999/xlink">
    <!-- Generator: Sketch 55.1 (78136) - https://sketchapp.com -->
    <title>Group</title>
    <desc>Created with Sketch.</desc>
    <g id="Page-1" stroke="none" stroke-width="1" fill="none" fill-rule="evenodd">
        <g id="Artboard" transform="translate(-451.000000, -468.000000)" fill-rule="nonzero">
            <g id="Group" transform="translate(451.000000, 468.000000)">
                <path d="M5.73537946,8.75 L66.9658482,8.75 L66.9658482,23.9257812 L23.665067,23.9257812 L23.665067,43.7890625 L61.5752232,43.7890625 L61.5752232,58.7890625 L23.665067,58.7890625 L23.665067,95 L5.73537946,95 L5.73537946,8.75 Z M109.461719,29.609375 C109.77422,29.609375 110.03789,29.6191405 110.252734,29.6386719 C110.467579,29.6582032 110.94609,29.6874998 111.688281,29.7265625 L111.688281,46.8359375 C110.633588,46.7187494 109.696098,46.6406252 108.875781,46.6015625 C108.055465,46.5624998 107.391409,46.5429688 106.883594,46.5429688 C100.16481,46.5429688 95.6531365,48.7304469 93.3484375,53.1054688 C92.0593686,55.5664186 91.4148437,59.3554432 91.4148437,64.4726562 L91.4148437,95 L74.5984375,95 L74.5984375,31.1328125 L90.5359375,31.1328125 L90.5359375,42.265625 C93.1140754,38.0077912 95.3601467,35.0976641 97.2742187,33.5351562 C100.399234,30.9179557 104.461694,29.609375 109.461719,29.609375 Z M147.211496,83.2226562 C152.094332,83.2226562 155.844295,81.4843924 158.461496,78.0078125 C161.078696,74.5312326 162.387277,69.5898758 162.387277,63.1835938 C162.387277,56.7773117 161.078696,51.8457204 158.461496,48.3886719 C155.844295,44.9316233 152.094332,43.203125 147.211496,43.203125 C142.328659,43.203125 138.568931,44.9316233 135.932199,48.3886719 C133.295467,51.8457204 131.977121,56.7773117 131.977121,63.1835938 C131.977121,69.5898758 133.295467,74.5312326 135.932199,78.0078125 C138.568931,81.4843924 142.328659,83.2226562 147.211496,83.2226562 Z M179.906808,63.1835938 C179.906808,72.5586406 177.211522,80.5761386 171.820871,87.2363281 C166.430219,93.8965177 158.246707,97.2265625 147.270089,97.2265625 C136.293472,97.2265625 128.10996,93.8965177 122.719308,87.2363281 C117.328656,80.5761386 114.633371,72.5586406 114.633371,63.1835938 C114.633371,53.9647977 117.328656,45.9765963 122.719308,39.21875 C128.10996,32.4609037 136.293472,29.0820312 147.270089,29.0820312 C158.246707,29.0820312 166.430219,32.4609037 171.820871,39.21875 C177.211522,45.9765963 179.906808,53.9647977 179.906808,63.1835938 Z M216.367522,81.2890625 C220.273792,81.2890625 223.57454,79.8144679 226.269866,76.8652344 C228.965192,73.9160009 230.312835,69.2187822 230.312835,62.7734375 C230.312835,56.7187197 229.033551,52.1093908 226.474944,48.9453125 C223.916338,45.7812342 220.488638,44.1992188 216.191741,44.1992188 C210.332337,44.1992188 206.289408,46.9530975 204.062835,52.4609375 C202.890954,55.3906396 202.305022,59.0038848 202.305022,63.3007812 C202.305022,67.0117373 202.930016,70.3124855 204.180022,73.203125 C206.445659,78.593777 210.508118,81.2890625 216.367522,81.2890625 Z M212.207366,29.609375 C215.410507,29.609375 218.203448,30.0976514 220.586272,31.0742188 C224.648793,32.7539146 227.93001,35.8398213 230.430022,40.3320312 L230.430022,31.1328125 L246.660491,31.1328125 L246.660491,91.71875 C246.660491,99.9609787 245.273786,106.171854 242.500335,110.351562 C237.734686,117.539098 228.594152,121.132812 215.07846,121.132812 C206.914357,121.132812 200.254267,119.531266 195.097991,116.328125 C189.941715,113.124984 187.090181,108.339876 186.543304,101.972656 L204.707366,101.972656 C205.176118,103.925791 205.93783,105.332027 206.992522,106.191406 C208.789406,107.714851 211.81672,108.476562 216.074554,108.476562 C222.090209,108.476562 226.113606,106.464864 228.144866,102.441406 C229.472998,99.8632684 230.137054,95.5273742 230.137054,89.4335938 L230.137054,85.3320312 C228.535483,88.0664199 226.81675,90.1171807 224.980804,91.484375 C221.660474,94.0234502 217.344111,95.2929688 212.031585,95.2929688 C203.828419,95.2929688 197.27575,92.4121382 192.373382,86.6503906 C187.471013,80.8886431 185.019866,73.0859867 185.019866,63.2421875 C185.019866,53.7499525 187.383124,45.7715167 192.10971,39.3066406 C196.836296,32.8417646 203.535448,29.609375 212.207366,29.609375 Z M286.754018,81.2890625 C290.660287,81.2890625 293.961036,79.8144679 296.656362,76.8652344 C299.351688,73.9160009 300.69933,69.2187822 300.69933,62.7734375 C300.69933,56.7187197 299.420046,52.1093908 296.86144,48.9453125 C294.302833,45.7812342 290.875133,44.1992188 286.578237,44.1992188 C280.718832,44.1992188 276.675904,46.9530975 274.44933,52.4609375 C273.277449,55.3906396 272.691518,59.0038848 272.691518,63.3007812 C272.691518,67.0117373 273.316512,70.3124855 274.566518,73.203125 C276.832154,78.593777 280.894614,81.2890625 286.754018,81.2890625 Z M282.593862,29.609375 C285.797003,29.609375 288.589943,30.0976514 290.972768,31.0742188 C295.035288,32.7539146 298.316505,35.8398213 300.816518,40.3320312 L300.816518,31.1328125 L317.046987,31.1328125 L317.046987,91.71875 C317.046987,99.9609787 315.660282,106.171854 312.88683,110.351562 C308.121182,117.539098 298.980648,121.132812 285.464955,121.132812 C277.300852,121.132812 270.640762,119.531266 265.484487,116.328125 C260.328211,113.124984 257.476677,108.339876 256.929799,101.972656 L275.093862,101.972656 C275.562614,103.925791 276.324325,105.332027 277.379018,106.191406 C279.175902,107.714851 282.203215,108.476562 286.461049,108.476562 C292.476704,108.476562 296.500101,106.464864 298.531362,102.441406 C299.859493,99.8632684 300.523549,95.5273742 300.523549,89.4335938 L300.523549,85.3320312 C298.921979,88.0664199 297.203246,90.1171807 295.367299,91.484375 C292.04697,94.0234502 287.730607,95.2929688 282.41808,95.2929688 C274.214914,95.2929688 267.662245,92.4121382 262.759877,86.6503906 C257.857509,80.8886431 255.406362,73.0859867 255.406362,63.2421875 C255.406362,53.7499525 257.769619,45.7715167 262.496205,39.3066406 C267.222791,32.8417646 273.921943,29.609375 282.593862,29.609375 Z M332.296763,107.246094 L334.406138,107.363281 C336.046772,107.441407 337.609256,107.382813 339.093638,107.1875 C340.578021,106.992187 341.828008,106.542972 342.843638,105.839844 C343.820206,105.175778 344.7284,103.789073 345.568248,101.679688 C346.408096,99.570302 346.749889,98.2812523 346.593638,97.8125 L323.156138,31.1328125 L341.730357,31.1328125 L355.67567,78.2421875 L368.859263,31.1328125 L386.61317,31.1328125 L364.699107,93.9453125 C360.480336,106.054748 357.140526,113.564439 354.679576,116.474609 C352.218626,119.38478 347.2968,120.839844 339.913951,120.839844 C338.429568,120.839844 337.238174,120.830078 336.339732,120.810547 C335.44129,120.791016 334.093647,120.722657 332.296763,120.605469 L332.296763,107.246094 Z M417.097321,7.75390625 C418.152014,7.75390625 419.109036,7.78320283 419.968415,7.84179688 C420.827794,7.90039092 421.999658,7.98828066 423.48404,8.10546875 L423.48404,21.6992188 C422.546535,21.5820307 420.974286,21.4941409 418.767243,21.4355469 C416.560201,21.3769528 415.036779,21.8652292 414.196931,22.9003906 C413.357083,23.9355521 412.937165,25.0781187 412.937165,26.328125 L412.937165,31.71875 L423.894196,31.71875 L423.894196,43.4960938 L412.937165,43.4960938 L412.937165,95 L396.29654,95 L396.29654,43.4960938 L386.980134,43.4960938 L386.980134,31.71875 L396.120759,31.71875 L396.120759,27.6171875 C396.120759,20.7812158 397.273091,16.0742316 399.57779,13.4960938 C401.999677,9.66794961 407.839463,7.75390625 417.097321,7.75390625 Z M455.784598,43.203125 C451.917391,43.203125 448.919374,44.4140504 446.790458,46.8359375 C444.661541,49.2578246 443.323663,52.5390418 442.776786,56.6796875 L468.733817,56.6796875 C468.460378,52.2656029 467.122501,48.9160271 464.720145,46.6308594 C462.317789,44.3456917 459.339303,43.203125 455.784598,43.203125 Z M455.784598,29.4335938 C461.097125,29.4335938 465.882233,30.4296775 470.140067,32.421875 C474.397901,34.4140725 477.913491,37.5585723 480.686942,41.8554688 C483.186954,45.6445502 484.808032,50.0390375 485.550223,55.0390625 C485.979913,57.9687646 486.155692,62.1874725 486.077567,67.6953125 L442.366629,67.6953125 C442.601006,74.1015945 444.612704,78.5937371 448.401786,81.171875 C450.706485,82.7734455 453.479895,83.5742188 456.722098,83.5742188 C460.159615,83.5742188 462.952556,82.597666 465.101004,80.6445312 C466.272885,79.5898385 467.308031,78.1250094 468.206473,76.25 L485.257254,76.25 C484.827565,80.0390814 482.854928,83.8866992 479.339286,87.7929688 C473.870508,94.0039373 466.214335,97.109375 456.370536,97.109375 C448.245495,97.109375 441.077598,94.4922137 434.866629,89.2578125 C428.655661,84.0234113 425.550223,75.5078715 425.550223,63.7109375 C425.550223,52.6561947 428.35293,44.179717 433.958426,38.28125 C439.563923,32.382783 446.839241,29.4335938 455.784598,29.4335938 Z M529.100781,29.609375 C529.413283,29.609375 529.676952,29.6191405 529.891797,29.6386719 C530.106642,29.6582032 530.585153,29.6874998 531.327344,29.7265625 L531.327344,46.8359375 C530.272651,46.7187494 529.33516,46.6406252 528.514844,46.6015625 C527.694527,46.5624998 527.030471,46.5429688 526.522656,46.5429688 C519.803873,46.5429688 515.292199,48.7304469 512.9875,53.1054688 C511.698431,55.5664186 511.053906,59.3554432 511.053906,64.4726562 L511.053906,95 L494.2375,95 L494.2375,31.1328125 L510.175,31.1328125 L510.175,42.265625 C512.753138,38.0077912 514.999209,35.0976641 516.913281,33.5351562 C520.038297,30.9179557 524.100756,29.609375 529.100781,29.609375 Z" id="Froggyfer" fill="#5AB267"></path>
                <path d="M0,0.99609375 L61.2304687,0.99609375 L61.2304687,16.171875 L17.9296875,16.171875 L17.9296875,36.0351562 L55.8398437,36.0351562 L55.8398437,51.0351562 L17.9296875,51.0351562 L17.9296875,87.2460938 L0,87.2460938 L0,0.99609375 Z M103.726339,21.8554688 C104.038841,21.8554688 104.30251,21.8652343 104.517355,21.8847656 C104.7322,21.904297 105.210711,21.9335936 105.952902,21.9726562 L105.952902,39.0820312 C104.898209,38.9648432 103.960718,38.8867189 103.140402,38.8476562 C102.320085,38.8085936 101.656029,38.7890625 101.148214,38.7890625 C94.4294307,38.7890625 89.9177571,40.9765406 87.613058,45.3515625 C86.3239891,47.8125123 85.6794643,51.6015369 85.6794643,56.71875 L85.6794643,87.2460938 L68.863058,87.2460938 L68.863058,23.3789062 L84.800558,23.3789062 L84.800558,34.5117188 C87.3786959,30.253885 89.6247672,27.3437578 91.5388393,25.78125 C94.6638549,23.1640494 98.7263143,21.8554688 103.726339,21.8554688 Z M141.476116,75.46875 C146.358953,75.46875 150.108915,73.7304861 152.726116,70.2539062 C155.343317,66.7773264 156.651897,61.8359695 156.651897,55.4296875 C156.651897,49.0234055 155.343317,44.0918142 152.726116,40.6347656 C150.108915,37.1777171 146.358953,35.4492188 141.476116,35.4492188 C136.593279,35.4492188 132.833551,37.1777171 130.196819,40.6347656 C127.560087,44.0918142 126.241741,49.0234055 126.241741,55.4296875 C126.241741,61.8359695 127.560087,66.7773264 130.196819,70.2539062 C132.833551,73.7304861 136.593279,75.46875 141.476116,75.46875 Z M174.171429,55.4296875 C174.171429,64.8047344 171.476143,72.8222323 166.085491,79.4824219 C160.694839,86.1426114 152.511327,89.4726562 141.53471,89.4726562 C130.558092,89.4726562 122.374581,86.1426114 116.983929,79.4824219 C111.593277,72.8222323 108.897991,64.8047344 108.897991,55.4296875 C108.897991,46.2108914 111.593277,38.22269 116.983929,31.4648438 C122.374581,24.7069975 130.558092,21.328125 141.53471,21.328125 C152.511327,21.328125 160.694839,24.7069975 166.085491,31.4648438 C171.476143,38.22269 174.171429,46.2108914 174.171429,55.4296875 Z M210.632143,73.5351562 C214.538412,73.5351562 217.839161,72.0605616 220.534487,69.1113281 C223.229813,66.1620946 224.577455,61.464876 224.577455,55.0195312 C224.577455,48.9648135 223.298171,44.3554846 220.739565,41.1914062 C218.180958,38.0273279 214.753258,36.4453125 210.456362,36.4453125 C204.596957,36.4453125 200.554029,39.1991912 198.327455,44.7070312 C197.155574,47.6367334 196.569643,51.2499785 196.569643,55.546875 C196.569643,59.2578311 197.194637,62.5585793 198.444643,65.4492188 C200.710279,70.8398707 204.772739,73.5351562 210.632143,73.5351562 Z M206.471987,21.8554688 C209.675128,21.8554688 212.468068,22.3437451 214.850893,23.3203125 C218.913413,25.0000084 222.19463,28.085915 224.694643,32.578125 L224.694643,23.3789062 L240.925112,23.3789062 L240.925112,83.9648438 C240.925112,92.2070725 239.538407,98.4179479 236.764955,102.597656 C231.999307,109.785192 222.858773,113.378906 209.34308,113.378906 C201.178977,113.378906 194.518887,111.77736 189.362612,108.574219 C184.206336,105.371078 181.354802,100.585969 180.807924,94.21875 L198.971987,94.21875 C199.440739,96.1718848 200.20245,97.5781207 201.257143,98.4375 C203.054027,99.9609451 206.08134,100.722656 210.339174,100.722656 C216.354829,100.722656 220.378226,98.7109576 222.409487,94.6875 C223.737618,92.1093621 224.401674,87.773468 224.401674,81.6796875 L224.401674,77.578125 C222.800104,80.3125137 221.081371,82.3632744 219.245424,83.7304688 C215.925095,86.2695439 211.608732,87.5390625 206.296205,87.5390625 C198.093039,87.5390625 191.54037,84.6582319 186.638002,78.8964844 C181.735634,73.1347368 179.284487,65.3320805 179.284487,55.4882812 C179.284487,45.9960463 181.647744,38.0176104 186.37433,31.5527344 C191.100916,25.0878583 197.800068,21.8554688 206.471987,21.8554688 Z M281.018638,73.5351562 C284.924908,73.5351562 288.225656,72.0605616 290.920982,69.1113281 C293.616308,66.1620946 294.963951,61.464876 294.963951,55.0195312 C294.963951,48.9648135 293.684667,44.3554846 291.12606,41.1914062 C288.567454,38.0273279 285.139754,36.4453125 280.842857,36.4453125 C274.983453,36.4453125 270.940525,39.1991912 268.713951,44.7070312 C267.54207,47.6367334 266.956138,51.2499785 266.956138,55.546875 C266.956138,59.2578311 267.581132,62.5585793 268.831138,65.4492188 C271.096775,70.8398707 275.159234,73.5351562 281.018638,73.5351562 Z M276.858482,21.8554688 C280.061623,21.8554688 282.854564,22.3437451 285.237388,23.3203125 C289.299909,25.0000084 292.581126,28.085915 295.081138,32.578125 L295.081138,23.3789062 L311.311607,23.3789062 L311.311607,83.9648438 C311.311607,92.2070725 309.924902,98.4179479 307.151451,102.597656 C302.385802,109.785192 293.245268,113.378906 279.729576,113.378906 C271.565473,113.378906 264.905383,111.77736 259.749107,108.574219 C254.592831,105.371078 251.741297,100.585969 251.19442,94.21875 L269.358482,94.21875 C269.827234,96.1718848 270.588946,97.5781207 271.643638,98.4375 C273.440522,99.9609451 276.467836,100.722656 280.72567,100.722656 C286.741325,100.722656 290.764722,98.7109576 292.795982,94.6875 C294.124114,92.1093621 294.78817,87.773468 294.78817,81.6796875 L294.78817,77.578125 C293.186599,80.3125137 291.467866,82.3632744 289.63192,83.7304688 C286.311591,86.2695439 281.995227,87.5390625 276.682701,87.5390625 C268.479535,87.5390625 261.926866,84.6582319 257.024498,78.8964844 C252.12213,73.1347368 249.670982,65.3320805 249.670982,55.4882812 C249.670982,45.9960463 252.03424,38.0176104 256.760826,31.5527344 C261.487412,25.0878583 268.186564,21.8554688 276.858482,21.8554688 Z M326.561384,99.4921875 L328.670759,99.609375 C330.311392,99.6875004 331.873877,99.6289072 333.358259,99.4335938 C334.842641,99.2382803 336.092629,98.789066 337.108259,98.0859375 C338.084826,97.4218717 338.99302,96.0351668 339.832868,93.9257812 C340.672716,91.8163957 341.01451,90.5273461 340.858259,90.0585938 L317.420759,23.3789062 L335.994978,23.3789062 L349.94029,70.4882812 L363.123884,23.3789062 L380.87779,23.3789062 L358.963728,86.1914062 C354.744957,98.3008418 351.405146,105.810532 348.944196,108.720703 C346.483247,111.630874 341.561421,113.085938 334.178571,113.085938 C332.694189,113.085938 331.502795,113.076172 330.604353,113.056641 C329.705911,113.037109 328.358268,112.968751 326.561384,112.851562 L326.561384,99.4921875 Z M411.361942,0 C412.416635,0 413.373656,0.029296582 414.233036,0.087890625 C415.092415,0.146484668 416.264278,0.234374414 417.748661,0.3515625 L417.748661,13.9453125 C416.811156,13.8281244 415.238906,13.7402347 413.031864,13.6816406 C410.824822,13.6230466 409.301399,14.1113229 408.461551,15.1464844 C407.621703,16.1816458 407.201786,17.3242125 407.201786,18.5742188 L407.201786,23.9648438 L418.158817,23.9648438 L418.158817,35.7421875 L407.201786,35.7421875 L407.201786,87.2460938 L390.561161,87.2460938 L390.561161,35.7421875 L381.244754,35.7421875 L381.244754,23.9648438 L390.385379,23.9648438 L390.385379,19.8632812 C390.385379,13.0273096 391.537712,8.32032539 393.842411,5.7421875 C396.264298,1.91404336 402.104083,0 411.361942,0 Z M450.049219,35.4492188 C446.182012,35.4492188 443.183995,36.6601441 441.055078,39.0820312 C438.926161,41.5039184 437.588284,44.7851355 437.041406,48.9257812 L462.998438,48.9257812 C462.724999,44.5116967 461.387121,41.1621208 458.984766,38.8769531 C456.58241,36.5917854 453.603924,35.4492188 450.049219,35.4492188 Z M450.049219,21.6796875 C455.361745,21.6796875 460.146854,22.6757713 464.404688,24.6679688 C468.662521,26.6601662 472.178111,29.804666 474.951563,34.1015625 C477.451575,37.8906439 479.072653,42.2851312 479.814844,47.2851562 C480.244533,50.2148584 480.420313,54.4335662 480.342188,59.9414062 L436.63125,59.9414062 C436.865626,66.3476883 438.877325,70.8398309 442.666406,73.4179688 C444.971105,75.0195393 447.744515,75.8203125 450.986719,75.8203125 C454.424236,75.8203125 457.217177,74.8437598 459.365625,72.890625 C460.537506,71.8359322 461.572652,70.3711031 462.471094,68.4960938 L479.521875,68.4960938 C479.092185,72.2851752 477.119549,76.132793 473.603906,80.0390625 C468.135129,86.2500311 460.478955,89.3554688 450.635156,89.3554688 C442.510116,89.3554688 435.342219,86.7383074 429.13125,81.5039062 C422.920281,76.2695051 419.814844,67.7539652 419.814844,55.9570312 C419.814844,44.9022885 422.61755,36.4258107 428.223047,30.5273438 C433.828544,24.6288768 441.103862,21.6796875 450.049219,21.6796875 Z M523.365402,21.8554688 C523.677903,21.8554688 523.941573,21.8652343 524.156417,21.8847656 C524.371262,21.904297 524.849773,21.9335936 525.591964,21.9726562 L525.591964,39.0820312 C524.537272,38.9648432 523.599781,38.8867189 522.779464,38.8476562 C521.959148,38.8085936 521.295092,38.7890625 520.787277,38.7890625 C514.068493,38.7890625 509.55682,40.9765406 507.252121,45.3515625 C505.963052,47.8125123 505.318527,51.6015369 505.318527,56.71875 L505.318527,87.2460938 L488.502121,87.2460938 L488.502121,23.3789062 L504.439621,23.3789062 L504.439621,34.5117188 C507.017758,30.253885 509.26383,27.3437578 511.177902,25.78125 C514.302917,23.1640494 518.365377,21.8554688 523.365402,21.8554688 Z" id="Froggyfer-Copy" fill="#FFFFFF"></path>
            </g>
        </g>
    </g>
</svg>