<?xml version="1.0" encoding="UTF-8"?>
<svg width="316px" height="416px" viewBox="0 0 316 416" version="1.1" xmlns="http://www.w3.org/2000/svg" xmlns:xlink="http://www.w3.org/1999/xlink">
    <!-- Generator: Sketch 55.1 (78136) - https://sketchapp.com -->
    <title>frog copy</title>
    <desc>Created with Sketch.</desc>
    <g id="Page-1" stroke="none" stroke-width="1" fill="none" fill-rule="evenodd">
        <g id="frog-copy" fill-rule="nonzero">
            <path d="M12.516,285.838601 C-4.2768,303.038046 -3.984,334.056207 12.7152,365.250533 C4.4528,375.980214 0,389.858744 0,403.709414 C0,410.502831 5.3672,416 12,416 L72,416 L96,394.491475 L96,302.978232 L72,277.952961 C47.8944,269.334802 26.0624,271.963349 12.516,285.838601 Z" id="Path" fill="#5AB267"></path>
            <path d="M303.2848,365.252825 C319.984,334.059908 320.2768,303.043149 303.484,285.84448 C289.9136,271.946094 268.1048,269.341427 244,277.959196 L220,302.983337 L220,398.333491 L244,416 L304,416 C310.6328,416 316,410.503079 316,403.709969 C316,389.859924 311.5472,375.982022 303.2848,365.252825 Z" id="Path" fill="#288C64"></path>
            <path d="M232.746043,218 L157.5,218 L82.2539571,218 C76.1949048,229.848553 73,243.224985 73,256.660463 L73,416 L121.285714,416 L133.357143,391.735096 L145.428571,416 L157.5,416 L169.571429,416 L181.642857,391.735096 L193.714286,416 L242,416 L242,256.660463 C242,243.224985 238.805095,229.848553 232.746043,218 Z" id="Path" fill="#8CD96B"></path>
            <path d="M181.571429,391.735096 L193.857143,416 L243,416 L243,256.660463 C243,243.224985 239.748381,229.848553 233.581771,218 L157,218 L157,416 L169.285714,416 L181.571429,391.735096 Z" id="Path" fill="#5AB267"></path>
            <path d="M292.422349,120 L158,120 L23.5776513,120 L0,144.6 C0,199.704 69.2761128,243 158,243 C246.723887,243 316,199.704 316,144.6 L292.422349,120 Z" id="Path" fill="#FFF5F5"></path>
            <path d="M316,144.6 L292.571574,120 L159,120 L159,243 C247.162344,243 316,199.704 316,144.6 Z" id="Path" fill="#EFE2DD"></path>
            <path d="M310.894574,122.142857 C306.033846,109.928571 297.282267,98.2036714 285.128421,88.1871429 C289.503805,79.8822429 291.692308,70.5985714 291.692308,61.0714286 C291.692308,27.36 264.467692,0 230.923077,0 C201.753846,0 177.446154,20.7634714 171.612308,49.3465286 C167.168862,48.9735857 162.600636,48.8587714 158,48.8946 C153.54359,48.9304286 149.05639,49.1063143 144.630769,49.3465286 C139.282267,21.2528571 114.490041,0 85.0769231,0 C51.5323077,0 24.3076923,27.36 24.3076923,61.0714286 C24.3076923,70.5985714 26.4961949,79.8822429 30.8715795,88.1871429 C18.7177333,98.2036714 9.96615385,109.928571 5.10542564,122.142857 C1.70153846,129.96 0,138.2649 0,146.571429 L47.8853436,146.571429 C70.0061538,146.571429 93.3423487,152.189186 122.024615,164.403471 C132.233846,168.557957 144.874656,171 158,171 C171.125344,171 183.766154,168.557957 193.974574,164.403471 C222.657651,152.189186 245.993036,146.571429 268.113846,146.571429 L316,146.571429 C316,138.2649 314.298462,129.96 310.894574,122.142857 Z" id="Path" fill="#8CD96B"></path>
            <path d="M268.417728,146.571429 L316,146.571429 C316,138.2649 314.309231,129.96 310.926887,122.142857 C306.096923,109.928571 297.400733,98.2036714 285.32381,88.1871429 C289.671503,79.8822429 291.846154,70.5985714 291.846154,61.0714286 C291.846154,27.36 264.793846,0 231.461538,0 C202.476923,0 178.323077,20.7634714 172.526154,49.3465286 C168.110831,48.9735857 163.571518,48.8587714 159,48.8946 L159,171 C172.042272,171 184.603077,168.557957 194.746887,164.403471 C223.248426,152.189186 246.436923,146.571429 268.417728,146.571429 Z" id="Path" fill="#5AB267"></path>
            <path d="M135,293 C128.3672,293 123,298.428993 123,305.138158 L123,416 L147,416 L147,305.138158 C147,298.428993 141.6328,293 135,293 Z" id="Path" fill="#5AB267"></path>
            <path d="M181,293 C174.3672,293 169,298.428993 169,305.138158 L169,416 L193,416 L193,305.138158 C193,298.428993 187.6328,293 181,293 Z" id="Path" fill="#288C64"></path>
            <circle id="Oval" fill="#5B362A" cx="231" cy="61" r="12"></circle>
            <circle id="Oval" fill="#704C55" cx="85" cy="61" r="12"></circle>
        </g>
    </g>
</svg>