<?xml version="1.0" encoding="UTF-8"?>
<svg width="363px" height="109px" viewBox="0 0 363 109" version="1.1" xmlns="http://www.w3.org/2000/svg" xmlns:xlink="http://www.w3.org/1999/xlink">
    <!-- Generator: Sketch 55.1 (78136) - https://sketchapp.com -->
    <title>Group 26</title>
    <desc>Created with Sketch.</desc>
    <g id="Page-1" stroke="none" stroke-width="1" fill="none" fill-rule="evenodd">
        <g id="Group-26">
            <g id="Group-25">
                <rect id="Rectangle" fill="#5AB267" x="0" y="0" width="363" height="109" rx="20"></rect>
                <path d="M37.1035156,61.6699219 C37.3769545,63.642588 37.9140585,65.1171826 38.7148438,66.09375 C40.1796948,67.8711026 42.6894354,68.7597656 46.2441406,68.7597656 C48.3730575,68.7597656 50.1015559,68.525393 51.4296875,68.0566406 C53.9492313,67.1581986 55.2089844,65.4882935 55.2089844,63.046875 C55.2089844,61.6210866 54.5839906,60.517582 53.3339844,59.7363281 C52.0839781,58.9746056 50.1211071,58.3007842 47.4453125,57.7148438 L42.875,56.6894531 C38.38279,55.673823 35.2773523,54.5703185 33.5585938,53.3789062 C30.6484229,51.3867088 29.1933594,48.2715056 29.1933594,44.0332031 C29.1933594,40.1659963 30.5995953,36.9531378 33.4121094,34.3945312 C36.2246234,31.8359247 40.3554415,30.5566406 45.8046875,30.5566406 C50.3554915,30.5566406 54.2372886,31.7626833 57.4501953,34.1748047 C60.663102,36.5869261 62.3476555,40.0878677 62.5039062,44.6777344 L53.8320312,44.6777344 C53.6757805,42.0800651 52.5429793,40.2343805 50.4335938,39.140625 C49.0273367,38.4179651 47.2793073,38.0566406 45.1894531,38.0566406 C42.8652228,38.0566406 41.0097726,38.5253859 39.6230469,39.4628906 C38.2363212,40.4003953 37.5429688,41.708976 37.5429688,43.3886719 C37.5429688,44.9316483 38.2265557,46.0839806 39.59375,46.8457031 C40.4726606,47.3535182 42.3476419,47.9492153 45.21875,48.6328125 L52.6601562,50.4199219 C55.9218913,51.2011758 58.3828042,52.2460872 60.0429688,53.5546875 C62.6211066,55.5859477 63.9101562,58.5253714 63.9101562,62.3730469 C63.9101562,66.3183791 62.4013823,69.5947135 59.3837891,72.2021484 C56.3661958,74.8095833 52.1035432,76.1132812 46.5957031,76.1132812 C40.970675,76.1132812 36.5468911,74.8291144 33.3242188,72.2607422 C30.1015464,69.69237 28.4902344,66.1621318 28.4902344,61.6699219 L37.1035156,61.6699219 Z M65.1776228,49.3066406 L65.1776228,43.359375 L69.6307478,43.359375 L69.6307478,34.453125 L77.8924665,34.453125 L77.8924665,43.359375 L83.0780134,43.359375 L83.0780134,49.3066406 L77.8924665,49.3066406 L77.8924665,66.1816406 C77.8924665,67.4902409 78.0584805,68.3056625 78.3905134,68.6279297 C78.7225463,68.9501969 79.7381611,69.1113281 81.4373884,69.1113281 C81.6912959,69.1113281 81.9598479,69.1064454 82.2430525,69.0966797 C82.526257,69.086914 82.8045745,69.0722657 83.0780134,69.0527344 L83.0780134,75.2929688 L79.1229353,75.4394531 C75.177603,75.5761726 72.4823175,74.8925856 71.0369978,73.3886719 C70.0994931,72.4316358 69.6307478,70.9570412 69.6307478,68.9648438 L69.6307478,49.3066406 L65.1776228,49.3066406 Z M104.589621,59.4726562 C104.062274,59.8046892 103.530053,60.0732412 102.992941,60.2783203 C102.455829,60.4833995 101.718531,60.6738272 100.781027,60.8496094 L98.9060268,61.2011719 C97.1482055,61.5136734 95.8884525,61.894529 95.1267299,62.34375 C93.837661,63.1054726 93.1931362,64.2871014 93.1931362,65.8886719 C93.1931362,67.3144603 93.58864,68.3447234 94.3796596,68.9794922 C95.1706792,69.614261 96.1325836,69.9316406 97.2654018,69.9316406 C99.0622858,69.9316406 100.717543,69.4043021 102.231222,68.3496094 C103.744902,67.2949166 104.531026,65.3711077 104.589621,62.578125 L104.589621,59.4726562 Z M99.5212612,55.5761719 C101.064238,55.3808584 102.167742,55.1367202 102.831808,54.84375 C104.02322,54.335935 104.618917,53.5449272 104.618917,52.4707031 C104.618917,51.1621028 104.16482,50.2587916 103.256613,49.7607422 C102.348405,49.2626928 101.015411,49.0136719 99.2575893,49.0136719 C97.2849232,49.0136719 95.8884528,49.5019482 95.0681362,50.4785156 C94.4821957,51.2011755 94.0915746,52.1777282 93.8962612,53.4082031 L85.8396205,53.4082031 C86.0154027,50.6152204 86.7966449,48.3203215 88.1833705,46.5234375 C90.3904128,43.7109234 94.1794374,42.3046875 99.550558,42.3046875 C103.046669,42.3046875 106.152107,42.9980399 108.866964,44.3847656 C111.581822,45.7714913 112.93923,48.3886526 112.93923,52.2363281 L112.93923,66.8847656 C112.93923,67.9003957 112.958761,69.1308521 112.997824,70.5761719 C113.056418,71.6699273 113.222432,72.4121074 113.495871,72.8027344 C113.769309,73.1933613 114.179462,73.5156237 114.726339,73.7695312 L114.726339,75 L105.644308,75 C105.390401,74.3554655 105.214621,73.7500028 105.116964,73.1835938 C105.019308,72.6171847 104.941183,71.9726599 104.882589,71.25 C103.73024,72.5000062 102.402128,73.5644487 100.898214,74.4433594 C99.1013303,75.4785208 97.0701006,75.9960938 94.8044643,75.9960938 C91.9138248,75.9960938 89.5261534,75.1709067 87.6413783,73.5205078 C85.7566033,71.8701089 84.8142299,69.5312651 84.8142299,66.5039062 C84.8142299,62.5781054 86.3278866,59.7363369 89.3552455,57.9785156 C91.0154101,57.0214796 93.4567919,56.3378927 96.6794643,55.9277344 L99.5212612,55.5761719 Z M136.237946,42.3046875 C136.394197,42.3046875 136.526032,42.3095703 136.633454,42.3193359 C136.740877,42.3291016 136.980132,42.3437499 137.351228,42.3632812 L137.351228,50.9179688 C136.823881,50.8593747 136.355136,50.8203126 135.944978,50.8007812 C135.534819,50.7812499 135.202791,50.7714844 134.948884,50.7714844 C131.589492,50.7714844 129.333655,51.8652234 128.181306,54.0527344 C127.536771,55.2832093 127.214509,57.1777216 127.214509,59.7363281 L127.214509,75 L118.806306,75 L118.806306,43.0664062 L126.775056,43.0664062 L126.775056,48.6328125 C128.064125,46.5038956 129.18716,45.048832 130.144196,44.2675781 C131.706704,42.9589778 133.737934,42.3046875 136.237946,42.3046875 Z M137.505413,49.3066406 L137.505413,43.359375 L141.958538,43.359375 L141.958538,34.453125 L150.220257,34.453125 L150.220257,43.359375 L155.405804,43.359375 L155.405804,49.3066406 L150.220257,49.3066406 L150.220257,66.1816406 C150.220257,67.4902409 150.386271,68.3056625 150.718304,68.6279297 C151.050336,68.9501969 152.065951,69.1113281 153.765179,69.1113281 C154.019086,69.1113281 154.287638,69.1064454 154.570843,69.0966797 C154.854047,69.086914 155.132365,69.0722657 155.405804,69.0527344 L155.405804,75.2929688 L151.450725,75.4394531 C147.505393,75.5761726 144.810108,74.8925856 143.364788,73.3886719 C142.427283,72.4316358 141.958538,70.9570412 141.958538,68.9648438 L141.958538,49.3066406 L137.505413,49.3066406 Z M204.229799,45.2929688 C203.546202,42.3437353 201.876297,40.283209 199.220033,39.1113281 C197.735651,38.4667937 196.085277,38.1445312 194.268862,38.1445312 C190.792282,38.1445312 187.935865,39.4579947 185.699526,42.0849609 C183.463186,44.7119272 182.345033,48.662083 182.345033,53.9355469 C182.345033,59.2480734 183.555959,63.0078015 185.977846,65.2148438 C188.399733,67.421886 191.153612,68.5253906 194.239565,68.5253906 C197.266924,68.5253906 199.747368,67.6513759 201.680971,65.9033203 C203.614574,64.1552647 204.805969,61.8652485 205.25519,59.0332031 L195.264955,59.0332031 L195.264955,51.8261719 L213.253237,51.8261719 L213.253237,75 L207.276674,75 L206.368471,69.609375 C204.630181,71.6601665 203.067697,73.1054646 201.680971,73.9453125 C199.298147,75.4101636 196.368488,76.1425781 192.891908,76.1425781 C187.169224,76.1425781 182.48177,74.1601761 178.829408,70.1953125 C175.020796,66.2109176 173.116518,60.7617533 173.116518,53.8476562 C173.116518,46.8554338 175.040327,41.2500211 178.888002,37.03125 C182.735678,32.8124789 187.823517,30.703125 194.151674,30.703125 C199.639983,30.703125 204.049118,32.0947126 207.379213,34.8779297 C210.709308,37.6611467 212.618469,41.1327917 213.106752,45.2929688 L204.229799,45.2929688 Z M237.342969,59.4726562 C236.815622,59.8046892 236.283401,60.0732412 235.746289,60.2783203 C235.209177,60.4833995 234.47188,60.6738272 233.534375,60.8496094 L231.659375,61.2011719 C229.901554,61.5136734 228.641801,61.894529 227.880078,62.34375 C226.591009,63.1054726 225.946484,64.2871014 225.946484,65.8886719 C225.946484,67.3144603 226.341988,68.3447234 227.133008,68.9794922 C227.924027,69.614261 228.885932,69.9316406 230.01875,69.9316406 C231.815634,69.9316406 233.470891,69.4043021 234.98457,68.3496094 C236.49825,67.2949166 237.284375,65.3711077 237.342969,62.578125 L237.342969,59.4726562 Z M232.274609,55.5761719 C233.817586,55.3808584 234.92109,55.1367202 235.585156,54.84375 C236.776568,54.335935 237.372266,53.5449272 237.372266,52.4707031 C237.372266,51.1621028 236.918169,50.2587916 236.009961,49.7607422 C235.101753,49.2626928 233.768759,49.0136719 232.010938,49.0136719 C230.038271,49.0136719 228.641801,49.5019482 227.821484,50.4785156 C227.235544,51.2011755 226.844923,52.1777282 226.649609,53.4082031 L218.592969,53.4082031 C218.768751,50.6152204 219.549993,48.3203215 220.936719,46.5234375 C223.143761,43.7109234 226.932786,42.3046875 232.303906,42.3046875 C235.800017,42.3046875 238.905455,42.9980399 241.620313,44.3847656 C244.33517,45.7714913 245.692578,48.3886526 245.692578,52.2363281 L245.692578,66.8847656 C245.692578,67.9003957 245.712109,69.1308521 245.751172,70.5761719 C245.809766,71.6699273 245.97578,72.4121074 246.249219,72.8027344 C246.522658,73.1933613 246.93281,73.5156237 247.479688,73.7695312 L247.479688,75 L238.397656,75 C238.143749,74.3554655 237.967969,73.7500028 237.870313,73.1835938 C237.772656,72.6171847 237.694532,71.9726599 237.635938,71.25 C236.483588,72.5000062 235.155476,73.5644487 233.651563,74.4433594 C231.854679,75.4785208 229.823449,75.9960938 227.557813,75.9960938 C224.667173,75.9960938 222.279502,75.1709067 220.394727,73.5205078 C218.509952,71.8701089 217.567578,69.5312651 217.567578,66.5039062 C217.567578,62.5781054 219.081235,59.7363369 222.108594,57.9785156 C223.768758,57.0214796 226.21014,56.3378927 229.432813,55.9277344 L232.274609,55.5761719 Z M287.331138,42.3632812 C288.737395,42.3632812 290.1241,42.636716 291.491295,43.1835938 C292.858489,43.7304715 294.098711,44.6874932 295.211998,46.0546875 C296.11044,47.1679743 296.715902,48.5351481 297.028404,50.15625 C297.223717,51.2304741 297.321373,52.802724 297.321373,54.8730469 L297.262779,75 L288.708092,75 L288.708092,54.6679688 C288.708092,53.4570252 288.512781,52.4609414 288.122154,51.6796875 C287.379963,50.1953051 286.012789,49.453125 284.020592,49.453125 C281.715892,49.453125 280.124112,50.4101467 279.245201,52.3242188 C278.79598,53.3398488 278.571373,54.5605397 278.571373,55.9863281 L278.571373,75 L270.16317,75 L270.16317,55.9863281 C270.16317,54.0917874 269.967859,52.714848 269.577232,51.8554688 C268.874104,50.3124923 267.497164,49.5410156 265.446373,49.5410156 C263.063548,49.5410156 261.462002,50.3124923 260.641685,51.8554688 C260.192464,52.7343794 259.967857,54.0429601 259.967857,55.78125 L259.967857,75 L251.50106,75 L251.50106,43.125 L259.616295,43.125 L259.616295,47.7832031 C260.651456,46.1230386 261.628009,44.9414098 262.545982,44.2382812 C264.167084,42.988275 266.266672,42.3632812 268.84481,42.3632812 C271.286229,42.3632812 273.258865,42.9003853 274.762779,43.9746094 C275.973723,44.9707081 276.891682,46.2499922 277.516685,47.8125 C278.610441,45.9374906 279.967849,44.5605513 281.588951,43.6816406 C283.307709,42.80273 285.221753,42.3632812 287.331138,42.3632812 Z M316.137667,49.1015625 C314.204064,49.1015625 312.705056,49.7070252 311.640597,50.9179688 C310.576139,52.1289123 309.9072,53.7695209 309.633761,55.8398438 L322.612277,55.8398438 C322.475557,53.6328015 321.806619,51.9580135 320.605441,50.8154297 C319.404263,49.6728458 317.91502,49.1015625 316.137667,49.1015625 Z M316.137667,42.2167969 C318.793931,42.2167969 321.186485,42.7148388 323.315402,43.7109375 C325.444319,44.7070362 327.202114,46.2792861 328.588839,48.4277344 C329.838846,50.3222751 330.649384,52.5195188 331.02048,55.0195312 C331.235325,56.4843823 331.323214,58.5937362 331.284152,61.3476562 L309.428683,61.3476562 C309.545871,64.5507973 310.55172,66.7968686 312.446261,68.0859375 C313.598611,68.8867228 314.985316,69.2871094 316.606417,69.2871094 C318.325176,69.2871094 319.721646,68.798833 320.795871,67.8222656 C321.381811,67.2949192 321.899384,66.5625047 322.348605,65.625 L330.873996,65.625 C330.659151,67.5195407 329.672832,69.4433496 327.915011,71.3964844 C325.180622,74.5019687 321.352536,76.0546875 316.430636,76.0546875 C312.368116,76.0546875 308.784167,74.7461068 305.678683,72.1289062 C302.573199,69.5117057 301.02048,65.2539357 301.02048,59.3554688 C301.02048,53.8280974 302.421833,49.5898585 305.224581,46.640625 C308.02733,43.6913915 311.664989,42.2167969 316.137667,42.2167969 Z" id="StartGame" fill="#FFFFFF" fill-rule="nonzero"></path>
            </g>
        </g>
    </g>
</svg>