<?xml version="1.0" encoding="UTF-8"?>
<svg width="1366px" height="1133px" viewBox="0 0 1366 1133" version="1.1" xmlns="http://www.w3.org/2000/svg" xmlns:xlink="http://www.w3.org/1999/xlink">
    <!-- Generator: Sketch 55.1 (78136) - https://sketchapp.com -->
    <title>Group 24</title>
    <desc>Created with Sketch.</desc>
    <g id="Page-1" stroke="none" stroke-width="1" fill="none" fill-rule="evenodd">
        <g id="Group-24" fill-rule="nonzero">
            <g id="Group-13-Copy">
                <g id="Group-12" transform="translate(0.000000, 2.000000)">
                    <g id="Group-11" transform="translate(0.000000, 0.985075)">
                        <g id="Group-4-Copy" transform="translate(-0.000000, 0.000000)">
                            <path d="M343.499638,4.439114 C327.731138,-1.47970467 310.19676,-1.47970467 294.428261,4.439114 C278.659761,10.3579327 261.125383,10.3579327 245.356884,4.439114 C229.588385,-1.47970467 212.054007,-1.47970467 196.285507,4.439114 C180.517008,10.3579327 162.98263,10.3579327 147.21413,4.439114 C131.445631,-1.47970467 113.911253,-1.47970467 98.1427536,4.439114 C82.3742541,10.3579327 64.8398763,10.3579327 49.0713768,4.439114 C33.3028773,-1.47970467 15.7684995,-1.47970467 0,4.439114 L0,48.0408146 L22.779486,69.7596238 L303.304651,69.7596238 L343.499638,48.0408146 L343.499638,4.439114 Z" id="Path" fill="#78CBEC"></path>
                            <path d="M0,115.511489 L343.499638,115.511489 L343.499638,49.4442778 C327.731138,41.6532962 310.19676,41.6532962 294.428261,49.4442778 C278.659761,57.2352594 261.125383,57.2352594 245.356884,49.4442778 C229.588385,41.6532962 212.054007,41.6532962 196.285507,49.4442778 C180.517008,57.2352594 162.98263,57.2352594 147.21413,49.4442778 C131.445631,41.6532962 113.911253,41.6532962 98.1427536,49.4442778 C82.3742541,57.2352594 64.8398763,57.2352594 49.0713768,49.4442778 C33.3028773,41.6532962 15.7684995,41.6532962 0,49.4442778 L0,115.511489 Z" id="Path" fill="#00ACDC"></path>
                        </g>
                        <g id="Group-4-Copy-2" transform="translate(-0.000000, 98.507463)">
                            <path d="M343.499638,4.439114 C327.731138,-1.47970467 310.19676,-1.47970467 294.428261,4.439114 C278.659761,10.3579327 261.125383,10.3579327 245.356884,4.439114 C229.588385,-1.47970467 212.054007,-1.47970467 196.285507,4.439114 C180.517008,10.3579327 162.98263,10.3579327 147.21413,4.439114 C131.445631,-1.47970467 113.911253,-1.47970467 98.1427536,4.439114 C82.3742541,10.3579327 64.8398763,10.3579327 49.0713768,4.439114 C33.3028773,-1.47970467 15.7684995,-1.47970467 0,4.439114 L0,48.0408146 L22.779486,69.7596238 L303.304651,69.7596238 L343.499638,48.0408146 L343.499638,4.439114 Z" id="Path" fill="#78CBEC"></path>
                            <path d="M0,98.2315007 L343.499638,98.2315007 L343.499638,48.0401556 C327.731138,42.121337 310.19676,42.121337 294.428261,48.0401556 C278.659761,53.9589743 261.125383,53.9589743 245.356884,48.0401556 C229.588385,42.121337 212.054007,42.121337 196.285507,48.0401556 C180.517008,53.9589743 162.98263,53.9589743 147.21413,48.0401556 C131.445631,42.121337 113.911253,42.121337 98.1427536,48.0401556 C82.3742541,53.9589743 64.8398763,53.9589743 49.0713768,48.0401556 C33.3028773,42.121337 15.7684995,42.121337 0,48.0401556 L0,98.2315007 Z" id="Path" fill="#00ACDC"></path>
                        </g>
                    </g>
                    <g id="Group-11-Copy" transform="translate(340.950226, 0.000000)">
                        <g id="Group-4-Copy" transform="translate(-0.000000, 0.000000)">
                            <path d="M343.499638,4.439114 C327.731138,-1.47970467 310.19676,-1.47970467 294.428261,4.439114 C278.659761,10.3579327 261.125383,10.3579327 245.356884,4.439114 C229.588385,-1.47970467 212.054007,-1.47970467 196.285507,4.439114 C180.517008,10.3579327 162.98263,10.3579327 147.21413,4.439114 C131.445631,-1.47970467 113.911253,-1.47970467 98.1427536,4.439114 C82.3742541,10.3579327 64.8398763,10.3579327 49.0713768,4.439114 C33.3028773,-1.47970467 15.7684995,-1.47970467 0,4.439114 L0,48.0408146 L22.779486,69.7596238 L303.304651,69.7596238 L343.499638,48.0408146 L343.499638,4.439114 Z" id="Path" fill="#78CBEC"></path>
                            <path d="M0,115.511489 L343.499638,115.511489 L343.499638,49.4442778 C327.731138,41.6532962 310.19676,41.6532962 294.428261,49.4442778 C278.659761,57.2352594 261.125383,57.2352594 245.356884,49.4442778 C229.588385,41.6532962 212.054007,41.6532962 196.285507,49.4442778 C180.517008,57.2352594 162.98263,57.2352594 147.21413,49.4442778 C131.445631,41.6532962 113.911253,41.6532962 98.1427536,49.4442778 C82.3742541,57.2352594 64.8398763,57.2352594 49.0713768,49.4442778 C33.3028773,41.6532962 15.7684995,41.6532962 0,49.4442778 L0,115.511489 Z" id="Path" fill="#00ACDC"></path>
                        </g>
                        <g id="Group-4-Copy-2" transform="translate(-0.000000, 98.507463)">
                            <path d="M343.499638,4.439114 C327.731138,-1.47970467 310.19676,-1.47970467 294.428261,4.439114 C278.659761,10.3579327 261.125383,10.3579327 245.356884,4.439114 C229.588385,-1.47970467 212.054007,-1.47970467 196.285507,4.439114 C180.517008,10.3579327 162.98263,10.3579327 147.21413,4.439114 C131.445631,-1.47970467 113.911253,-1.47970467 98.1427536,4.439114 C82.3742541,10.3579327 64.8398763,10.3579327 49.0713768,4.439114 C33.3028773,-1.47970467 15.7684995,-1.47970467 0,4.439114 L0,48.0408146 L22.779486,69.7596238 L303.304651,69.7596238 L343.499638,48.0408146 L343.499638,4.439114 Z" id="Path" fill="#78CBEC"></path>
                            <path d="M0,99.216575 L343.499638,99.216575 L343.499638,48.1202 C327.731138,42.0946555 310.19676,42.0946555 294.428261,48.1202 C278.659761,54.1457444 261.125383,54.1457444 245.356884,48.1202 C229.588385,42.0946555 212.054007,42.0946555 196.285507,48.1202 C180.517008,54.1457444 162.98263,54.1457444 147.21413,48.1202 C131.445631,42.0946555 113.911253,42.0946555 98.1427536,48.1202 C82.3742541,54.1457444 64.8398763,54.1457444 49.0713768,48.1202 C33.3028773,42.0946555 15.7684995,42.0946555 0,48.1202 L0,99.216575 Z" id="Path" fill="#00ACDC"></path>
                        </g>
                    </g>
                </g>
                <g id="Group-12-Copy" transform="translate(681.000000, 0.000000)">
                    <g id="Group-11" transform="translate(0.000000, 0.985222)">
                        <g id="Group-4-Copy" transform="translate(-0.000000, 0.000000)">
                            <path d="M343.499638,4.43977665 C327.731138,-1.47992555 310.19676,-1.47992555 294.428261,4.43977665 C278.659761,10.3594789 261.125383,10.3594789 245.356884,4.43977665 C229.588385,-1.47992555 212.054007,-1.47992555 196.285507,4.43977665 C180.517008,10.3594789 162.98263,10.3594789 147.21413,4.43977665 C131.445631,-1.47992555 113.911253,-1.47992555 98.1427536,4.43977665 C82.3742541,10.3594789 64.8398763,10.3594789 49.0713768,4.43977665 C33.3028773,-1.47992555 15.7684995,-1.47992555 0,4.43977665 L0,48.047986 L22.779486,69.7700373 L303.304651,69.7700373 L343.499638,48.047986 L343.499638,4.43977665 Z" id="Path" fill="#78CBEC"></path>
                            <path d="M0,115.528732 L343.499638,115.528732 L343.499638,49.4516587 C327.731138,41.6595141 310.19676,41.6595141 294.428261,49.4516587 C278.659761,57.2438033 261.125383,57.2438033 245.356884,49.4516587 C229.588385,41.6595141 212.054007,41.6595141 196.285507,49.4516587 C180.517008,57.2438033 162.98263,57.2438033 147.21413,49.4516587 C131.445631,41.6595141 113.911253,41.6595141 98.1427536,49.4516587 C82.3742541,57.2438033 64.8398763,57.2438033 49.0713768,49.4516587 C33.3028773,41.6595141 15.7684995,41.6595141 0,49.4516587 L0,115.528732 Z" id="Path" fill="#00ACDC"></path>
                        </g>
                        <g id="Group-4-Copy-2" transform="translate(-0.000000, 98.522167)">
                            <path d="M343.499638,4.43977665 C327.731138,-1.47992555 310.19676,-1.47992555 294.428261,4.43977665 C278.659761,10.3594789 261.125383,10.3594789 245.356884,4.43977665 C229.588385,-1.47992555 212.054007,-1.47992555 196.285507,4.43977665 C180.517008,10.3594789 162.98263,10.3594789 147.21413,4.43977665 C131.445631,-1.47992555 113.911253,-1.47992555 98.1427536,4.43977665 C82.3742541,10.3594789 64.8398763,10.3594789 49.0713768,4.43977665 C33.3028773,-1.47992555 15.7684995,-1.47992555 0,4.43977665 L0,48.047986 L22.779486,69.7700373 L303.304651,69.7700373 L343.499638,48.047986 L343.499638,4.43977665 Z" id="Path" fill="#78CBEC"></path>
                            <path d="M0,100.257797 L343.499638,100.257797 L343.499638,48.2107863 C327.731138,42.0731382 310.19676,42.0731382 294.428261,48.2107863 C278.659761,54.3484345 261.125383,54.3484345 245.356884,48.2107863 C229.588385,42.0731382 212.054007,42.0731382 196.285507,48.2107863 C180.517008,54.3484345 162.98263,54.3484345 147.21413,48.2107863 C131.445631,42.0731382 113.911253,42.0731382 98.1427536,48.2107863 C82.3742541,54.3484345 64.8398763,54.3484345 49.0713768,48.2107863 C33.3028773,42.0731382 15.7684995,42.0731382 0,48.2107863 L0,100.257797 Z" id="Path" fill="#00ACDC"></path>
                        </g>
                    </g>
                    <g id="Group-11-Copy" transform="translate(340.950226, 0.000000)">
                        <g id="Group-4-Copy" transform="translate(-0.000000, 0.000000)">
                            <path d="M343.499638,4.43977665 C327.731138,-1.47992555 310.19676,-1.47992555 294.428261,4.43977665 C278.659761,10.3594789 261.125383,10.3594789 245.356884,4.43977665 C229.588385,-1.47992555 212.054007,-1.47992555 196.285507,4.43977665 C180.517008,10.3594789 162.98263,10.3594789 147.21413,4.43977665 C131.445631,-1.47992555 113.911253,-1.47992555 98.1427536,4.43977665 C82.3742541,10.3594789 64.8398763,10.3594789 49.0713768,4.43977665 C33.3028773,-1.47992555 15.7684995,-1.47992555 0,4.43977665 L0,48.047986 L22.779486,69.7700373 L303.304651,69.7700373 L343.499638,48.047986 L343.499638,4.43977665 Z" id="Path" fill="#78CBEC"></path>
                            <path d="M0,115.528732 L343.499638,115.528732 L343.499638,49.4516587 C327.731138,41.6595141 310.19676,41.6595141 294.428261,49.4516587 C278.659761,57.2438033 261.125383,57.2438033 245.356884,49.4516587 C229.588385,41.6595141 212.054007,41.6595141 196.285507,49.4516587 C180.517008,57.2438033 162.98263,57.2438033 147.21413,49.4516587 C131.445631,41.6595141 113.911253,41.6595141 98.1427536,49.4516587 C82.3742541,57.2438033 64.8398763,57.2438033 49.0713768,49.4516587 C33.3028773,41.6595141 15.7684995,41.6595141 0,49.4516587 L0,115.528732 Z" id="Path" fill="#00ACDC"></path>
                        </g>
                        <g id="Group-4-Copy-2" transform="translate(-0.000000, 98.522167)">
                            <path d="M343.499638,4.43977665 C327.731138,-1.47992555 310.19676,-1.47992555 294.428261,4.43977665 C278.659761,10.3594789 261.125383,10.3594789 245.356884,4.43977665 C229.588385,-1.47992555 212.054007,-1.47992555 196.285507,4.43977665 C180.517008,10.3594789 162.98263,10.3594789 147.21413,4.43977665 C131.445631,-1.47992555 113.911253,-1.47992555 98.1427536,4.43977665 C82.3742541,10.3594789 64.8398763,10.3594789 49.0713768,4.43977665 C33.3028773,-1.47992555 15.7684995,-1.47992555 0,4.43977665 L0,48.047986 L22.779486,69.7700373 L303.304651,69.7700373 L343.499638,48.047986 L343.499638,4.43977665 Z" id="Path" fill="#78CBEC"></path>
                            <path d="M0,101.60755 L343.499638,101.60755 L343.499638,48.3204634 C327.731138,42.0365792 310.19676,42.0365792 294.428261,48.3204634 C278.659761,54.6043477 261.125383,54.6043477 245.356884,48.3204634 C229.588385,42.0365792 212.054007,42.0365792 196.285507,48.3204634 C180.517008,54.6043477 162.98263,54.6043477 147.21413,48.3204634 C131.445631,42.0365792 113.911253,42.0365792 98.1427536,48.3204634 C82.3742541,54.6043477 64.8398763,54.6043477 49.0713768,48.3204634 C33.3028773,42.0365792 15.7684995,42.0365792 0,48.3204634 L0,101.60755 Z" id="Path" fill="#00ACDC"></path>
                        </g>
                    </g>
                </g>
            </g>
            <g id="Group-13-Copy-2" transform="translate(0.000000, 188.000000)">
                <g id="Group-12" transform="translate(0.000000, 2.000000)">
                    <g id="Group-11" transform="translate(0.000000, 0.985075)">
                        <g id="Group-4-Copy" transform="translate(-0.000000, 0.000000)">
                            <path d="M343.499638,4.439114 C327.731138,-1.47970467 310.19676,-1.47970467 294.428261,4.439114 C278.659761,10.3579327 261.125383,10.3579327 245.356884,4.439114 C229.588385,-1.47970467 212.054007,-1.47970467 196.285507,4.439114 C180.517008,10.3579327 162.98263,10.3579327 147.21413,4.439114 C131.445631,-1.47970467 113.911253,-1.47970467 98.1427536,4.439114 C82.3742541,10.3579327 64.8398763,10.3579327 49.0713768,4.439114 C33.3028773,-1.47970467 15.7684995,-1.47970467 0,4.439114 L0,48.0408146 L22.779486,69.7596238 L303.304651,69.7596238 L343.499638,48.0408146 L343.499638,4.439114 Z" id="Path" fill="#78CBEC"></path>
                            <path d="M0,115.511489 L343.499638,115.511489 L343.499638,49.4442778 C327.731138,41.6532962 310.19676,41.6532962 294.428261,49.4442778 C278.659761,57.2352594 261.125383,57.2352594 245.356884,49.4442778 C229.588385,41.6532962 212.054007,41.6532962 196.285507,49.4442778 C180.517008,57.2352594 162.98263,57.2352594 147.21413,49.4442778 C131.445631,41.6532962 113.911253,41.6532962 98.1427536,49.4442778 C82.3742541,57.2352594 64.8398763,57.2352594 49.0713768,49.4442778 C33.3028773,41.6532962 15.7684995,41.6532962 0,49.4442778 L0,115.511489 Z" id="Path" fill="#00ACDC"></path>
                        </g>
                        <g id="Group-4-Copy-2" transform="translate(-0.000000, 98.507463)">
                            <path d="M343.499638,4.439114 C327.731138,-1.47970467 310.19676,-1.47970467 294.428261,4.439114 C278.659761,10.3579327 261.125383,10.3579327 245.356884,4.439114 C229.588385,-1.47970467 212.054007,-1.47970467 196.285507,4.439114 C180.517008,10.3579327 162.98263,10.3579327 147.21413,4.439114 C131.445631,-1.47970467 113.911253,-1.47970467 98.1427536,4.439114 C82.3742541,10.3579327 64.8398763,10.3579327 49.0713768,4.439114 C33.3028773,-1.47970467 15.7684995,-1.47970467 0,4.439114 L0,48.0408146 L22.779486,69.7596238 L303.304651,69.7596238 L343.499638,48.0408146 L343.499638,4.439114 Z" id="Path" fill="#78CBEC"></path>
                            <path d="M0,98.2315007 L343.499638,98.2315007 L343.499638,48.0401556 C327.731138,42.121337 310.19676,42.121337 294.428261,48.0401556 C278.659761,53.9589743 261.125383,53.9589743 245.356884,48.0401556 C229.588385,42.121337 212.054007,42.121337 196.285507,48.0401556 C180.517008,53.9589743 162.98263,53.9589743 147.21413,48.0401556 C131.445631,42.121337 113.911253,42.121337 98.1427536,48.0401556 C82.3742541,53.9589743 64.8398763,53.9589743 49.0713768,48.0401556 C33.3028773,42.121337 15.7684995,42.121337 0,48.0401556 L0,98.2315007 Z" id="Path" fill="#00ACDC"></path>
                        </g>
                    </g>
                    <g id="Group-11-Copy" transform="translate(340.950226, 0.000000)">
                        <g id="Group-4-Copy" transform="translate(-0.000000, 0.000000)">
                            <path d="M343.499638,4.439114 C327.731138,-1.47970467 310.19676,-1.47970467 294.428261,4.439114 C278.659761,10.3579327 261.125383,10.3579327 245.356884,4.439114 C229.588385,-1.47970467 212.054007,-1.47970467 196.285507,4.439114 C180.517008,10.3579327 162.98263,10.3579327 147.21413,4.439114 C131.445631,-1.47970467 113.911253,-1.47970467 98.1427536,4.439114 C82.3742541,10.3579327 64.8398763,10.3579327 49.0713768,4.439114 C33.3028773,-1.47970467 15.7684995,-1.47970467 0,4.439114 L0,48.0408146 L22.779486,69.7596238 L303.304651,69.7596238 L343.499638,48.0408146 L343.499638,4.439114 Z" id="Path" fill="#78CBEC"></path>
                            <path d="M0,115.511489 L343.499638,115.511489 L343.499638,49.4442778 C327.731138,41.6532962 310.19676,41.6532962 294.428261,49.4442778 C278.659761,57.2352594 261.125383,57.2352594 245.356884,49.4442778 C229.588385,41.6532962 212.054007,41.6532962 196.285507,49.4442778 C180.517008,57.2352594 162.98263,57.2352594 147.21413,49.4442778 C131.445631,41.6532962 113.911253,41.6532962 98.1427536,49.4442778 C82.3742541,57.2352594 64.8398763,57.2352594 49.0713768,49.4442778 C33.3028773,41.6532962 15.7684995,41.6532962 0,49.4442778 L0,115.511489 Z" id="Path" fill="#00ACDC"></path>
                        </g>
                        <g id="Group-4-Copy-2" transform="translate(-0.000000, 98.507463)">
                            <path d="M343.499638,4.439114 C327.731138,-1.47970467 310.19676,-1.47970467 294.428261,4.439114 C278.659761,10.3579327 261.125383,10.3579327 245.356884,4.439114 C229.588385,-1.47970467 212.054007,-1.47970467 196.285507,4.439114 C180.517008,10.3579327 162.98263,10.3579327 147.21413,4.439114 C131.445631,-1.47970467 113.911253,-1.47970467 98.1427536,4.439114 C82.3742541,10.3579327 64.8398763,10.3579327 49.0713768,4.439114 C33.3028773,-1.47970467 15.7684995,-1.47970467 0,4.439114 L0,48.0408146 L22.779486,69.7596238 L303.304651,69.7596238 L343.499638,48.0408146 L343.499638,4.439114 Z" id="Path" fill="#78CBEC"></path>
                            <path d="M0,99.216575 L343.499638,99.216575 L343.499638,48.1202 C327.731138,42.0946555 310.19676,42.0946555 294.428261,48.1202 C278.659761,54.1457444 261.125383,54.1457444 245.356884,48.1202 C229.588385,42.0946555 212.054007,42.0946555 196.285507,48.1202 C180.517008,54.1457444 162.98263,54.1457444 147.21413,48.1202 C131.445631,42.0946555 113.911253,42.0946555 98.1427536,48.1202 C82.3742541,54.1457444 64.8398763,54.1457444 49.0713768,48.1202 C33.3028773,42.0946555 15.7684995,42.0946555 0,48.1202 L0,99.216575 Z" id="Path" fill="#00ACDC"></path>
                        </g>
                    </g>
                </g>
                <g id="Group-12-Copy" transform="translate(681.000000, 0.000000)">
                    <g id="Group-11" transform="translate(0.000000, 0.985222)">
                        <g id="Group-4-Copy" transform="translate(-0.000000, 0.000000)">
                            <path d="M343.499638,4.43977665 C327.731138,-1.47992555 310.19676,-1.47992555 294.428261,4.43977665 C278.659761,10.3594789 261.125383,10.3594789 245.356884,4.43977665 C229.588385,-1.47992555 212.054007,-1.47992555 196.285507,4.43977665 C180.517008,10.3594789 162.98263,10.3594789 147.21413,4.43977665 C131.445631,-1.47992555 113.911253,-1.47992555 98.1427536,4.43977665 C82.3742541,10.3594789 64.8398763,10.3594789 49.0713768,4.43977665 C33.3028773,-1.47992555 15.7684995,-1.47992555 0,4.43977665 L0,48.047986 L22.779486,69.7700373 L303.304651,69.7700373 L343.499638,48.047986 L343.499638,4.43977665 Z" id="Path" fill="#78CBEC"></path>
                            <path d="M0,115.528732 L343.499638,115.528732 L343.499638,49.4516587 C327.731138,41.6595141 310.19676,41.6595141 294.428261,49.4516587 C278.659761,57.2438033 261.125383,57.2438033 245.356884,49.4516587 C229.588385,41.6595141 212.054007,41.6595141 196.285507,49.4516587 C180.517008,57.2438033 162.98263,57.2438033 147.21413,49.4516587 C131.445631,41.6595141 113.911253,41.6595141 98.1427536,49.4516587 C82.3742541,57.2438033 64.8398763,57.2438033 49.0713768,49.4516587 C33.3028773,41.6595141 15.7684995,41.6595141 0,49.4516587 L0,115.528732 Z" id="Path" fill="#00ACDC"></path>
                        </g>
                        <g id="Group-4-Copy-2" transform="translate(-0.000000, 98.522167)">
                            <path d="M343.499638,4.43977665 C327.731138,-1.47992555 310.19676,-1.47992555 294.428261,4.43977665 C278.659761,10.3594789 261.125383,10.3594789 245.356884,4.43977665 C229.588385,-1.47992555 212.054007,-1.47992555 196.285507,4.43977665 C180.517008,10.3594789 162.98263,10.3594789 147.21413,4.43977665 C131.445631,-1.47992555 113.911253,-1.47992555 98.1427536,4.43977665 C82.3742541,10.3594789 64.8398763,10.3594789 49.0713768,4.43977665 C33.3028773,-1.47992555 15.7684995,-1.47992555 0,4.43977665 L0,48.047986 L22.779486,69.7700373 L303.304651,69.7700373 L343.499638,48.047986 L343.499638,4.43977665 Z" id="Path" fill="#78CBEC"></path>
                            <path d="M0,100.257797 L343.499638,100.257797 L343.499638,48.2107863 C327.731138,42.0731382 310.19676,42.0731382 294.428261,48.2107863 C278.659761,54.3484345 261.125383,54.3484345 245.356884,48.2107863 C229.588385,42.0731382 212.054007,42.0731382 196.285507,48.2107863 C180.517008,54.3484345 162.98263,54.3484345 147.21413,48.2107863 C131.445631,42.0731382 113.911253,42.0731382 98.1427536,48.2107863 C82.3742541,54.3484345 64.8398763,54.3484345 49.0713768,48.2107863 C33.3028773,42.0731382 15.7684995,42.0731382 0,48.2107863 L0,100.257797 Z" id="Path" fill="#00ACDC"></path>
                        </g>
                    </g>
                    <g id="Group-11-Copy" transform="translate(340.950226, 0.000000)">
                        <g id="Group-4-Copy" transform="translate(-0.000000, 0.000000)">
                            <path d="M343.499638,4.43977665 C327.731138,-1.47992555 310.19676,-1.47992555 294.428261,4.43977665 C278.659761,10.3594789 261.125383,10.3594789 245.356884,4.43977665 C229.588385,-1.47992555 212.054007,-1.47992555 196.285507,4.43977665 C180.517008,10.3594789 162.98263,10.3594789 147.21413,4.43977665 C131.445631,-1.47992555 113.911253,-1.47992555 98.1427536,4.43977665 C82.3742541,10.3594789 64.8398763,10.3594789 49.0713768,4.43977665 C33.3028773,-1.47992555 15.7684995,-1.47992555 0,4.43977665 L0,48.047986 L22.779486,69.7700373 L303.304651,69.7700373 L343.499638,48.047986 L343.499638,4.43977665 Z" id="Path" fill="#78CBEC"></path>
                            <path d="M0,115.528732 L343.499638,115.528732 L343.499638,49.4516587 C327.731138,41.6595141 310.19676,41.6595141 294.428261,49.4516587 C278.659761,57.2438033 261.125383,57.2438033 245.356884,49.4516587 C229.588385,41.6595141 212.054007,41.6595141 196.285507,49.4516587 C180.517008,57.2438033 162.98263,57.2438033 147.21413,49.4516587 C131.445631,41.6595141 113.911253,41.6595141 98.1427536,49.4516587 C82.3742541,57.2438033 64.8398763,57.2438033 49.0713768,49.4516587 C33.3028773,41.6595141 15.7684995,41.6595141 0,49.4516587 L0,115.528732 Z" id="Path" fill="#00ACDC"></path>
                        </g>
                        <g id="Group-4-Copy-2" transform="translate(-0.000000, 98.522167)">
                            <path d="M343.499638,4.43977665 C327.731138,-1.47992555 310.19676,-1.47992555 294.428261,4.43977665 C278.659761,10.3594789 261.125383,10.3594789 245.356884,4.43977665 C229.588385,-1.47992555 212.054007,-1.47992555 196.285507,4.43977665 C180.517008,10.3594789 162.98263,10.3594789 147.21413,4.43977665 C131.445631,-1.47992555 113.911253,-1.47992555 98.1427536,4.43977665 C82.3742541,10.3594789 64.8398763,10.3594789 49.0713768,4.43977665 C33.3028773,-1.47992555 15.7684995,-1.47992555 0,4.43977665 L0,48.047986 L22.779486,69.7700373 L303.304651,69.7700373 L343.499638,48.047986 L343.499638,4.43977665 Z" id="Path" fill="#78CBEC"></path>
                            <path d="M0,101.60755 L343.499638,101.60755 L343.499638,48.3204634 C327.731138,42.0365792 310.19676,42.0365792 294.428261,48.3204634 C278.659761,54.6043477 261.125383,54.6043477 245.356884,48.3204634 C229.588385,42.0365792 212.054007,42.0365792 196.285507,48.3204634 C180.517008,54.6043477 162.98263,54.6043477 147.21413,48.3204634 C131.445631,42.0365792 113.911253,42.0365792 98.1427536,48.3204634 C82.3742541,54.6043477 64.8398763,54.6043477 49.0713768,48.3204634 C33.3028773,42.0365792 15.7684995,42.0365792 0,48.3204634 L0,101.60755 Z" id="Path" fill="#00ACDC"></path>
                        </g>
                    </g>
                </g>
            </g>
            <g id="Group-13-Copy-3" transform="translate(0.000000, 371.000000)">
                <g id="Group-12" transform="translate(0.000000, 2.000000)">
                    <g id="Group-11" transform="translate(0.000000, 0.985075)">
                        <g id="Group-4-Copy" transform="translate(-0.000000, 0.000000)">
                            <path d="M343.499638,4.439114 C327.731138,-1.47970467 310.19676,-1.47970467 294.428261,4.439114 C278.659761,10.3579327 261.125383,10.3579327 245.356884,4.439114 C229.588385,-1.47970467 212.054007,-1.47970467 196.285507,4.439114 C180.517008,10.3579327 162.98263,10.3579327 147.21413,4.439114 C131.445631,-1.47970467 113.911253,-1.47970467 98.1427536,4.439114 C82.3742541,10.3579327 64.8398763,10.3579327 49.0713768,4.439114 C33.3028773,-1.47970467 15.7684995,-1.47970467 0,4.439114 L0,48.0408146 L22.779486,69.7596238 L303.304651,69.7596238 L343.499638,48.0408146 L343.499638,4.439114 Z" id="Path" fill="#78CBEC"></path>
                            <path d="M0,115.511489 L343.499638,115.511489 L343.499638,49.4442778 C327.731138,41.6532962 310.19676,41.6532962 294.428261,49.4442778 C278.659761,57.2352594 261.125383,57.2352594 245.356884,49.4442778 C229.588385,41.6532962 212.054007,41.6532962 196.285507,49.4442778 C180.517008,57.2352594 162.98263,57.2352594 147.21413,49.4442778 C131.445631,41.6532962 113.911253,41.6532962 98.1427536,49.4442778 C82.3742541,57.2352594 64.8398763,57.2352594 49.0713768,49.4442778 C33.3028773,41.6532962 15.7684995,41.6532962 0,49.4442778 L0,115.511489 Z" id="Path" fill="#00ACDC"></path>
                        </g>
                        <g id="Group-4-Copy-2" transform="translate(-0.000000, 98.507463)">
                            <path d="M343.499638,4.439114 C327.731138,-1.47970467 310.19676,-1.47970467 294.428261,4.439114 C278.659761,10.3579327 261.125383,10.3579327 245.356884,4.439114 C229.588385,-1.47970467 212.054007,-1.47970467 196.285507,4.439114 C180.517008,10.3579327 162.98263,10.3579327 147.21413,4.439114 C131.445631,-1.47970467 113.911253,-1.47970467 98.1427536,4.439114 C82.3742541,10.3579327 64.8398763,10.3579327 49.0713768,4.439114 C33.3028773,-1.47970467 15.7684995,-1.47970467 0,4.439114 L0,48.0408146 L22.779486,69.7596238 L303.304651,69.7596238 L343.499638,48.0408146 L343.499638,4.439114 Z" id="Path" fill="#78CBEC"></path>
                            <path d="M0,98.2315007 L343.499638,98.2315007 L343.499638,48.0401556 C327.731138,42.121337 310.19676,42.121337 294.428261,48.0401556 C278.659761,53.9589743 261.125383,53.9589743 245.356884,48.0401556 C229.588385,42.121337 212.054007,42.121337 196.285507,48.0401556 C180.517008,53.9589743 162.98263,53.9589743 147.21413,48.0401556 C131.445631,42.121337 113.911253,42.121337 98.1427536,48.0401556 C82.3742541,53.9589743 64.8398763,53.9589743 49.0713768,48.0401556 C33.3028773,42.121337 15.7684995,42.121337 0,48.0401556 L0,98.2315007 Z" id="Path" fill="#00ACDC"></path>
                        </g>
                    </g>
                    <g id="Group-11-Copy" transform="translate(340.950226, 0.000000)">
                        <g id="Group-4-Copy" transform="translate(-0.000000, 0.000000)">
                            <path d="M343.499638,4.439114 C327.731138,-1.47970467 310.19676,-1.47970467 294.428261,4.439114 C278.659761,10.3579327 261.125383,10.3579327 245.356884,4.439114 C229.588385,-1.47970467 212.054007,-1.47970467 196.285507,4.439114 C180.517008,10.3579327 162.98263,10.3579327 147.21413,4.439114 C131.445631,-1.47970467 113.911253,-1.47970467 98.1427536,4.439114 C82.3742541,10.3579327 64.8398763,10.3579327 49.0713768,4.439114 C33.3028773,-1.47970467 15.7684995,-1.47970467 0,4.439114 L0,48.0408146 L22.779486,69.7596238 L303.304651,69.7596238 L343.499638,48.0408146 L343.499638,4.439114 Z" id="Path" fill="#78CBEC"></path>
                            <path d="M0,115.511489 L343.499638,115.511489 L343.499638,49.4442778 C327.731138,41.6532962 310.19676,41.6532962 294.428261,49.4442778 C278.659761,57.2352594 261.125383,57.2352594 245.356884,49.4442778 C229.588385,41.6532962 212.054007,41.6532962 196.285507,49.4442778 C180.517008,57.2352594 162.98263,57.2352594 147.21413,49.4442778 C131.445631,41.6532962 113.911253,41.6532962 98.1427536,49.4442778 C82.3742541,57.2352594 64.8398763,57.2352594 49.0713768,49.4442778 C33.3028773,41.6532962 15.7684995,41.6532962 0,49.4442778 L0,115.511489 Z" id="Path" fill="#00ACDC"></path>
                        </g>
                        <g id="Group-4-Copy-2" transform="translate(-0.000000, 98.507463)">
                            <path d="M343.499638,4.439114 C327.731138,-1.47970467 310.19676,-1.47970467 294.428261,4.439114 C278.659761,10.3579327 261.125383,10.3579327 245.356884,4.439114 C229.588385,-1.47970467 212.054007,-1.47970467 196.285507,4.439114 C180.517008,10.3579327 162.98263,10.3579327 147.21413,4.439114 C131.445631,-1.47970467 113.911253,-1.47970467 98.1427536,4.439114 C82.3742541,10.3579327 64.8398763,10.3579327 49.0713768,4.439114 C33.3028773,-1.47970467 15.7684995,-1.47970467 0,4.439114 L0,48.0408146 L22.779486,69.7596238 L303.304651,69.7596238 L343.499638,48.0408146 L343.499638,4.439114 Z" id="Path" fill="#78CBEC"></path>
                            <path d="M0,99.216575 L343.499638,99.216575 L343.499638,48.1202 C327.731138,42.0946555 310.19676,42.0946555 294.428261,48.1202 C278.659761,54.1457444 261.125383,54.1457444 245.356884,48.1202 C229.588385,42.0946555 212.054007,42.0946555 196.285507,48.1202 C180.517008,54.1457444 162.98263,54.1457444 147.21413,48.1202 C131.445631,42.0946555 113.911253,42.0946555 98.1427536,48.1202 C82.3742541,54.1457444 64.8398763,54.1457444 49.0713768,48.1202 C33.3028773,42.0946555 15.7684995,42.0946555 0,48.1202 L0,99.216575 Z" id="Path" fill="#00ACDC"></path>
                        </g>
                    </g>
                </g>
                <g id="Group-12-Copy" transform="translate(681.000000, 0.000000)">
                    <g id="Group-11" transform="translate(0.000000, 0.985222)">
                        <g id="Group-4-Copy" transform="translate(-0.000000, 0.000000)">
                            <path d="M343.499638,4.43977665 C327.731138,-1.47992555 310.19676,-1.47992555 294.428261,4.43977665 C278.659761,10.3594789 261.125383,10.3594789 245.356884,4.43977665 C229.588385,-1.47992555 212.054007,-1.47992555 196.285507,4.43977665 C180.517008,10.3594789 162.98263,10.3594789 147.21413,4.43977665 C131.445631,-1.47992555 113.911253,-1.47992555 98.1427536,4.43977665 C82.3742541,10.3594789 64.8398763,10.3594789 49.0713768,4.43977665 C33.3028773,-1.47992555 15.7684995,-1.47992555 0,4.43977665 L0,48.047986 L22.779486,69.7700373 L303.304651,69.7700373 L343.499638,48.047986 L343.499638,4.43977665 Z" id="Path" fill="#78CBEC"></path>
                            <path d="M0,115.528732 L343.499638,115.528732 L343.499638,49.4516587 C327.731138,41.6595141 310.19676,41.6595141 294.428261,49.4516587 C278.659761,57.2438033 261.125383,57.2438033 245.356884,49.4516587 C229.588385,41.6595141 212.054007,41.6595141 196.285507,49.4516587 C180.517008,57.2438033 162.98263,57.2438033 147.21413,49.4516587 C131.445631,41.6595141 113.911253,41.6595141 98.1427536,49.4516587 C82.3742541,57.2438033 64.8398763,57.2438033 49.0713768,49.4516587 C33.3028773,41.6595141 15.7684995,41.6595141 0,49.4516587 L0,115.528732 Z" id="Path" fill="#00ACDC"></path>
                        </g>
                        <g id="Group-4-Copy-2" transform="translate(-0.000000, 98.522167)">
                            <path d="M343.499638,4.43977665 C327.731138,-1.47992555 310.19676,-1.47992555 294.428261,4.43977665 C278.659761,10.3594789 261.125383,10.3594789 245.356884,4.43977665 C229.588385,-1.47992555 212.054007,-1.47992555 196.285507,4.43977665 C180.517008,10.3594789 162.98263,10.3594789 147.21413,4.43977665 C131.445631,-1.47992555 113.911253,-1.47992555 98.1427536,4.43977665 C82.3742541,10.3594789 64.8398763,10.3594789 49.0713768,4.43977665 C33.3028773,-1.47992555 15.7684995,-1.47992555 0,4.43977665 L0,48.047986 L22.779486,69.7700373 L303.304651,69.7700373 L343.499638,48.047986 L343.499638,4.43977665 Z" id="Path" fill="#78CBEC"></path>
                            <path d="M0,100.257797 L343.499638,100.257797 L343.499638,48.2107863 C327.731138,42.0731382 310.19676,42.0731382 294.428261,48.2107863 C278.659761,54.3484345 261.125383,54.3484345 245.356884,48.2107863 C229.588385,42.0731382 212.054007,42.0731382 196.285507,48.2107863 C180.517008,54.3484345 162.98263,54.3484345 147.21413,48.2107863 C131.445631,42.0731382 113.911253,42.0731382 98.1427536,48.2107863 C82.3742541,54.3484345 64.8398763,54.3484345 49.0713768,48.2107863 C33.3028773,42.0731382 15.7684995,42.0731382 0,48.2107863 L0,100.257797 Z" id="Path" fill="#00ACDC"></path>
                        </g>
                    </g>
                    <g id="Group-11-Copy" transform="translate(340.950226, 0.000000)">
                        <g id="Group-4-Copy" transform="translate(-0.000000, 0.000000)">
                            <path d="M343.499638,4.43977665 C327.731138,-1.47992555 310.19676,-1.47992555 294.428261,4.43977665 C278.659761,10.3594789 261.125383,10.3594789 245.356884,4.43977665 C229.588385,-1.47992555 212.054007,-1.47992555 196.285507,4.43977665 C180.517008,10.3594789 162.98263,10.3594789 147.21413,4.43977665 C131.445631,-1.47992555 113.911253,-1.47992555 98.1427536,4.43977665 C82.3742541,10.3594789 64.8398763,10.3594789 49.0713768,4.43977665 C33.3028773,-1.47992555 15.7684995,-1.47992555 0,4.43977665 L0,48.047986 L22.779486,69.7700373 L303.304651,69.7700373 L343.499638,48.047986 L343.499638,4.43977665 Z" id="Path" fill="#78CBEC"></path>
                            <path d="M0,115.528732 L343.499638,115.528732 L343.499638,49.4516587 C327.731138,41.6595141 310.19676,41.6595141 294.428261,49.4516587 C278.659761,57.2438033 261.125383,57.2438033 245.356884,49.4516587 C229.588385,41.6595141 212.054007,41.6595141 196.285507,49.4516587 C180.517008,57.2438033 162.98263,57.2438033 147.21413,49.4516587 C131.445631,41.6595141 113.911253,41.6595141 98.1427536,49.4516587 C82.3742541,57.2438033 64.8398763,57.2438033 49.0713768,49.4516587 C33.3028773,41.6595141 15.7684995,41.6595141 0,49.4516587 L0,115.528732 Z" id="Path" fill="#00ACDC"></path>
                        </g>
                        <g id="Group-4-Copy-2" transform="translate(-0.000000, 98.522167)">
                            <path d="M343.499638,4.43977665 C327.731138,-1.47992555 310.19676,-1.47992555 294.428261,4.43977665 C278.659761,10.3594789 261.125383,10.3594789 245.356884,4.43977665 C229.588385,-1.47992555 212.054007,-1.47992555 196.285507,4.43977665 C180.517008,10.3594789 162.98263,10.3594789 147.21413,4.43977665 C131.445631,-1.47992555 113.911253,-1.47992555 98.1427536,4.43977665 C82.3742541,10.3594789 64.8398763,10.3594789 49.0713768,4.43977665 C33.3028773,-1.47992555 15.7684995,-1.47992555 0,4.43977665 L0,48.047986 L22.779486,69.7700373 L303.304651,69.7700373 L343.499638,48.047986 L343.499638,4.43977665 Z" id="Path" fill="#78CBEC"></path>
                            <path d="M0,101.60755 L343.499638,101.60755 L343.499638,48.3204634 C327.731138,42.0365792 310.19676,42.0365792 294.428261,48.3204634 C278.659761,54.6043477 261.125383,54.6043477 245.356884,48.3204634 C229.588385,42.0365792 212.054007,42.0365792 196.285507,48.3204634 C180.517008,54.6043477 162.98263,54.6043477 147.21413,48.3204634 C131.445631,42.0365792 113.911253,42.0365792 98.1427536,48.3204634 C82.3742541,54.6043477 64.8398763,54.6043477 49.0713768,48.3204634 C33.3028773,42.0365792 15.7684995,42.0365792 0,48.3204634 L0,101.60755 Z" id="Path" fill="#00ACDC"></path>
                        </g>
                    </g>
                </g>
            </g>
            <g id="Group-13-Copy-4" transform="translate(0.000000, 559.000000)">
                <g id="Group-12" transform="translate(0.000000, 2.000000)">
                    <g id="Group-11" transform="translate(0.000000, 0.985075)">
                        <g id="Group-4-Copy" transform="translate(-0.000000, 0.000000)">
                            <path d="M343.499638,4.439114 C327.731138,-1.47970467 310.19676,-1.47970467 294.428261,4.439114 C278.659761,10.3579327 261.125383,10.3579327 245.356884,4.439114 C229.588385,-1.47970467 212.054007,-1.47970467 196.285507,4.439114 C180.517008,10.3579327 162.98263,10.3579327 147.21413,4.439114 C131.445631,-1.47970467 113.911253,-1.47970467 98.1427536,4.439114 C82.3742541,10.3579327 64.8398763,10.3579327 49.0713768,4.439114 C33.3028773,-1.47970467 15.7684995,-1.47970467 0,4.439114 L0,48.0408146 L22.779486,69.7596238 L303.304651,69.7596238 L343.499638,48.0408146 L343.499638,4.439114 Z" id="Path" fill="#78CBEC"></path>
                            <path d="M0,115.511489 L343.499638,115.511489 L343.499638,49.4442778 C327.731138,41.6532962 310.19676,41.6532962 294.428261,49.4442778 C278.659761,57.2352594 261.125383,57.2352594 245.356884,49.4442778 C229.588385,41.6532962 212.054007,41.6532962 196.285507,49.4442778 C180.517008,57.2352594 162.98263,57.2352594 147.21413,49.4442778 C131.445631,41.6532962 113.911253,41.6532962 98.1427536,49.4442778 C82.3742541,57.2352594 64.8398763,57.2352594 49.0713768,49.4442778 C33.3028773,41.6532962 15.7684995,41.6532962 0,49.4442778 L0,115.511489 Z" id="Path" fill="#00ACDC"></path>
                        </g>
                        <g id="Group-4-Copy-2" transform="translate(-0.000000, 98.507463)">
                            <path d="M343.499638,4.439114 C327.731138,-1.47970467 310.19676,-1.47970467 294.428261,4.439114 C278.659761,10.3579327 261.125383,10.3579327 245.356884,4.439114 C229.588385,-1.47970467 212.054007,-1.47970467 196.285507,4.439114 C180.517008,10.3579327 162.98263,10.3579327 147.21413,4.439114 C131.445631,-1.47970467 113.911253,-1.47970467 98.1427536,4.439114 C82.3742541,10.3579327 64.8398763,10.3579327 49.0713768,4.439114 C33.3028773,-1.47970467 15.7684995,-1.47970467 0,4.439114 L0,48.0408146 L22.779486,69.7596238 L303.304651,69.7596238 L343.499638,48.0408146 L343.499638,4.439114 Z" id="Path" fill="#78CBEC"></path>
                            <path d="M0,98.2315007 L343.499638,98.2315007 L343.499638,48.0401556 C327.731138,42.121337 310.19676,42.121337 294.428261,48.0401556 C278.659761,53.9589743 261.125383,53.9589743 245.356884,48.0401556 C229.588385,42.121337 212.054007,42.121337 196.285507,48.0401556 C180.517008,53.9589743 162.98263,53.9589743 147.21413,48.0401556 C131.445631,42.121337 113.911253,42.121337 98.1427536,48.0401556 C82.3742541,53.9589743 64.8398763,53.9589743 49.0713768,48.0401556 C33.3028773,42.121337 15.7684995,42.121337 0,48.0401556 L0,98.2315007 Z" id="Path" fill="#00ACDC"></path>
                        </g>
                    </g>
                    <g id="Group-11-Copy" transform="translate(340.950226, 0.000000)">
                        <g id="Group-4-Copy" transform="translate(-0.000000, 0.000000)">
                            <path d="M343.499638,4.439114 C327.731138,-1.47970467 310.19676,-1.47970467 294.428261,4.439114 C278.659761,10.3579327 261.125383,10.3579327 245.356884,4.439114 C229.588385,-1.47970467 212.054007,-1.47970467 196.285507,4.439114 C180.517008,10.3579327 162.98263,10.3579327 147.21413,4.439114 C131.445631,-1.47970467 113.911253,-1.47970467 98.1427536,4.439114 C82.3742541,10.3579327 64.8398763,10.3579327 49.0713768,4.439114 C33.3028773,-1.47970467 15.7684995,-1.47970467 0,4.439114 L0,48.0408146 L22.779486,69.7596238 L303.304651,69.7596238 L343.499638,48.0408146 L343.499638,4.439114 Z" id="Path" fill="#78CBEC"></path>
                            <path d="M0,115.511489 L343.499638,115.511489 L343.499638,49.4442778 C327.731138,41.6532962 310.19676,41.6532962 294.428261,49.4442778 C278.659761,57.2352594 261.125383,57.2352594 245.356884,49.4442778 C229.588385,41.6532962 212.054007,41.6532962 196.285507,49.4442778 C180.517008,57.2352594 162.98263,57.2352594 147.21413,49.4442778 C131.445631,41.6532962 113.911253,41.6532962 98.1427536,49.4442778 C82.3742541,57.2352594 64.8398763,57.2352594 49.0713768,49.4442778 C33.3028773,41.6532962 15.7684995,41.6532962 0,49.4442778 L0,115.511489 Z" id="Path" fill="#00ACDC"></path>
                        </g>
                        <g id="Group-4-Copy-2" transform="translate(-0.000000, 98.507463)">
                            <path d="M343.499638,4.439114 C327.731138,-1.47970467 310.19676,-1.47970467 294.428261,4.439114 C278.659761,10.3579327 261.125383,10.3579327 245.356884,4.439114 C229.588385,-1.47970467 212.054007,-1.47970467 196.285507,4.439114 C180.517008,10.3579327 162.98263,10.3579327 147.21413,4.439114 C131.445631,-1.47970467 113.911253,-1.47970467 98.1427536,4.439114 C82.3742541,10.3579327 64.8398763,10.3579327 49.0713768,4.439114 C33.3028773,-1.47970467 15.7684995,-1.47970467 0,4.439114 L0,48.0408146 L22.779486,69.7596238 L303.304651,69.7596238 L343.499638,48.0408146 L343.499638,4.439114 Z" id="Path" fill="#78CBEC"></path>
                            <path d="M0,99.216575 L343.499638,99.216575 L343.499638,48.1202 C327.731138,42.0946555 310.19676,42.0946555 294.428261,48.1202 C278.659761,54.1457444 261.125383,54.1457444 245.356884,48.1202 C229.588385,42.0946555 212.054007,42.0946555 196.285507,48.1202 C180.517008,54.1457444 162.98263,54.1457444 147.21413,48.1202 C131.445631,42.0946555 113.911253,42.0946555 98.1427536,48.1202 C82.3742541,54.1457444 64.8398763,54.1457444 49.0713768,48.1202 C33.3028773,42.0946555 15.7684995,42.0946555 0,48.1202 L0,99.216575 Z" id="Path" fill="#00ACDC"></path>
                        </g>
                    </g>
                </g>
                <g id="Group-12-Copy" transform="translate(681.000000, 0.000000)">
                    <g id="Group-11" transform="translate(0.000000, 0.985222)">
                        <g id="Group-4-Copy" transform="translate(-0.000000, 0.000000)">
                            <path d="M343.499638,4.43977665 C327.731138,-1.47992555 310.19676,-1.47992555 294.428261,4.43977665 C278.659761,10.3594789 261.125383,10.3594789 245.356884,4.43977665 C229.588385,-1.47992555 212.054007,-1.47992555 196.285507,4.43977665 C180.517008,10.3594789 162.98263,10.3594789 147.21413,4.43977665 C131.445631,-1.47992555 113.911253,-1.47992555 98.1427536,4.43977665 C82.3742541,10.3594789 64.8398763,10.3594789 49.0713768,4.43977665 C33.3028773,-1.47992555 15.7684995,-1.47992555 0,4.43977665 L0,48.047986 L22.779486,69.7700373 L303.304651,69.7700373 L343.499638,48.047986 L343.499638,4.43977665 Z" id="Path" fill="#78CBEC"></path>
                            <path d="M0,115.528732 L343.499638,115.528732 L343.499638,49.4516587 C327.731138,41.6595141 310.19676,41.6595141 294.428261,49.4516587 C278.659761,57.2438033 261.125383,57.2438033 245.356884,49.4516587 C229.588385,41.6595141 212.054007,41.6595141 196.285507,49.4516587 C180.517008,57.2438033 162.98263,57.2438033 147.21413,49.4516587 C131.445631,41.6595141 113.911253,41.6595141 98.1427536,49.4516587 C82.3742541,57.2438033 64.8398763,57.2438033 49.0713768,49.4516587 C33.3028773,41.6595141 15.7684995,41.6595141 0,49.4516587 L0,115.528732 Z" id="Path" fill="#00ACDC"></path>
                        </g>
                        <g id="Group-4-Copy-2" transform="translate(-0.000000, 98.522167)">
                            <path d="M343.499638,4.43977665 C327.731138,-1.47992555 310.19676,-1.47992555 294.428261,4.43977665 C278.659761,10.3594789 261.125383,10.3594789 245.356884,4.43977665 C229.588385,-1.47992555 212.054007,-1.47992555 196.285507,4.43977665 C180.517008,10.3594789 162.98263,10.3594789 147.21413,4.43977665 C131.445631,-1.47992555 113.911253,-1.47992555 98.1427536,4.43977665 C82.3742541,10.3594789 64.8398763,10.3594789 49.0713768,4.43977665 C33.3028773,-1.47992555 15.7684995,-1.47992555 0,4.43977665 L0,48.047986 L22.779486,69.7700373 L303.304651,69.7700373 L343.499638,48.047986 L343.499638,4.43977665 Z" id="Path" fill="#78CBEC"></path>
                            <path d="M0,100.257797 L343.499638,100.257797 L343.499638,48.2107863 C327.731138,42.0731382 310.19676,42.0731382 294.428261,48.2107863 C278.659761,54.3484345 261.125383,54.3484345 245.356884,48.2107863 C229.588385,42.0731382 212.054007,42.0731382 196.285507,48.2107863 C180.517008,54.3484345 162.98263,54.3484345 147.21413,48.2107863 C131.445631,42.0731382 113.911253,42.0731382 98.1427536,48.2107863 C82.3742541,54.3484345 64.8398763,54.3484345 49.0713768,48.2107863 C33.3028773,42.0731382 15.7684995,42.0731382 0,48.2107863 L0,100.257797 Z" id="Path" fill="#00ACDC"></path>
                        </g>
                    </g>
                    <g id="Group-11-Copy" transform="translate(340.950226, 0.000000)">
                        <g id="Group-4-Copy" transform="translate(-0.000000, 0.000000)">
                            <path d="M343.499638,4.43977665 C327.731138,-1.47992555 310.19676,-1.47992555 294.428261,4.43977665 C278.659761,10.3594789 261.125383,10.3594789 245.356884,4.43977665 C229.588385,-1.47992555 212.054007,-1.47992555 196.285507,4.43977665 C180.517008,10.3594789 162.98263,10.3594789 147.21413,4.43977665 C131.445631,-1.47992555 113.911253,-1.47992555 98.1427536,4.43977665 C82.3742541,10.3594789 64.8398763,10.3594789 49.0713768,4.43977665 C33.3028773,-1.47992555 15.7684995,-1.47992555 0,4.43977665 L0,48.047986 L22.779486,69.7700373 L303.304651,69.7700373 L343.499638,48.047986 L343.499638,4.43977665 Z" id="Path" fill="#78CBEC"></path>
                            <path d="M0,115.528732 L343.499638,115.528732 L343.499638,49.4516587 C327.731138,41.6595141 310.19676,41.6595141 294.428261,49.4516587 C278.659761,57.2438033 261.125383,57.2438033 245.356884,49.4516587 C229.588385,41.6595141 212.054007,41.6595141 196.285507,49.4516587 C180.517008,57.2438033 162.98263,57.2438033 147.21413,49.4516587 C131.445631,41.6595141 113.911253,41.6595141 98.1427536,49.4516587 C82.3742541,57.2438033 64.8398763,57.2438033 49.0713768,49.4516587 C33.3028773,41.6595141 15.7684995,41.6595141 0,49.4516587 L0,115.528732 Z" id="Path" fill="#00ACDC"></path>
                        </g>
                        <g id="Group-4-Copy-2" transform="translate(-0.000000, 98.522167)">
                            <path d="M343.499638,4.43977665 C327.731138,-1.47992555 310.19676,-1.47992555 294.428261,4.43977665 C278.659761,10.3594789 261.125383,10.3594789 245.356884,4.43977665 C229.588385,-1.47992555 212.054007,-1.47992555 196.285507,4.43977665 C180.517008,10.3594789 162.98263,10.3594789 147.21413,4.43977665 C131.445631,-1.47992555 113.911253,-1.47992555 98.1427536,4.43977665 C82.3742541,10.3594789 64.8398763,10.3594789 49.0713768,4.43977665 C33.3028773,-1.47992555 15.7684995,-1.47992555 0,4.43977665 L0,48.047986 L22.779486,69.7700373 L303.304651,69.7700373 L343.499638,48.047986 L343.499638,4.43977665 Z" id="Path" fill="#78CBEC"></path>
                            <path d="M0,101.60755 L343.499638,101.60755 L343.499638,48.3204634 C327.731138,42.0365792 310.19676,42.0365792 294.428261,48.3204634 C278.659761,54.6043477 261.125383,54.6043477 245.356884,48.3204634 C229.588385,42.0365792 212.054007,42.0365792 196.285507,48.3204634 C180.517008,54.6043477 162.98263,54.6043477 147.21413,48.3204634 C131.445631,42.0365792 113.911253,42.0365792 98.1427536,48.3204634 C82.3742541,54.6043477 64.8398763,54.6043477 49.0713768,48.3204634 C33.3028773,42.0365792 15.7684995,42.0365792 0,48.3204634 L0,101.60755 Z" id="Path" fill="#00ACDC"></path>
                        </g>
                    </g>
                </g>
            </g>
            <g id="Group-13-Copy-5" transform="translate(0.000000, 744.000000)">
                <g id="Group-12" transform="translate(0.000000, 2.000000)">
                    <g id="Group-11" transform="translate(0.000000, 0.985075)">
                        <g id="Group-4-Copy" transform="translate(-0.000000, 0.000000)">
                            <path d="M343.499638,4.439114 C327.731138,-1.47970467 310.19676,-1.47970467 294.428261,4.439114 C278.659761,10.3579327 261.125383,10.3579327 245.356884,4.439114 C229.588385,-1.47970467 212.054007,-1.47970467 196.285507,4.439114 C180.517008,10.3579327 162.98263,10.3579327 147.21413,4.439114 C131.445631,-1.47970467 113.911253,-1.47970467 98.1427536,4.439114 C82.3742541,10.3579327 64.8398763,10.3579327 49.0713768,4.439114 C33.3028773,-1.47970467 15.7684995,-1.47970467 0,4.439114 L0,48.0408146 L22.779486,69.7596238 L303.304651,69.7596238 L343.499638,48.0408146 L343.499638,4.439114 Z" id="Path" fill="#78CBEC"></path>
                            <path d="M0,115.511489 L343.499638,115.511489 L343.499638,49.4442778 C327.731138,41.6532962 310.19676,41.6532962 294.428261,49.4442778 C278.659761,57.2352594 261.125383,57.2352594 245.356884,49.4442778 C229.588385,41.6532962 212.054007,41.6532962 196.285507,49.4442778 C180.517008,57.2352594 162.98263,57.2352594 147.21413,49.4442778 C131.445631,41.6532962 113.911253,41.6532962 98.1427536,49.4442778 C82.3742541,57.2352594 64.8398763,57.2352594 49.0713768,49.4442778 C33.3028773,41.6532962 15.7684995,41.6532962 0,49.4442778 L0,115.511489 Z" id="Path" fill="#00ACDC"></path>
                        </g>
                        <g id="Group-4-Copy-2" transform="translate(-0.000000, 98.507463)">
                            <path d="M343.499638,4.439114 C327.731138,-1.47970467 310.19676,-1.47970467 294.428261,4.439114 C278.659761,10.3579327 261.125383,10.3579327 245.356884,4.439114 C229.588385,-1.47970467 212.054007,-1.47970467 196.285507,4.439114 C180.517008,10.3579327 162.98263,10.3579327 147.21413,4.439114 C131.445631,-1.47970467 113.911253,-1.47970467 98.1427536,4.439114 C82.3742541,10.3579327 64.8398763,10.3579327 49.0713768,4.439114 C33.3028773,-1.47970467 15.7684995,-1.47970467 0,4.439114 L0,48.0408146 L22.779486,69.7596238 L303.304651,69.7596238 L343.499638,48.0408146 L343.499638,4.439114 Z" id="Path" fill="#78CBEC"></path>
                            <path d="M0,98.2315007 L343.499638,98.2315007 L343.499638,48.0401556 C327.731138,42.121337 310.19676,42.121337 294.428261,48.0401556 C278.659761,53.9589743 261.125383,53.9589743 245.356884,48.0401556 C229.588385,42.121337 212.054007,42.121337 196.285507,48.0401556 C180.517008,53.9589743 162.98263,53.9589743 147.21413,48.0401556 C131.445631,42.121337 113.911253,42.121337 98.1427536,48.0401556 C82.3742541,53.9589743 64.8398763,53.9589743 49.0713768,48.0401556 C33.3028773,42.121337 15.7684995,42.121337 0,48.0401556 L0,98.2315007 Z" id="Path" fill="#00ACDC"></path>
                        </g>
                    </g>
                    <g id="Group-11-Copy" transform="translate(340.950226, 0.000000)">
                        <g id="Group-4-Copy" transform="translate(-0.000000, 0.000000)">
                            <path d="M343.499638,4.439114 C327.731138,-1.47970467 310.19676,-1.47970467 294.428261,4.439114 C278.659761,10.3579327 261.125383,10.3579327 245.356884,4.439114 C229.588385,-1.47970467 212.054007,-1.47970467 196.285507,4.439114 C180.517008,10.3579327 162.98263,10.3579327 147.21413,4.439114 C131.445631,-1.47970467 113.911253,-1.47970467 98.1427536,4.439114 C82.3742541,10.3579327 64.8398763,10.3579327 49.0713768,4.439114 C33.3028773,-1.47970467 15.7684995,-1.47970467 0,4.439114 L0,48.0408146 L22.779486,69.7596238 L303.304651,69.7596238 L343.499638,48.0408146 L343.499638,4.439114 Z" id="Path" fill="#78CBEC"></path>
                            <path d="M0,115.511489 L343.499638,115.511489 L343.499638,49.4442778 C327.731138,41.6532962 310.19676,41.6532962 294.428261,49.4442778 C278.659761,57.2352594 261.125383,57.2352594 245.356884,49.4442778 C229.588385,41.6532962 212.054007,41.6532962 196.285507,49.4442778 C180.517008,57.2352594 162.98263,57.2352594 147.21413,49.4442778 C131.445631,41.6532962 113.911253,41.6532962 98.1427536,49.4442778 C82.3742541,57.2352594 64.8398763,57.2352594 49.0713768,49.4442778 C33.3028773,41.6532962 15.7684995,41.6532962 0,49.4442778 L0,115.511489 Z" id="Path" fill="#00ACDC"></path>
                        </g>
                        <g id="Group-4-Copy-2" transform="translate(-0.000000, 98.507463)">
                            <path d="M343.499638,4.439114 C327.731138,-1.47970467 310.19676,-1.47970467 294.428261,4.439114 C278.659761,10.3579327 261.125383,10.3579327 245.356884,4.439114 C229.588385,-1.47970467 212.054007,-1.47970467 196.285507,4.439114 C180.517008,10.3579327 162.98263,10.3579327 147.21413,4.439114 C131.445631,-1.47970467 113.911253,-1.47970467 98.1427536,4.439114 C82.3742541,10.3579327 64.8398763,10.3579327 49.0713768,4.439114 C33.3028773,-1.47970467 15.7684995,-1.47970467 0,4.439114 L0,48.0408146 L22.779486,69.7596238 L303.304651,69.7596238 L343.499638,48.0408146 L343.499638,4.439114 Z" id="Path" fill="#78CBEC"></path>
                            <path d="M0,99.216575 L343.499638,99.216575 L343.499638,48.1202 C327.731138,42.0946555 310.19676,42.0946555 294.428261,48.1202 C278.659761,54.1457444 261.125383,54.1457444 245.356884,48.1202 C229.588385,42.0946555 212.054007,42.0946555 196.285507,48.1202 C180.517008,54.1457444 162.98263,54.1457444 147.21413,48.1202 C131.445631,42.0946555 113.911253,42.0946555 98.1427536,48.1202 C82.3742541,54.1457444 64.8398763,54.1457444 49.0713768,48.1202 C33.3028773,42.0946555 15.7684995,42.0946555 0,48.1202 L0,99.216575 Z" id="Path" fill="#00ACDC"></path>
                        </g>
                    </g>
                </g>
                <g id="Group-12-Copy" transform="translate(681.000000, 0.000000)">
                    <g id="Group-11" transform="translate(0.000000, 0.985222)">
                        <g id="Group-4-Copy" transform="translate(-0.000000, 0.000000)">
                            <path d="M343.499638,4.43977665 C327.731138,-1.47992555 310.19676,-1.47992555 294.428261,4.43977665 C278.659761,10.3594789 261.125383,10.3594789 245.356884,4.43977665 C229.588385,-1.47992555 212.054007,-1.47992555 196.285507,4.43977665 C180.517008,10.3594789 162.98263,10.3594789 147.21413,4.43977665 C131.445631,-1.47992555 113.911253,-1.47992555 98.1427536,4.43977665 C82.3742541,10.3594789 64.8398763,10.3594789 49.0713768,4.43977665 C33.3028773,-1.47992555 15.7684995,-1.47992555 0,4.43977665 L0,48.047986 L22.779486,69.7700373 L303.304651,69.7700373 L343.499638,48.047986 L343.499638,4.43977665 Z" id="Path" fill="#78CBEC"></path>
                            <path d="M0,115.528732 L343.499638,115.528732 L343.499638,49.4516587 C327.731138,41.6595141 310.19676,41.6595141 294.428261,49.4516587 C278.659761,57.2438033 261.125383,57.2438033 245.356884,49.4516587 C229.588385,41.6595141 212.054007,41.6595141 196.285507,49.4516587 C180.517008,57.2438033 162.98263,57.2438033 147.21413,49.4516587 C131.445631,41.6595141 113.911253,41.6595141 98.1427536,49.4516587 C82.3742541,57.2438033 64.8398763,57.2438033 49.0713768,49.4516587 C33.3028773,41.6595141 15.7684995,41.6595141 0,49.4516587 L0,115.528732 Z" id="Path" fill="#00ACDC"></path>
                        </g>
                        <g id="Group-4-Copy-2" transform="translate(-0.000000, 98.522167)">
                            <path d="M343.499638,4.43977665 C327.731138,-1.47992555 310.19676,-1.47992555 294.428261,4.43977665 C278.659761,10.3594789 261.125383,10.3594789 245.356884,4.43977665 C229.588385,-1.47992555 212.054007,-1.47992555 196.285507,4.43977665 C180.517008,10.3594789 162.98263,10.3594789 147.21413,4.43977665 C131.445631,-1.47992555 113.911253,-1.47992555 98.1427536,4.43977665 C82.3742541,10.3594789 64.8398763,10.3594789 49.0713768,4.43977665 C33.3028773,-1.47992555 15.7684995,-1.47992555 0,4.43977665 L0,48.047986 L22.779486,69.7700373 L303.304651,69.7700373 L343.499638,48.047986 L343.499638,4.43977665 Z" id="Path" fill="#78CBEC"></path>
                            <path d="M0,100.257797 L343.499638,100.257797 L343.499638,48.2107863 C327.731138,42.0731382 310.19676,42.0731382 294.428261,48.2107863 C278.659761,54.3484345 261.125383,54.3484345 245.356884,48.2107863 C229.588385,42.0731382 212.054007,42.0731382 196.285507,48.2107863 C180.517008,54.3484345 162.98263,54.3484345 147.21413,48.2107863 C131.445631,42.0731382 113.911253,42.0731382 98.1427536,48.2107863 C82.3742541,54.3484345 64.8398763,54.3484345 49.0713768,48.2107863 C33.3028773,42.0731382 15.7684995,42.0731382 0,48.2107863 L0,100.257797 Z" id="Path" fill="#00ACDC"></path>
                        </g>
                    </g>
                    <g id="Group-11-Copy" transform="translate(340.950226, 0.000000)">
                        <g id="Group-4-Copy" transform="translate(-0.000000, 0.000000)">
                            <path d="M343.499638,4.43977665 C327.731138,-1.47992555 310.19676,-1.47992555 294.428261,4.43977665 C278.659761,10.3594789 261.125383,10.3594789 245.356884,4.43977665 C229.588385,-1.47992555 212.054007,-1.47992555 196.285507,4.43977665 C180.517008,10.3594789 162.98263,10.3594789 147.21413,4.43977665 C131.445631,-1.47992555 113.911253,-1.47992555 98.1427536,4.43977665 C82.3742541,10.3594789 64.8398763,10.3594789 49.0713768,4.43977665 C33.3028773,-1.47992555 15.7684995,-1.47992555 0,4.43977665 L0,48.047986 L22.779486,69.7700373 L303.304651,69.7700373 L343.499638,48.047986 L343.499638,4.43977665 Z" id="Path" fill="#78CBEC"></path>
                            <path d="M0,115.528732 L343.499638,115.528732 L343.499638,49.4516587 C327.731138,41.6595141 310.19676,41.6595141 294.428261,49.4516587 C278.659761,57.2438033 261.125383,57.2438033 245.356884,49.4516587 C229.588385,41.6595141 212.054007,41.6595141 196.285507,49.4516587 C180.517008,57.2438033 162.98263,57.2438033 147.21413,49.4516587 C131.445631,41.6595141 113.911253,41.6595141 98.1427536,49.4516587 C82.3742541,57.2438033 64.8398763,57.2438033 49.0713768,49.4516587 C33.3028773,41.6595141 15.7684995,41.6595141 0,49.4516587 L0,115.528732 Z" id="Path" fill="#00ACDC"></path>
                        </g>
                        <g id="Group-4-Copy-2" transform="translate(-0.000000, 98.522167)">
                            <path d="M343.499638,4.43977665 C327.731138,-1.47992555 310.19676,-1.47992555 294.428261,4.43977665 C278.659761,10.3594789 261.125383,10.3594789 245.356884,4.43977665 C229.588385,-1.47992555 212.054007,-1.47992555 196.285507,4.43977665 C180.517008,10.3594789 162.98263,10.3594789 147.21413,4.43977665 C131.445631,-1.47992555 113.911253,-1.47992555 98.1427536,4.43977665 C82.3742541,10.3594789 64.8398763,10.3594789 49.0713768,4.43977665 C33.3028773,-1.47992555 15.7684995,-1.47992555 0,4.43977665 L0,48.047986 L22.779486,69.7700373 L303.304651,69.7700373 L343.499638,48.047986 L343.499638,4.43977665 Z" id="Path" fill="#78CBEC"></path>
                            <path d="M0,101.60755 L343.499638,101.60755 L343.499638,48.3204634 C327.731138,42.0365792 310.19676,42.0365792 294.428261,48.3204634 C278.659761,54.6043477 261.125383,54.6043477 245.356884,48.3204634 C229.588385,42.0365792 212.054007,42.0365792 196.285507,48.3204634 C180.517008,54.6043477 162.98263,54.6043477 147.21413,48.3204634 C131.445631,42.0365792 113.911253,42.0365792 98.1427536,48.3204634 C82.3742541,54.6043477 64.8398763,54.6043477 49.0713768,48.3204634 C33.3028773,42.0365792 15.7684995,42.0365792 0,48.3204634 L0,101.60755 Z" id="Path" fill="#00ACDC"></path>
                        </g>
                    </g>
                </g>
            </g>
            <g id="Group-13-Copy-6" transform="translate(0.000000, 932.000000)">
                <g id="Group-12" transform="translate(0.000000, 2.000000)">
                    <g id="Group-11" transform="translate(0.000000, 0.985075)">
                        <g id="Group-4-Copy" transform="translate(-0.000000, 0.000000)">
                            <path d="M343.499638,4.439114 C327.731138,-1.47970467 310.19676,-1.47970467 294.428261,4.439114 C278.659761,10.3579327 261.125383,10.3579327 245.356884,4.439114 C229.588385,-1.47970467 212.054007,-1.47970467 196.285507,4.439114 C180.517008,10.3579327 162.98263,10.3579327 147.21413,4.439114 C131.445631,-1.47970467 113.911253,-1.47970467 98.1427536,4.439114 C82.3742541,10.3579327 64.8398763,10.3579327 49.0713768,4.439114 C33.3028773,-1.47970467 15.7684995,-1.47970467 0,4.439114 L0,48.0408146 L22.779486,69.7596238 L303.304651,69.7596238 L343.499638,48.0408146 L343.499638,4.439114 Z" id="Path" fill="#78CBEC"></path>
                            <path d="M0,115.511489 L343.499638,115.511489 L343.499638,49.4442778 C327.731138,41.6532962 310.19676,41.6532962 294.428261,49.4442778 C278.659761,57.2352594 261.125383,57.2352594 245.356884,49.4442778 C229.588385,41.6532962 212.054007,41.6532962 196.285507,49.4442778 C180.517008,57.2352594 162.98263,57.2352594 147.21413,49.4442778 C131.445631,41.6532962 113.911253,41.6532962 98.1427536,49.4442778 C82.3742541,57.2352594 64.8398763,57.2352594 49.0713768,49.4442778 C33.3028773,41.6532962 15.7684995,41.6532962 0,49.4442778 L0,115.511489 Z" id="Path" fill="#00ACDC"></path>
                        </g>
                        <g id="Group-4-Copy-2" transform="translate(-0.000000, 98.507463)">
                            <path d="M343.499638,4.439114 C327.731138,-1.47970467 310.19676,-1.47970467 294.428261,4.439114 C278.659761,10.3579327 261.125383,10.3579327 245.356884,4.439114 C229.588385,-1.47970467 212.054007,-1.47970467 196.285507,4.439114 C180.517008,10.3579327 162.98263,10.3579327 147.21413,4.439114 C131.445631,-1.47970467 113.911253,-1.47970467 98.1427536,4.439114 C82.3742541,10.3579327 64.8398763,10.3579327 49.0713768,4.439114 C33.3028773,-1.47970467 15.7684995,-1.47970467 0,4.439114 L0,48.0408146 L22.779486,69.7596238 L303.304651,69.7596238 L343.499638,48.0408146 L343.499638,4.439114 Z" id="Path" fill="#78CBEC"></path>
                            <path d="M0,98.2315007 L343.499638,98.2315007 L343.499638,48.0401556 C327.731138,42.121337 310.19676,42.121337 294.428261,48.0401556 C278.659761,53.9589743 261.125383,53.9589743 245.356884,48.0401556 C229.588385,42.121337 212.054007,42.121337 196.285507,48.0401556 C180.517008,53.9589743 162.98263,53.9589743 147.21413,48.0401556 C131.445631,42.121337 113.911253,42.121337 98.1427536,48.0401556 C82.3742541,53.9589743 64.8398763,53.9589743 49.0713768,48.0401556 C33.3028773,42.121337 15.7684995,42.121337 0,48.0401556 L0,98.2315007 Z" id="Path" fill="#00ACDC"></path>
                        </g>
                    </g>
                    <g id="Group-11-Copy" transform="translate(340.950226, 0.000000)">
                        <g id="Group-4-Copy" transform="translate(-0.000000, 0.000000)">
                            <path d="M343.499638,4.439114 C327.731138,-1.47970467 310.19676,-1.47970467 294.428261,4.439114 C278.659761,10.3579327 261.125383,10.3579327 245.356884,4.439114 C229.588385,-1.47970467 212.054007,-1.47970467 196.285507,4.439114 C180.517008,10.3579327 162.98263,10.3579327 147.21413,4.439114 C131.445631,-1.47970467 113.911253,-1.47970467 98.1427536,4.439114 C82.3742541,10.3579327 64.8398763,10.3579327 49.0713768,4.439114 C33.3028773,-1.47970467 15.7684995,-1.47970467 0,4.439114 L0,48.0408146 L22.779486,69.7596238 L303.304651,69.7596238 L343.499638,48.0408146 L343.499638,4.439114 Z" id="Path" fill="#78CBEC"></path>
                            <path d="M0,115.511489 L343.499638,115.511489 L343.499638,49.4442778 C327.731138,41.6532962 310.19676,41.6532962 294.428261,49.4442778 C278.659761,57.2352594 261.125383,57.2352594 245.356884,49.4442778 C229.588385,41.6532962 212.054007,41.6532962 196.285507,49.4442778 C180.517008,57.2352594 162.98263,57.2352594 147.21413,49.4442778 C131.445631,41.6532962 113.911253,41.6532962 98.1427536,49.4442778 C82.3742541,57.2352594 64.8398763,57.2352594 49.0713768,49.4442778 C33.3028773,41.6532962 15.7684995,41.6532962 0,49.4442778 L0,115.511489 Z" id="Path" fill="#00ACDC"></path>
                        </g>
                        <g id="Group-4-Copy-2" transform="translate(-0.000000, 98.507463)">
                            <path d="M343.499638,4.439114 C327.731138,-1.47970467 310.19676,-1.47970467 294.428261,4.439114 C278.659761,10.3579327 261.125383,10.3579327 245.356884,4.439114 C229.588385,-1.47970467 212.054007,-1.47970467 196.285507,4.439114 C180.517008,10.3579327 162.98263,10.3579327 147.21413,4.439114 C131.445631,-1.47970467 113.911253,-1.47970467 98.1427536,4.439114 C82.3742541,10.3579327 64.8398763,10.3579327 49.0713768,4.439114 C33.3028773,-1.47970467 15.7684995,-1.47970467 0,4.439114 L0,48.0408146 L22.779486,69.7596238 L303.304651,69.7596238 L343.499638,48.0408146 L343.499638,4.439114 Z" id="Path" fill="#78CBEC"></path>
                            <path d="M0,99.216575 L343.499638,99.216575 L343.499638,48.1202 C327.731138,42.0946555 310.19676,42.0946555 294.428261,48.1202 C278.659761,54.1457444 261.125383,54.1457444 245.356884,48.1202 C229.588385,42.0946555 212.054007,42.0946555 196.285507,48.1202 C180.517008,54.1457444 162.98263,54.1457444 147.21413,48.1202 C131.445631,42.0946555 113.911253,42.0946555 98.1427536,48.1202 C82.3742541,54.1457444 64.8398763,54.1457444 49.0713768,48.1202 C33.3028773,42.0946555 15.7684995,42.0946555 0,48.1202 L0,99.216575 Z" id="Path" fill="#00ACDC"></path>
                        </g>
                    </g>
                </g>
                <g id="Group-12-Copy" transform="translate(681.000000, 0.000000)">
                    <g id="Group-11" transform="translate(0.000000, 0.985222)">
                        <g id="Group-4-Copy" transform="translate(-0.000000, 0.000000)">
                            <path d="M343.499638,4.43977665 C327.731138,-1.47992555 310.19676,-1.47992555 294.428261,4.43977665 C278.659761,10.3594789 261.125383,10.3594789 245.356884,4.43977665 C229.588385,-1.47992555 212.054007,-1.47992555 196.285507,4.43977665 C180.517008,10.3594789 162.98263,10.3594789 147.21413,4.43977665 C131.445631,-1.47992555 113.911253,-1.47992555 98.1427536,4.43977665 C82.3742541,10.3594789 64.8398763,10.3594789 49.0713768,4.43977665 C33.3028773,-1.47992555 15.7684995,-1.47992555 0,4.43977665 L0,48.047986 L22.779486,69.7700373 L303.304651,69.7700373 L343.499638,48.047986 L343.499638,4.43977665 Z" id="Path" fill="#78CBEC"></path>
                            <path d="M0,115.528732 L343.499638,115.528732 L343.499638,49.4516587 C327.731138,41.6595141 310.19676,41.6595141 294.428261,49.4516587 C278.659761,57.2438033 261.125383,57.2438033 245.356884,49.4516587 C229.588385,41.6595141 212.054007,41.6595141 196.285507,49.4516587 C180.517008,57.2438033 162.98263,57.2438033 147.21413,49.4516587 C131.445631,41.6595141 113.911253,41.6595141 98.1427536,49.4516587 C82.3742541,57.2438033 64.8398763,57.2438033 49.0713768,49.4516587 C33.3028773,41.6595141 15.7684995,41.6595141 0,49.4516587 L0,115.528732 Z" id="Path" fill="#00ACDC"></path>
                        </g>
                        <g id="Group-4-Copy-2" transform="translate(-0.000000, 98.522167)">
                            <path d="M343.499638,4.43977665 C327.731138,-1.47992555 310.19676,-1.47992555 294.428261,4.43977665 C278.659761,10.3594789 261.125383,10.3594789 245.356884,4.43977665 C229.588385,-1.47992555 212.054007,-1.47992555 196.285507,4.43977665 C180.517008,10.3594789 162.98263,10.3594789 147.21413,4.43977665 C131.445631,-1.47992555 113.911253,-1.47992555 98.1427536,4.43977665 C82.3742541,10.3594789 64.8398763,10.3594789 49.0713768,4.43977665 C33.3028773,-1.47992555 15.7684995,-1.47992555 0,4.43977665 L0,48.047986 L22.779486,69.7700373 L303.304651,69.7700373 L343.499638,48.047986 L343.499638,4.43977665 Z" id="Path" fill="#78CBEC"></path>
                            <path d="M0,100.257797 L343.499638,100.257797 L343.499638,48.2107863 C327.731138,42.0731382 310.19676,42.0731382 294.428261,48.2107863 C278.659761,54.3484345 261.125383,54.3484345 245.356884,48.2107863 C229.588385,42.0731382 212.054007,42.0731382 196.285507,48.2107863 C180.517008,54.3484345 162.98263,54.3484345 147.21413,48.2107863 C131.445631,42.0731382 113.911253,42.0731382 98.1427536,48.2107863 C82.3742541,54.3484345 64.8398763,54.3484345 49.0713768,48.2107863 C33.3028773,42.0731382 15.7684995,42.0731382 0,48.2107863 L0,100.257797 Z" id="Path" fill="#00ACDC"></path>
                        </g>
                    </g>
                    <g id="Group-11-Copy" transform="translate(340.950226, 0.000000)">
                        <g id="Group-4-Copy" transform="translate(-0.000000, 0.000000)">
                            <path d="M343.499638,4.43977665 C327.731138,-1.47992555 310.19676,-1.47992555 294.428261,4.43977665 C278.659761,10.3594789 261.125383,10.3594789 245.356884,4.43977665 C229.588385,-1.47992555 212.054007,-1.47992555 196.285507,4.43977665 C180.517008,10.3594789 162.98263,10.3594789 147.21413,4.43977665 C131.445631,-1.47992555 113.911253,-1.47992555 98.1427536,4.43977665 C82.3742541,10.3594789 64.8398763,10.3594789 49.0713768,4.43977665 C33.3028773,-1.47992555 15.7684995,-1.47992555 0,4.43977665 L0,48.047986 L22.779486,69.7700373 L303.304651,69.7700373 L343.499638,48.047986 L343.499638,4.43977665 Z" id="Path" fill="#78CBEC"></path>
                            <path d="M0,115.528732 L343.499638,115.528732 L343.499638,49.4516587 C327.731138,41.6595141 310.19676,41.6595141 294.428261,49.4516587 C278.659761,57.2438033 261.125383,57.2438033 245.356884,49.4516587 C229.588385,41.6595141 212.054007,41.6595141 196.285507,49.4516587 C180.517008,57.2438033 162.98263,57.2438033 147.21413,49.4516587 C131.445631,41.6595141 113.911253,41.6595141 98.1427536,49.4516587 C82.3742541,57.2438033 64.8398763,57.2438033 49.0713768,49.4516587 C33.3028773,41.6595141 15.7684995,41.6595141 0,49.4516587 L0,115.528732 Z" id="Path" fill="#00ACDC"></path>
                        </g>
                        <g id="Group-4-Copy-2" transform="translate(-0.000000, 98.522167)">
                            <path d="M343.499638,4.43977665 C327.731138,-1.47992555 310.19676,-1.47992555 294.428261,4.43977665 C278.659761,10.3594789 261.125383,10.3594789 245.356884,4.43977665 C229.588385,-1.47992555 212.054007,-1.47992555 196.285507,4.43977665 C180.517008,10.3594789 162.98263,10.3594789 147.21413,4.43977665 C131.445631,-1.47992555 113.911253,-1.47992555 98.1427536,4.43977665 C82.3742541,10.3594789 64.8398763,10.3594789 49.0713768,4.43977665 C33.3028773,-1.47992555 15.7684995,-1.47992555 0,4.43977665 L0,48.047986 L22.779486,69.7700373 L303.304651,69.7700373 L343.499638,48.047986 L343.499638,4.43977665 Z" id="Path" fill="#78CBEC"></path>
                            <path d="M0,101.60755 L343.499638,101.60755 L343.499638,48.3204634 C327.731138,42.0365792 310.19676,42.0365792 294.428261,48.3204634 C278.659761,54.6043477 261.125383,54.6043477 245.356884,48.3204634 C229.588385,42.0365792 212.054007,42.0365792 196.285507,48.3204634 C180.517008,54.6043477 162.98263,54.6043477 147.21413,48.3204634 C131.445631,42.0365792 113.911253,42.0365792 98.1427536,48.3204634 C82.3742541,54.6043477 64.8398763,54.6043477 49.0713768,48.3204634 C33.3028773,42.0365792 15.7684995,42.0365792 0,48.3204634 L0,101.60755 Z" id="Path" fill="#00ACDC"></path>
                        </g>
                    </g>
                </g>
            </g>
        </g>
    </g>
</svg>