<?xml version="1.0" encoding="UTF-8"?>
<svg width="148px" height="148px" viewBox="0 0 148 148" version="1.1" xmlns="http://www.w3.org/2000/svg" xmlns:xlink="http://www.w3.org/1999/xlink">
    <!-- Generator: Sketch 55.1 (78136) - https://sketchapp.com -->
    <title>lily copy 4</title>
    <desc>Created with Sketch.</desc>
    <g id="Page-1" stroke="none" stroke-width="1" fill="none" fill-rule="evenodd">
        <g id="lily-copy-4" fill-rule="nonzero">
            <path d="M54.4026938,36.6885822 C47.242006,27.8390758 37.7193448,22.9655172 27.5884366,22.9655172 C25.9478726,22.9655172 24.4484728,24.1106216 23.7152276,25.9233172 C20.3821374,34.1615783 18.6203282,43.3816122 18.6203282,52.5859548 C18.6203282,59.9012853 18.2513961,61.6408739 19.9341073,63.6618351 C21.4996146,65.6257373 31.0124607,79.1034483 48.1380663,79.1034483 C49.7786302,79.1034483 51.2780301,77.9583439 52.0112753,76.1456483 C55.3443654,67.9073872 57.1061747,58.6873534 57.1061747,49.4830108 C57.1061747,39.5896798 57.6093425,40.6377837 54.4026938,36.6885822 Z" id="Path" fill="#D4F689"></path>
            <path d="M93.5972712,36.6885822 C100.757966,27.8390758 110.280637,22.9655172 120.411555,22.9655172 C122.05212,22.9655172 123.551521,24.1106216 124.284767,25.9233172 C127.617861,34.1615783 129.379672,43.3816122 129.379672,52.5859548 C129.379672,59.9012853 129.748604,61.6408739 128.065891,63.6618351 C126.500383,65.6257373 116.987527,79.1034483 99.8619049,79.1034483 C98.2213393,79.1034483 96.7219381,77.9583439 95.9886921,76.1456483 C92.6555987,67.9073872 90.8937878,58.6873534 90.8937878,49.4830108 C90.8937878,39.5896798 90.3909081,40.6377837 93.5972712,36.6885822 Z" id="Path" fill="#B7F13C"></path>
            <path d="M87.2538579,19.6474092 L77.1818318,2.2400093 C76.3684909,0.834254616 75.0554767,0 73.6561028,0 C72.2567289,0 70.9437147,0.834254616 70.1303738,2.23965278 L60.0586365,19.6463397 C50.9406108,35.3991347 46.1209302,53.9630825 46.1209302,73.3313373 L46.1209302,87.6441517 C46.1209302,106.415237 58.4487066,121.632184 73.655814,121.632184 C88.8629213,121.632184 101.190698,106.415237 101.190698,87.6441517 L101.190698,73.3313373 C101.190698,53.9673607 96.3715948,35.4037694 87.2538579,19.6474092 Z" id="Path" fill="#BDE664"></path>
            <path d="M77.181543,2.23965278 C76.368202,0.834254616 75.0551878,0 73.655814,0 L73.655814,121.632184 C88.8629213,121.632184 101.190698,106.415237 101.190698,87.6441517 L101.190698,73.3313373 C101.190698,53.9673607 96.371306,35.4037694 87.2535691,19.6470527 L77.181543,2.23965278 Z" id="Path" fill="#A9DB3E"></path>
            <path d="M73.8691679,148 C71.4703498,148 69.5255814,145.618052 69.5255814,142.679985 C69.5255814,118.423907 77.235737,95.625159 91.2359849,78.4773311 C105.236812,61.3291486 123.851397,51.8850575 143.651491,51.8850575 C146.050309,51.8850575 148,54.2670056 148,57.2050727 C148,81.4576037 140.288976,104.25848 126.28728,121.407372 C112.285295,138.555909 93.6698412,148 73.8691679,148 Z" id="Path" fill="#88B22E"></path>
            <path d="M74.1308161,148 C54.329201,148 35.7133894,138.555909 21.7119315,121.407372 C7.71076317,104.25848 0,81.4579583 0,57.2050727 C0,54.2670056 1.94477563,51.8850575 4.34360251,51.8850575 C24.1440593,51.8850575 42.7598709,61.3295032 56.7616184,78.4787498 C70.7633659,95.6279964 78.4744186,118.428518 78.4744186,142.679985 C78.4744186,145.618052 76.529643,148 74.1308161,148 Z" id="Path" fill="#9ECD38"></path>
        </g>
    </g>
</svg>