<svg id="Layer_1" height="512" viewBox="0 0 128 128" width="512" xmlns="http://www.w3.org/2000/svg" data-name="Layer 1"><circle cx="26.404" cy="101.596" fill="#f3d55b" r="19.904"/><g fill="#2d1d40"><path d="m9.832 90.431a1.75 1.75 0 0 0 2.461-.258 18.16 18.16 0 0 1 31.4 5.878 1.75 1.75 0 1 0 3.333-1.068 21.66 21.66 0 0 0 -37.452-7.014 1.75 1.75 0 0 0 .258 2.462z"/><path d="m46.308 99.846a1.75 1.75 0 0 0 -1.75 1.75 18.363 18.363 0 0 1 -.2 2.738 1.751 1.751 0 0 0 1.468 1.993 1.823 1.823 0 0 0 .264.019 1.75 1.75 0 0 0 1.728-1.488 21.775 21.775 0 0 0 .245-3.262 1.751 1.751 0 0 0 -1.755-1.75z"/><path d="m45.116 108.62a1.749 1.749 0 0 0 -2.335.82 18.16 18.16 0 0 1 -33.9-12.607 1.75 1.75 0 0 0 -3.381-.916 21.659 21.659 0 0 0 40.433 15.038 1.75 1.75 0 0 0 -.817-2.335z"/><path d="m28.18 74.5a1.745 1.745 0 0 0 1.238-.513l9.055-9.056a1.75 1.75 0 0 0 -2.473-2.475l-9.055 9.057a1.75 1.75 0 0 0 1.235 2.987z"/><path d="m45.047 57.63a1.744 1.744 0 0 0 1.237-.512l43.416-43.418a1.749 1.749 0 1 0 -2.474-2.474l-43.416 43.417a1.75 1.75 0 0 0 1.237 2.987z"/><path d="m114.3 38.3-60.287 60.282a1.75 1.75 0 0 0 2.474 2.476l60.29-60.281a1.749 1.749 0 0 0 -2.477-2.477z"/><path d="m110.237 17.763a1.748 1.748 0 0 0 -2.474 0l-62.17 62.17a1.749 1.749 0 1 0 2.474 2.474l62.17-62.17a1.748 1.748 0 0 0 0-2.474z"/><path d="m122.737 5.263a1.748 1.748 0 0 0 -2.474 0l-5.5 5.5a1.749 1.749 0 1 0 2.474 2.474l5.5-5.5a1.748 1.748 0 0 0 0-2.474z"/><path d="m114.3 24.763-15.425 15.425a1.75 1.75 0 0 0 2.475 2.475l15.427-15.426a1.749 1.749 0 0 0 -2.474-2.474z"/><path d="m92.172 51.839a1.75 1.75 0 0 0 -2.472-2.475l-38.477 38.469a1.748 1.748 0 0 0 -.513 1.237v.01a1.748 1.748 0 0 0 3.04 1.174z"/><path d="m37.175 75.54a1.753 1.753 0 0 0 2.992 1.237l63.07-63.08a1.749 1.749 0 0 0 -2.474-2.474l-62.974 62.984a1.746 1.746 0 0 0 -.614 1.333z"/><path d="m21.831 90.958a1.75 1.75 0 0 0 0 3.5 1.252 1.252 0 0 1 1.25 1.25 1.75 1.75 0 0 0 3.5 0 4.756 4.756 0 0 0 -4.75-4.75z"/><circle cx="37.42" cy="106.096" r="1.5"/><circle cx="33.936" cy="112.583" r="1.5"/><circle cx="30.67" cy="106.808" r="1.5"/><path d="m21.831 107.833a1.75 1.75 0 1 0 0 3.5 1.252 1.252 0 0 1 1.25 1.25 1.75 1.75 0 0 0 3.5 0 4.756 4.756 0 0 0 -4.75-4.75z"/><path d="m36.936 99.24a1.75 1.75 0 0 0 1.75-1.75 4.756 4.756 0 0 0 -4.75-4.75 1.75 1.75 0 1 0 0 3.5 1.252 1.252 0 0 1 1.25 1.25 1.749 1.749 0 0 0 1.75 1.75z"/></g></svg>