<svg height="496pt" viewBox="-40 0 496 496" width="496pt" xmlns="http://www.w3.org/2000/svg"><path d="m152 93.441406v-53.441406l24 8 32-24 32 24 24-8v53.527344c-15.441406 6.632812-29.761719 18.472656-56 18.472656-26.230469 0-40.550781-11.839844-56-18.480469zm0 0" fill="#ffce54"/><path d="m240 48v57.265625c8.816406-3.792969 16.265625-8.425781 24-11.746094v-53.519531zm0 0" fill="#f6bb42"/><path d="m112 96c22.089844 0 40 17.921875 40 40s-17.910156 40-40 40c-13.039062 0-24.71875-6.320312-32-16-5.039062-6.640625-8-14.960938-8-24 0-19.359375 13.769531-35.519531 32-39.199219 2.558594-.5625 5.28125-.800781 8-.800781zm0 0" fill="#fc6e51"/><path d="m344 136c0 9.039062-2.953125 17.359375-8 24-7.273438 9.679688-18.953125 16-32 16-22.078125 0-40-17.921875-40-40s17.921875-40 40-40c2.726562 0 5.449219.238281 8 .800781 18.238281 3.679688 32 19.839844 32 39.199219zm0 0" fill="#fc6e51"/><path d="m312 96.800781c-2.550781-.554687-5.273438-.800781-8-.800781-4.167969 0-8.121094.824219-11.894531 2.007812 16.125 5.128907 27.894531 20.136719 27.894531 37.992188 0 9.039062-2.953125 17.359375-8 24-4.894531 6.519531-11.832031 11.464844-19.800781 14.023438 3.753906 1.160156 7.664062 1.976562 11.800781 1.976562 13.046875 0 24.726562-6.320312 32-16 5.046875-6.640625 8-14.960938 8-24 0-19.359375-13.761719-35.519531-32-39.199219zm0 0" fill="#e9573f"/><path d="m120.160156 96.800781c-2.550781-.554687-5.273437-.800781-8-.800781-4.167968 0-8.121094.824219-11.894531 2.007812 16.132813 5.128907 27.894531 20.136719 27.894531 37.992188 0 9.039062-2.953125 17.359375-8 24-4.894531 6.519531-11.832031 11.464844-19.800781 14.023438 3.753906 1.160156 7.664063 1.976562 11.800781 1.976562 13.046875 0 24.726563-6.320312 32-16 5.046875-6.640625 8-14.960938 8-24 0-19.359375-13.761718-35.519531-32-39.199219zm0 0" fill="#e9573f"/><g fill="#a0d468"><path d="m152 93.519531c15.449219 6.640625 29.769531 18.480469 56 18.480469 26.238281 0 40.558594-11.839844 56-18.480469 12.726562-5.597656 26.238281-7.679687 48 3.273438-2.550781-.554688-5.273438-.800781-8-.800781-22.078125 0-40 17.917968-40 40 0 22.078124 17.921875 40 40 40 13.046875 0 24.726562-6.320313 32-16 0 0 24 8 24 32 0 12.71875-18 36.640624-48 56.320312-26.550781 17.527344-62.640625 31.6875-104 31.6875s-77.441406-14.160156-104-31.679688c-30-19.679687-48-43.601562-48-56.320312 0-24 24-32 24-32 7.28125 9.679688 18.960938 16 32 16 22.089844 0 40-17.921875 40-40s-17.910156-40-40-40c-2.71875 0-5.441406.238281-8 .800781 21.769531-10.960937 35.28125-8.878906 48-3.28125zm0 0"/><path d="m24 484c0 1.441406-.230469 2.71875-.71875 4-1.601562 4.640625-6.082031 8-11.28125 8-6.640625 0-12-5.359375-12-12s5.359375-12 12-12c1.449219 0 2.726562.238281 4 .71875 4.640625 1.601562 8 6.082031 8 11.28125zm0 0"/><path d="m95.28125 488c-1.601562 4.640625-6.082031 8-11.28125 8-5.191406 0-9.679688-3.359375-11.273438-8-.488281-1.28125-.726562-2.558594-.726562-4 0-6.640625 5.359375-12 12-12 1.449219 0 2.726562.238281 4 .71875 4.640625 1.601562 8 6.082031 8 11.28125 0 1.441406-.230469 2.71875-.71875 4zm0 0"/><path d="m143.28125 488c-1.601562 4.640625-6.082031 8-11.28125 8-5.191406 0-9.679688-3.359375-11.273438-8-.488281-1.28125-.726562-2.558594-.726562-4 0-6.640625 5.359375-12 12-12s12 5.359375 12 12c0 1.441406-.230469 2.71875-.71875 4zm0 0"/><path d="m191.28125 488c-1.601562 4.640625-6.082031 8-11.28125 8-5.191406 0-9.679688-3.359375-11.273438-8-.488281-1.28125-.726562-2.558594-.726562-4 0-5.199219 3.359375-9.679688 8-11.28125 1.28125-.480469 2.558594-.71875 4-.71875 6.640625 0 12 5.359375 12 12 0 1.441406-.230469 2.71875-.71875 4zm0 0"/><path d="m247.28125 488c-1.601562 4.640625-6.082031 8-11.28125 8-5.191406 0-9.679688-3.359375-11.273438-8-.488281-1.28125-.726562-2.558594-.726562-4 0-6.640625 5.359375-12 12-12 1.449219 0 2.726562.238281 4 .71875 4.640625 1.601562 8 6.082031 8 11.28125 0 1.441406-.230469 2.71875-.71875 4zm0 0"/><path d="m295.28125 488c-1.601562 4.640625-6.082031 8-11.28125 8-5.191406 0-9.679688-3.359375-11.273438-8-.488281-1.28125-.726562-2.558594-.726562-4 0-6.640625 5.359375-12 12-12s12 5.359375 12 12c0 1.441406-.230469 2.71875-.71875 4zm0 0"/><path d="m404 472c6.640625 0 12 5.359375 12 12s-5.359375 12-12 12c-5.191406 0-9.679688-3.359375-11.273438-8-.488281-1.28125-.726562-2.558594-.726562-4 0-5.199219 3.359375-9.679688 8-11.28125 1.28125-.480469 2.558594-.71875 4-.71875zm0 0"/><path d="m343.28125 488c-1.601562 4.640625-6.082031 8-11.28125 8-5.191406 0-9.679688-3.359375-11.273438-8-.488281-1.28125-.726562-2.558594-.726562-4 0-5.199219 3.359375-9.679688 8-11.28125 1.28125-.480469 2.558594-.71875 4-.71875 6.640625 0 12 5.359375 12 12 0 1.441406-.230469 2.71875-.71875 4zm0 0"/></g><path d="m352.320312 451.679688 47.679688 21.039062c-4.640625 1.601562-8 6.082031-8 11.28125 0 1.441406.238281 2.71875.726562 4h-49.445312c.488281-1.28125.71875-2.558594.71875-4 0-6.640625-5.359375-12-12-12-1.441406 0-2.71875.238281-4 .71875l-16-11.917969v-140.800781s72-40 96-8c23.128906 30.878906-50.480469 132.480469-55.679688 139.679688zm0 0" fill="#80b23f"/><path d="m176 472.71875-16-11.917969v-84.800781c0-26.480469 21.519531-48 48-48 26.488281 0 48 21.519531 48 48v84.800781l-16 11.917969c-1.273438-.480469-2.550781-.71875-4-.71875-6.640625 0-12 5.359375-12 12 0 1.441406.238281 2.71875.726562 4h-33.445312c.488281-1.28125.71875-2.558594.71875-4 0-6.640625-5.359375-12-12-12-1.441406 0-2.71875.238281-4 .71875zm0 0" fill="#80b23f"/><path d="m104 416v44.800781l-16 11.917969c-1.273438-.480469-2.550781-.71875-4-.71875-6.640625 0-12 5.359375-12 12 0 1.441406.238281 2.71875.726562 4h-49.445312c.488281-1.28125.71875-2.558594.71875-4 0-5.199219-3.359375-9.679688-8-11.28125l47.679688-21.039062c-5.191407-7.199219-78.800782-108.800782-55.679688-139.679688 24-32 96 8 96 8zm0 0" fill="#80b23f"/><path d="m160 460.800781 16 11.917969c-4.640625 1.601562-8 6.082031-8 11.28125 0 1.441406.238281 2.71875.726562 4h-25.445312c.488281-1.28125.71875-2.558594.71875-4 0-6.640625-5.359375-12-12-12s-12 5.359375-12 12c0 1.441406.238281 2.71875.726562 4h-25.445312c.488281-1.28125.71875-2.558594.71875-4 0-5.199219-3.359375-9.679688-8-11.28125l16-11.917969v-212.480469c26.558594 17.519532 62.640625 31.679688 104 31.679688s77.449219-14.160156 104-31.679688v212.480469l16 11.917969c-4.640625 1.601562-8 6.082031-8 11.28125 0 1.441406.238281 2.71875.726562 4h-25.445312c.488281-1.28125.71875-2.558594.71875-4 0-6.640625-5.359375-12-12-12s-12 5.359375-12 12c0 1.441406.238281 2.71875.726562 4h-25.445312c.488281-1.28125.71875-2.558594.71875-4 0-5.199219-3.359375-9.679688-8-11.28125l16-11.917969v-84.800781c0-26.480469-21.511719-48-48-48-26.480469 0-48 21.519531-48 48zm0 0" fill="#8cc152"/><path d="m224.238281 184c-4.421875 0-8.039062-3.574219-8.039062-8s3.535156-8 7.953125-8h.085937c4.417969 0 8 3.574219 8 8s-3.582031 8-8 8zm0 0" fill="#8cc152"/><path d="m208.238281 16c-4.421875 0-8.039062-3.574219-8.039062-8s3.535156-8 7.953125-8h.085937c4.417969 0 8 3.574219 8 8s-3.582031 8-8 8zm0 0" fill="#ffce54"/><path d="m264.238281 32c-4.421875 0-8.039062-3.574219-8.039062-8s3.535156-8 7.953125-8h.085937c4.417969 0 8 3.574219 8 8s-3.582031 8-8 8zm0 0" fill="#f6bb42"/><path d="m152.238281 32c-4.421875 0-8.039062-3.574219-8.039062-8s3.535156-8 7.953125-8h.085937c4.417969 0 8 3.574219 8 8s-3.582031 8-8 8zm0 0" fill="#ffce54"/><path d="m192.238281 184c-4.421875 0-8.039062-3.574219-8.039062-8s3.535156-8 7.953125-8h.085937c4.417969 0 8 3.574219 8 8s-3.582031 8-8 8zm0 0" fill="#8cc152"/><path d="m356.648438 353.496094c-3.585938-2.566406-8.59375-1.734375-11.160157 1.855468l-33.488281 47.03125v27.570313l46.503906-65.304687c2.574219-3.59375 1.734375-8.59375-1.855468-11.152344zm0 0" fill="#77a331"/><path d="m59.351562 353.496094c3.585938-2.566406 8.59375-1.734375 11.160157 1.855468l33.488281 47.03125v27.570313l-46.503906-65.304687c-2.574219-3.59375-1.734375-8.59375 1.855468-11.152344zm0 0" fill="#77a331"/><path d="m120 144h-16c-4.425781 0-8-3.574219-8-8s3.574219-8 8-8h16c4.425781 0 8 3.574219 8 8s-3.574219 8-8 8zm0 0" fill="#656d78"/><path d="m312 144h-16c-4.425781 0-8-3.574219-8-8s3.574219-8 8-8h16c4.425781 0 8 3.574219 8 8s-3.574219 8-8 8zm0 0" fill="#656d78"/><path d="m208 248c-50.097656 0-83.40625-24.550781-84.800781-25.601562-3.535157-2.644532-4.253907-7.664063-1.597657-11.191407 2.644532-3.535156 7.644532-4.253906 11.183594-1.613281.304688.222656 30.679688 22.40625 75.214844 22.40625s74.910156-22.183594 75.207031-22.414062c3.546875-2.640626 8.5625-1.890626 11.191407 1.628906 2.632812 3.539062 1.921874 8.527344-1.605469 11.175781-1.386719 1.058594-34.695313 25.609375-84.792969 25.609375zm0 0" fill="#8cc152"/></svg>