<?xml version="1.0" encoding="iso-8859-1"?>
<!-- Generator: Adobe Illustrator 19.0.0, SVG Export Plug-In . SVG Version: 6.00 Build 0)  -->
<svg version="1.1" id="Capa_1" xmlns="http://www.w3.org/2000/svg" xmlns:xlink="http://www.w3.org/1999/xlink" x="0px" y="0px"
	 viewBox="0 0 511.998 511.998" style="enable-background:new 0 0 511.998 511.998;" xml:space="preserve">
<g>
	<path style="fill:#00A1E0;" d="M442.416,424.887c0,0,45.526,23.586,45.526,79.63h-83.054l-5.401-66.848L442.416,424.887z"/>
	<path style="fill:#00A1E0;" d="M69.584,424.887c0,0-45.526,23.586-45.526,79.63h83.054l5.401-66.848L69.584,424.887z"/>
</g>
<path style="fill:#008FC7;" d="M86.018,429.78l-16.434-4.893c0,0-45.526,23.586-45.526,79.63h24.002
	C48.059,462.97,73.074,439.266,86.018,429.78z"/>
<polygon style="fill:#DC5A64;" points="314.217,504.516 197.782,504.516 133.641,479.533 133.641,421.462 178.713,371.496 
	339.368,371.496 378.358,429.629 360.323,486.285 "/>
<g>
	<path style="fill:#87543D;" d="M42.795,284.86c0,38.019,33.255,64.353,8.272,93.388c0,0,6.077,18.906,41.864,31.736
		c35.788,12.829,49.292-67.523,49.292-67.523l-47.377-66.174L42.795,284.86z"/>
	<path style="fill:#87543D;" d="M469.204,284.86c0,38.019-33.255,64.353-8.272,93.388c0,0-6.077,18.906-41.864,31.736
		c-35.788,12.829-49.292-67.523-49.292-67.523l47.378-66.173L469.204,284.86z"/>
</g>
<path style="fill:#008FC7;" d="M465.157,443.66c-11.374-12.885-22.741-18.773-22.741-18.773l-42.929,12.782l5.401,66.848h31.63
	C451.462,483.647,461.02,463.314,465.157,443.66z"/>
<g>
	<path style="fill:#EFEDEE;" d="M345.073,403.88c0,0,16.895,64.174-30.856,100.636h90.672
		c86.429-103.31-3.153-149.774-3.153-149.774L345.073,403.88z"/>
	<path style="fill:#EFEDEE;" d="M166.927,403.88c0,0-16.895,64.174,30.856,100.636h-90.672
		c-86.429-103.31,3.153-149.774,3.153-149.774L166.927,403.88z"/>
</g>
<path style="fill:#D4D2D3;" d="M124.11,366.749l-13.846-12.007c0,0-89.582,46.463-3.153,149.774h30.002
	C75.779,431.203,103.083,386.518,124.11,366.749z"/>
<path style="fill:#FBC4AC;" d="M333.286,414.611c-33.788,10.029-77.287,50.091-77.287,50.091s-43.498-40.061-77.287-50.091
	l19.069-28.936h116.434L333.286,414.611z"/>
<path style="fill:#87543D;" d="M451.433,155.477h-0.021l0.021-0.003L256,136.204l-195.432,19.27
	c-14.774,28.306-22.582,59.699-22.582,92.26h436.025C474.012,215.175,466.206,183.782,451.433,155.477z"/>
<g>
	<circle style="fill:#FBC4AC;" cx="63.414" cy="247.736" r="42.466"/>
	<circle style="fill:#FBC4AC;" cx="448.591" cy="247.736" r="42.466"/>
</g>
<ellipse style="fill:#A36549;" cx="255.997" cy="247.736" rx="192.584" ry="182.143"/>
<path style="fill:#FBC4AC;" d="M113.121,155.474c-18.185,55.357,6.187,110.317,74.533,110.317h136.691
	c68.346,0,92.718-54.96,74.533-110.317L256,148.303L113.121,155.474z"/>
<path style="fill:#87543D;" d="M255.999,284.604c32.35,33.44,64.48,20.369,80.171,10.196c4.119-2.67,4.256-8.561,0.424-11.629
	c-22.242-17.805-22.255-86.628-80.596-50.591c-58.34-36.038-58.354,32.786-80.596,50.591c-3.832,3.068-3.695,8.959,0.424,11.629
	C191.52,304.974,223.649,318.046,255.999,284.604z"/>
<path style="fill:#FFCE1C;" d="M424.526,12.265L424.526,12.265c-6.867-6.379-17.493-6.379-24.361,0l-26.906,24.994l-26.906-24.994
	c-6.867-6.379-17.493-6.379-24.361,0l-26.906,24.994L268.18,12.265c-6.867-6.379-17.493-6.379-24.361,0l-26.906,24.994
	l-26.906-24.994c-6.868-6.379-17.493-6.379-24.361,0l-26.906,24.994l-26.906-24.994c-6.867-6.379-17.493-6.379-24.361,0l0,0
	C70.316,28.203,60.567,59.679,60.567,83.097v33.835L256,136.203l195.431-19.269V83.097
	C451.432,59.679,441.683,28.203,424.526,12.265z"/>
<path style="fill:#ECB000;" d="M90.569,116.933V83.097c0-22.154,8.729-51.51,24.196-68.11l-2.931-2.723
	c-6.867-6.379-17.493-6.379-24.361,0l0,0C70.316,28.203,60.567,59.679,60.567,83.097v33.835L256,136.203l15.001-1.479
	L90.569,116.933z"/>
<path style="fill:#DC5A64;" d="M255.999,48.182c-6.153,0-11.142,4.988-11.142,11.141v20.64c0,6.153,4.988,11.142,11.142,11.142
	c6.153,0,11.142-4.988,11.142-11.142v-20.64C267.141,53.17,262.153,48.182,255.999,48.182z"/>
<path style="fill:#FFA74F;" d="M451.433,116.933H60.568c-10.643,0-19.27,8.628-19.27,19.27l0,0c0,10.643,8.628,19.27,19.27,19.27
	h390.864c10.643,0,19.27-8.628,19.27-19.27l0,0C470.703,125.561,462.075,116.933,451.433,116.933z"/>
<path style="fill:#F2973D;" d="M71.3,136.204L71.3,136.204c0-10.643,8.628-19.27,19.27-19.27H60.568
	c-10.643,0-19.27,8.628-19.27,19.27l0,0c0,10.643,8.628,19.27,19.27,19.27H90.57C79.928,155.474,71.3,146.846,71.3,136.204z"/>
<g>
	<path style="fill:#A36549;" d="M166.3,188.908h-14.446c-6.855,0-12.413,5.557-12.413,12.413c0,6.855,5.557,12.413,12.413,12.413
		H166.3c6.855,0,12.413-5.557,12.413-12.413C178.713,194.466,173.155,188.908,166.3,188.908z"/>
	<path style="fill:#A36549;" d="M345.7,188.908h14.446c6.855,0,12.413,5.557,12.413,12.413c0,6.855-5.557,12.413-12.413,12.413
		H345.7c-6.855,0-12.413-5.557-12.413-12.413C333.286,194.466,338.843,188.908,345.7,188.908z"/>
</g>
<path d="M255.999,268.731c8.921,0,17.297-3.729,22.983-10.234c2.726-3.118,2.408-7.857-0.711-10.584
	c-3.119-2.727-7.858-2.408-10.584,0.71c-2.836,3.245-7.097,5.105-11.689,5.105c-4.592,0-8.853-1.861-11.689-5.105
	c-2.727-3.119-7.465-3.437-10.584-0.711c-3.118,2.726-3.437,7.465-0.711,10.584C238.701,265.001,247.079,268.731,255.999,268.731z"
	/>
<path d="M151.576,221.203v11.359c0,4.142,3.358,7.501,7.501,7.501c4.143,0,7.501-3.358,7.501-7.501v-11.359
	c10.852-0.15,19.636-9.013,19.636-19.899c0-10.98-8.934-19.913-19.913-19.913h-14.446c-10.981,0-19.914,8.934-19.914,19.913
	C131.939,212.19,140.724,221.053,151.576,221.203z M151.854,196.39H166.3c2.708,0,4.912,2.204,4.912,4.912
	c0,2.709-2.204,4.913-4.912,4.913h-14.446c-2.708,0-4.913-2.204-4.913-4.913C146.941,198.595,149.145,196.39,151.854,196.39z"/>
<path d="M345.422,221.203v11.359c0,4.142,3.358,7.501,7.501,7.501s7.501-3.358,7.501-7.501v-11.359
	c10.852-0.151,19.636-9.013,19.636-19.899c0-10.98-8.934-19.913-19.913-19.913H345.7c-10.981,0-19.913,8.934-19.913,19.913
	C325.785,212.19,334.57,221.053,345.422,221.203z M345.699,196.39h14.446c2.709,0,4.912,2.204,4.912,4.912
	c0,2.709-2.204,4.913-4.912,4.913h-14.446c-2.709,0-4.912-2.204-4.912-4.913C340.787,198.595,342.991,196.39,345.699,196.39z"/>
<path d="M255.999,98.588c10.279,0,18.641-8.363,18.641-18.642V59.304c0-10.279-8.363-18.641-18.641-18.641
	c-10.28,0-18.642,8.363-18.642,18.641v20.641C237.357,90.224,245.72,98.588,255.999,98.588z M252.358,59.304
	c0-2.007,1.633-3.64,3.641-3.64c2.007,0,3.64,1.633,3.64,3.64v20.641c0,2.007-1.633,3.641-3.64,3.641
	c-2.008,0-3.641-1.633-3.641-3.641V59.304z"/>
<path d="M13.443,247.716c0,17.193,8.73,32.385,21.99,41.379c0.834,14.416,5.718,27.087,10.085,38.38
	c7.788,20.139,11.621,32.199-0.136,45.862c-1.705,1.982-2.255,4.709-1.452,7.198c0.417,1.292,4.287,12.068,20.032,23.157
	c0.254,0.225-1.998,16.98-1.953,16.951c-11.966,7.655-45.452,33.571-45.452,83.855c0,4.142,3.358,7.501,7.501,7.501h463.885
	c4.142,0,7.501-3.358,7.501-7.501c0-31.293-13.397-53.05-24.637-65.791c-8.041-9.115-15.956-14.928-20.814-18.029
	c-0.049-5.719-0.688-11.409-1.951-16.987c15.743-11.087,19.613-21.862,20.03-23.155c0.804-2.488,0.253-5.215-1.452-7.198
	c-11.757-13.663-7.924-25.723-0.136-45.862c4.366-11.293,9.251-23.965,10.085-38.38c13.259-8.994,21.989-24.186,21.989-41.378
	c0-16.786-8.33-31.654-21.063-40.72c-3.196-16.001-8.282-31.545-15.163-46.367c9.344-4.182,15.873-13.562,15.873-24.444
	c0-12.158-8.15-22.443-19.271-25.694V83.081c0-24.404-10.065-58.458-29.302-76.329c-9.693-9.003-24.878-9.003-34.57,0
	l-21.801,20.251L351.456,6.752c-9.693-9.003-24.878-9.003-34.57,0l-21.802,20.251L273.283,6.752c-9.692-9.003-24.878-9.003-34.57,0
	l-21.802,20.251L195.11,6.752c-9.693-9.003-24.877-9.003-34.57,0l-21.802,20.251L116.936,6.752c-9.693-9.004-24.878-9.003-34.57,0
	C63.131,24.622,53.065,58.676,53.065,83.08v27.413c-11.121,3.252-19.27,13.536-19.27,25.694c0,10.882,6.529,20.26,15.873,24.443
	c-6.881,14.822-11.97,30.368-15.166,46.369C21.771,216.062,13.443,230.931,13.443,247.716z M45.647,217.61
	c4.16-2.464,8.824-4.019,13.62-4.598c-0.609,3.119-1.129,6.256-1.573,9.405c-0.009,0.063-0.016,0.127-0.025,0.191
	c-2.855,19.539-2.253,39.679,1.458,59.062c0.048,0.252,0.089,0.506,0.139,0.758c-0.078-0.009-0.156-0.013-0.234-0.022
	c-4.264-0.533-8.426-1.874-12.205-3.918c-10.936-5.919-18.383-17.49-18.383-30.771C28.444,234.916,35.359,223.703,45.647,217.61z
	 M385.236,231.579c-11.915,16.456-31.297,25.602-56.246,26.602c-0.597-1.254-1.199-2.535-1.816-3.85
	c-8.28-17.623-18.583-39.556-42.269-39.556c-10.26,0-20.114,4.097-28.905,9.072c-9.432-5.337-20.049-9.658-31.086-9.009
	c-22.148,1.303-32.067,22.422-40.088,39.496c-0.057,0.12-0.113,0.239-0.169,0.36c-0.532,1.131-1.054,2.242-1.571,3.328
	c-0.025,0.053-0.05,0.105-0.076,0.158c-24.948-1-44.331-10.146-56.246-26.601c-12.864-17.767-15.943-42.54-8.689-68.622h275.852
	C401.18,189.038,398.101,213.811,385.236,231.579z M198.314,260.897c0.028-0.06,0.058-0.122,0.086-0.181
	c8.487-18.064,15.069-30.11,27.394-30.897c9.304-0.593,18.616,4.4,26.263,9.125c2.33,1.439,5.474,1.488,7.884,0
	c7.401-4.571,16.03-9.168,24.963-9.168c13.171,0,19.911,12.25,28.691,30.936c5.219,11.109,10.152,21.608,18.034,28.073
	c-7.103,4.528-18.052,9.772-30.668,9.772c-13.943,0-27.257-6.454-39.572-19.185c-1.413-1.461-3.358-2.286-5.39-2.286
	s-3.978,0.825-5.39,2.286c-12.316,12.73-25.63,19.185-39.572,19.185c-12.618,0-23.567-5.243-30.669-9.772
	C188.205,282.362,193.127,271.939,198.314,260.897z M114.612,240.376c9.677,13.364,27.793,29.002,60.369,32.269
	c-1.358,1.865-2.769,3.454-4.265,4.652c-3.723,2.98-5.805,7.587-5.568,12.322c0.235,4.714,2.641,8.89,6.6,11.456
	c8.783,5.693,22.729,12.481,39.289,12.481c16.048,0,31.145-6.241,44.962-18.569c13.818,12.329,28.913,18.569,44.962,18.569
	c16.559,0,30.505-6.787,39.289-12.481c3.958-2.566,6.363-6.741,6.599-11.456c0.237-4.735-1.845-9.342-5.568-12.323
	c-1.496-1.197-2.906-2.787-4.265-4.652c32.576-3.267,50.693-18.905,60.369-32.269c14.891-20.565,19.106-48.348,12.032-77.42
	c0,0,8.424,0,8.425,0c8.438,14.41,14.777,29.954,18.685,46.195c0.019,0.078,0.037,0.157,0.055,0.235
	c6.066,25.54,6.013,52.321-0.261,77.792C422.5,343.424,379.798,389.343,323.79,410.225c-21.619,8.061-44.726,12.13-67.792,12.13
	c-21.635,0-43.574-3.682-64.154-10.823C134.069,391.323,89.798,344.644,75.676,287.18c-0.058-0.238-0.11-0.478-0.168-0.717
	c-10.024-41.539-3.261-86.302,18.415-123.112c0.078-0.132,0.154-0.264,0.231-0.396h8.425
	C95.507,192.029,99.721,219.81,114.612,240.376z M311.592,496.997H200.406c-6.478-5.388-18.173-17.301-24.571-36.881
	c-4.672-15.13-4.727-29.97-3.833-40.242c5.014,2.196,10.128,4.189,15.32,5.981c29.829,13.432,63.26,44.034,63.596,44.343
	c2.764,2.542,7.279,2.653,10.16,0c0.334-0.308,33.786-30.93,63.624-44.356c5.182-1.791,10.287-3.78,15.293-5.973
	c0.895,10.272,0.84,25.113-3.832,40.244C329.767,479.694,318.072,491.608,311.592,496.997z M279.198,436.097
	c-9.93,7.314-18.207,14.23-23.2,18.557c-4.993-4.327-13.267-11.243-23.2-18.557c0.541,0.059,15.996,1.26,23.2,1.26
	C263.743,437.357,271.501,436.939,279.198,436.097z M72.533,323.553c5.511,11.978,12.343,23.387,20.446,34.139
	c-8.047,6.764-17.619,17.008-23.978,31.008c-4.679-3.823-7.47-7.288-9.045-9.664c13.974-19.673,6.649-38.616-0.448-56.972
	c-3.215-8.314-6.507-16.826-8.148-25.858c0.032,0.008,0.064,0.013,0.097,0.021c3.727,0.96,7.631,1.421,11.479,1.453
	C63.482,297.684,72.533,323.553,72.533,323.553z M31.857,496.997c2.516-31.146,20.344-50.048,31.724-59.073
	c3.504,18.685,12.84,38.372,27.938,58.873c0.049,0.067,0.095,0.133,0.144,0.2H31.857z M110.647,496.997
	c-0.23-0.283-0.454-0.564-0.682-0.847c-13.748-17.016-26.185-36.439-31.029-58.043c-2.903-12.945-2.638-26.575,2.032-39.083
	c5.104-13.672,14.217-23.528,21.506-29.702c15.439,17.464,34.331,32.383,55.204,43.582c-0.006,0.047-0.012,0.099-0.019,0.146
	c-1.554,11.606-1.494,23.439,0.169,35.03c2.54,17.699,9.447,34.953,21.016,48.702c0.06,0.071,0.115,0.145,0.176,0.216H110.647z
	 M333.15,496.786c11.033-13.092,17.823-29.342,20.626-46.157c0.005-0.029,0.01-0.059,0.014-0.088
	c2.059-12.375,2.184-25.157,0.536-37.589c-0.002-0.015-0.004-0.032-0.006-0.047c20.875-11.199,39.764-26.116,55.204-43.582
	c7.288,6.173,16.399,16.029,21.512,29.717c11.825,29.01-3.363,61.633-20.034,85.261c-3.068,4.349-6.289,8.569-9.65,12.696h-68.373
	C333.038,496.928,333.091,496.856,333.15,496.786z M480.137,496.997h-59.8c0.049-0.066,0.095-0.133,0.144-0.199
	c15.077-20.473,24.407-40.134,27.923-58.796C459.751,447.101,477.596,466.111,480.137,496.997z M445.096,309.874
	c1.194-3.275,3.799-11.612,3.966-12.195c0.24-0.002,7.896-0.736,11.478-1.453c0.033-0.008,0.066-0.013,0.099-0.021
	c-1.64,9.032-4.932,17.544-8.148,25.858c-7.099,18.356-14.422,37.298-0.449,56.972c-1.575,2.376-4.366,5.841-9.045,9.664
	c-6.358-14-15.932-24.245-23.979-31.009c8.108-10.762,14.938-22.169,20.447-34.139L445.096,309.874z M465.17,278.487
	c-3.729,2.015-7.815,3.348-12.021,3.891c-0.061,0.008-0.338,0.039-0.416,0.048c0.049-0.252,0.09-0.505,0.139-0.758
	c2.587-13.509,3.607-27.324,3.065-41.067c-0.361-9.168-1.432-18.511-3.205-27.59c0.942,0.114,1.878,0.251,2.808,0.44
	c3.787,0.767,7.486,2.19,10.812,4.159c10.288,6.093,17.202,17.306,17.202,30.106C483.554,260.998,476.106,272.57,465.17,278.487z
	 M457.965,198.637c-2.932-0.555-5.926-0.864-8.912-0.886c-2.308-8.029-5.181-15.884-8.579-23.536
	c-0.071-0.16-3.584-7.728-5.449-11.259h11.799c5.716,11.607,10.227,23.719,13.479,36.181
	C459.529,198.952,458.749,198.785,457.965,198.637z M60.568,124.415c0,0,59.561,0,59.601,0c4.038,0,7.501-3.469,7.501-7.501
	c0-4.142-3.357-7.501-7.501-7.501H68.068V83.079c0-20.636,8.591-50.549,24.51-65.338c3.967-3.686,10.184-3.685,14.151,0
	l26.906,24.994c2.878,2.673,7.332,2.673,10.21,0l26.905-24.994c3.968-3.686,10.185-3.685,14.152,0l26.905,24.994
	c2.879,2.674,7.332,2.674,10.21,0l26.906-24.994c3.967-3.686,10.184-3.685,14.151,0l26.906,24.994c2.878,2.674,7.332,2.674,10.21,0
	l26.906-24.994c3.967-3.686,10.184-3.685,14.151,0l26.906,24.994c2.878,2.673,7.332,2.673,10.21,0l26.905-24.994
	c3.967-3.685,10.184-3.686,14.152,0c15.922,14.789,24.513,44.7,24.513,65.338v26.335H150.172c-4.142,0-7.501,3.358-7.501,7.501
	c0,4.019,3.485,7.501,7.501,7.501c0,0,301.26,0,301.261,0c6.49,0,11.77,5.28,11.77,11.77c0,6.49-5.28,11.771-11.77,11.771H60.568
	c-6.49,0-11.771-5.28-11.771-11.771C48.798,129.695,54.078,124.415,60.568,124.415z M51.694,199.137
	c3.252-12.461,7.765-24.574,13.48-36.181h11.798c-1.866,3.535-3.606,7.141-5.237,10.79c-3.494,7.777-6.433,15.811-8.79,24.005
	c-0.261,0.002-6.225,0.383-8.91,0.892C53.254,198.792,52.468,198.952,51.694,199.137z"/>
<g>
</g>
<g>
</g>
<g>
</g>
<g>
</g>
<g>
</g>
<g>
</g>
<g>
</g>
<g>
</g>
<g>
</g>
<g>
</g>
<g>
</g>
<g>
</g>
<g>
</g>
<g>
</g>
<g>
</g>
</svg>
