<svg height="507pt" viewBox="-15 0 507 507.05641" width="507pt" xmlns="http://www.w3.org/2000/svg"><path d="m424.28125 268.710938-.527344 3.265624s52.964844 17.65625 52.964844 61.792969c0 44.140625-44.140625 52.96875-44.140625 52.96875s44.140625 8.824219 44.140625 61.792969c0 52.964844-44.140625 52.964844-44.140625 52.964844h-388.410156s-44.1406252 0-44.1406252-52.964844c0-52.96875 44.1406252-61.792969 44.1406252-61.792969s-44.1406252-8.828125-44.1406252-52.96875c0-44.136719 52.9648442-61.792969 52.9648442-61.792969l-.527344-3.265624zm0 0" fill="#d25627"/><path d="m264.855469 401.125s70.488281 14.097656 104.386719 80.085938c2.832031 5.484374 2.605468 12.050781-.601563 17.324218-3.203125 5.277344-8.921875 8.503906-15.09375 8.519532h-230.347656c-6.171875-.015626-11.890625-3.242188-15.09375-8.519532-3.207031-5.273437-3.433594-11.839844-.601563-17.324218 33.898438-65.988282 104.386719-80.085938 104.386719-80.085938zm0 0" fill="#fdd7ad"/><path d="m404.683594 217.5c11.53125-2.207031 23.320312 2.304688 30.425781 11.652344s8.300781 21.914062 3.085937 32.433594c-5.21875 10.519531-15.941406 17.175781-27.683593 17.179687-4.425781.027344-8.800781-.9375-12.800781-2.824219h-318.675782c-4 1.886719-8.375 2.851563-12.800781 2.824219-11.707031-.050781-22.378906-6.710937-27.566406-17.207031s-3.996094-23.023438 3.074219-32.351563c7.074218-9.332031 18.8125-13.863281 30.320312-11.707031zm0 0" fill="#f0785a"/><path d="m211.890625 360.910156h52.964844v40.214844c0 14.625-11.855469 26.484375-26.484375 26.484375-14.625 0-26.480469-11.859375-26.480469-26.484375zm0 0" fill="#f09372"/><path d="m406.097656 234.628906c0-73.132812-75.09375-132.414062-167.726562-132.414062-92.628906 0-167.722656 59.28125-167.722656 132.414062 0 73.128906 75.09375 132.414063 167.722656 132.414063 92.632812 0 167.726562-59.285157 167.726562-132.414063zm0 0" fill="#f09372"/><path d="m370.785156 234.628906c0 73.128906-59.28125 132.414063-132.414062 132.414063-73.128906 0-132.410156-59.285157-132.410156-132.414063 0-73.132812 59.28125-132.414062 132.410156-132.414062 73.132812 0 132.414062 59.28125 132.414062 132.414062zm0 0" fill="#fdd7ad"/><path d="m158.394531 256.195312c-5.527343-.089843-10.78125-2.4375-14.535156-6.5-3.34375-3.464843-3.296875-8.96875.109375-12.375 3.40625-3.402343 8.910156-3.453124 12.375-.105468.960938.945312 2.394531 2.382812 5.039062.109375 5.921876-7.371094 14.902344-11.621094 24.359376-11.523438 9.457031.097657 18.351562 4.527344 24.121093 12.019531 3.113281 3.753907 2.589844 9.320313-1.164062 12.433594-3.753907 3.109375-9.316407 2.589844-12.429688-1.164062-2.554687-3.429688-6.582031-5.453125-10.859375-5.453125-4.273437 0-8.300781 2.023437-10.855468 5.453125-4.261719 4.371094-10.054688 6.921875-16.160157 7.105468zm0 0" fill="#2c2f38"/><path d="m318.207031 256.246094c-5.800781-.117188-11.332031-2.464844-15.453125-6.550782-2.40625-3.757812-6.515625-6.085937-10.976562-6.207031-4.460938-.121093-8.691406 1.976563-11.296875 5.601563-3.109375 3.753906-8.675781 4.273437-12.429688 1.164062-3.753906-3.113281-4.277343-8.679687-1.164062-12.433594 5.773437-7.492187 14.664062-11.921874 24.121093-12.019531 9.457032-.097656 18.4375 4.152344 24.359376 11.523438 2.644531 2.277343 4.078124.847656 5.039062-.109375 3.464844-3.347656 8.972656-3.296875 12.375.105468 3.40625 3.40625 3.453125 8.910157.109375 12.375-3.792969 4.097657-9.097656 6.464844-14.683594 6.550782zm0 0" fill="#2c2f38"/><path d="m238.371094 312.28125c-17.742188.945312-34.964844-6.175781-46.859375-19.378906-1.898438-2.519532-2.308594-5.859375-1.074219-8.761719s3.921875-4.925781 7.050781-5.308594c3.132813-.386719 6.230469.929688 8.125 3.449219 8.609375 8.675781 20.566407 13.183594 32.757813 12.347656 12.195312.835938 24.152344-3.671875 32.761718-12.347656 2.929688-3.894531 8.464844-4.671875 12.359376-1.742188 3.894531 2.933594 4.675781 8.46875 1.742187 12.363282-11.894531 13.203125-29.117187 20.324218-46.863281 19.378906zm0 0" fill="#ff5364"/><path d="m406.097656 215.746094c-25.210937-70.5-92.882812-116.800782-167.726562-114.757813-73.898438-2.101562-140.960938 43.011719-166.863282 112.257813-.566406 1.550781-.859374 3.1875-.859374 4.835937-.015626 4.046875 1.726562 7.902344 4.773437 10.570313 3.046875 2.664062 7.097656 3.878906 11.109375 3.324218 60.328125-8.351562 112.566406-46.128906 139.394531-100.808593 2.371094-4.699219 7.1875-7.660157 12.449219-7.660157 5.265625 0 10.078125 2.960938 12.453125 7.660157 26.824219 54.679687 79.0625 92.457031 139.390625 100.808593 4.011719.554688 8.0625-.660156 11.109375-3.328124 3.042969-2.664063 4.785156-6.519532 4.769531-10.566407zm0 0" fill="#f29c1f"/><path d="m423.753906 507.054688c.34375-21.019532-7.546875-41.34375-21.980468-56.625-16.851563-14.863282-38.769532-22.679688-61.21875-21.839844-47.148438.960937-82.425782 38.953125-102.183594 78.464844-19.753906-39.511719-55.03125-77.503907-102.179688-78.464844-22.449218-.839844-44.367187 6.976562-61.21875 21.839844-14.433594 15.28125-22.324218 35.605468-21.980468 56.625zm0 0" fill="#2fa8cc"/><path d="m406.097656 225.015625v-9.269531c-25.210937-70.5-92.882812-116.800782-167.726562-114.757813-74.839844-2.042969-142.511719 44.257813-167.722656 114.757813v9.269531l-7.554688-.125c-4.988281-.074219-9.714844-2.257813-13.007812-6.007813-3.296876-3.75-4.851563-8.714843-4.28125-13.675781 9.8125-79.359375 54.847656-116.699219 98.820312-134.058593h187.496094c43.972656 17.441406 89.007812 54.707031 98.820312 134.058593.570313 4.960938-.984375 9.925781-4.28125 13.675781-3.292968 3.75-8.019531 5.933594-13.007812 6.007813zm0 0" fill="#d25627"/><path d="m339.714844 45.816406-6.886719 22.863282-14.476563 48.285156-.355468.796875c-24.957032-11.464844-52.164063-17.195313-79.625-16.773438-27.457032-.421875-54.664063 5.308594-79.621094 16.773438l-.355469-.796875-14.476562-48.285156-6.886719-22.863282c-.910156-3.101562-.058594-6.453125 2.21875-8.75 2.273438-2.292968 5.621094-3.171875 8.730469-2.285156l40.691406 11.652344c3.378906.941406 6.996094-.160156 9.269531-2.824219l33.632813-40.429687c1.683593-2.015626 4.175781-3.179688 6.796875-3.179688 2.625 0 5.117187 1.164062 6.800781 3.179688l33.632813 40.429687c2.273437 2.664063 5.890624 3.765625 9.269531 2.824219l40.691406-11.652344c3.109375-.886719 6.457031-.007812 8.730469 2.285156 2.277344 2.296875 3.128906 5.648438 2.21875 8.75zm0 0" fill="#f0c419"/></svg>