<?xml version="1.0" encoding="iso-8859-1"?>
<!-- Generator: Adobe Illustrator 19.0.0, SVG Export Plug-In . SVG Version: 6.00 Build 0)  -->
<svg version="1.1" id="Capa_1" xmlns="http://www.w3.org/2000/svg" xmlns:xlink="http://www.w3.org/1999/xlink" x="0px" y="0px"
	 viewBox="0 0 512 512" style="enable-background:new 0 0 512 512;" xml:space="preserve">
<g>
	<path style="fill:#FF6243;" d="M401.321,296.685V190.013c0-50.594-26.253-95.359-65.821-121.371l-7.115,41.216
		c15.434,17.21,24.85,39.904,24.85,64.688v48.645c0,43.9-29.539,81.241-69.741,93.164l5.099,35.53h68.43
		c24.401,4.383,42.158,25.596,42.158,50.365v1.879c22.088-8.082,37.851-29.271,37.851-54.138
		C437.032,325.934,422.28,305.321,401.321,296.685z"/>
	<path style="fill:#FF6243;" d="M112.819,402.25c0-24.77,17.757-45.982,42.158-50.365h22.299l0,0l0,0h46.132l5.099-35.529
		c-40.202-11.924-69.742-49.265-69.742-93.164v-48.645c0-24.784,9.416-47.478,24.85-64.688L176.5,68.642
		c-39.568,26.012-65.821,70.777-65.821,121.371v106.672c-20.959,8.636-35.71,29.249-35.71,53.306
		c0,24.867,15.763,46.057,37.851,54.138v-1.879H112.819z"/>
</g>
<path style="fill:#F6DAB9;" d="M353.235,223.191v-48.645c0-24.784-9.416-47.478-24.85-64.688l-0.258,1.492H183.872l-0.258-1.492l0,0
	c-15.434,17.21-24.85,39.904-24.85,64.688v48.645c0,43.899,29.54,81.241,69.742,93.164l-5.099,35.529h-46.132l0,0l32.47,61.915
	h92.508l32.47-61.916h-46.131l-5.099-35.53C323.696,304.432,353.235,267.091,353.235,223.191z"/>
<path style="fill:#FF9929;" d="M293.138,45.552c0,0-34.968-35.552-37.137-35.552s-37.139,35.552-37.139,35.552l-48.773-14.045
	l13.783,79.842h144.256l13.783-79.841L293.138,45.552z"/>
<g>
	<path style="fill:#F47C5A;" d="M183.872,111.349l-0.243-1.405c-15.414,17.151-24.801,39.822-24.832,64.68v21.374h16.632
		c44.516,0,80.603-36.053,80.603-80.527v-4.121L183.872,111.349L183.872,111.349z"/>
	<path style="fill:#F47C5A;" d="M328.379,109.892l-0.252,1.457h-72.095v4.121c0,44.474,36.087,80.527,80.603,80.527h16.566v-21.374
		C353.202,149.741,343.812,127.049,328.379,109.892z"/>
</g>
<path d="M304.601,231.007h-9.585c-5.523,0-10-4.477-10-10s4.477-10,10-10h9.585c5.523,0,10,4.477,10,10
	S310.124,231.007,304.601,231.007z"/>
<path d="M216.984,231.007h-9.585c-5.523,0-10-4.477-10-10s4.477-10,10-10h9.585c5.523,0,10,4.477,10,10
	S222.507,231.007,216.984,231.007z"/>
<path d="M256,289.862c-5.812,0-11.623-2.21-16.047-6.63c-3.907-3.903-3.911-10.235-0.007-14.142
	c3.904-3.908,10.235-3.911,14.142-0.007c1.055,1.054,2.771,1.054,3.825,0c3.908-3.903,10.239-3.9,14.142,0.007
	c3.903,3.907,3.9,10.239-0.007,14.142C267.623,287.652,261.812,289.862,256,289.862z"/>
<path d="M476.08,512c-0.65,0-1.31-0.07-1.96-0.2c-0.63-0.12-1.26-0.32-1.87-0.57c-0.6-0.25-1.18-0.56-1.72-0.92
	c-0.55-0.36-1.06-0.78-1.52-1.24s-0.88-0.97-1.25-1.52c-0.36-0.54-0.67-1.12-0.92-1.73c-0.25-0.6-0.44-1.23-0.57-1.87
	c-0.13-0.64-0.19-1.3-0.19-1.95s0.06-1.31,0.19-1.95s0.32-1.27,0.57-1.87c0.25-0.61,0.56-1.19,0.92-1.73
	c0.37-0.55,0.79-1.06,1.25-1.52s0.97-0.88,1.52-1.24c0.54-0.36,1.12-0.67,1.72-0.92c0.61-0.25,1.24-0.45,1.87-0.57
	c1.29-0.26,2.62-0.26,3.91,0c0.64,0.12,1.27,0.32,1.87,0.57c0.61,0.25,1.19,0.56,1.73,0.92c0.55,0.36,1.06,0.78,1.52,1.24
	s0.88,0.97,1.24,1.52c0.36,0.54,0.67,1.12,0.92,1.73c0.25,0.6,0.44,1.23,0.57,1.87s0.2,1.3,0.2,1.95s-0.07,1.31-0.2,1.95
	s-0.32,1.27-0.57,1.87c-0.25,0.61-0.56,1.19-0.92,1.73c-0.36,0.55-0.78,1.06-1.24,1.52s-0.97,0.88-1.52,1.24
	c-0.54,0.36-1.12,0.67-1.73,0.92c-0.6,0.25-1.23,0.45-1.87,0.57C477.39,511.93,476.73,512,476.08,512z"/>
<path d="M35.92,512c-0.65,0-1.31-0.07-1.95-0.2c-0.64-0.12-1.27-0.32-1.87-0.57c-0.61-0.25-1.19-0.56-1.73-0.92
	c-0.55-0.36-1.06-0.78-1.52-1.24c-0.46-0.46-0.88-0.97-1.24-1.52c-0.36-0.54-0.67-1.12-0.92-1.73c-0.25-0.6-0.44-1.23-0.57-1.87
	c-0.13-0.64-0.2-1.3-0.2-1.95s0.07-1.31,0.2-1.95c0.13-0.64,0.32-1.27,0.57-1.88c0.25-0.6,0.56-1.18,0.92-1.72
	c0.36-0.55,0.78-1.06,1.24-1.52s0.97-0.88,1.52-1.24c0.54-0.36,1.12-0.67,1.73-0.92c0.6-0.25,1.23-0.44,1.87-0.57
	c1.29-0.26,2.62-0.26,3.91,0c0.63,0.13,1.26,0.32,1.87,0.57c0.6,0.25,1.18,0.56,1.72,0.92c0.55,0.36,1.06,0.78,1.52,1.24
	s0.88,0.97,1.25,1.52c0.36,0.54,0.67,1.12,0.92,1.72c0.25,0.61,0.44,1.24,0.57,1.88s0.19,1.3,0.19,1.95s-0.06,1.31-0.19,1.95
	c-0.13,0.64-0.32,1.27-0.57,1.87c-0.25,0.61-0.56,1.19-0.92,1.73c-0.37,0.55-0.79,1.06-1.25,1.52s-0.97,0.88-1.52,1.24
	c-0.54,0.36-1.12,0.67-1.72,0.92c-0.61,0.25-1.24,0.45-1.87,0.57C37.23,511.93,36.57,512,35.92,512z"/>
<path d="M256,87.746c-5.523,0-10-4.477-10-10V65.46c0-5.523,4.477-10,10-10s10,4.477,10,10v12.286
	C266,83.269,261.523,87.746,256,87.746z"/>
<path style="fill:#B0DBD0;" d="M154.977,351.885c-24.401,4.383-42.158,25.595-42.158,50.365V502H256l-78.724-150.115H154.977z"/>
<path style="fill:#81B4A7;" d="M357.023,351.885h-22.299L256,502h143.181v-99.75C399.181,377.481,381.424,356.268,357.023,351.885z"
	/>
<polygon style="fill:#2C7B7E;" points="209.746,413.801 256,502 302.254,413.801 "/>
<path d="M435.209,492H409.18v-81.286c22.9-11.264,37.851-34.843,37.851-60.724c0-25.211-13.813-47.938-35.71-59.633V190.013
	c0-50.086-24.13-96.699-64.877-125.979l5.321-30.824c0.586-3.394-0.615-6.85-3.18-9.148c-2.565-2.299-6.134-3.116-9.441-2.162
	l-43.057,12.397C262.244,0.001,260.7,0,256.001,0s-6.243,0.001-40.088,34.296l-43.057-12.398c-3.311-0.954-6.876-0.136-9.441,2.162
	c-2.565,2.298-3.766,5.755-3.18,9.148l5.321,30.825c-40.747,29.28-64.877,75.893-64.877,125.979v100.345
	c-21.897,11.695-35.71,34.422-35.71,59.633c0,25.881,14.951,49.459,37.851,60.724V492H76.791c-5.523,0-10,4.477-10,10
	s4.477,10,10,10H435.21c5.523,0,10-4.477,10-10S440.732,492,435.209,492z M391.321,190.013v106.672c0,4.051,2.444,7.703,6.19,9.246
	c17.933,7.388,29.52,24.683,29.52,44.059c0,15.341-7.459,29.534-19.438,38.375c-5.429-23.374-24.295-41.921-48.803-46.323
	c-0.583-0.104-1.175-0.157-1.768-0.157h-22.24c-0.02,0-0.04,0-0.06,0H297.26l-2.691-18.756
	c40.832-15.854,68.666-55.775,68.666-99.938v-48.646c0-24.676-8.558-48.498-24.195-67.618l3.555-20.596
	C373.356,111.971,391.321,149.707,391.321,190.013z M256,480.468l-29.718-56.667h59.436L256,480.468z M296.206,403.801h-80.413
	l-20.893-39.84l-1.089-2.076h29.596c4.974,0,9.192-3.656,9.898-8.58l5.099-35.529c0.705-4.911-2.298-9.597-7.055-11.008
	c-36.849-10.929-62.585-45.297-62.585-83.577v-17.194h6.665c35.07,0,65.551-20.013,80.603-49.208
	c15.052,29.196,45.533,49.208,80.603,49.208h6.599v17.194c0,38.28-25.735,72.647-62.584,83.576
	c-4.757,1.411-7.76,6.097-7.055,11.008l5.099,35.53c0.707,4.924,4.924,8.58,9.898,8.58h29.595l-1.089,2.076L296.206,403.801z
	 M168.798,174.636c0.023-19.397,6.488-38.093,18.318-53.286h58.673c-3,36.149-33.411,64.648-70.36,64.648h-6.632v-11.362H168.798z
	 M343.202,174.624v11.374h-6.566c-36.949,0-67.36-28.499-70.36-64.648h58.661C336.755,136.542,343.202,155.233,343.202,174.624z
	 M216.095,55.161c3.527,1.017,7.324,0.018,9.896-2.597C236.892,41.482,249.125,29.37,256,22.95
	c6.875,6.42,19.107,18.532,30.008,29.614c2.572,2.615,6.37,3.612,9.896,2.597l33.437-9.627l-3.66,21.202
	c-0.026,0.135-0.049,0.27-0.07,0.405l-5.905,34.208H192.293l-5.906-34.21c-0.02-0.134-0.043-0.267-0.069-0.401l-3.66-21.205
	L216.095,55.161z M84.968,349.99c0-19.376,11.587-36.671,29.52-44.059c3.746-1.543,6.19-5.195,6.19-9.246V190.013
	c0-40.306,17.965-78.042,48.727-103.681l3.555,20.596c-15.638,19.12-24.195,42.942-24.195,67.618v48.646
	c0,44.163,27.834,84.084,68.667,99.938l-2.691,18.755h-37.464h-22.299c-0.593,0-1.184,0.053-1.768,0.158
	c-24.508,4.401-43.374,22.948-48.803,46.322C92.427,379.524,84.968,365.331,84.968,349.99z M122.819,492v-89.75
	c0-19.668,13.868-36.511,33.097-40.365h15.313L239.464,492H122.819z M272.536,492l68.235-130.115h15.313
	c19.229,3.854,33.097,20.696,33.097,40.365V492H272.536z"/>
<g>
</g>
<g>
</g>
<g>
</g>
<g>
</g>
<g>
</g>
<g>
</g>
<g>
</g>
<g>
</g>
<g>
</g>
<g>
</g>
<g>
</g>
<g>
</g>
<g>
</g>
<g>
</g>
<g>
</g>
</svg>
