<?xml version="1.0" encoding="iso-8859-1"?>
<!-- Generator: Adobe Illustrator 19.0.0, SVG Export Plug-In . SVG Version: 6.00 Build 0)  -->
<svg version="1.1" id="Layer_1" xmlns="http://www.w3.org/2000/svg" xmlns:xlink="http://www.w3.org/1999/xlink" x="0px" y="0px"
	 viewBox="0 0 511.999 511.999" style="enable-background:new 0 0 511.999 511.999;" xml:space="preserve">
<path style="fill:#2E8AE6;" d="M472.603,398.644c-29.034,61.294-98.115,74.977-133.602,82.987
	c-27.811,6.23-54.064,12.237-72.085,26.587c-3.115,2.447-7.008,3.782-10.902,3.782c-3.783,0-7.898-1.335-11.347-4.227
	c-17.91-14.017-43.828-19.801-71.305-26.031c-48.503-11.013-107.35-26.809-134.047-83.209
	C2.829,321.219,58.672,222.325,62.454,206.195c3.559-18.021,2.337-34.151-2.559-50.17h392.573
	c-4.56,15.24-6.339,31.704-2.781,50.281C453.47,222.215,509.202,321.219,472.603,398.644z"/>
<path style="fill:#3D6ECC;" d="M472.603,398.644c-29.034,61.294-98.115,74.977-133.602,82.987
	c-27.811,6.23-54.064,12.237-72.085,26.587c-3.115,2.447-7.008,3.782-10.902,3.782V156.024h196.453
	c-4.56,15.24-6.339,31.704-2.781,50.281C453.47,222.215,509.202,321.219,472.603,398.644z"/>
<path style="fill:#E6F3FF;" d="M177.122,256.18l27.487-39.406c5.268-7.561,3.422-17.962-4.139-23.237
	c-7.561-5.258-17.958-3.422-23.237,4.139c-64.363,92.272-72.524,97.876-72.524,124.963c0,36.806,29.94,66.745,66.745,66.745
	s66.745-29.94,66.745-66.745C238.199,287.746,211.278,259.072,177.122,256.18z M171.454,356.011
	c-18.403,0-33.373-14.97-33.373-33.373c0-18.613,15.151-33.373,33.373-33.373c18.403,0,33.373,14.97,33.373,33.373
	C204.827,341.041,189.857,356.011,171.454,356.011z"/>
<path style="fill:#CFDBE6;" d="M343.985,256.18l27.487-39.406c5.268-7.561,3.422-17.962-4.139-23.237
	c-7.561-5.258-17.958-3.422-23.237,4.139c-64.363,92.272-72.524,97.876-72.524,124.963c0,36.806,29.94,66.745,66.745,66.745
	s66.745-29.94,66.745-66.745C405.063,287.746,378.141,259.072,343.985,256.18z M338.317,356.011
	c-18.403,0-33.373-14.97-33.373-33.373c0-18.613,15.151-33.373,33.373-33.373c18.403,0,33.373,14.97,33.373,33.373
	C371.69,341.041,356.72,356.011,338.317,356.011z"/>
<path style="fill:#FF4B26;" d="M476.831,106.855c-3.336,5.228-6.452,10.457-9.567,15.796c-6.007,10.568-11.235,21.581-14.796,33.373
	H59.895c-3.447-11.013-8.676-22.026-15.129-33.373c-2.892-5.117-6.007-10.346-9.457-15.796c-4.115-6.563-3.447-15.129,1.893-20.912
	C82.032,37.329,70.13,50.457,110.398,5.737c6.118-6.786,16.354-7.676,23.473-2.002c26.142,20.58,74.309,27.699,112.022,0.334
	c3.002-2.225,6.561-3.337,10.122-3.337c3.561,0,7.12,1.112,10.233,3.337c37.712,27.366,85.88,20.246,112.022-0.334
	c7.12-5.673,17.466-4.783,23.472,2.002c38.713,42.939,29.814,33.15,73.197,80.206C480.278,91.726,481.058,100.292,476.831,106.855z"
	/>
<path style="fill:#D93F21;" d="M476.831,106.855c-3.336,5.228-6.452,10.457-9.567,15.796c-6.007,10.568-11.235,21.581-14.796,33.373
	H256.015V0.73c3.561,0,7.12,1.112,10.233,3.337c37.712,27.366,85.88,20.246,112.022-0.334c7.12-5.673,17.466-4.783,23.472,2.002
	c38.713,42.939,29.814,33.15,73.197,80.206C480.278,91.726,481.058,100.292,476.831,106.855z"/>
<g>
</g>
<g>
</g>
<g>
</g>
<g>
</g>
<g>
</g>
<g>
</g>
<g>
</g>
<g>
</g>
<g>
</g>
<g>
</g>
<g>
</g>
<g>
</g>
<g>
</g>
<g>
</g>
<g>
</g>
</svg>
