<svg height="512pt" viewBox="-31 0 512 512.001" width="512pt" xmlns="http://www.w3.org/2000/svg"><path d="m329.535156 50.320312-21.007812 68.425782-23.410156 30.011718h-114.34375l-29.113282-30.011718-21.007812-68.425782c-1.800782-5.703124 0-12.003906 4.800781-15.90625 4.503906-3.902343 10.804687-4.804687 16.207031-2.101562l46.820313 23.410156 23.109375-47.917968c2.699218-5.101563 8.101562-7.804688 13.503906-7.804688s10.804688 2.703125 13.503906 7.804688l23.109375 47.917968 46.820313-24.410156c5.101562-2.703125 11.703125-.800781 16.203125 3.101562 4.804687 3.902344 6.601562 10.203126 4.804687 15.90625zm0 0" fill="#ffd396"/><path d="m285.117188 148.757812h-60.023438v-148.757812c5.402344 0 10.804688 2.703125 13.503906 7.804688l23.109375 47.917968 46.820313-24.410156c5.101562-2.703125 11.703125-.800781 16.203125 3.101562 4.800781 3.902344 6.601562 10.203126 4.800781 15.90625l-21.003906 68.425782zm0 0" fill="#ffb64c"/><path d="m445.785156 486.386719-52.375-53.375 14.960938-29.910157c9-18.023437 5.484375-39.683593-8.761719-53.925781-12.601563-12.605469-30.90625-16.910156-47.789063-11.285156l-41.441406 13.804687-10.257812 130.292969 30.011718 30.011719h105.042969c6.066407 0 11.546875-3.648438 13.863281-9.261719 2.328126-5.613281 1.039063-12.058593-3.253906-16.351562zm0 0" fill="#80a51a"/><path d="m139.804688 351.695312-41.441407-13.789062c-16.925781-5.65625-35.199219-1.320312-47.789062 11.269531-14.242188 14.242188-17.757813 35.902344-8.761719 53.925781l14.960938 29.910157-52.375 53.375c-4.292969 4.292969-5.582032 10.738281-3.25 16.351562 2.3125 5.613281 7.792968 9.261719 13.859374 9.261719h105.042969l30.011719-30.011719zm0 0" fill="#92bd00"/><path d="m330.132812 297.914062v214.085938h-60.023437l-30.011719-76.03125h-30.011718l-30.011719 76.03125h-60.023438v-214.085938c0-8.402343 6.601563-15.003906 15.007813-15.003906h180.070312c8.402344 0 15.003906 6.601563 15.003906 15.003906zm0 0" fill="#b7dc3c"/><path d="m330.132812 297.914062v214.085938h-60.023437l-30.011719-76.03125h-15.003906v-153.058594h90.035156c8.402344 0 15.003906 6.601563 15.003906 15.003906zm0 0" fill="#a6d22e"/><path d="m388.65625 238.792969c-9.902344 51.917969-79.230469 92.136719-163.5625 92.136719s-153.960938-40.21875-163.867188-92.136719zm0 0" fill="#fff5f5"/><path d="m388.65625 238.792969c-9.902344 51.917969-79.230469 92.136719-163.5625 92.136719v-92.136719zm0 0" fill="#efe2dd"/><path d="m388.65625 238.792969c-40.8125 20.105469-98.738281 32.113281-163.5625 32.113281-64.222656 0-122.449219-12.304688-163.863281-32.113281-1.800781-10.203125-2.101563-20.40625 1.800781-33.3125 15.003906-48.320313 81.933594-84.632813 162.0625-84.632813 80.132812 0 147.058594 36.613282 162.066406 84.933594 3.898438 12.605469 3.597656 23.109375 1.496094 33.011719zm0 0" fill="#b7dc3c"/><path d="m388.65625 238.792969c-40.8125 20.105469-98.738281 32.113281-163.5625 32.113281v-150.058594c80.128906 0 147.058594 36.613282 162.066406 84.933594 3.898438 12.605469 3.597656 23.109375 1.496094 33.011719zm0 0" fill="#a6d22e"/><path d="m270.109375 195.875c0 8.289062-6.71875 15.007812-15.003906 15.007812-8.289063 0-15.007813-6.71875-15.007813-15.007812 0-8.285156 6.71875-15.003906 15.007813-15.003906 8.285156 0 15.003906 6.71875 15.003906 15.003906zm0 0" fill="#80a51a"/><path d="m210.085938 195.875c0 8.289062-6.71875 15.007812-15.003907 15.007812-8.289062 0-15.007812-6.71875-15.007812-15.007812 0-8.285156 6.71875-15.003906 15.007812-15.003906 8.285157 0 15.003907 6.71875 15.003907 15.003906zm0 0" fill="#92bd00"/><path d="m135.058594 180.871094c-24.824219 0-45.019532-20.195313-45.019532-45.019532 0-24.820312 20.195313-45.015624 45.019532-45.015624 24.824218 0 45.015625 20.195312 45.015625 45.015624 0 24.824219-20.191407 45.019532-45.015625 45.019532zm0 0" fill="#fff5f5"/><path d="m315.128906 180.871094c-24.824218 0-45.019531-20.195313-45.019531-45.019532 0-24.820312 20.195313-45.015624 45.019531-45.015624 24.824219 0 45.015625 20.195312 45.015625 45.015624 0 24.824219-20.191406 45.019532-45.015625 45.019532zm0 0" fill="#efe2dd"/><path d="m270.109375 405.957031v106.042969h-15.003906c-3.902344 0-8.703125-2.703125-11.703125-5.402344-5.101563-4.800781-11.707032-6.902344-18.308594-6.902344-6.902344 0-14.105469 2.402344-19.507812 7.800782-2.402344 2.703125-8.101563 4.503906-10.503907 4.503906h-15.007812v-106.042969c0-24.910156 20.109375-45.015625 45.019531-45.015625s45.015625 20.109375 45.015625 45.015625zm0 0" fill="#92bd00"/><path d="m270.109375 405.957031v106.042969h-15.003906c-3.902344 0-8.703125-2.703125-11.703125-5.402344-5.101563-4.800781-11.707032-6.902344-18.308594-6.902344v-138.753906c24.910156 0 45.015625 20.109375 45.015625 45.015625zm0 0" fill="#80a51a"/><path d="m135.058594 150.859375c-8.28125 0-15.007813-6.726563-15.007813-15.007813 0-8.277343 6.726563-15.003906 15.007813-15.003906 8.277344 0 15.003906 6.726563 15.003906 15.003906 0 8.28125-6.722656 15.007813-15.003906 15.007813zm0 0" fill="#68544f"/><path d="m315.128906 150.859375c-8.28125 0-15.007812-6.726563-15.007812-15.007813 0-8.277343 6.726562-15.003906 15.007812-15.003906 8.277344 0 15.003906 6.726563 15.003906 15.003906 0 8.28125-6.722656 15.007813-15.003906 15.007813zm0 0" fill="#53433f"/></svg>