<?xml version="1.0" encoding="iso-8859-1"?>
<!-- Generator: Adobe Illustrator 19.0.0, SVG Export Plug-In . SVG Version: 6.00 Build 0)  -->
<svg version="1.1" id="Capa_1" xmlns="http://www.w3.org/2000/svg" xmlns:xlink="http://www.w3.org/1999/xlink" x="0px" y="0px"
	 viewBox="0 0 464 464" style="enable-background:new 0 0 464 464;" xml:space="preserve">
<g>
	<path style="fill:#806A46;" d="M48,152h16v64H48V152z"/>
	<path style="fill:#806A46;" d="M224,152h16v64h-16V152z"/>
	<path style="fill:#806A46;" d="M400,152h16v64h-16V152z"/>
</g>
<path style="fill:#63D3F0;" d="M409.5,464H58c-32.033,0-58-25.967-58-58l0,0V266c0-32.033,25.967-58,58-58h351.5
	c30.1,0,54.5,24.4,54.5,54.5c0,0,0,0,0,0v147C464,439.6,439.6,464,409.5,464C409.5,464,409.5,464,409.5,464z"/>
<path style="fill:#5AC1DB;" d="M409.5,208H58c-32.033,0-58,25.967-58,58v140c-0.006,16.885,7.368,32.929,20.187,43.919
	l416.132-234.831C428.145,210.439,418.903,207.996,409.5,208L409.5,208z"/>
<g>
	<path style="fill:#3BAD45;" d="M112,160l-32-40h24L77.336,80H96L56,0L16,80h18.664L8,120h24L0,160H112z"/>
	<path style="fill:#3BAD45;" d="M288,160l-32-40h24l-26.664-40H272L232,0l-40,80h18.664L184,120h24l-32,40H288z"/>
	<path style="fill:#3BAD45;" d="M464,160l-32-40h24l-26.664-40H448L408,0l-40,80h18.664L360,120h24l-32,40H464z"/>
</g>
<path style="fill:#7BD9EF;" d="M179.98,312c-8.815-0.025-17.239-3.645-23.324-10.023c-5.789-7.008-16.164-7.996-23.172-2.207
	c-0.804,0.664-1.543,1.403-2.207,2.207c-12.197,12.872-32.519,13.419-45.391,1.222c-0.418-0.396-0.826-0.804-1.222-1.222
	C81.511,298.24,76.889,296.058,72,296v-16c8.807,0.026,17.222,3.647,23.297,10.023c5.771,7,16.124,7.995,23.124,2.224
	c0.811-0.669,1.556-1.413,2.224-2.224c12.217-12.88,32.562-13.418,45.443-1.202c0.408,0.387,0.807,0.785,1.194,1.194
	c5.791,7.014,16.171,8.006,23.185,2.216c0.805-0.664,1.544-1.404,2.209-2.208c6.085-6.378,14.509-9.998,23.324-10.023v16
	c-4.901,0.058-9.535,2.242-12.699,5.984C197.213,308.356,188.793,311.973,179.98,312L179.98,312z"/>
<g>
	<path style="fill:#60C7E0;" d="M411.98,336c-8.815-0.025-17.239-3.645-23.324-10.023c-5.789-7.008-16.164-7.996-23.172-2.207
		c-0.804,0.664-1.543,1.403-2.207,2.207c-12.197,12.872-32.519,13.419-45.391,1.222c-0.418-0.396-0.826-0.804-1.222-1.222
		c-3.153-3.737-7.775-5.918-12.664-5.977v-16c8.807,0.026,17.222,3.647,23.297,10.023c5.771,7,16.124,7.995,23.124,2.224
		c0.811-0.668,1.556-1.413,2.224-2.224c12.217-12.88,32.562-13.418,45.443-1.202c0.408,0.387,0.807,0.785,1.194,1.194
		c5.791,7.014,16.171,8.006,23.185,2.216c0.805-0.664,1.544-1.404,2.209-2.208c6.085-6.378,14.509-9.998,23.324-10.023v16
		c-4.901,0.058-9.535,2.242-12.699,5.984C429.213,332.356,420.793,335.973,411.98,336z"/>
	<path style="fill:#60C7E0;" d="M251.98,432c-8.815-0.025-17.239-3.645-23.324-10.023c-5.789-7.008-16.164-7.996-23.172-2.207
		c-0.804,0.664-1.543,1.403-2.207,2.207c-12.197,12.872-32.519,13.419-45.391,1.222c-0.418-0.396-0.826-0.804-1.222-1.222
		c-3.153-3.737-7.775-5.918-12.664-5.977v-16c8.807,0.026,17.222,3.647,23.297,10.023c5.771,7,16.124,7.995,23.124,2.224
		c0.811-0.668,1.556-1.413,2.224-2.224c12.217-12.88,32.562-13.418,45.443-1.202c0.408,0.387,0.807,0.785,1.194,1.194
		c5.791,7.014,16.171,8.006,23.185,2.216c0.805-0.664,1.544-1.404,2.209-2.208c6.085-6.378,14.509-9.998,23.324-10.023v16
		c-4.901,0.058-9.535,2.242-12.699,5.984C269.213,428.356,260.793,431.973,251.98,432L251.98,432z"/>
</g>
<g>
	<path style="fill:#33963C;" d="M56,160V0L16,80h18.664L8,120h24L0,160H56z"/>
	<path style="fill:#33963C;" d="M232,160V0l-40,80h18.664L184,120h24l-32,40H232z"/>
	<path style="fill:#33963C;" d="M408,160V0l-40,80h18.664L360,120h24l-32,40H408z"/>
</g>
<g>
</g>
<g>
</g>
<g>
</g>
<g>
</g>
<g>
</g>
<g>
</g>
<g>
</g>
<g>
</g>
<g>
</g>
<g>
</g>
<g>
</g>
<g>
</g>
<g>
</g>
<g>
</g>
<g>
</g>
</svg>
