<?xml version="1.0" encoding="iso-8859-1"?>
<!-- Generator: Adobe Illustrator 21.0.0, SVG Export Plug-In . SVG Version: 6.00 Build 0)  -->
<svg xmlns="http://www.w3.org/2000/svg" xmlns:xlink="http://www.w3.org/1999/xlink" version="1.1" id="Capa_1" x="0px" y="0px" viewBox="0 0 512 512" style="enable-background:new 0 0 512 512;" xml:space="preserve" width="512" height="512">
<g>
	<path style="fill:#F498C5;" d="M188.219,150.948c-24.805-24.815-57.792-38.481-92.886-38.481c-5.683,0-10.877,3.211-13.417,8.294   c-11.546,23.101-17.649,48.955-17.649,74.765c0,20.513-1.278,25.391,4.551,31.058c5.423,5.507,38.376,43.3,97.7,43.3   c5.683,0,10.877-3.211,13.417-8.294c11.546-23.101,17.649-48.955,17.649-74.765C197.584,159.083,199.327,162.022,188.219,150.948z"/>
	<path style="fill:#EE5CA3;" d="M323.781,150.948c24.805-24.815,57.792-38.481,92.886-38.481c5.683,0,10.877,3.211,13.417,8.294   c11.546,23.101,17.649,48.955,17.649,74.765c0,20.513,1.278,25.391-4.551,31.058c-5.423,5.507-38.376,43.3-97.7,43.3   c-5.683,0-10.877-3.211-13.417-8.294c-11.546-23.101-17.649-48.955-17.649-74.765C314.416,159.083,312.674,162.022,323.781,150.948   z"/>
	<path style="fill:#EE5CA3;" d="M303.079,103.309l-34.872-48.826C265.391,50.54,260.845,48.2,256,48.2s-9.391,2.34-12.207,6.282   l-34.871,48.824c-31.569,44.185-48.256,96.255-48.256,150.581v40.146c0,52.651,42.682,95.333,95.333,95.333   s95.333-42.682,95.333-95.333v-40.146C351.333,199.573,334.647,147.504,303.079,103.309z"/>
	<path style="fill:#D6216E;" d="M268.207,54.482C265.391,50.54,260.845,48.2,256,48.2v341.166c52.651,0,95.333-42.682,95.333-95.333   v-40.146c0-54.314-16.686-106.383-48.254-150.579L268.207,54.482z"/>
	<path style="fill:#AC014D;" d="M256,463.8c-8.284,0-15-6.716-15-15c0-68.391,26.626-132.673,74.974-181.022   c48.35-48.35,112.633-74.978,181.01-74.978c8.284,0,15.017,6.716,15.017,15c0,68.381-26.629,132.669-74.982,181.021   C388.665,437.172,324.379,463.8,256,463.8z"/>
	<path style="fill:#D6216E;" d="M256,463.8c-68.382,0-132.669-26.628-181.021-74.979C26.628,340.469,0,276.182,0,207.8   c0-8.284,6.716-15,15-15c68.378,0,132.665,26.629,181.018,74.982S271,380.422,271,448.8C271,457.084,264.284,463.8,256,463.8z"/>
</g>















</svg>
