<svg xmlns="http://www.w3.org/2000/svg" xmlns:xlink="http://www.w3.org/1999/xlink" version="1.1" x="0px" y="0px" viewBox="0 0 100 125" enable-background="new 0 0 100 100" xml:space="preserve"><path d="M77.311,31.653c3.564,8.616,2.572,19.419-2.704,28.553c-4.157,7.201-10.544,12.615-17.592,15.183  c6.194-6.939,9.856-16.648,9.856-26.892c0-4.197-0.617-8.305-1.768-12.171C68.935,33.81,73.104,32.206,77.311,31.653z M50,20.496  c7.972,6.072,12.871,16.66,12.871,28.001c0,11.337-4.899,21.923-12.871,27.995c-7.971-6.074-12.869-16.66-12.869-27.995  C37.131,37.157,42.029,26.57,50,20.496z M22.691,31.653c4.205,0.553,8.375,2.157,12.207,4.674c-1.15,3.866-1.768,7.974-1.768,12.17  c0,10.242,3.663,19.951,9.857,26.892c-7.048-2.566-13.436-7.98-17.594-15.184C20.117,51.07,19.125,40.269,22.691,31.653z   M22.834,75.266c-8.006-4.623-13.51-12.357-14.639-20.443c3.014-1.223,6.381-1.836,9.868-1.801c0.891,3.152,2.172,6.25,3.867,9.185  c4.69,8.123,11.975,14.21,20.032,17.052C35.715,80.105,28.867,78.748,22.834,75.266z M77.166,75.266  c-6.031,3.482-12.879,4.839-19.125,3.991c8.056-2.843,15.34-8.928,20.029-17.05c1.694-2.935,2.976-6.031,3.866-9.183  c3.488-0.034,6.853,0.577,9.868,1.799C90.677,62.908,85.174,70.643,77.166,75.266z"/><text x="0" y="115" fill="#000000" font-size="5px" font-weight="bold" font-family="'Helvetica Neue', Helvetica, Arial-Unicode, Arial, Sans-serif">Created by Sergey Demushkin</text><text x="0" y="120" fill="#000000" font-size="5px" font-weight="bold" font-family="'Helvetica Neue', Helvetica, Arial-Unicode, Arial, Sans-serif">from the Noun Project</text></svg>