<svg xmlns="http://www.w3.org/2000/svg" xmlns:xlink="http://www.w3.org/1999/xlink" version="1.1" x="0px" y="0px" viewBox="0 0 100 125" style="enable-background:new 0 0 100 100;" xml:space="preserve"><style type="text/css">
	.st0{fill-rule:evenodd;clip-rule:evenodd;}
	.st1{fill-rule:evenodd;clip-rule:evenodd;stroke:#000000;stroke-width:0.5669;stroke-miterlimit:22.9256;}
	.st2{fill-rule:evenodd;clip-rule:evenodd;stroke:#000000;stroke-width:0.216;stroke-miterlimit:22.9256;}
</style><path class="st0" d="M58.731,28.486c-0.034-2.323-0.34-4.447-0.854-6.472c1.574-1.82,3.538-3.634,5.992-5.424  c0.367,2.834,0.433,5.374,0.265,7.668c-1.869,1.047-3.551,2.288-5.003,3.828c-0.133,0.141-0.266,0.285-0.399,0.431L58.731,28.486  L58.731,28.486z M56.334,17.428C54.701,13.474,52.406,9.614,49.998,5c-2.455,4.462-4.892,8.506-6.617,12.447  c-3.013-3.017-6.598-5.701-10.572-9.034c-0.567,5.079-1.277,9.762-1.362,14.076c-3.951-1.641-8.303-2.747-13.268-4.308  c1.419,4.891,2.555,9.474,4.122,13.481c-4.264-0.003-8.696,0.634-13.864,1.088c3.191,3.992,6,7.806,8.99,10.916  C13.474,45.299,9.614,47.594,5,50.002c4.462,2.455,8.506,4.892,12.447,6.618c-3.018,3.013-5.701,6.597-9.034,10.572  c5.079,0.567,9.762,1.277,14.076,1.362c-1.641,3.951-2.747,8.303-4.308,13.268c4.891-1.419,9.474-2.555,13.481-4.122  c-0.003,4.264,0.634,8.696,1.087,13.864c3.992-3.191,7.806-6,10.916-8.99c1.633,3.954,3.928,7.813,6.336,12.428  c2.455-4.462,4.892-8.506,6.618-12.447c3.013,3.018,6.597,5.701,10.572,9.034c0.567-5.079,1.277-9.762,1.362-14.076  c3.951,1.641,8.303,2.747,13.268,4.308c-1.419-4.891-2.555-9.474-4.122-13.481c4.264,0.003,8.696-0.634,13.864-1.087  c-3.191-3.992-6-7.806-8.99-10.916c3.954-1.633,7.813-3.928,12.428-6.336c-4.462-2.455-8.506-4.892-12.447-6.618  c3.018-3.013,5.701-6.597,9.034-10.572c-5.079-0.567-9.762-1.277-14.076-1.362c1.641-3.951,2.747-8.303,4.308-13.268  c-4.891,1.419-9.474,2.555-13.481,4.122c0.003-4.264-0.634-8.696-1.088-13.864C63.259,11.628,59.444,14.438,56.334,17.428  L56.334,17.428z M41.808,21.745c-0.592,2.082-0.91,4.167-0.848,6.303c0.006,0.193,0.013,0.389,0.022,0.585l-0.021-0.02  c-1.619-1.572-3.287-2.83-5.027-3.881c-0.205-2.42-0.148-5.121,0.248-8.164C38.456,18.271,40.303,20.003,41.808,21.745  L41.808,21.745z M24.227,35.812c1.054,1.892,2.304,3.591,3.859,5.059c0.141,0.133,0.285,0.266,0.43,0.399l-0.03,0  c-2.322,0.034-4.447,0.34-6.472,0.854c-1.82-1.574-3.634-3.538-5.425-5.992C19.401,35.727,21.931,35.645,24.227,35.812  L24.227,35.812z M21.746,58.192c2.082,0.592,4.167,0.909,6.302,0.847c0.194-0.006,0.389-0.014,0.586-0.022l-0.021,0.021  c-1.618,1.667-2.904,3.386-3.973,5.181c-2.399,0.178-5.07,0.072-8.072-0.402C18.273,61.549,20.005,59.701,21.746,58.192  L21.746,58.192z M35.812,75.773c1.891-1.054,3.591-2.304,5.058-3.858c0.133-0.141,0.266-0.285,0.399-0.43l0,0.03  c0.034,2.325,0.341,4.451,0.856,6.479c-1.575,1.817-3.54,3.629-5.994,5.418C35.727,80.599,35.645,78.068,35.812,75.773  L35.812,75.773z M58.193,78.251c0.591-2.08,0.909-4.165,0.847-6.299c-0.006-0.194-0.014-0.389-0.022-0.586l0.021,0.021  c1.644,1.597,3.339,2.869,5.109,3.93c0.204,2.42,0.123,5.106-0.33,8.115C61.546,81.728,59.699,79.995,58.193,78.251L58.193,78.251z   M75.771,64.185c-1.053-1.89-2.303-3.589-3.857-5.055c-0.141-0.133-0.285-0.266-0.43-0.399l0.03,0  c2.33-0.034,4.46-0.342,6.491-0.859c1.814,1.578,3.622,3.544,5.405,5.997C80.598,64.275,78.067,64.356,75.771,64.185L75.771,64.185z   M78.367,41.841c-2.119-0.613-4.241-0.943-6.415-0.881c-0.194,0.006-0.389,0.014-0.586,0.022l0.021-0.021  c1.615-1.664,2.899-3.379,3.967-5.171c2.4-0.18,5.073-0.077,8.077,0.392C81.779,38.467,80.083,40.325,78.367,41.841L78.367,41.841z   M66.311,33.477c0.864-2.171,1.397-4.263,1.698-6.343c2.139-1.077,4.634-2,7.569-2.713c-0.654,2.761-1.515,5.141-2.527,7.207  c-2.176,0.245-4.247,0.749-6.218,1.632c-0.177,0.079-0.355,0.161-0.533,0.245L66.311,33.477L66.311,33.477z M53.199,20.849  c-1.314,1.671-2.383,3.448-3.132,5.411c-0.069,0.181-0.137,0.364-0.204,0.549l-0.011-0.027c-0.926-2.15-2.03-4.009-3.291-5.695  c0.756-2.272,1.871-4.685,3.44-7.262C51.435,16.319,52.474,18.653,53.199,20.849L53.199,20.849z M31.642,27.065  c0.25,2.133,0.752,4.165,1.619,6.102c0.079,0.177,0.161,0.355,0.244,0.533l-0.028-0.011c-2.114-0.841-4.152-1.368-6.177-1.673  c-1.108-2.147-2.083-4.651-2.879-7.594C27.192,25.126,29.575,26.024,31.642,27.065L31.642,27.065z M20.799,46.762  c1.685,1.332,3.478,2.415,5.461,3.171c0.181,0.069,0.365,0.137,0.55,0.204l-0.028,0.012c-2.15,0.926-4.008,2.03-5.694,3.29  c-2.271-0.756-4.685-1.871-7.262-3.44C16.283,48.54,18.603,47.489,20.799,46.762L20.799,46.762z M27.066,68.358  c2.132-0.25,4.165-0.752,6.101-1.619c0.177-0.079,0.355-0.161,0.533-0.244l-0.011,0.028c-0.866,2.175-1.399,4.27-1.7,6.354  c-2.138,1.075-4.633,1.994-7.568,2.702C25.13,72.811,26.028,70.428,27.066,68.358L27.066,68.358z M46.763,79.2  c1.332-1.685,2.414-3.477,3.171-5.46c0.069-0.181,0.137-0.365,0.204-0.55l0.012,0.028c0.927,2.152,2.032,4.013,3.295,5.7  c-0.758,2.269-1.874,4.681-3.444,7.257C48.539,83.717,47.489,81.397,46.763,79.2L46.763,79.2z M68.358,72.931  c-0.25-2.132-0.752-4.162-1.618-6.097c-0.079-0.177-0.161-0.355-0.244-0.533l0.028,0.011c2.146,0.854,4.215,1.385,6.271,1.687  c1.107,2.148,2.054,4.646,2.785,7.58C72.809,74.873,70.426,73.973,68.358,72.931L68.358,72.931z M79.197,53.235  c-1.685-1.331-3.476-2.413-5.457-3.169c-0.181-0.069-0.365-0.137-0.55-0.204l0.028-0.012c2.157-0.929,4.02-2.037,5.71-3.302  c2.268,0.762,4.676,1.881,7.247,3.452C83.717,51.464,81.396,52.513,79.197,53.235L79.197,53.235z M45.456,43.255  c-3.215-3.249-6.588-6.976-8.366-12.571C41.487,34.491,43.69,39.111,45.456,43.255L45.456,43.255z M45.323,26.896  c2.754,5.317,3.024,10.55,3.067,15.149C46.593,37.722,44.781,32.842,45.323,26.896L45.323,26.896z M42.055,48.437  c-4.672,0.003-9.863-0.191-15.139-2.951C32.868,44.982,37.797,46.725,42.055,48.437L42.055,48.437z M30.622,37.051  c5.594,1.841,9.431,5.311,12.674,8.494C39.041,43.763,34.443,41.604,30.622,37.051L30.622,37.051z M51.563,42.086  c-0.003-4.671,0.184-9.863,2.934-15.139C55.054,32.983,53.292,37.844,51.563,42.086L51.563,42.086z M62.995,30.422  c-1.772,5.705-5.185,9.494-8.368,12.717C56.382,38.865,58.521,34.204,62.995,30.422L62.995,30.422z M43.224,54.436  c-3.292,3.315-7.084,6.877-12.741,8.678C34.321,58.531,39.013,56.25,43.224,54.436L43.224,54.436z M26.859,54.674  c5.44-2.86,10.785-3.125,15.461-3.178C37.921,53.333,32.949,55.238,26.859,54.674L26.859,54.674z M48.45,57.943  c0.004,4.677-0.185,9.873-2.959,15.157C44.985,67.14,46.734,62.206,48.45,57.943L48.45,57.943z M36.977,69.615  c1.784-5.601,5.201-9.454,8.374-12.697C43.595,61.189,41.451,65.845,36.977,69.615L36.977,69.615z M54.529,56.799  c3.212,3.272,6.62,7.076,8.425,12.555C58.537,65.555,56.307,60.942,54.529,56.799L54.529,56.799z M54.687,73.121  c-2.793-5.367-3.064-10.652-3.113-15.284C53.39,62.192,55.244,67.109,54.687,73.121L54.687,73.121z M57.961,51.484  c4.676,0.007,9.872,0.221,15.148,3.005C67.159,54.976,62.222,53.207,57.961,51.484L57.961,51.484z M69.405,62.933  c-5.443-1.811-9.222-5.177-12.411-8.304C61.167,56.408,65.694,58.619,69.405,62.933L69.405,62.933z M56.76,45.581  c3.33-3.353,7.169-6.96,12.941-8.743C65.846,41.47,61.035,43.758,56.76,45.581L56.76,45.581z M73.389,45.319  c-5.574,2.972-11.137,3.163-15.94,3.195C61.965,46.635,67.083,44.65,73.389,45.319z"/><text x="0" y="115" fill="#000000" font-size="5px" font-weight="bold" font-family="'Helvetica Neue', Helvetica, Arial-Unicode, Arial, Sans-serif">Created by Aleks</text><text x="0" y="120" fill="#000000" font-size="5px" font-weight="bold" font-family="'Helvetica Neue', Helvetica, Arial-Unicode, Arial, Sans-serif">from the Noun Project</text></svg>