<svg xmlns="http://www.w3.org/2000/svg" xmlns:xlink="http://www.w3.org/1999/xlink" version="1.1" x="0px" y="0px" viewBox="0 0 90 112.5" enable-background="new 0 0 90 90" xml:space="preserve"><path d="M73.144,67.438c-0.645,0-1.171,0.512-1.219,1.16c-0.167,0.012-0.34,0.049-0.517,0.111c-1.357,0.484-2.751-0.982-4.205-1.369  c-1.454-0.389-6.07,1.467-6.07,1.467s12.503-7.742,10.275-17.654c-0.647-2.881-9.456,1.023-14.112,3.313  c0.002-0.016,0.005-0.033,0.007-0.049c0.503-3.654-0.159-6.93-1.111-9.693c2.304,1.109,5.004,0.967,8.121,1.8  c3.675,0.982,3.36-3.397,0.944-9.277c-0.799-1.952-4.606-7.324-4.501-9.109c0.077-1.312,2.008-3.741,2.893-5.121  c0.1,0.037,0.207,0.06,0.322,0.06c0.52,0,0.944-0.423,0.944-0.945c0-0.522-0.425-0.945-0.944-0.945  c-0.524,0-0.947,0.423-0.947,0.945c0,0.036,0.008,0.07,0.013,0.105c-1.081,0.951-2.45,3.407-2.45,3.407  c-0.163-1.455,1.443-4.089,1.861-5.56l0,0c0.521,0,0.944-0.423,0.944-0.946c0-0.521-0.423-0.944-0.944-0.944  c-0.525,0-0.947,0.423-0.947,0.944c0,0.201,0.065,0.386,0.17,0.539c-1.042,1.5-2.608,5.337-2.608,5.337  c-0.207-1.92,0.327-4.361,0.564-5.712c0.388-0.119,0.667-0.474,0.667-0.898c0-0.522-0.422-0.945-0.944-0.945  c-0.521,0-0.943,0.423-0.943,0.945c0,0.254,0.1,0.483,0.265,0.653c-0.5,1.205-0.904,3.741-0.904,8.058  c0,6.065,1.905,10.384,2.703,11.874c-0.016-0.021-0.025-0.039-0.04-0.063c-1.377-2.063-5.559-3.474-7.035-3.918  c-0.003-2.008,0.279-3.759,0.444-4.372c0.315-1.155,1.097-3.229-0.604-5.117c-0.672-0.749-2.723-1.697-3.909-3.282  c-1.999-2.672-4.199-2.257-4.199-2.257s-2.139-0.415-4.084,2.257c-1.152,1.585-3.146,2.534-3.801,3.282  c-1.652,1.889-0.895,3.962-0.588,5.117c0.164,0.621,0.445,2.418,0.433,4.466c-1.698,0.529-5.501,1.888-6.81,3.824  c-0.014,0.021-0.024,0.038-0.038,0.059c0.81-1.494,2.734-5.81,2.734-11.871c0-4.316-0.409-6.853-0.913-8.057  c0.164-0.169,0.267-0.399,0.267-0.653c0-0.522-0.429-0.945-0.956-0.945c-0.529,0-0.957,0.423-0.957,0.945  c0,0.425,0.285,0.779,0.676,0.898c0.239,1.351,0.781,3.792,0.57,5.712c0,0-1.584-3.838-2.641-5.338  c0.109-0.152,0.172-0.337,0.172-0.539c0-0.521-0.426-0.944-0.955-0.944s-0.957,0.423-0.957,0.944c0,0.522,0.428,0.946,0.957,0.946  l0,0c0.42,1.471,2.047,4.105,1.883,5.56c0,0-1.387-2.457-2.479-3.407c0.003-0.035,0.01-0.069,0.01-0.105  c0-0.522-0.427-0.945-0.955-0.945c-0.529,0-0.957,0.423-0.957,0.945c0,0.521,0.428,0.944,0.957,0.944  c0.114,0,0.223-0.023,0.323-0.06c0.896,1.379,2.851,3.809,2.929,5.121c0.105,1.786-3.746,7.157-4.557,9.109  c-2.443,5.88-2.763,10.259,0.956,9.277c3.049-0.805,5.706-0.697,7.983-1.689c-0.904,2.74-1.524,5.974-1.045,9.582  c0.025,0.184,0.064,0.354,0.094,0.533c-4.89-2.197-14.699-6.213-15.408-3.355c-2.385,9.623,10.99,17.143,10.99,17.143  s-4.938-1.801-6.492-1.424c-1.555,0.375-3.047,1.799-4.498,1.33c-0.189-0.061-0.374-0.096-0.551-0.111  c-0.055-0.627-0.615-1.125-1.308-1.125c-0.728,0-1.317,0.549-1.317,1.223c0,0.676,0.59,1.223,1.317,1.223  c0.146,0,0.284-0.027,0.415-0.068c0.086,0.061,0.184,0.121,0.303,0.178c2.375,1.148,6.09-0.568,8.06-0.016  c2.679,0.754,14.02,3.107,10.079-1.316l-4.4-4.592c3.396,3.273,9.106,7.867,12.637,5.787c0.58,0.701,1.114,1.281,1.922,1.281  c0.937,0,1.516-0.736,2.209-1.555c3.239,3,8.962-2.043,12.298-5.586l-4.115,4.73c-3.682,4.555,6.918,2.133,9.424,1.357  c1.841-0.57,5.313,1.197,7.534,0.014c0.112-0.061,0.202-0.121,0.282-0.184c0.122,0.043,0.252,0.07,0.387,0.07  c0.683,0,1.234-0.563,1.234-1.258C74.378,68.002,73.826,67.438,73.144,67.438z"/><text x="0" y="105" fill="#000000" font-size="5px" font-weight="bold" font-family="'Helvetica Neue', Helvetica, Arial-Unicode, Arial, Sans-serif">Created by mungang kim</text><text x="0" y="110" fill="#000000" font-size="5px" font-weight="bold" font-family="'Helvetica Neue', Helvetica, Arial-Unicode, Arial, Sans-serif">from the Noun Project</text></svg>