<svg height="512" viewBox="0 0 60 60" width="512" xmlns="http://www.w3.org/2000/svg"><g id="008---Water-Lily" fill="none"><g id="Icons" transform="translate(1 11)"><path id="Shape" d="m52 9c-.1196171 1.6882638-.3941042 3.3619659-.82 5-2.81 11.28-10.45 18-22.18 18 0 0 0-12 10-15 2.8122325-.8053184 5.5031142-1.9859427 8-3.51 1.971384-1.1179908 3.677171-2.6497875 5-4.49z" fill="#ff9801"/><path id="Shape" d="m29 32c-12 0-19.44-7-22.18-18-.42589577-1.6380341-.70038292-3.3117362-.82-5 1.32580055 1.8348947 3.03110362 3.3628462 5 4.48 2.5015591 1.5175563 5.1910968 2.7009529 8 3.52 10 3 10 15 10 15z" fill="#ff9801"/><path id="Shape" d="m20.55 7.29c-2.82 3.58-3.55 6.42-3.55 9.05-2.0961904-.736827-4.1076162-1.6956066-6-2.86-.7816662-2.888044-.7816662-5.93195596 0-8.82.1579848-.452975.6153902-.72993602 1.09-.66 2.69.39 6.41 1.46 8.46 3.29z" fill="#ffeb3a"/><path id="Shape" d="m23.23 4.35c-.9560974.92089075-1.8513184 1.90296152-2.68 2.94-1.6299419-1.28922945-3.5254113-2.20110391-5.55-2.67.2993842-1.45319029.8330104-2.8480486 1.58-4.13.243054-.40325483.7344851-.58233563 1.18-.43 1.39.49 4.34 1.94 5.47 4.29z" fill="#f57c00"/><path id="Shape" d="m47 13.49c-1.8892388 1.1675142-3.9013827 2.1232826-6 2.85 0-2.63-.74-5.48-3.56-9 2.08-1.85 5.74-2.89 8.48-3.28.4684284-.06606211.9190631.20515321 1.08.65.7688068 2.87617715.7688068 5.9038228 0 8.78z" fill="#ffeb3a"/><path id="Shape" d="m47 4.66c-.1572603-.44882192-.6088599-.72479947-1.08-.66-.48.07-1.21.19-2.07.4.56.73 1.23 5.3.13 9.08-.9635255.6079326-1.9656495 1.15242-3 1.63.0225689.4063535.0225689.8136465 0 1.22 2.0986173-.7267174 4.1107612-1.6824858 6-2.85.7825049-2.8870411.7894037-5.92943988.02-8.82z" fill="#fdd834"/><path id="Shape" d="m43 4.62c-2.0274467.46939527-3.926071 1.38114473-5.56 2.67-.8324071-1.0370075-1.7274085-2.02217698-2.68-2.95 1.13-2.39 4.05-3.78 5.46-4.27.45136-.16321887.9550249.01726102 1.2.43.7522298 1.27585856 1.2862332 2.66832311 1.58 4.12z" fill="#f57c00"/><path id="Shape" d="m41 16.34c-.63.23-1.3.45-2 .66-10 3-10 15-10 15s0-12-10-15c-.7-.21-1.37-.43-2-.66 0-6.58 6.05-12.66 11.46-16.17.3290494-.21111331.7509506-.21111331 1.08 0 1.859275 1.23747432 3.6060159 2.63620546 5.22 4.18 3.41 3.26 6.24 7.29 6.24 11.99z" fill="#ffdc00"/><path id="Shape" d="m37.44 7.29c-2.2520636-2.76495054-4.9166488-5.16645003-7.9-7.12-.3290494-.21111331-.7509506-.21111331-1.08 0-.25.16-.58.38-1 .65 2.6023843 1.82414276 4.9381379 4.0017113 6.94 6.47 2.81 3.56 3.56 6.4 3.56 9.05-2.58.94-7.65 1.75-10.5 8.65.9233725 2.2273576 1.4447656 4.6007119 1.54 7.01 0 0 0-12 10-15 .7-.21 1.37-.43 2-.66 0-2.63-.74-5.48-3.56-9.05z" fill="#fec108"/><path id="Shape" d="m51.23 25.61c-3.4327964 4.636429-8.9826637 7.2155736-14.74 6.85-1.1957306-.0735365-2.3745694-.3194085-3.5-.73 0-.29 13.85-.32 18.19-17.74 1.6 0 3.11-1.68 3.82-3 0 .01.54 8.47-3.77 14.62z" fill="#ff5722"/><path id="Shape" d="m57.64 29.6c-1.72 1.4-6.16 4.4-10.64 4.4h-1.16c-.7710737-.9119654-1.6395699-1.7368692-2.59-2.46 3.2104723-1.1013969 6.0037762-3.1649502 8-5.91 2.1851986.5417403 4.2995555 1.3371412 6.3 2.37.2630015.1742715.428337.4624384.4460559.7774406s-.1142572.6198929-.3560559.8225594z" fill="#007900"/><path id="Shape" d="m14.76 31.51c-.9562682.7310787-1.8282913 1.5662086-2.6 2.49h-1.16c-4.44 0-8.9-2.94-10.64-4.38-.2469697-.2066678-.3792984-.5196248-.35550924-.8407785.02378916-.3211536.20078461-.6111978.47550924-.7792215 2.04526805-.967182 4.17397233-1.7470374 6.36-2.33 1.98817992 2.7032911 4.7498407 4.7396672 7.92 5.84z" fill="#007900"/><path id="Shape" d="m38 38c0 4-5 8-8.53 9.88-.2902734.1700052-.6497266.1700052-.94 0-1.68-.91-7.26-4.34-8.34-8.49-.4253713-2.389257.0407554-4.8515445 1.31-6.92 1.2129557-.0732216 2.4088097-.3224982 3.55-.74 1.3084112.185343 2.6285384.2755795 3.95.27 1.3374694-.0116133 2.6731023-.1017685 4-.27 1.1254306.4105915 2.3042694.6564635 3.5.73.9956594 1.6754057 1.5143559 3.5911245 1.5 5.54z" fill="#60a917"/><path id="Shape" d="m36.49 32.46c-1.1957306-.0735365-2.3745694-.3194085-3.5-.73-.76.11-1.55.18-2.37.22.9354196.275041 1.8975455.4493635 2.87.52 1.2822926 2.0671074 1.7526046 4.5362455 1.32 6.93-.91 3.51-5 6.5-7.31 7.89.41.25.77.46 1 .6.2902734.1700052.6497266.1700052.94 0 1.68-.91 7.26-4.34 8.34-8.49.4440749-2.3932612-.0155868-4.8661696-1.29-6.94z" fill="#549414"/><path id="Shape" d="m25.05 31.73c-1.1411903.4175018-2.3370443.6667784-3.55.74-5.7204894.3493789-11.23197-2.207106-14.66-6.8-4.35-6.15-3.84-14.67-3.84-14.67s1.61 3 3.81 3c1.54 6.14 5.9 16 18.24 17.73z" fill="#ff5722"/><g fill="#008a00"><path id="Shape" d="m20.19 39.39c-3.31 2-8 2.49-10.12 2.61-.29736305.022784-.58937676-.088345-.79635623-.303062-.20697946-.214717-.30732116-.5106109-.27364377-.806938.34550499-2.5595823 1.4456131-4.9582358 3.16-6.89.7644396-.9152477 1.6337275-1.737547 2.59-2.45 2.1645887.7612078 4.4597933 1.0808363 6.75.94-1.2643625 2.0629546-1.7303136 4.517201-1.31 6.9z"/><path id="Shape" d="m49 40.89c.0332496.2944681-.0658169.5885171-.2704779.8028319-.204661.2143149-.4938351.3268197-.7895221.3071681-2.1-.13-6.81-.66-10.12-2.62.4326046-2.3937545-.0377074-4.8628926-1.32-6.93 2.2946264.173679 4.5998123-.1468646 6.76-.94.9485265.7330883 1.8137087 1.5680898 2.58 2.49 1.7195558 1.9283886 2.8204255 4.3287027 3.16 6.89z"/></g></g><g id="Layer_5" fill="#000" transform="translate(-1)"><circle id="Oval" cx="31" cy="1.01" r="1"/><circle id="Oval" cx="23" cy="6.01" r="1"/><circle id="Oval" cx="8" cy="14.01" r="1"/><circle id="Oval" cx="39" cy="6" r="1"/><circle id="Oval" cx="54" cy="14" r="1"/><path id="Shape" d="m12.17 46c-1.1736 1.7299111-1.9175289 3.7148644-2.17 5.79-.06330327.5873098.1362602 1.1725627.5451861 1.5988487.4089259.4262859.9853809.6499957 1.5748139.6111513 3.2796116-.1486331 6.5051057-.8906323 9.52-2.19 1.84 4.16 7.16 7.27 8.41 7.95.5929027.3200379 1.3070973.3200379 1.9 0 1.25-.68 6.57-3.79 8.41-7.95 3.0186332 1.2986486 6.2472707 2.0405916 9.53 2.19.58969.0362032 1.1652144-.1901658 1.5722291-.6183993.4070148-.4282336.6038692-1.0145096.5377709-1.6016007-.2486976-2.072967-.9930201-4.0555403-2.17-5.78 5.23-.38 9.91-4.15 10.45-4.6.4835975-.405333.7475495-1.0151144.7121118-1.6451188-.0354378-.6300044-.3661088-1.2063382-.8921118-1.5548812-1.6760174-.9350559-3.454482-1.6732865-5.3-2.2 3.64-6.11 3.2-13.65 3.2-14.06-.0274859-.4464073-.3480513-.8202813-.785033-.9155805s-.8841075.1111528-1.094967.5055805c-.4125523.7201257-.9511038 1.3602907-1.59 1.89.2287793-1.1120909.3857703-2.2377493.47-3.37.0204264-.4550414-.2692391-.8663899-.7045452-1.0005113-.4353061-.1341213-.9062464.0428784-1.1454548.4305113-.7542089 1.0525391-1.6686239 1.980451-2.71 2.75.3007038-2.3101739.1306212-4.6573134-.5-6.9-.3115286-.905764-1.2215074-1.463493-2.17-1.33-.5.07-1.21.19-2 .38-.3585005-1.1810204-.8552769-2.3155504-1.48-3.38-.4868315-.8292442-1.4948779-1.19466099-2.4-.87-2.0805318.7049621-3.9276376 1.967497-5.34 3.65-1.3992138-1.2557883-2.8900028-2.4056345-4.46-3.44-.6628063-.43083722-1.5171937-.43083722-2.18 0-1.5714024 1.0404843-3.0653168 2.1935056-4.47 3.45-1.4152719-1.6928584-3.2698984-2.9627239-5.36-3.67-.8963487-.30825479-1.8859758.055026-2.37.87-.6210725 1.0813364-1.1111888 2.2327739-1.46 3.43-.81-.19-1.51-.31-2-.38-.9403188-.1372211-1.8473622.4061689-2.17 1.3-.6329879 2.2420879-.809809 4.588368-.52 6.9-1.0316964-.7701834-1.93894553-1.6942959-2.69-2.74-.22827045-.4062711-.70690531-.6010151-1.15397745-.4695233-.44707213.1314918-.74405658.5543592-.71602255 1.0195233.08422972 1.1322507.24122066 2.2579091.47 3.37-.63639559-.529501-1.17169136-1.1698231-1.58-1.89-.20620307-.4046183-.65916222-.6194857-1.1029714-.5232096s-.76701956.4795188-.7870286.9332096c0 .41-.43 8 3.27 14.17-1.83491821.4896916-3.61692055 1.1596173-5.32 2-.54812404.3377881-.90011081.9187982-.94570137 1.5610305-.04559056.6422322.22079101 1.2671388.71570137 1.6789695.55.49 5.28 4.24 10.45 4.65zm-.17 6c.47-4.38 3.82-7.45 4.95-8.36 1.5925645.5270802 3.2532206.8201371 4.93.87-.7083963 1.6888739-.9867101 3.5271194-.81 5.35-2.8624844 1.2755002-5.9392621 2.0014433-9.07 2.14zm19 6c-3-1.63-8-5.36-8-9 .0012094-1.596741.3925583-3.1690024 1.14-4.58 1.0220511-.1095801 2.0284401-.3343403 3-.67 2.5590833.3349978 5.1509167.3349978 7.71 0 .9714427.3340985 1.9780349.5555488 3 .66.749844 1.4141181 1.1445189 2.9893857 1.15 4.59 0 3.65-5 7.38-8 9zm9.92-8.15c.1733754-1.8227897-.1048159-3.6602258-.81-5.35 1.7010616-.0355946 3.3868913-.3289289 5-.87 2.6395054 2.0627731 4.3892362 5.0577111 4.89 8.37-3.1297929-.1453358-6.2053307-.8709864-9.07-2.14zm18.08-10.02c-.51.43-5.15 4.17-10 4.17h-.69c-.3666021-.4125669-.7537596-.8063996-1.16-1.18 2.533313-1.1168473 4.7571605-2.832779 6.48-5 1.8602817.4646724 3.6618118 1.1389881 5.37 2.01zm-3.06-15c-.27 3.82-1.51 10.62-6.59 14.32-2.7113919 2.073535-6.0078331 3.2388375-9.42 3.33 8.81-3.24 12.49-11.1 14-16.61.740543-.1671967 1.4299608-.5101906 2.01-1zm-3.36-1.81c-2.09 10.98-8.81 18.55-20.52 18.98.27-2.83 1.7-10.76 9.23-13 4.1426875-1.1552002 7.991542-3.1801953 11.29-5.94zm-4.53-7.02c.6714907 2.5639173.6955443 5.2544872.07 7.83-1.3348387.8079836-2.7327099 1.5069192-4.18 2.09-.3568434-2.7118791-1.4226963-5.2816541-3.09-7.45 2.205155-1.3085157 4.6559751-2.1492831 7.2-2.47zm-5.49-4c.5364708.9175663.9563798 1.8984737 1.25 2.92-1.4913314.4549634-2.9067863 1.1289895-4.2 2-.52-.61-1.06-1.18-1.59-1.73 1.1767714-1.4759999 2.752506-2.5831791 4.54-3.19zm-11.56 0c1.11.73 10.67 7.17 11 14.63-.42.14-.83.28-1.28.41-5.86 1.76-8.52 6.42-9.72 10.25-1.2-3.83-3.86-8.49-9.71-10.29-.45-.13-.86-.27-1.28-.41.32-7.42 9.88-13.86 10.99-14.59zm-11.58 0c1.805598.5824422 3.3989264 1.6852481 4.58 3.17-.53.54-1.07 1.12-1.58 1.73-1.2947322-.8746562-2.7140465-1.5489147-4.21-2 .2960358-1.0080185.7017978-1.9805061 1.21-2.9zm-5.48 4c2.5427646.3395467 4.9931807 1.1790096 7.21 2.47-1.6673037 2.1683459-2.7331566 4.7381209-3.09 7.45-1.4518041-.5841075-2.8531816-1.2864685-4.19-2.1-.6099803-2.5739071-.5859591-5.2574249.07-7.82zm6.77 13c7.62 2.29 9 10.18 9.24 13-11.67-.41-18.44-8-20.53-18.92 3.2872477 2.7720611 7.1404142 4.7924992 11.29 5.92zm-12.65-3.09c1.52 5.51 5.2 13.37 14 16.61-3.3992771-.094775-6.6818989-1.2601408-9.38-3.33-5.08-3.7-6.33-10.48-6.62-14.31.5743522.4988538 1.26033787.8521364 2 1.03zm.4 11.92c1.7027904 2.1544886 3.8975166 3.8691184 6.4 5-.35.33-.75.72-1.17 1.19h-.69c-3.93 0-8.13-2.61-10-4.14 1.75560042-.8439106 3.58280405-1.5299486 5.46-2.05z"/></g></g></svg>