<svg height="485pt" viewBox="0 -39 485.88 485" width="485pt" xmlns="http://www.w3.org/2000/svg"><path d="m242.941406 179.683594c-134.171875 0-242.93749975 51.039062-242.93749975 113.996094 0 17.386718 8.29296875 33.863281 23.12499975 48.605468 2.058594 2.042969 5.085938 2.769532 7.867188 1.941406l121.492187-36.101562c7.289063-2.167969 13.808594 5.117188 10.855469 12.121094l-27.855469 66.039062c-1.949219 4.621094.789063 9.871094 5.695313 10.933594 30.953125 6.710938 65.421875 10.457031 101.757812 10.457031 134.171875 0 242.9375-51.035156 242.9375-113.996093 0-62.957032-108.765625-113.996094-242.9375-113.996094zm0 0" fill="#ccc033"/><path d="m448.078125 337.441406c-1.597656 0-3.1875-.632812-4.371094-1.886718-2.269531-2.414063-2.152343-6.210938.261719-8.484376 11.71875-11.019531 17.914062-22.566406 17.914062-33.390624 0-13.121094-8.847656-26.929688-25.589843-39.929688-2.617188-2.03125-3.09375-5.796875-1.0625-8.417969 2.035156-2.617187 5.804687-3.085937 8.417969-1.054687 19.78125 15.355468 30.230468 32.441406 30.230468 49.402344 0 14.214843-7.5 28.789062-21.691406 42.132812-1.15625 1.089844-2.632812 1.628906-4.109375 1.628906zm0 0" fill="#eacf32"/><path d="m272.941406 377.671875c-40.058594 0-77.847656-4.550781-111.15625-12.609375l31.558594-74.816406c2.953125-7.003906-3.566406-14.289063-10.855469-12.121094l-125.9375 37.425781c-16.972656-15.5625-26.550781-33.191406-26.550781-51.871093 0-11.425782 3.597656-22.457032 10.265625-32.863282-25.441406 18.019532-40.265625 39.628906-40.265625 62.863282 0 17.386718 8.296875 33.863281 23.128906 48.605468 2.054688 2.042969 5.085938 2.769532 7.863282 1.941406l121.496093-36.101562c7.285157-2.167969 13.808594 5.117188 10.855469 12.121094l-27.859375 66.039062c-1.949219 4.621094.789063 9.871094 5.695313 10.933594 30.953124 6.710938 65.421874 10.457031 101.757812 10.457031 109.824219 0 202.609375-34.195312 232.675781-81.132812-43.484375 30.808593-118.015625 51.128906-202.671875 51.128906zm0 0" fill="#99af17"/><path d="m259.089844 2.429688c-3.015625-2.660157-7.558594-2.652344-10.566406.019531-84.410157 74.992187-81.445313 136.511719-81.445313 136.511719h.269531c-.171875 2.65625-.253906 5.34375-.246094 8.054687.152344 56.492187 39.269532 102.265625 87.375 102.230469 48.109376-.03125 86.980469-45.855469 86.828126-102.351563-.007813-2.714843-.105469-5.398437-.289063-8.054687h.265625c0-.003906 2.632812-61.53125-82.191406-136.410156zm0 0" fill="#ff9079"/><path d="m215.101562 147.015625c-.007812-2.710937.078126-5.398437.246094-8.054687h-.269531s-2.503906-52.058594 62.796875-118.769532c-5.730469-5.816406-11.972656-11.742187-18.785156-17.757812-3.015625-2.660156-7.558594-2.652344-10.566406.015625-84.410157 74.992187-81.445313 136.511719-81.445313 136.511719h.269531c-.167968 2.65625-.253906 5.34375-.246094 8.054687.152344 56.492187 39.269532 102.265625 87.375 102.230469 8.308594-.003906 16.339844-1.375 23.945313-3.933594-36.445313-12.230469-63.195313-51.601562-63.320313-98.296875zm0 0" fill="#ff624b"/><path d="m346.96875 29.132812c3.601562-1.792968 7.992188-.605468 10.203125 2.75 62.125 94.28125 43.339844 152.9375 43.339844 152.9375l-.257813-.070312c-.527344 2.613281-1.140625 5.230469-1.847656 7.84375-14.769531 54.53125-64.402344 88.617188-110.859375 76.136719-46.457031-12.484375-72.148437-66.808594-57.375-121.339844.707031-2.617187 1.5-5.183594 2.363281-7.707031l-.257812-.066406c-.003906 0 13.375-60.113282 114.691406-110.484376zm0 0" fill="#ff624b"/><path d="m273.683594 263.484375c37.523437-18.601563 56.742187-67.261719 43.515625-116.09375-.707031-2.617187-1.5-5.183594-2.363281-7.707031l.257812-.066406s-6.125-27.488282-41.410156-60.859376c-35.285156 33.371094-41.410156 60.859376-41.410156 60.859376l.257812.066406c-.863281 2.523437-1.65625 5.089844-2.363281 7.707031-13.226563 48.832031 5.992187 97.492187 43.515625 116.09375zm0 0" fill="#ff4b34"/><path d="m161.398438 29.132812c-3.601563-1.792968-7.992188-.605468-10.203126 2.75-62.125 94.28125-43.335937 152.9375-43.335937 152.9375l.257813-.070312c.523437 2.613281 1.136718 5.230469 1.84375 7.84375 14.769531 54.53125 64.402343 88.617188 110.859374 76.136719 46.460938-12.484375 72.148438-66.808594 57.378907-121.339844-.710938-2.617187-1.5-5.183594-2.363281-7.707031l.257812-.066406s-13.378906-60.113282-114.695312-110.484376zm0 0" fill="#ff624b"/><path d="m253.347656 227.585938c-1.015625 0-2.042968-.257813-2.988281-.800782-2.871094-1.652344-3.863281-5.320312-2.210937-8.191406 10.574218-18.382812 13.082031-42.046875 6.886718-64.925781-.558594-2.050781-1.195312-4.136719-1.902344-6.195313l-3.40625-9.921875c-2.324218-4.960937-6.570312-12.703125-13.730468-21.898437-2.035156-2.617188-1.5625-6.386719 1.050781-8.421875 2.613281-2.035157 6.382813-1.566407 8.417969 1.050781 7.992187 10.265625 12.71875 18.984375 15.273437 24.492188.089844.191406.167969.382812.234375.578124l3.507813 10.226563c.789062 2.308594 1.503906 4.644531 2.132812 6.949219 7.023438 25.933594 4.082031 52.921875-8.066406 74.042968-1.101563 1.933594-3.121094 3.011719-5.199219 3.015626zm0 0" fill="#ff9079"/><path d="m157.964844 192.597656c-.707032-2.617187-1.324219-5.234375-1.847656-7.84375l-.257813.070313s-17-53.09375 34.84375-139.445313c-8.84375-5.46875-18.574219-10.910156-29.304687-16.246094-3.597657-1.789062-7.988282-.605468-10.199219 2.75-62.128907 94.28125-43.339844 152.9375-43.339844 152.9375l.257813-.070312c.523437 2.613281 1.140624 5.230469 1.847656 7.84375 14.769531 54.53125 64.402344 88.617188 110.859375 76.136719 1.441406-.386719 2.859375-.816407 4.261719-1.28125-30.574219-9.792969-57.015626-37.535157-67.121094-74.851563zm0 0" fill="#ff4b34"/><path d="m60.851562 117.230469c-5.804687-3.949219-13.492187.960937-12.398437 7.894531 16.328125 103.492188 65.550781 133.617188 65.550781 133.617188l.148438-.222657c2.105468 1.632813 4.277344 3.214844 6.523437 4.734375 46.703125 31.585938 106.398438 25.074219 133.507813-14.503906zm0 0" fill="#ff9079"/><path d="m144.679688 245.253906c-2.246094-1.519531-4.421876-3.097656-6.523438-4.730468l-.148438.21875s-42.574218-26.070313-61.667968-112.972657l-15.488282-10.535156c-5.804687-3.949219-13.492187.957031-12.398437 7.894531 16.328125 103.492188 65.550781 133.617188 65.550781 133.617188l.148438-.222656c2.105468 1.632812 4.277344 3.214843 6.523437 4.734374 43.515625 29.433594 98.300781 25.769532 127.503907-6.878906-30.023438 14.5625-70.085938 11.476563-103.5-11.125zm0 0" fill="#ff624b"/><path d="m447.515625 117.230469c5.804687-3.949219 13.492187.960937 12.398437 7.894531-16.324218 103.492188-65.550781 133.617188-65.550781 133.617188l-.148437-.222657c-2.101563 1.632813-4.277344 3.214844-6.523438 4.734375-46.703125 31.585938-106.398437 25.074219-133.503906-14.503906zm0 0" fill="#ff9079"/><path d="m302.183594 248.75 154.277344-104.949219c1.265624-5.941406 2.425781-12.164062 3.449218-18.675781 1.097656-6.933594-6.589844-11.84375-12.394531-7.894531l-193.332031 131.519531c19.9375 29.113281 57.511718 40.308594 94.578125 31.632812-18.902344-4.765624-35.476563-15.421874-46.578125-31.632812zm0 0" fill="#ff624b"/><path d="m214.277344 239.558594c0 9.664062-7.835938 17.5-17.5 17.5-9.667969 0-17.5-7.835938-17.5-17.5 0-9.667969 7.832031-17.5 17.5-17.5 9.664062 0 17.5 7.832031 17.5 17.5zm0 0" fill="#ff624b"/><path d="m332.089844 86.925781c0 9.664063-7.835938 17.5-17.5 17.5-9.667969 0-17.5-7.835937-17.5-17.5 0-9.664062 7.832031-17.5 17.5-17.5 9.664062 0 17.5 7.835938 17.5 17.5zm0 0" fill="#ff4b34"/></svg>