<svg id="Capa_1" enable-background="new 0 0 497 497" height="512" viewBox="0 0 497 497" width="512" xmlns="http://www.w3.org/2000/svg"><g fill="#d97c40"><path d="m225.458 133.008h46.083v152.854h-46.083z"/><path d="m53.497 133.008h46.083v152.854h-46.083z"/><path d="m397.419 133.008h46.083v152.854h-46.083z" transform="matrix(-1 0 0 -1 840.922 418.87)"/></g><path d="m497 258.707c-22.815-8.982-48.185-8.982-71 0-22.815 8.982-48.185 8.982-71 0-22.815-8.982-48.185-8.982-71 0-22.815 8.982-48.185 8.982-71 0-22.815-8.982-48.185-8.982-71 0-22.815 8.982-48.185 8.982-71 0-22.815-8.982-48.185-8.982-71 0v66.167l32.959 32.959h405.884l58.157-32.959z" fill="#78cbec"/><path d="m53.497 133.008h46.083v49.573h-46.083z" fill="#c76d33"/><path d="m225.458 133.008h46.083v49.573h-46.083z" fill="#c76d33"/><path d="m397.419 133.008h46.083v49.573h-46.083z" fill="#c76d33"/><path d="m0 95.96h497v56.621h-497z" fill="#e3986d"/><path d="m0 401.04h497v-76.167c-22.815-8.982-48.185-8.982-71 0-22.815 8.982-48.185 8.982-71 0-22.815-8.982-48.185-8.982-71 0-22.815 8.982-48.185 8.982-71 0-22.815-8.982-48.185-8.982-71 0-22.815 8.982-48.185 8.982-71 0-22.815-8.982-48.185-8.982-71 0z" fill="#00acdc"/></svg>