<svg height="512pt" viewBox="0 -33 512 511" width="512pt" xmlns="http://www.w3.org/2000/svg"><path d="m462.058594 278.542969c7.285156-87.53125-70.523438-152.535157-92.28125-168.898438-2.652344-1.992187-6.394532-.851562-7.566406 2.308594-2.226563 5.992187-6.464844 15.132813-13.523438 22.402344 0 0-15.199219-1.890625-30.5625-40.761719-22.632812-57.253906-57.269531-77.394531-71.121094-83.410156-3.039062-1.320313-6.40625.695312-6.894531 4.050781-15.207031 104.652344-66.273437 143.683594-66.273437 143.683594-16.8125-14.230469-30.445313-19.792969-37.292969-21.878907-2.636719-.800781-5.289063.761719-6.140625 3.453126-15.515625 49.183593-62.15625 80.257812-59.324219 139.050781zm0 0" fill="#ffe07d"/><path d="m496.484375 342.675781h-448.902344c-4.429687 0-8.015625-3.589843-8.015625-8.019531v-48.09375c0-4.429688 3.585938-8.019531 8.015625-8.019531h448.902344c4.425781 0 8.015625 3.589843 8.015625 8.019531v48.09375c0 4.429688-3.589844 8.019531-8.015625 8.019531zm0 0" fill="#d19a6e"/><path d="m496.484375 278.542969h-448.902344c-4.429687 0-8.015625 3.589843-8.015625 8.019531v31.539062h464.933594v-31.539062c0-4.429688-3.589844-8.019531-8.015625-8.019531zm0 0" fill="#e2a975"/><path d="m456.402344 342.675781h-207.847656c-10.632813 0-20.828126-4.226562-28.34375-11.742187l-62.753907-62.753906c-3.128906-3.128907-8.203125-3.128907-11.335937 0l-12.710938 12.714843c-3.128906 3.128907-3.128906 8.203125 0 11.335938l50.445313 50.445312h-168.339844c-4.425781 0-8.015625 3.585938-8.015625 8.015625v80.160156c0 4.425782 3.589844 8.015626 8.015625 8.015626h440.886719c4.425781 0 8.015625-3.589844 8.015625-8.015626v-80.160156c0-4.429687-3.589844-8.015625-8.015625-8.015625zm0 0" fill="#c38c66"/><path d="m456.402344 438.867188h-440.886719c-4.425781 0-8.015625-3.589844-8.015625-8.015626v-24.046874h456.917969v24.046874c0 4.425782-3.589844 8.015626-8.015625 8.015626zm0 0" fill="#b57f5f"/><path d="m371.296875 278.542969c-4.953125-29.875-25.644531-53.480469-34.140625-62.101563-1.972656-2-5.171875-1.972656-7.121094.046875l-12.578125 13.03125c-15.691406-37.628906-38.578125-56.585937-49.644531-64.011719-2.925781-1.960937-6.796875-.351562-7.613281 3.078126-2.621094 11-9.847657 29.433593-23.695313 44.175781-17.246094 18.367187-37.992187 36.625-48.738281 65.785156h183.53125zm0 0" fill="#fff"/><path d="m127.976562 154.996094c.125.023437 12.722657 2.523437 30.59375 17.207031 4.421876 3.636719 9.839844 5.46875 15.265626 5.46875 5.03125 0 10.066406-1.570313 14.332031-4.734375 2.230469-1.660156 49.507812-37.695312 70.398437-127.308594 11.902344 10.1875 26.085938 27.082032 37.289063 54.605469 18.683593 45.898437 41.152343 53.324219 49.949219 54.386719 7.34375.871094 14.671874-1.648438 19.886718-6.871094 8.832032-8.832031 14.359375-19.1875 17.695313-27.105469-5.527344-4.765625-10.242188-8.46875-13.609375-11-2.652344-1.992187-6.394532-.851562-7.566406 2.308594-2.226563 5.992187-6.464844 15.132813-13.523438 22.402344 0 0-15.195312-1.890625-30.558594-40.761719-22.632812-57.253906-57.273437-77.394531-71.125-83.410156-3.039062-1.320313-6.40625.695312-6.894531 4.050781-15.207031 104.652344-66.273437 143.683594-66.273437 143.683594-16.8125-14.230469-30.445313-19.792969-37.292969-21.878907-2.636719-.800781-5.289063.761719-6.140625 3.453126-1.605469 5.09375-3.609375 9.953124-5.792969 14.707031 1.101563.3125 2.195313.640625 3.367187.796875zm0 0" fill="#ffd064"/><path d="m496.484375 271.042969h-26.894531c3.421875-41.683594-12.351563-84.472657-45.910156-124.195313-26.417969-31.277344-54.203126-49.515625-55.371094-50.277344-2.039063-1.324218-4.59375-1.582031-6.851563-.6875-2.261719.894532-3.945312 2.832032-4.523437 5.191407-.03125.125-2.90625 11.214843-10.167969 20.527343-4.4375-3.128906-12.839844-11.511718-21.695313-33.261718-29.914062-73.492188-80.121093-87.066406-82.246093-87.605469-2.074219-.53125-4.28125-.148437-6.054688 1.054687-1.777343 1.199219-2.953125 3.101563-3.234375 5.230469-7 53-24.089844 88.414063-37.195312 108.789063-9.230469 14.34375-17.824219 23.453125-22.734375 28.082031-23.210938-17.570313-40.117188-19.980469-40.875-20.078125-3.707031-.488281-7.214844 1.832031-8.210938 5.4375-5.339843 19.347656-16.28125 35.511719-27.867187 52.625-17.261719 25.507812-35.0625 51.828125-33.195313 89.167969h-15.875c-8.558593 0-15.515625 6.960937-15.515625 15.515625v48.613281h-16.550781c-8.554687.003906-15.515625 6.960937-15.515625 15.519531v80.160156c0 8.554688 6.960938 15.515626 15.515625 15.515626h440.886719c8.558594 0 15.515625-6.960938 15.515625-15.515626v-80.160156c0-.175781-.019531-.34375-.023438-.515625h24.589844c8.554687 0 15.515625-6.960937 15.515625-15.519531v-48.097656c0-8.554688-6.960938-15.515625-15.515625-15.515625zm-387.410156-80.757813c10.449219-15.4375 21.210937-31.339844 27.6875-49.9375 6.648437 2.292969 18.269531 7.53125 32.3125 19.074219 2.65625 2.183594 6.464843 2.277344 9.230469.226563 2.207031-1.636719 52.695312-40.152344 68.730468-141.230469 4.601563 2.183593 10.859375 5.699219 17.859375 11.113281 24.179688 18.703125 38.515625 45.378906 46.285157 64.464844 16.207031 39.8125 33.335937 43.804687 36.605468 44.199218 2.289063.273438 4.578125-.515624 6.203125-2.144531 6.804688-6.800781 11.257813-14.988281 13.972657-21.300781 9.835937 7.410156 27.457031 21.882812 44.261718 41.773438 31.71875 37.550781 45.929688 76.050781 42.316406 114.519531h-75.449218c-5.59375-38.609375-39.359375-66.5625-40.863282-67.785157-2.933593-2.394531-7.191406-2.222656-9.925781.398438l-8.621093 8.261719c-22.332032-42.15625-53.878907-56.503907-55.300782-57.132813-2.25-.996094-4.847656-.824218-6.949218.460938-2.101563 1.28125-3.4375 3.515625-3.574219 5.976562-.34375 6.113282-1.714844 11.796875-4.191407 17.367188-1.679687 3.785156.027344 8.21875 3.8125 9.898437 3.785157 1.683594 8.214844-.023437 9.898438-3.808593 1.597656-3.601563 2.84375-7.234376 3.746094-10.957032 2.84375 1.941406 6.214844 4.464844 9.867187 7.644532 9.628907 8.378906 23.285157 23.191406 33.632813 46.148437 1 2.222656 3.015625 3.816406 5.40625 4.28125s4.859375-.261719 6.621094-1.945313l10.960937-10.507812c8.605469 8.421875 26 27.949219 30.296875 51.699219h-168.707031c8.203125-19.441407 22.417969-33.21875 36.234375-46.582031 3.46875-3.355469 7.058594-6.828126 10.4375-10.289063 2.894531-2.964844 2.835937-7.714844-.128906-10.605469-2.964844-2.894531-7.714844-2.835937-10.605469.128906-3.226563 3.304688-6.582031 6.550782-10.132813 9.984376-15.488281 14.980468-32.957031 31.886718-41.882812 57.363281h-8.191406l-8.167969-8.167969c-6.050781-6.050781-15.894531-6.046875-21.941407 0l-8.167968 8.167969h-54.179688c-1.871094-32.78125 13.929688-56.128907 30.601563-80.757813zm-62.011719 127.824219h24.566406c4.140625 0 7.5-3.359375 7.5-7.5s-3.359375-7.5-7.5-7.5h-24.566406v-16.546875c0-.285156.234375-.519531.515625-.519531h76.015625c-.136719 4.144531 1.355469 8.332031 4.511719 11.488281l37.644531 37.644531h-118.6875zm449.9375 16.546875c0 .285156-.230469.519531-.515625.519531h-48.09375c-4.140625 0-7.5 3.355469-7.5 7.5 0 4.140625 3.359375 7.5 7.5 7.5h8.011719c.285156 0 .519531.230469.519531.515625v48.613282h-48.613281c-4.144532 0-7.5 3.355468-7.5 7.5 0 4.140624 3.355468 7.5 7.5 7.5h48.613281v16.546874c0 .285157-.234375.515626-.519531.515626h-440.886719c-.285156 0-.515625-.230469-.515625-.515626v-48.613281h88.691406c4.144532 0 7.5-3.355469 7.5-7.5 0-4.140625-3.355468-7.5-7.5-7.5h-88.691406v-16.546875c0-.285156.230469-.515625.515625-.515625h168.339844c3.03125 0 5.765625-1.828125 6.929687-4.632812 1.160156-2.800781.519532-6.027344-1.628906-8.171875l-50.441406-50.445313c-.203125-.199219-.203125-.527343 0-.730469l12.710937-12.710937c.039063-.035156.148438-.148437.363281-.148437.214844 0 .328126.113281.367188.148437l62.753906 62.753906c8.984375 8.988281 20.933594 13.9375 33.644532 13.9375h167.769531c4.144531 0 7.5-3.359375 7.5-7.5 0-4.144531-3.355469-7.5-7.5-7.5h-167.769531c-8.703126 0-16.882813-3.390625-23.039063-9.542969l-39.585937-39.585937h310.554687c.285156 0 .515625.230469.515625.515625zm0 0"/><path d="m280.046875 399.304688h-80.160156c-4.140625 0-7.5 3.355468-7.5 7.5 0 4.140624 3.359375 7.5 7.5 7.5h80.160156c4.144531 0 7.5-3.359376 7.5-7.5 0-4.144532-3.355469-7.5-7.5-7.5zm0 0"/><path d="m456.402344 303.109375h-128.257813c-4.140625 0-7.5 3.359375-7.5 7.5s3.359375 7.5 7.5 7.5h128.257813c4.144531 0 7.5-3.359375 7.5-7.5s-3.355469-7.5-7.5-7.5zm0 0"/></svg>