<svg height="512" viewBox="0 0 512 512" width="512" xmlns="http://www.w3.org/2000/svg"><path d="m36.708 306.736 30.605-12.677-14.621 31.752c8.082 6.466 17.386 10.189 27.308 10.189h352c30.928 0 56-35.817 56-80s-25.072-80-56-80h-146.667l-13.333-32c0-8.837-14.327-16-32-16s-32 7.163-32 16l-13.333 32h-114.667c-30.928 0-56 35.817-56 80 0 32 13.6 52.287 12.708 50.736" fill="#ce9c77"/><g fill="#be906e"><path d="m454.406 248.426c-11.441 3.894-22.25 7.574-44.429 7.574-3.426 0-6.59-.09-9.532-.254a8 8 0 0 0 -.89 15.977c3.215.179 6.675.277 10.422.277 24.828 0 37.414-4.285 49.585-8.426 8.333-2.835 16.28-5.5 28.41-6.776 0-.269.028-.528.028-.8a113.554 113.554 0 0 0 -1.04-15.2c-14.319 1.432-23.59 4.58-32.554 7.628z"/><path d="m221.988 272a157.335 157.335 0 0 1 -23.164-1.547 8 8 0 0 1 2.352-15.828 141.055 141.055 0 0 0 20.812 1.375c22.164 0 32.965-3.68 44.4-7.574 12.164-4.141 24.742-8.426 49.558-8.426 24.836 0 37.422 4.285 49.6 8.43l4.937 1.656a8 8 0 0 1 -4.968 15.211l-5.125-1.723c-11.445-3.894-22.253-7.574-44.441-7.574-22.164 0-32.965 3.68-44.4 7.574-12.166 4.141-24.744 8.426-49.561 8.426z"/><path d="m168 261.684a8 8 0 0 1 -2.41-.375 108.035 108.035 0 0 0 -29.942-5.149 8 8 0 0 1 .7-15.984 124.515 124.515 0 0 1 34.058 5.875 8 8 0 0 1 -2.4 15.633z"/><path d="m479.5 213.774a85.228 85.228 0 0 0 -5.018-9.81 7.748 7.748 0 0 0 -4.384-.316c-5.856 1.434-10.848 3.133-15.672 4.774-2.852.969-5.7 1.941-8.727 2.848a8 8 0 0 0 2.3 15.668 8.176 8.176 0 0 0 2.305-.34c3.219-.969 6.25-2 9.277-3.028 4.707-1.6 9.152-3.117 14.324-4.382a7.874 7.874 0 0 0 5.595-5.414z"/><path d="m409.977 232c-24.832 0-37.422-4.285-49.594-8.426-11.442-3.894-22.254-7.574-44.434-7.574-4.164 0-7.937.129-11.4.367a8 8 0 0 1 -1.1-15.961c3.8-.261 7.938-.406 12.5-.406 24.828 0 37.418 4.285 49.59 8.426 11.445 3.894 22.254 7.574 44.438 7.574q3.01 0 5.761-.09a7.813 7.813 0 0 1 8.262 7.735 8 8 0 0 1 -7.734 8.257c-2.012.067-4.102.098-6.289.098z"/><path d="m231.992 231.734a8 8 0 0 1 -.441-15.988c15.984-.9 25.144-4.019 34.84-7.32l3.062-1.039a8 8 0 0 1 5.094 15.172l-3 1.011c-10.289 3.5-20.93 7.129-39.1 8.153-.147.007-.302.011-.455.011z"/><path d="m200.012 230.539a8.033 8.033 0 0 1 -1.184-.086c-10.984-1.629-18.828-4.3-26.41-6.879-11.438-3.894-22.242-7.574-44.418-7.574a8 8 0 0 1 0-16c24.824 0 37.406 4.285 49.574 8.426 7.227 2.461 14.051 4.785 23.6 6.2a8 8 0 0 1 -1.16 15.914z"/><path d="m409.977 312c-24.836 0-37.426-4.285-49.6-8.43-3.418-1.16-6.832-2.328-10.563-3.386a8 8 0 0 1 4.368-15.391c4 1.137 7.679 2.383 11.351 3.633 11.447 3.894 22.256 7.574 44.444 7.574a126.328 126.328 0 0 0 28.265-2.758 8 8 0 0 1 3.516 15.61 141.861 141.861 0 0 1 -31.781 3.148z"/><path d="m221.988 312a8 8 0 0 1 0-16c22.164 0 32.965-3.68 44.4-7.574 12.164-4.141 24.742-8.426 49.558-8.426a8 8 0 1 1 0 16c-22.164 0-32.965 3.68-44.4 7.574-12.163 4.141-24.741 8.426-49.558 8.426z"/><path d="m192.008 309.051a8.065 8.065 0 0 1 -1.766-.2 165.74 165.74 0 0 1 -17.824-5.281c-10.07-3.429-19.582-6.668-36.766-7.414a8 8 0 0 1 .7-15.984c19.476.844 30.535 4.609 41.226 8.25a150.218 150.218 0 0 0 16.184 4.82 8 8 0 0 1 -1.75 15.805z"/></g><path d="m271.535 141.69c-2.256-7.733-15.444-13.69-31.535-13.69-17.673 0-32 7.163-32 16l-.434 1.042c4.657 6.38 16.788 10.96 31.159 10.96 16.785-.002 30.527-6.234 32.81-14.312z" fill="#e0a981"/><path d="m80 176c-30.928 0-56 35.817-56 80 0 19.262 4.77 36.928 12.708 50.736l30.605-12.677-14.621 31.752c8.082 6.466 17.386 10.189 27.308 10.189 30.928 0 56-35.817 56-80s-25.072-80-56-80z" fill="#e0a981"/><path d="m344 152h-8a8 8 0 0 1 0-16h8a8 8 0 0 1 0 16z" fill="#fbeebd"/><path d="m416 152h-40a8 8 0 0 1 0-16h40a8 8 0 0 1 0 16z" fill="#fbeebd"/><ellipse cx="80" cy="256" fill="#c39372" rx="28" ry="40"/></svg>