<?xml version="1.0" encoding="iso-8859-1"?>
<!-- Generator: Adobe Illustrator 19.0.0, SVG Export Plug-In . SVG Version: 6.00 Build 0)  -->
<svg version="1.1" id="Layer_1" xmlns="http://www.w3.org/2000/svg" xmlns:xlink="http://www.w3.org/1999/xlink" x="0px" y="0px"
	 viewBox="0 0 512 512" style="enable-background:new 0 0 512 512;" xml:space="preserve">
<path style="fill:#9E5A23;" d="M467.862,176.552H44.138c24.717,0,44.138,35.31,44.138,79.448s-19.421,79.448-44.138,79.448h423.724
	c24.717,0,44.138-35.31,44.138-79.448S492.579,176.552,467.862,176.552"/>
<g>
	<path style="fill:#844414;" d="M158.897,220.69H81.214c-5.297,0-8.828-3.531-8.828-8.828c0-5.297,3.531-8.828,8.828-8.828h77.683
		c5.297,0,8.828,3.531,8.828,8.828C167.724,217.159,164.193,220.69,158.897,220.69"/>
	<path style="fill:#844414;" d="M335.448,220.69H194.207c-5.297,0-8.828-3.531-8.828-8.828c0-5.297,3.531-8.828,8.828-8.828h141.241
		c5.297,0,8.828,3.531,8.828,8.828C344.276,217.159,340.745,220.69,335.448,220.69"/>
	<path style="fill:#844414;" d="M494.345,220.69H370.759c-5.297,0-8.828-3.531-8.828-8.828c0-5.297,3.531-8.828,8.828-8.828h123.586
		c5.297,0,8.828,3.531,8.828,8.828C503.172,217.159,499.641,220.69,494.345,220.69"/>
	<path style="fill:#844414;" d="M291.31,264.828h-26.483c-5.297,0-8.828-3.531-8.828-8.828c0-5.297,3.531-8.828,8.828-8.828h26.483
		c5.297,0,8.828,3.531,8.828,8.828C300.138,261.297,296.607,264.828,291.31,264.828"/>
	<path style="fill:#844414;" d="M211.862,264.828h-88.276c-5.297,0-8.828-3.531-8.828-8.828c0-5.297,3.531-8.828,8.828-8.828h88.276
		c5.297,0,8.828,3.531,8.828,8.828C220.69,261.297,217.159,264.828,211.862,264.828"/>
	<path style="fill:#844414;" d="M379.586,264.828h-52.966c-5.297,0-8.828-3.531-8.828-8.828c0-5.297,3.531-8.828,8.828-8.828h52.966
		c5.297,0,8.828,3.531,8.828,8.828C388.414,261.297,384.883,264.828,379.586,264.828"/>
	<path style="fill:#844414;" d="M503.172,264.828h-79.448c-5.297,0-8.828-3.531-8.828-8.828c0-5.297,3.531-8.828,8.828-8.828h79.448
		c5.297,0,8.828,3.531,8.828,8.828C512,261.297,508.469,264.828,503.172,264.828"/>
	<path style="fill:#844414;" d="M167.724,308.966h-86.51c-5.297,0-8.828-3.531-8.828-8.828c0-5.297,3.531-8.828,8.828-8.828h86.51
		c5.297,0,8.828,3.531,8.828,8.828C176.552,305.434,173.021,308.966,167.724,308.966"/>
	<path style="fill:#844414;" d="M459.034,308.966h-70.621c-5.297,0-8.828-3.531-8.828-8.828c0-5.297,3.531-8.828,8.828-8.828h70.621
		c5.297,0,8.828,3.531,8.828,8.828C467.862,305.434,464.331,308.966,459.034,308.966"/>
	<path style="fill:#844414;" d="M326.621,308.966H220.69c-5.297,0-8.828-3.531-8.828-8.828c0-5.297,3.531-8.828,8.828-8.828h105.931
		c5.297,0,8.828,3.531,8.828,8.828C335.448,305.434,331.917,308.966,326.621,308.966"/>
</g>
<path style="fill:#CE8D5B;" d="M88.276,256c0,44.138-19.421,79.448-44.138,79.448S0,300.138,0,256s19.421-79.448,44.138-79.448
	S88.276,211.862,88.276,256"/>
<path style="fill:#844414;" d="M44.138,304.552c-2.648,0-6.179-1.766-7.945-4.414c-2.648-5.297-9.71-20.303-9.71-44.138
	s7.062-38.841,9.71-44.138c2.648-4.414,7.945-5.297,12.359-3.531c4.414,2.648,5.297,7.945,3.531,12.359
	c-2.648,4.414-7.945,15.89-7.945,35.31s5.297,30.897,7.945,35.31c2.648,4.414,0.883,9.71-3.531,12.359
	C46.786,303.669,45.903,304.552,44.138,304.552"/>
<g>
</g>
<g>
</g>
<g>
</g>
<g>
</g>
<g>
</g>
<g>
</g>
<g>
</g>
<g>
</g>
<g>
</g>
<g>
</g>
<g>
</g>
<g>
</g>
<g>
</g>
<g>
</g>
<g>
</g>
</svg>
