<svg xmlns="http://www.w3.org/2000/svg" height="511pt" version="1.1" viewBox="1 -167 511.99998 511" width="511pt">
<g id="surface1">
<path d="M 423.722656 88.777344 L 105.929688 88.777344 C 105.929688 137.503906 82.1875 177.050781 52.964844 177.050781 L 459.035156 177.050781 C 488.253906 177.050781 512 137.503906 512 88.777344 Z M 423.722656 88.777344 " style=" stroke:none;fill-rule:nonzero;fill:rgb(76.862745%,60.392157%,42.352941%);fill-opacity:1;" />
<path d="M 459.035156 0.5 L 52.964844 0.5 C 82.183594 0.5 105.929688 40.046875 105.929688 88.777344 L 512 88.777344 C 512 40.046875 488.253906 0.5 459.035156 0.5 Z M 459.035156 0.5 " style=" stroke:none;fill-rule:nonzero;fill:rgb(80%,65.882353%,50.588235%);fill-opacity:1;" />
<path d="M 105.929688 88.777344 L 35.3125 88.777344 C 35.3125 119.503906 47.449219 138.265625 52.964844 141.484375 C 47.449219 138.265625 35.3125 119.503906 35.3125 88.777344 L 0 88.777344 C 0 137.503906 23.746094 177.050781 52.964844 177.050781 C 82.183594 177.050781 105.929688 137.503906 105.929688 88.777344 Z M 105.929688 88.777344 " style=" stroke:none;fill-rule:nonzero;fill:rgb(66.27451%,48.627451%,31.372549%);fill-opacity:1;" />
<path d="M 52.964844 36.066406 C 47.449219 39.289062 35.308594 58.046875 35.308594 88.777344 L 105.929688 88.777344 C 105.929688 40.046875 82.183594 0.5 52.964844 0.5 C 23.746094 0.5 0 40.046875 0 88.777344 L 35.3125 88.777344 C 35.3125 58.046875 47.449219 39.289062 52.964844 36.066406 Z M 52.964844 36.066406 " style=" stroke:none;fill-rule:nonzero;fill:rgb(70.980392%,56.078431%,41.176471%);fill-opacity:1;" />
<path d="M 52.726562 150.269531 C 51.242188 150.265625 49.789062 149.863281 48.515625 149.105469 C 39.363281 143.761719 26.484375 121.507812 26.484375 88.777344 C 26.484375 56.042969 39.363281 33.789062 48.550781 28.449219 C 52.582031 25.707031 58.074219 26.75 60.816406 30.78125 C 63.558594 34.8125 62.515625 40.300781 58.484375 43.042969 C 58.132812 43.285156 57.761719 43.5 57.378906 43.683594 C 55.453125 45.105469 44.136719 59.761719 44.136719 88.777344 C 44.136719 117.792969 55.453125 132.445312 57.539062 133.9375 C 61.445312 136.699219 62.554688 142.003906 60.089844 146.101562 C 58.503906 148.652344 55.730469 150.222656 52.726562 150.269531 Z M 52.726562 150.269531 " style=" stroke:none;fill-rule:nonzero;fill:rgb(59.607843%,43.921569%,32.156863%);fill-opacity:1;" />
<path d="M 476.6875 150.570312 L 229.515625 150.570312 C 224.640625 150.570312 220.691406 146.617188 220.691406 141.742188 C 220.691406 136.867188 224.640625 132.914062 229.515625 132.914062 L 476.691406 132.914062 C 481.566406 132.914062 485.515625 136.867188 485.515625 141.742188 C 485.515625 146.617188 481.566406 150.570312 476.6875 150.570312 Z M 476.6875 150.570312 " style=" stroke:none;fill-rule:nonzero;fill:rgb(66.27451%,48.627451%,31.372549%);fill-opacity:1;" />
<path d="M 256 44.636719 L 114.757812 44.636719 C 109.882812 44.636719 105.929688 40.6875 105.929688 35.8125 C 105.929688 30.9375 109.882812 26.984375 114.757812 26.984375 L 256 26.984375 C 260.875 26.984375 264.828125 30.9375 264.828125 35.8125 C 264.828125 40.6875 260.875 44.636719 256 44.636719 Z M 256 44.636719 " style=" stroke:none;fill-rule:nonzero;fill:rgb(66.27451%,48.627451%,31.372549%);fill-opacity:1;" />
<path d="M 194.207031 150.570312 L 141.242188 150.570312 C 136.367188 150.570312 132.414062 146.617188 132.414062 141.742188 C 132.414062 136.867188 136.367188 132.914062 141.242188 132.914062 L 194.207031 132.914062 C 199.082031 132.914062 203.035156 136.867188 203.035156 141.742188 C 203.035156 146.617188 199.082031 150.570312 194.207031 150.570312 Z M 194.207031 150.570312 " style=" stroke:none;fill-rule:nonzero;fill:rgb(66.27451%,48.627451%,31.372549%);fill-opacity:1;" />
<path d="M 158.898438 97.601562 L 123.585938 97.601562 C 118.710938 97.601562 114.757812 93.652344 114.757812 88.777344 C 114.757812 83.902344 118.710938 79.949219 123.585938 79.949219 L 158.898438 79.949219 C 163.773438 79.949219 167.722656 83.902344 167.722656 88.777344 C 167.722656 93.652344 163.773438 97.601562 158.898438 97.601562 Z M 158.898438 97.601562 " style=" stroke:none;fill-rule:nonzero;fill:rgb(66.27451%,48.627451%,31.372549%);fill-opacity:1;" />
<path d="M 247.171875 97.601562 L 194.207031 97.601562 C 189.332031 97.601562 185.378906 93.652344 185.378906 88.777344 C 185.378906 83.902344 189.332031 79.949219 194.207031 79.949219 L 247.171875 79.949219 C 252.046875 79.949219 256 83.902344 256 88.777344 C 256 93.652344 252.046875 97.601562 247.171875 97.601562 Z M 247.171875 97.601562 " style=" stroke:none;fill-rule:nonzero;fill:rgb(66.27451%,48.627451%,31.372549%);fill-opacity:1;" />
<path d="M 423.722656 97.601562 L 282.484375 97.601562 C 277.609375 97.601562 273.65625 93.652344 273.65625 88.777344 C 273.65625 83.902344 277.609375 79.949219 282.484375 79.949219 L 423.722656 79.949219 C 428.597656 79.949219 432.550781 83.902344 432.550781 88.777344 C 432.550781 93.652344 428.601562 97.601562 423.722656 97.601562 Z M 423.722656 97.601562 " style=" stroke:none;fill-rule:nonzero;fill:rgb(66.27451%,48.627451%,31.372549%);fill-opacity:1;" />
<path d="M 494.34375 97.601562 L 459.035156 97.601562 C 454.160156 97.601562 450.207031 93.652344 450.207031 88.777344 C 450.207031 83.902344 454.160156 79.949219 459.035156 79.949219 L 494.34375 79.949219 C 499.21875 79.949219 503.171875 83.902344 503.171875 88.777344 C 503.171875 93.652344 499.21875 97.601562 494.34375 97.601562 Z M 494.34375 97.601562 " style=" stroke:none;fill-rule:nonzero;fill:rgb(66.27451%,48.627451%,31.372549%);fill-opacity:1;" />
<path d="M 308.964844 44.636719 L 291.308594 44.636719 C 286.433594 44.636719 282.484375 40.6875 282.484375 35.8125 C 282.484375 30.9375 286.433594 26.984375 291.308594 26.984375 L 308.964844 26.984375 C 313.839844 26.984375 317.792969 30.9375 317.792969 35.8125 C 317.792969 40.6875 313.839844 44.636719 308.964844 44.636719 Z M 308.964844 44.636719 " style=" stroke:none;fill-rule:nonzero;fill:rgb(66.27451%,48.627451%,31.372549%);fill-opacity:1;" />
<path d="M 397.242188 44.636719 L 344.277344 44.636719 C 339.402344 44.636719 335.449219 40.6875 335.449219 35.8125 C 335.449219 30.9375 339.402344 26.984375 344.277344 26.984375 L 397.242188 26.984375 C 402.117188 26.984375 406.070312 30.9375 406.070312 35.8125 C 406.070312 40.6875 402.117188 44.636719 397.242188 44.636719 Z M 397.242188 44.636719 " style=" stroke:none;fill-rule:nonzero;fill:rgb(66.27451%,48.627451%,31.372549%);fill-opacity:1;" />
<path d="M 476.6875 44.636719 L 432.550781 44.636719 C 427.675781 44.636719 423.722656 40.6875 423.722656 35.8125 C 423.722656 30.9375 427.675781 26.984375 432.550781 26.984375 L 476.6875 26.984375 C 481.5625 26.984375 485.515625 30.9375 485.515625 35.8125 C 485.515625 40.6875 481.566406 44.636719 476.6875 44.636719 Z M 476.6875 44.636719 " style=" stroke:none;fill-rule:nonzero;fill:rgb(66.27451%,48.627451%,31.372549%);fill-opacity:1;" />
</g>
</svg>