<svg height="512pt" viewBox="-61 0 512 512" width="512pt" xmlns="http://www.w3.org/2000/svg"><path d="m75 121h71.996094v30h-71.996094zm0 0" fill="#474f54"/><path d="m243.003906 121h71.996094v30h-71.996094zm0 0" fill="#32393f"/><path d="m90 451h-90v-150h90zm0 0" fill="#676e74"/><path d="m90 211h-90v-151h90zm0 0" fill="#676e74"/><path d="m390 451h-90v-150h90zm0 0" fill="#474f54"/><path d="m390 211h-90v-151h90zm0 0" fill="#474f54"/><path d="m330 249.699219v72.601562l-60 60v53.699219h-150v-53.699219l-60-60v-72.601562l60.902344-60.898438 29.398437-176.203125h89.398438l29.398437 176.203125zm0 0" fill="#ff6c6c"/><path d="m330 249.699219v72.601562l-60 60v53.699219h-75v-423.402344h44.699219l29.398437 176.203125zm0 0" fill="#e63950"/><path d="m180 331h30v30h-30zm0 0" fill="#e63950"/><path d="m195 331h15v30h-15zm0 0" fill="#ae2538"/><path d="m315 421h-240c-41.398438 0-75 34.601562-75 76v15h390v-15c0-41.398438-33.601562-76-75-76zm0 0" fill="#e63950"/><path d="m390 497v15h-195v-91h120c41.398438 0 75 34.601562 75 76zm0 0" fill="#ae2538"/><path d="m60 0h270v30h-270zm0 0" fill="#676e74"/><path d="m195 0h135v30h-135zm0 0" fill="#474f54"/><path d="m195 211c-24.902344 0-45 20.097656-45 45v45h90v-45c0-24.902344-20.097656-45-45-45zm0 0" fill="#e1ebf0"/><path d="m240 301h-45v-90c24.902344 0 45 20.097656 45 45zm0 0" fill="#b4d2d7"/></svg>