<svg xmlns="http://www.w3.org/2000/svg" height="512pt" version="1.1" viewBox="0 0 512 512" width="512pt">
<g id="surface1">
<path d="M 107.5 143 C 52.269531 143 7.5 187.769531 7.5 243 L 7.5 383 C 7.5 399.570312 20.929688 413 37.5 413 L 177.5 413 C 194.070312 413 207.5 399.570312 207.5 383 L 207.5 243 C 207.5 187.769531 162.730469 143 107.5 143 Z M 107.5 143 " style=" stroke:none;fill-rule:nonzero;fill:rgb(89.411765%,92.941176%,98.431373%);fill-opacity:1;" />
<path d="M 62.5 389 C 43.199219 389 27.5 373.300781 27.5 354 L 27.5 244 C 27.5 224.699219 43.199219 209 62.5 209 L 152.5 209 C 171.800781 209 187.5 224.699219 187.5 244 L 187.5 354 C 187.5 373.300781 171.800781 389 152.5 389 Z M 62.5 389 " style=" stroke:none;fill-rule:nonzero;fill:rgb(84.313725%,88.235294%,94.901961%);fill-opacity:1;" />
<path d="M 152.5 369 L 62.5 369 C 54.214844 369 47.5 362.285156 47.5 354 L 47.5 244 C 47.5 235.714844 54.214844 229 62.5 229 L 152.5 229 C 160.785156 229 167.5 235.714844 167.5 244 L 167.5 354 C 167.5 362.285156 160.785156 369 152.5 369 Z M 152.5 369 " style=" stroke:none;fill-rule:nonzero;fill:rgb(14.901961%,34.901961%,85.882353%);fill-opacity:1;" />
<path d="M 177.5 413 L 37.5 413 C 20.929688 413 7.5 399.570312 7.5 383 L 7.5 449 C 7.5 465.570312 20.929688 479 37.5 479 L 177.5 479 C 194.070312 479 207.5 465.570312 207.5 449 L 207.5 383 C 207.5 399.570312 194.070312 413 177.5 413 Z M 177.5 413 " style=" stroke:none;fill-rule:nonzero;fill:rgb(14.901961%,34.901961%,85.882353%);fill-opacity:1;" />
<path d="M 207.496094 118.820312 C 165.269531 116.195312 131.703125 81.6875 130.554688 39.078125 C 129.539062 39.039062 128.523438 39 127.5 39 L 87.5 39 C 87.480469 39 87.464844 39 87.445312 39 C 86.3125 82.652344 51.152344 117.8125 7.5 118.945312 C 7.5 118.964844 7.5 118.980469 7.5 119 L 7.5 243 C 7.5 187.769531 52.269531 143 107.5 143 C 162.726562 143 207.5 187.769531 207.5 243 L 207.5 119 C 207.5 118.941406 207.496094 118.882812 207.496094 118.820312 Z M 207.496094 118.820312 " style=" stroke:none;fill-rule:nonzero;fill:rgb(14.901961%,34.901961%,85.882353%);fill-opacity:1;" />
<path d="M 87.445312 39 C 43.304688 39.03125 7.53125 74.804688 7.5 118.945312 C 51.152344 117.8125 86.3125 82.652344 87.445312 39 Z M 87.445312 39 " style=" stroke:none;fill-rule:nonzero;fill:rgb(98.823529%,74.509804%,34.117647%);fill-opacity:1;" />
<path d="M 130.558594 39.078125 C 131.703125 81.6875 165.269531 116.195312 207.496094 118.820312 C 207.402344 75.746094 173.261719 40.683594 130.558594 39.078125 Z M 130.558594 39.078125 " style=" stroke:none;fill-rule:nonzero;fill:rgb(98.823529%,74.509804%,34.117647%);fill-opacity:1;" />
<path d="M 404.5 143 C 349.269531 143 304.5 187.769531 304.5 243 L 304.5 383 C 304.5 399.570312 317.929688 413 334.5 413 L 474.5 413 C 491.070312 413 504.5 399.570312 504.5 383 L 504.5 243 C 504.5 187.769531 459.730469 143 404.5 143 Z M 404.5 143 " style=" stroke:none;fill-rule:nonzero;fill:rgb(89.411765%,92.941176%,98.431373%);fill-opacity:1;" />
<path d="M 359.5 389 C 340.199219 389 324.5 373.300781 324.5 354 L 324.5 244 C 324.5 224.699219 340.199219 209 359.5 209 L 449.5 209 C 468.800781 209 484.5 224.699219 484.5 244 L 484.5 354 C 484.5 373.300781 468.800781 389 449.5 389 Z M 359.5 389 " style=" stroke:none;fill-rule:nonzero;fill:rgb(84.313725%,88.235294%,94.901961%);fill-opacity:1;" />
<path d="M 449.5 369 L 359.5 369 C 351.214844 369 344.5 362.285156 344.5 354 L 344.5 244 C 344.5 235.714844 351.214844 229 359.5 229 L 449.5 229 C 457.785156 229 464.5 235.714844 464.5 244 L 464.5 354 C 464.5 362.285156 457.785156 369 449.5 369 Z M 449.5 369 " style=" stroke:none;fill-rule:nonzero;fill:rgb(84.313725%,28.627451%,27.843137%);fill-opacity:1;" />
<path d="M 474.5 413 L 334.5 413 C 317.929688 413 304.5 399.570312 304.5 383 L 304.5 449 C 304.5 465.570312 317.929688 479 334.5 479 L 474.5 479 C 491.070312 479 504.5 465.570312 504.5 449 L 504.5 383 C 504.5 399.570312 491.070312 413 474.5 413 Z M 474.5 413 " style=" stroke:none;fill-rule:nonzero;fill:rgb(84.313725%,28.627451%,27.843137%);fill-opacity:1;" />
<path d="M 504.496094 118.820312 C 462.269531 116.195312 428.703125 81.6875 427.554688 39.078125 C 426.539062 39.039062 425.523438 39 424.5 39 L 384.5 39 C 384.480469 39 384.464844 39 384.445312 39 C 383.3125 82.652344 348.152344 117.8125 304.5 118.945312 C 304.5 118.964844 304.5 118.980469 304.5 119 L 304.5 243 C 304.5 187.769531 349.269531 143 404.5 143 C 459.726562 143 504.5 187.769531 504.5 243 L 504.5 119 C 504.5 118.941406 504.496094 118.882812 504.496094 118.820312 Z M 504.496094 118.820312 " style=" stroke:none;fill-rule:nonzero;fill:rgb(84.313725%,28.627451%,27.843137%);fill-opacity:1;" />
<path d="M 384.445312 39 C 340.304688 39.03125 304.53125 74.804688 304.5 118.945312 C 348.152344 117.8125 383.3125 82.652344 384.445312 39 Z M 384.445312 39 " style=" stroke:none;fill-rule:nonzero;fill:rgb(98.823529%,74.509804%,34.117647%);fill-opacity:1;" />
<path d="M 427.558594 39.078125 C 428.703125 81.6875 462.269531 116.195312 504.496094 118.820312 C 504.402344 75.746094 470.261719 40.683594 427.558594 39.078125 Z M 427.558594 39.078125 " style=" stroke:none;fill-rule:nonzero;fill:rgb(98.823529%,74.509804%,34.117647%);fill-opacity:1;" />
<path d="M 127.5 31.5 L 87.5 31.5 C 39.253906 31.5 0 70.753906 0 119 L 0 449 C 0 469.679688 16.820312 486.5 37.5 486.5 L 177.5 486.5 C 198.179688 486.5 215 469.679688 215 449 L 215 119 C 215 70.753906 175.746094 31.5 127.5 31.5 Z M 79.300781 46.976562 C 74.808594 80.132812 48.632812 106.308594 15.476562 110.800781 C 19.257812 77.363281 45.863281 50.757812 79.300781 46.976562 Z M 15 243 C 15 229.328125 17.984375 216.339844 23.332031 204.652344 L 43.050781 232.710938 C 41.113281 236.03125 40 239.886719 40 244 L 40 354 C 40 357.421875 40.773438 360.667969 42.144531 363.574219 L 19.257812 396.148438 C 16.582031 392.445312 15 387.90625 15 383 Z M 62.5 376.5 L 152.5 376.5 C 155.929688 376.5 159.179688 375.726562 162.089844 374.347656 L 183.421875 404.703125 C 181.535156 405.21875 179.550781 405.5 177.5 405.5 L 37.5 405.5 C 35.449219 405.5 33.464844 405.21875 31.578125 404.703125 L 52.910156 374.347656 C 55.820312 375.726562 59.070312 376.5 62.5 376.5 Z M 55 354 L 55 244 C 55 239.863281 58.363281 236.5 62.5 236.5 L 152.5 236.5 C 156.636719 236.5 160 239.863281 160 244 L 160 354 C 160 358.136719 156.636719 361.5 152.5 361.5 L 62.5 361.5 C 58.363281 361.5 55 358.136719 55 354 Z M 160.46875 222.960938 C 157.988281 222.019531 155.304688 221.5 152.5 221.5 L 62.5 221.5 C 59.695312 221.5 57.011719 222.019531 54.53125 222.960938 L 31.554688 190.261719 C 48.277344 166.246094 76.082031 150.5 107.5 150.5 C 138.917969 150.5 166.722656 166.246094 183.445312 190.261719 Z M 200 449 C 200 461.40625 189.90625 471.5 177.5 471.5 L 37.5 471.5 C 25.09375 471.5 15 461.40625 15 449 L 15 412.980469 C 21.273438 417.699219 29.0625 420.5 37.5 420.5 L 177.5 420.5 C 185.9375 420.5 193.726562 417.699219 200 412.980469 Z M 200 383 C 200 387.90625 198.417969 392.445312 195.742188 396.144531 L 172.855469 363.574219 C 174.226562 360.667969 175 357.421875 175 354 L 175 244 C 175 239.886719 173.886719 236.03125 171.949219 232.710938 L 191.667969 204.652344 C 197.015625 216.339844 200 229.328125 200 243 Z M 200 188.289062 C 181.253906 156.714844 146.808594 135.5 107.5 135.5 C 68.191406 135.5 33.746094 156.714844 15 188.289062 L 15 125.957031 C 56.839844 121.480469 89.980469 88.339844 94.460938 46.5 L 123.535156 46.5 C 125.664062 66.261719 134.265625 84.742188 148.210938 99.160156 C 162.160156 113.585938 180.34375 122.800781 200 125.582031 Z M 138.773438 47.382812 C 170.589844 52.371094 195.589844 78.128906 199.460938 110.296875 C 168.089844 104.625 143.335938 78.960938 138.773438 47.382812 Z M 138.773438 47.382812 " style=" stroke:none;fill-rule:nonzero;fill:rgb(0%,0%,0%);fill-opacity:1;" />
<path d="M 424.5 31.5 L 384.5 31.5 C 336.253906 31.5 297 70.753906 297 119 L 297 449 C 297 469.679688 313.820312 486.5 334.5 486.5 L 474.5 486.5 C 495.179688 486.5 512 469.679688 512 449 L 512 119 C 512 70.753906 472.746094 31.5 424.5 31.5 Z M 496.460938 110.296875 C 465.089844 104.625 440.335938 78.960938 435.773438 47.382812 C 467.589844 52.371094 492.589844 78.128906 496.460938 110.296875 Z M 376.300781 46.976562 C 371.808594 80.132812 345.632812 106.308594 312.476562 110.800781 C 316.257812 77.363281 342.863281 50.757812 376.300781 46.976562 Z M 312 243 C 312 229.328125 314.984375 216.339844 320.332031 204.652344 L 340.050781 232.710938 C 338.113281 236.03125 337 239.886719 337 244 L 337 354 C 337 357.421875 337.773438 360.667969 339.144531 363.574219 L 316.257812 396.148438 C 313.582031 392.445312 312 387.90625 312 383 Z M 359.5 376.5 L 449.5 376.5 C 452.929688 376.5 456.179688 375.726562 459.089844 374.347656 L 480.421875 404.703125 C 478.535156 405.21875 476.550781 405.5 474.5 405.5 L 334.5 405.5 C 332.449219 405.5 330.464844 405.21875 328.578125 404.703125 L 349.910156 374.347656 C 352.820312 375.726562 356.070312 376.5 359.5 376.5 Z M 352 354 L 352 244 C 352 239.863281 355.363281 236.5 359.5 236.5 L 449.5 236.5 C 453.636719 236.5 457 239.863281 457 244 L 457 354 C 457 358.136719 453.636719 361.5 449.5 361.5 L 359.5 361.5 C 355.363281 361.5 352 358.136719 352 354 Z M 457.46875 222.960938 C 454.988281 222.019531 452.304688 221.5 449.5 221.5 L 359.5 221.5 C 356.695312 221.5 354.011719 222.019531 351.53125 222.960938 L 328.554688 190.261719 C 345.277344 166.246094 373.082031 150.5 404.5 150.5 C 435.917969 150.5 463.722656 166.246094 480.445312 190.261719 Z M 497 449 C 497 461.40625 486.90625 471.5 474.5 471.5 L 334.5 471.5 C 322.09375 471.5 312 461.40625 312 449 L 312 412.980469 C 318.273438 417.699219 326.0625 420.5 334.5 420.5 L 474.5 420.5 C 482.9375 420.5 490.726562 417.699219 497 412.980469 Z M 497 383 C 497 387.90625 495.417969 392.445312 492.742188 396.144531 L 469.855469 363.574219 C 471.226562 360.667969 472 357.421875 472 354 L 472 244 C 472 239.886719 470.886719 236.03125 468.949219 232.710938 L 488.667969 204.652344 C 494.015625 216.339844 497 229.328125 497 243 Z M 497 188.289062 C 478.253906 156.714844 443.808594 135.5 404.5 135.5 C 365.191406 135.5 330.746094 156.714844 312 188.289062 L 312 125.957031 C 353.839844 121.480469 386.980469 88.339844 391.460938 46.5 L 420.535156 46.5 C 422.664062 66.261719 431.265625 84.742188 445.210938 99.160156 C 459.160156 113.585938 477.34375 122.800781 497 125.582031 Z M 497 188.289062 " style=" stroke:none;fill-rule:nonzero;fill:rgb(0%,0%,0%);fill-opacity:1;" />
<path d="M 249 30 L 264 30 L 264 482 L 249 482 Z M 249 30 " style=" stroke:none;fill-rule:nonzero;fill:rgb(0%,0%,0%);fill-opacity:1;" />
<path d="M 249 0 L 264 0 L 264 15 L 249 15 Z M 249 0 " style=" stroke:none;fill-rule:nonzero;fill:rgb(0%,0%,0%);fill-opacity:1;" />
<path d="M 249 497 L 264 497 L 264 512 L 249 512 Z M 249 497 " style=" stroke:none;fill-rule:nonzero;fill:rgb(0%,0%,0%);fill-opacity:1;" />
<path d="M 29.5 441.5 L 44.5 441.5 L 44.5 456.5 L 29.5 456.5 Z M 29.5 441.5 " style=" stroke:none;fill-rule:nonzero;fill:rgb(100%,100%,100%);fill-opacity:1;" />
<path d="M 170.5 441.5 L 185.5 441.5 L 185.5 456.5 L 170.5 456.5 Z M 170.5 441.5 " style=" stroke:none;fill-rule:nonzero;fill:rgb(100%,100%,100%);fill-opacity:1;" />
<path d="M 328.5 441.5 L 343.5 441.5 L 343.5 456.5 L 328.5 456.5 Z M 328.5 441.5 " style=" stroke:none;fill-rule:nonzero;fill:rgb(100%,100%,100%);fill-opacity:1;" />
<path d="M 469.5 441.5 L 484.5 441.5 L 484.5 456.5 L 469.5 456.5 Z M 469.5 441.5 " style=" stroke:none;fill-rule:nonzero;fill:rgb(100%,100%,100%);fill-opacity:1;" />
</g>
</svg>