<?xml version="1.0" encoding="UTF-8"?>
<svg xmlns="http://www.w3.org/2000/svg" xmlns:xlink="http://www.w3.org/1999/xlink" width="512" height="512" viewBox="0 0 58 36" version="1.1"><!-- Generator: Sketch 51.3 (57544) - http://www.bohemiancoding.com/sketch --><title>050 - F1 Car</title><desc>Created with Sketch.</desc><defs/><g id="Page-1" stroke="none" stroke-width="1" fill="none" fill-rule="evenodd"><g id="050---F1-Car" fill-rule="nonzero"><polygon id="Shape" fill="#7F8C8D" points="42 15.826 42 5 46 5 46 17"/><polygon id="Shape" fill="#7F8C8D" points="46 18 46 31 42 31 42 19.271"/><path d="M27.21,30 L15.73,30 C15.38,29.4 13.74,33 13,33 L12,34 L10,21 L26.06,29.77 C26.4240771,29.9228591 26.8151369,30.0010711 27.21,30 Z" id="Shape" fill="#802F34"/><polygon id="Shape" fill="#7F8C8D" points="12 24.32 12 29 6 31 5 20"/><path d="M27.21,6 C26.8151369,5.99892889 26.4240771,6.07714085 26.06,6.23 L11,16 L9,4 L11,2 C11.74,2 15.38,6.6 15.73,6 L27.21,6 Z" id="Shape" fill="#802F34"/><polygon id="Shape" fill="#7F8C8D" points="12 7 12 11.68 6 15 5 3"/><path d="M57,5 L57,19 C56.9134507,18.964953 56.8226752,18.9414186 56.73,18.93 L53,18.35 L53,5 C53,4.44771525 53.4477153,4 54,4 L56,4 C56.5522847,4 57,4.44771525 57,5 Z" id="Shape" fill="#802F34"/><path d="M57,17 L57,31 C57,31.5522847 56.5522847,32 56,32 L54,32 C53.4477153,32 53,31.5522847 53,31 L53,17.65 L56.73,17.07 C56.8226752,17.0585814 56.9134507,17.035047 57,17 Z" id="Shape" fill="#802F34"/><rect id="Rectangle-path" fill="#2C2F38" x="38" y="1" width="12" height="7" rx="2"/><rect id="Rectangle-path" fill="#2C2F38" x="38" y="28" width="12" height="7" rx="2"/><path d="M16,2 L16,5 C16,6.1045695 15.1045695,7 14,7 L8,7 L8,6 C8,5.44771525 7.55228475,5 7,5 L4,5 L4,2 C4.0032948,0.896798134 4.89679813,0.00329480111 6,0 L14,0 C15.1032019,0.00329480111 15.9967052,0.896798134 16,2 Z" id="Shape" fill="#2C2F38"/><path d="M16,31 L16,34 C15.9967052,35.1032019 15.1032019,35.9967052 14,36 L6,36 C4.89679813,35.9967052 4.0032948,35.1032019 4,34 L4,31 L7,31 C7.55228475,31 8,30.5522847 8,30 L8,29 L14,29 C15.1045695,29 16,29.8954305 16,31 Z" id="Shape" fill="#2C2F38"/><path d="M57,16.09 C56.9134507,16.054953 56.8226752,16.0314186 56.73,16.02 L53,15.44 L46,14.34 L42,13.72 L31,12 C30.5243037,10.9684889 30.2526464,9.85469396 30.2,8.72 C30.0513305,7.17922118 28.7579325,6.00261833 27.21,6 C26.8151369,5.99892889 26.4240771,6.07714085 26.06,6.23 L12,11.68 L8,13.23 L5,18 L8,22.77 L12,24.32 L26.06,29.77 C26.4240771,29.9228591 26.8151369,30.0010711 27.21,30 C28.7579325,29.9973817 30.0513305,28.8207788 30.2,27.28 C30.2526464,26.145306 30.5243037,25.0315111 31,24 L42,22.28 L46,21.66 L53,20.56 L56.73,19.98 C56.8226752,19.9685814 56.9134507,19.945047 57,19.91 C58.33,19.38 58.33,16.62 57,16.09 Z" id="Shape" fill="#E64C3C"/><path d="M21,15 L21,21 L12.36,18.48 C12.1466667,18.4177778 12,18.2222222 12,18 C12,17.7777778 12.1466667,17.5822222 12.36,17.52 L21,15 Z" id="Shape" fill="#802F34"/><path d="M29,18 C29,19.6568542 27.6568542,21 26,21 L21,21 L21,15 L26,15 C27.6568542,15 29,16.3431458 29,18 Z" id="Shape" fill="#2C2F38"/><rect id="Rectangle-path" fill="#FB7B76" x="0" y="5" width="8" height="26" rx="1"/><path d="M4,11 C3.44771525,11 3,10.5522847 3,10 L3,9 C3,8.44771525 3.44771525,8 4,8 C4.55228475,8 5,8.44771525 5,9 L5,10 C5,10.5522847 4.55228475,11 4,11 Z" id="Shape" fill="#E6E7E8"/><path d="M4,20 C3.44771525,20 3,19.5522847 3,19 L3,14 C3,13.4477153 3.44771525,13 4,13 C4.55228475,13 5,13.4477153 5,14 L5,19 C5,19.5522847 4.55228475,20 4,20 Z" id="Shape" fill="#E6E7E8"/></g></g></svg>
