<?xml version="1.0" encoding="UTF-8"?>
<svg xmlns="http://www.w3.org/2000/svg" xmlns:xlink="http://www.w3.org/1999/xlink" width="512" height="512" viewBox="0 0 60 38" version="1.1"><!-- Generator: Sketch 51.3 (57544) - http://www.bohemiancoding.com/sketch --><title>050 - F1 Car</title><desc>Created with Sketch.</desc><defs/><g id="Page-1" stroke="none" stroke-width="1" fill="none" fill-rule="evenodd"><g id="050---F1-Car" fill-rule="nonzero"><polygon id="Shape" fill="#9E9E9E" points="43 16.826 43 6 47 6 47 18"/><polygon id="Shape" fill="#9E9E9E" points="47 19 47 32 43 32 43 20.271"/><path d="M28.21,31 L16.73,31 C16.38,30.4 14.74,34 14,34 L13,35 L11,22 L27.06,30.77 C27.4240771,30.9228591 27.8151369,31.0010711 28.21,31 Z" id="Shape" fill="#283593"/><polygon id="Shape" fill="#9E9E9E" points="13 25.32 13 30 7 32 6 21"/><path d="M28.21,7 C27.8151369,6.99892889 27.4240771,7.07714085 27.06,7.23 L12,17 L10,5 L12,3 C12.74,3 16.38,7.6 16.73,7 L28.21,7 Z" id="Shape" fill="#283593"/><polygon id="Shape" fill="#9E9E9E" points="13 8 13 12.68 7 16 6 4"/><path d="M58,6 L58,20 C57.9134507,19.964953 57.8226752,19.9414186 57.73,19.93 L54,19.35 L54,6 C54,5.44771525 54.4477153,5 55,5 L57,5 C57.5522847,5 58,5.44771525 58,6 Z" id="Shape" fill="#FFDC00"/><path d="M58,18 L58,32 C58,32.5522847 57.5522847,33 57,33 L55,33 C54.4477153,33 54,32.5522847 54,32 L54,18.65 L57.73,18.07 C57.8226752,18.0585814 57.9134507,18.035047 58,18 Z" id="Shape" fill="#FFDC00"/><rect id="Rectangle-path" fill="#37474F" x="39" y="2" width="12" height="7" rx="2"/><rect id="Rectangle-path" fill="#37474F" x="39" y="29" width="12" height="7" rx="2"/><path d="M17,3 L17,6 C17,7.1045695 16.1045695,8 15,8 L9,8 L9,7 C9,6.44771525 8.55228475,6 8,6 L5,6 L5,3 C5.0032948,1.89679813 5.89679813,1.0032948 7,1 L15,1 C16.1032019,1.0032948 16.9967052,1.89679813 17,3 Z" id="Shape" fill="#37474F"/><path d="M17,32 L17,35 C16.9967052,36.1032019 16.1032019,36.9967052 15,37 L7,37 C5.89679813,36.9967052 5.0032948,36.1032019 5,35 L5,32 L8,32 C8.55228475,32 9,31.5522847 9,31 L9,30 L15,30 C16.1045695,30 17,30.8954305 17,32 Z" id="Shape" fill="#37474F"/><rect id="Rectangle-path" fill="#607D8B" x="39" y="2" width="9" height="7" rx="2"/><rect id="Rectangle-path" fill="#607D8B" x="39" y="29" width="9" height="7" rx="2"/><path d="M14,3 L14,6 C14,7.1045695 13.1045695,8 12,8 L9,8 L9,7 C9,6.44771525 8.55228475,6 8,6 L5,6 L5,3 C5.0032948,1.89679813 5.89679813,1.0032948 7,1 L12,1 C13.1032019,1.0032948 13.9967052,1.89679813 14,3 Z" id="Shape" fill="#607D8B"/><path d="M14,32 L14,35 C13.9967052,36.1032019 13.1032019,36.9967052 12,37 L7,37 C5.89679813,36.9967052 5.0032948,36.1032019 5,35 L5,32 L8,32 C8.55228475,32 9,31.5522847 9,31 L9,30 L12,30 C13.1045695,30 14,30.8954305 14,32 Z" id="Shape" fill="#607D8B"/><path d="M58,17.09 C57.9134507,17.054953 57.8226752,17.0314186 57.73,17.02 L54,16.44 L47,15.34 L43,14.72 L32,13 C31.5243037,11.9684889 31.2526464,10.854694 31.2,9.72 C31.0513305,8.17922118 29.7579325,7.00261833 28.21,7 C27.8151369,6.99892889 27.4240771,7.07714085 27.06,7.23 L25.34,7.9 L13,12.68 L9,14.23 L6,19 L9,23.77 L13,25.32 L25.34,30.1 L27.06,30.77 C27.4240771,30.9228591 27.8151369,31.0010711 28.21,31 C29.7579325,30.9973817 31.0513305,29.8207788 31.2,28.28 C31.2526464,27.145306 31.5243037,26.0315111 32,25 L43,23.28 L47,22.66 L54,21.56 L57.73,20.98 C57.8226752,20.9685814 57.9134507,20.945047 58,20.91 C59.33,20.38 59.33,17.62 58,17.09 Z" id="Shape" fill="#283593"/><path d="M54,17.09 C53.913491,17.0548309 53.8226992,17.0312923 53.73,17.02 L50,16.44 L43,15.34 L39,14.72 L28,13 C27.5252314,11.9681655 27.2536189,10.8545539 27.2,9.72 C27.1381275,9.03077899 26.8337403,8.38586087 26.341,7.9 L14,12.68 L10,14.23 L7,19 L10,23.77 L14,25.32 L26.343,30.1 C26.8357403,29.6141391 27.1401275,28.969221 27.202,28.28 C27.2549891,27.1455789 27.5259213,26.0319731 28,25 L39,23.28 L43,22.66 L50,21.56 L53.73,20.98 C53.8226992,20.9687077 53.913491,20.9451691 54,20.91 C55.333,20.38 55.333,17.62 54,17.09 Z" id="Shape" fill="#3F51B5"/><path d="M22,16 L22,22 L13.36,19.48 C13.1466667,19.4177778 13,19.2222222 13,19 C13,18.7777778 13.1466667,18.5822222 13.36,18.52 L22,16 Z" id="Shape" fill="#283593"/><path d="M30,19 C30,20.6568542 28.6568542,22 27,22 L22,22 L22,16 L27,16 C28.6568542,16 30,17.3431458 30,19 Z" id="Shape" fill="#37474F"/><rect id="Rectangle-path" fill="#0377BC" x="1" y="6" width="8" height="26" rx="1"/><rect id="Rectangle-path" fill="#02A9F4" x="1" y="6" width="5" height="26" rx="1"/><path d="M58,18.09 C57.4477153,18.09 57,17.6422847 57,17.09 L57,6 L55,6 L55,16.44 C55,16.9922847 54.5522847,17.44 54,17.44 C53.4477153,17.44 53,16.9922847 53,16.44 L53,6 C53,4.8954305 53.8954305,4 55,4 L57,4 C58.1045695,4 59,4.8954305 59,6 L59,17.09 C59,17.6422847 58.5522847,18.09 58,18.09 Z" id="Shape" fill="#000000"/><path d="M57,34 L55,34 C53.8954305,34 53,33.1045695 53,32 L53,21.56 C53,21.0077153 53.4477153,20.56 54,20.56 C54.5522847,20.56 55,21.0077153 55,21.56 L55,32 L57,32 L57,20.91 C57,20.3577153 57.4477153,19.91 58,19.91 C58.5522847,19.91 59,20.3577153 59,20.91 L59,32 C59,33.1045695 58.1045695,34 57,34 Z" id="Shape" fill="#000000"/><path d="M49,10 L41,10 C39.3431458,10 38,8.65685425 38,7 L38,4 C38,2.34314575 39.3431458,1 41,1 L49,1 C50.6568542,1 52,2.34314575 52,4 L52,7 C52,8.65685425 50.6568542,10 49,10 Z M41,3 C40.4477153,3 40,3.44771525 40,4 L40,7 C40,7.55228475 40.4477153,8 41,8 L49,8 C49.5522847,8 50,7.55228475 50,7 L50,4 C50,3.44771525 49.5522847,3 49,3 L41,3 Z" id="Shape" fill="#000000"/><path d="M49,37 L41,37 C39.3431458,37 38,35.6568542 38,34 L38,31 C38,29.3431458 39.3431458,28 41,28 L49,28 C50.6568542,28 52,29.3431458 52,31 L52,34 C52,35.6568542 50.6568542,37 49,37 Z M41,30 C40.4477153,30 40,30.4477153 40,31 L40,34 C40,34.5522847 40.4477153,35 41,35 L49,35 C49.5522847,35 50,34.5522847 50,34 L50,31 C50,30.4477153 49.5522847,30 49,30 L41,30 Z" id="Shape" fill="#000000"/><path d="M15,9 L9,9 C8.44771525,9 8,8.55228475 8,8 C8,7.44771525 8.44771525,7 9,7 L15,7 C15.5522847,7 16,6.55228475 16,6 L16,3 C16,2.44771525 15.5522847,2 15,2 L7,2 C6.44771525,2 6,2.44771525 6,3 L6,6 C6,6.55228475 5.55228475,7 5,7 C4.44771525,7 4,6.55228475 4,6 L4,3 C4,1.34314575 5.34314575,-1.77635684e-15 7,-1.77635684e-15 L15,-1.77635684e-15 C16.6568542,-1.77635684e-15 18,1.34314575 18,3 L18,6 C18,7.65685425 16.6568542,9 15,9 Z" id="Shape" fill="#000000"/><path d="M15,38 L7,38 C5.34314575,38 4,36.6568542 4,35 L4,32 C4,31.4477153 4.44771525,31 5,31 C5.55228475,31 6,31.4477153 6,32 L6,35 C6,35.5522847 6.44771525,36 7,36 L15,36 C15.5522847,36 16,35.5522847 16,35 L16,32 C16.0000441,31.8264809 15.9541567,31.656042 15.867,31.506 C15.6897255,31.1939865 15.3588564,31.0008841 15,31 L9,31 C8.44771525,31 8,30.5522847 8,30 C8,29.4477153 8.44771525,29 9,29 L15,29 C16.6568542,29 18,30.3431458 18,32 L18,35 C18,36.6568542 16.6568542,38 15,38 Z" id="Shape" fill="#000000"/><path d="M8,33 L2,33 C0.8954305,33 1.3527075e-16,32.1045695 0,31 L0,7 C-1.3527075e-16,5.8954305 0.8954305,5 2,5 L8,5 C9.1045695,5 10,5.8954305 10,7 L10,31 C10,32.1045695 9.1045695,33 8,33 Z M2,7 L2,31 L8,31 L8,7 L2,7 Z" id="Shape" fill="#000000"/><path d="M28.21,32 C27.6818171,32.0009976 27.1588118,31.8959205 26.672,31.691 L8.639,24.7 C8.30194829,24.5737926 8.05871601,24.2761995 8.00211272,23.9207727 C7.94550943,23.5653458 8.08426766,23.2069191 8.36544177,22.9822565 C8.64661588,22.7575939 9.02682743,22.7013555 9.361,22.835 L27.421,29.835 C27.670076,29.9429782 27.9385274,29.9991183 28.21,30 C29.2380509,29.9901387 30.0946927,29.2096907 30.2,28.187 C30.2620091,26.9288392 30.5676625,25.6946788 31.1,24.553 C31.24482,24.263313 31.5209667,24.0616998 31.841,24.012 L57.571,19.992 C57.801,19.957 57.993,19.503 57.993,19 C57.993,18.497 57.801,18.043 57.573,18.008 L31.841,13.988 C31.5209667,13.9383002 31.24482,13.736687 31.1,13.447 C30.5675371,12.3050124 30.2618808,11.0705004 30.2,9.812 C30.0942187,8.78970488 29.2377066,8.00980541 28.21,8 C27.9480677,7.99920069 27.6886295,8.05088431 27.447,8.152 L9.361,15.163 C9.02422068,15.3111049 8.63331623,15.2623238 8.34326245,15.0359963 C8.05320866,14.8096687 7.91085615,14.4423518 7.97264118,14.0796702 C8.03442622,13.7169885 8.29036904,13.4175238 8.639,13.3 L26.698,6.3 C27.1771228,6.10073513 27.6910939,5.99875674 28.21,6 C30.2796857,5.98946684 32.0130984,7.56474369 32.2,9.626 C32.2522498,10.4684139 32.4205036,11.2995875 32.7,12.096 L57.893,16.031 C59.243936,16.3471547 60.1475365,17.6204295 60,19 C60.1468698,20.3820143 59.2391508,21.6562544 57.885,21.969 L32.692,25.9 C32.4125935,26.6960929 32.244341,27.5269238 32.192,28.369 C32.0077953,30.4291652 30.2783748,32.0061431 28.21,32 Z" id="Shape" fill="#000000"/><path d="M47,30 C46.4477153,30 46,29.5522847 46,29 L46,22.66 C46,22.1077153 46.4477153,21.66 47,21.66 C47.5522847,21.66 48,22.1077153 48,22.66 L48,29 C48,29.5522847 47.5522847,30 47,30 Z" id="Shape" fill="#000000"/><path d="M47,16.34 C46.4477153,16.34 46,15.8922847 46,15.34 L46,9 C46,8.44771525 46.4477153,8 47,8 C47.5522847,8 48,8.44771525 48,9 L48,15.34 C48,15.8922847 47.5522847,16.34 47,16.34 Z" id="Shape" fill="#000000"/><path d="M43,15.72 C42.4477153,15.72 42,15.2722847 42,14.72 L42,9 C42,8.44771525 42.4477153,8 43,8 C43.5522847,8 44,8.44771525 44,9 L44,14.72 C44,15.2722847 43.5522847,15.72 43,15.72 Z" id="Shape" fill="#000000"/><path d="M43,30 C42.4477153,30 42,29.5522847 42,29 L42,23.28 C42,22.7277153 42.4477153,22.28 43,22.28 C43.5522847,22.28 44,22.7277153 44,23.28 L44,29 C44,29.5522847 43.5522847,30 43,30 Z" id="Shape" fill="#000000"/><path d="M28.21,8 L16.73,8 C16.1777153,8 15.73,7.55228475 15.73,7 C15.73,6.44771525 16.1777153,6 16.73,6 L28.21,6 C28.7622847,6 29.21,6.44771525 29.21,7 C29.21,7.55228475 28.7622847,8 28.21,8 Z" id="Shape" fill="#000000"/><path d="M28.21,32 L16.73,32 C16.1777153,32 15.73,31.5522847 15.73,31 C15.73,30.4477153 16.1777153,30 16.73,30 L28.21,30 C28.7622847,30 29.21,30.4477153 29.21,31 C29.21,31.5522847 28.7622847,32 28.21,32 Z" id="Shape" fill="#000000"/><path d="M27,23 L22,23 C21.4477153,23 21,22.5522847 21,22 L21,16 C21,15.4477153 21.4477153,15 22,15 L27,15 C29.209139,15 31,16.790861 31,19 C31,21.209139 29.209139,23 27,23 Z M23,21 L27,21 C28.1045695,21 29,20.1045695 29,19 C29,17.8954305 28.1045695,17 27,17 L23,17 L23,21 Z" id="Shape" fill="#000000"/><path d="M22,23 C21.9052429,23 21.8109668,22.986532 21.72,22.96 L13.076,20.438 C12.4397803,20.2500531 12.0025825,19.6665069 12.0009673,19.0031089 C11.9993521,18.339711 12.4337031,17.7540428 13.069,17.563 L21.72,15.04 C22.062975,14.9399656 22.4332646,15.030505 22.6913844,15.2775129 C22.9495042,15.5245207 23.0562396,15.8904707 22.9713844,16.2375129 C22.8865292,16.5845551 22.622975,16.8599656 22.28,16.96 L15.287,19 L22.28,21.04 C22.7577444,21.1793421 23.0603279,21.6487726 22.9899495,22.1414214 C22.9195711,22.6340701 22.4976504,23 22,23 Z" id="Shape" fill="#000000"/><path d="M13,13.68 C12.4477153,13.68 12,13.2322847 12,12.68 L12,8 C12,7.44771525 12.4477153,7 13,7 C13.5522847,7 14,7.44771525 14,8 L14,12.68 C14,13.2322847 13.5522847,13.68 13,13.68 Z" id="Shape" fill="#000000"/><path d="M13,31 C12.4477153,31 12,30.5522847 12,30 L12,25.32 C12,24.7677153 12.4477153,24.32 13,24.32 C13.5522847,24.32 14,24.7677153 14,25.32 L14,30 C14,30.5522847 13.5522847,31 13,31 Z" id="Shape" fill="#000000"/><path d="M5,12 C4.44771525,12 4,11.5522847 4,11 L4,10 C4,9.44771525 4.44771525,9 5,9 C5.55228475,9 6,9.44771525 6,10 L6,11 C6,11.5522847 5.55228475,12 5,12 Z" id="Shape" fill="#000000"/><path d="M5,21 C4.44771525,21 4,20.5522847 4,20 L4,15 C4,14.4477153 4.44771525,14 5,14 C5.55228475,14 6,14.4477153 6,15 L6,20 C6,20.5522847 5.55228475,21 5,21 Z" id="Shape" fill="#000000"/></g></g></svg>
