<?xml version="1.0" encoding="UTF-8"?>
<svg xmlns="http://www.w3.org/2000/svg" xmlns:xlink="http://www.w3.org/1999/xlink" width="512" height="512" viewBox="0 0 58 59" version="1.1"><!-- Generator: Sketch 51.3 (57544) - http://www.bohemiancoding.com/sketch --><title>036 - F1 Cars</title><desc>Created with Sketch.</desc><defs/><g id="Page-1" stroke="none" stroke-width="1" fill="none" fill-rule="evenodd"><g id="036---F1-Cars" fill-rule="nonzero"><path d="M37,44 L35,38 C35,37.45 36.55,35 36,35 L36,27 L40,28 C42.01,31.44 43.49,38.04 44,42 L37,44 Z" id="Shape" fill="#2980BA"/><path d="M53,27 L53,35 C52.45,35 54,37.45 54,38 L52,43 L46,43 C46.51,39.04 45.99,33.44 48,30 L53,27 Z" id="Shape" fill="#2980BA"/><path d="M6,53 L4,51 C4,50.45 5.55,47 5,47 L5,39 L10,41 C12.01,44.44 12.49,53.04 13,57 L6,53 Z" id="Shape" fill="#802F34"/><path d="M22,39 L22,47 C21.45,47 23,50.45 23,51 L22,55 L15,57 C15.51,53.04 15.99,45.44 18,42 L22,39 Z" id="Shape" fill="#802F34"/><path d="M41.32,15 L38,15 C37.4477153,15 37,14.5522847 37,14 C37,13.4477153 37.4477153,13 38,13 L41.32,13 C41.8722847,13 42.32,13.4477153 42.32,14 C42.32,14.5522847 41.8722847,15 41.32,15 Z" id="Shape" fill="#7F8C8D"/><path d="M51,15 L47.68,15 C47.1277153,15 46.68,14.5522847 46.68,14 C46.68,13.4477153 47.1277153,13 47.68,13 L51,13 C51.5522847,13 52,13.4477153 52,14 C52,14.5522847 51.5522847,15 51,15 Z" id="Shape" fill="#7F8C8D"/><path d="M10.32,27 L7,27 C6.44771525,27 6,26.5522847 6,26 C6,25.4477153 6.44771525,25 7,25 L10.32,25 C10.8722847,25 11.32,25.4477153 11.32,26 C11.32,26.5522847 10.8722847,27 10.32,27 Z" id="Shape" fill="#7F8C8D"/><path d="M20,27 L16.68,27 C16.1277153,27 15.68,26.5522847 15.68,26 C15.68,25.4477153 16.1277153,25 16.68,25 L20,25 C20.5522847,25 21,25.4477153 21,26 C21,26.5522847 20.5522847,27 20,27 Z" id="Shape" fill="#7F8C8D"/><path d="M6,48 L6,53 L4,55 L1,55 C0.44771525,55 0,54.5522847 0,54 L0,48 C-1.11022302e-16,47.4477153 0.44771525,47 1,47 L5,47 C5.55228475,47 6,47.4477153 6,48 Z" id="Shape" fill="#2C2F38"/><rect id="Rectangle-path" fill="#2C2F38" x="1" y="22" width="6" height="8" rx="1"/><path d="M27,48 L27,54 C27,54.5522847 26.5522847,55 26,55 L23,55 L21,53 L21,48 C21,47.4477153 21.4477153,47 22,47 L26,47 C26.5522847,47 27,47.4477153 27,48 Z" id="Shape" fill="#2C2F38"/><rect id="Rectangle-path" fill="#2C2F38" x="20" y="22" width="6" height="8" rx="1"/><path d="M12.53,18 L12,22 L3,22 L3,19 C3,18.4477153 3.44771525,18 4,18 L12.53,18 Z" id="Shape" fill="#802F34"/><path d="M24,19 L24,22 L15,22 L14.47,18 L23,18 C23.5522847,18 24,18.4477153 24,19 Z" id="Shape" fill="#802F34"/><path d="M18,36 L16.68,26 L16.15,22 L15.62,18 L15.22,15 C15.0930116,14.1479981 14.3614136,13.5173611 13.5,13.5173611 C12.6385864,13.5173611 11.9069884,14.1479981 11.78,15 L11.38,18 L10.85,22 L10.32,26 L9,36 C9,36 5,36 5,39 L6.62,41.78 C8.63190212,45.2264267 9.93093545,49.041912 10.44,53 L16.56,53 C17.0690646,49.041912 18.3680979,45.2264267 20.38,41.78 L22,39 C22,36 18,36 18,36 Z M14.88,42 L12.12,42 C11.8355778,42.0011222 11.564328,41.8802279 11.3750109,41.6679633 C11.1856938,41.4556986 11.0964855,41.172443 11.13,40.89 L11.53,37.42 C11.8130915,36.57251 12.6064788,36.0010494 13.5,36.0010494 C14.3935212,36.0010494 15.1869085,36.57251 15.47,37.42 L15.87,40.89 C15.9035145,41.172443 15.8143062,41.4556986 15.6249891,41.6679633 C15.435672,41.8802279 15.1644222,42.0011222 14.88,42 Z" id="Shape" fill="#E64C3C"/><rect id="Rectangle-path" fill="#FB7B76" x="4" y="53" width="19" height="6" rx="1"/><path d="M15.87,40.89 C15.9035145,41.172443 15.8143062,41.4556986 15.6249891,41.6679633 C15.435672,41.8802279 15.1644222,42.0011222 14.88,42 L12.12,42 C11.8355778,42.0011222 11.564328,41.8802279 11.3750109,41.6679633 C11.1856938,41.4556986 11.0964855,41.172443 11.13,40.89 L11.53,37.42 C11.8130915,36.57251 12.6064788,36.0010494 13.5,36.0010494 C14.3935212,36.0010494 15.1869085,36.57251 15.47,37.42 L15.87,40.89 Z" id="Shape" fill="#802F34"/><rect id="Rectangle-path" fill="#2C2F38" x="32" y="10" width="6" height="8" rx="1"/><path d="M37,36 L37,41 L35,43 L32,43 C31.4477153,43 31,42.5522847 31,42 L31,36 C31,35.4477153 31.4477153,35 32,35 L36,35 C36.5522847,35 37,35.4477153 37,36 Z" id="Shape" fill="#2C2F38"/><path d="M58,36 L58,42 C58,42.5522847 57.5522847,43 57,43 L54,43 L52,41 L52,36 C52,35.4477153 52.4477153,35 53,35 L57,35 C57.5522847,35 58,35.4477153 58,36 Z" id="Shape" fill="#2C2F38"/><rect id="Rectangle-path" fill="#2C2F38" x="51" y="10" width="6" height="8" rx="1"/><path d="M45,6 L44.47,10 L34,10 L34,7 C34,6.44771525 34.4477153,6 35,6 L45,6 Z" id="Shape" fill="#F0C419"/><path d="M55,7 L55,10 L46,10 L45.47,6 L54,6 C54.5522847,6 55,6.44771525 55,7 Z" id="Shape" fill="#F0C419"/><path d="M53,27 L51.38,29.78 C49.3680979,33.2264267 48.0690646,37.041912 47.56,41 L41.44,41 C40.9309354,37.041912 39.6319021,33.2264267 37.62,29.78 L36,27 C36,24 40,24 40,24 L41.85,10 L42.38,6 L42.78,3 C42.9069884,2.14799809 43.6385864,1.51736107 44.5,1.51736107 C45.3614136,1.51736107 46.0930116,2.14799809 46.22,3 L46.62,6 L47.15,10 L49,24 C49,24 53,24 53,27 Z" id="Shape" fill="#3B97D3"/><rect id="Rectangle-path" fill="#67B9CC" x="35" y="41" width="19" height="6" rx="1"/><path d="M43.121,30 C42.8360148,29.999863 42.5646265,29.8781401 42.3749964,29.6654031 C42.1853664,29.4526661 42.0955116,29.1691274 42.128,28.886 L42.528,25.423 C42.8107091,24.5737908 43.6049691,24.0006508 44.5,24 C45.3957672,23.99979 46.1910582,24.5730925 46.474,25.423 L46.874,28.886 C46.9065284,29.1694738 46.8164132,29.4533424 46.6263382,29.66615 C46.4362633,29.8789575 46.1643337,30.0004335 45.879,30 L43.121,30 Z" id="Shape" fill="#2980BA"/><path d="M29,4 C28.4477153,4 28,3.55228475 28,3 L28,1 C28,0.44771525 28.4477153,1.01453063e-16 29,0 C29.5522847,-1.01453063e-16 30,0.44771525 30,1 L30,3 C30,3.55228475 29.5522847,4 29,4 Z" id="Shape" fill="#7F8C8D"/><path d="M29,10 C28.4477153,10 28,9.55228475 28,9 L28,7 C28,6.44771525 28.4477153,6 29,6 C29.5522847,6 30,6.44771525 30,7 L30,9 C30,9.55228475 29.5522847,10 29,10 Z" id="Shape" fill="#7F8C8D"/><path d="M29,16 C28.4477153,16 28,15.5522847 28,15 L28,13 C28,12.4477153 28.4477153,12 29,12 C29.5522847,12 30,12.4477153 30,13 L30,15 C30,15.5522847 29.5522847,16 29,16 Z" id="Shape" fill="#7F8C8D"/><path d="M29,22 C28.4477153,22 28,21.5522847 28,21 L28,19 C28,18.4477153 28.4477153,18 29,18 C29.5522847,18 30,18.4477153 30,19 L30,21 C30,21.5522847 29.5522847,22 29,22 Z" id="Shape" fill="#7F8C8D"/><path d="M29,28 C28.4477153,28 28,27.5522847 28,27 L28,25 C28,24.4477153 28.4477153,24 29,24 C29.5522847,24 30,24.4477153 30,25 L30,27 C30,27.5522847 29.5522847,28 29,28 Z" id="Shape" fill="#7F8C8D"/><path d="M29,34 C28.4477153,34 28,33.5522847 28,33 L28,31 C28,30.4477153 28.4477153,30 29,30 C29.5522847,30 30,30.4477153 30,31 L30,33 C30,33.5522847 29.5522847,34 29,34 Z" id="Shape" fill="#7F8C8D"/><path d="M39,59 C38.4477153,59 38,58.5522847 38,58 L38,53 C38,52.4477153 38.4477153,52 39,52 C39.5522847,52 40,52.4477153 40,53 L40,58 C40,58.5522847 39.5522847,59 39,59 Z" id="Shape" fill="#7F8C8D"/><path d="M50,59 C49.4477153,59 49,58.5522847 49,58 L49,53 C49,52.4477153 49.4477153,52 50,52 C50.5522847,52 51,52.4477153 51,53 L51,58 C51,58.5522847 50.5522847,59 50,59 Z" id="Shape" fill="#7F8C8D"/><path d="M43,55 C42.4477153,55 42,54.5522847 42,54 L42,51 C42,50.4477153 42.4477153,50 43,50 C43.5522847,50 44,50.4477153 44,51 L44,54 C44,54.5522847 43.5522847,55 43,55 Z" id="Shape" fill="#7F8C8D"/><path d="M46,55 C45.4477153,55 45,54.5522847 45,54 L45,51 C45,50.4477153 45.4477153,50 46,50 C46.5522847,50 47,50.4477153 47,51 L47,54 C47,54.5522847 46.5522847,55 46,55 Z" id="Shape" fill="#7F8C8D"/></g></g></svg>
